%FSTAX24Y24*%
%MOIN*%
%IN AUX13.GBR *%
%ADD10C,0.0029*%
%ADD11C,0.0056*%
D11*X000478Y003588D02*G01X000422Y003645D01*X000309D01*
X000253Y003588D01*Y003363D01*X000309Y003307D01*X000422D01*
X000478Y003363D01*Y003448D01*X000422Y003504D01*X000309D01*
X000253Y003448D01*X000816Y003645D02*X000591D01*Y003476D01*
X000647Y003532D01*X000759D01*X000816Y003476D01*Y003363D01*
X000759Y003307D01*X000647D01*X000591Y003363D01*X001012Y003307D02*
X00104D01*Y003335D01*X001012D01*Y003307D01*X00149Y003645D02*X001265D01*
Y003476D01*X001322Y003532D01*X001434D01*X00149Y003476D01*Y003363D01*
X001434Y003307D01*X001322D01*X001265Y003363D01*X001708Y003307D02*
Y003462D01*X001761Y003532D01*X001814Y003462D01*Y003307D01*
X001603Y003462D02*X001655Y003532D01*X001708Y003462D01*X001603Y00356D02*
Y003307D01*X002046D02*Y003462D01*X002098Y003532D01*X002151Y003462D01*
Y003307D01*X00194Y003462D02*X001993Y003532D01*X002046Y003462D01*
X00194Y00356D02*Y003307D01*X002672D02*Y003645D01*X002953Y003377D02*
Y003462D01*X003023Y003532D01*X003093D01*X003164Y003462D01*Y003377D01*
X003093Y003307D01*X003023D01*X002953Y003377D01*X00329Y00356D02*
Y003307D01*Y003462D02*X003361Y003532D01*X003431D01*X003501Y003462D01*
Y003307D01*X003839Y003377D02*X003768Y003307D01*X003698D01*
X003628Y003377D01*Y003476D01*X003698Y003532D01*X003768D01*
X003839Y003462D01*Y003251D01*X003768Y003181D01*X003698D01*
X003628Y003223D01*X004303Y003645D02*Y003307D01*Y003377D02*
X004373Y003307D01*X004443D01*X004514Y003377D01*Y003462D01*
X004443Y003532D01*X004373D01*X004303Y003476D01*X00464Y003532D02*
X004668D01*X004767Y003307D01*X004851Y003532D02*Y003504D01*
X00471Y003181D01*X004682D01*X005371Y003588D02*X005427Y003645D01*
Y003307D01*X005484D01*X005427D02*X005371D01*X005652Y003588D02*
X005709Y003645D01*X005821D01*X005877Y003588D01*Y003532D01*
X005821Y003476D01*X005652Y003363D01*Y003307D01*X005877D01*X006074D02*
X006102D01*Y003335D01*X006074D01*Y003307D01*X006496Y003476D02*
X006552Y003532D01*Y003588D01*X006496Y003645D01*X006384D01*
X006327Y003588D01*Y003532D01*X006384Y003476D01*X006496D01*
X006552Y00342D01*Y003363D01*X006496Y003307D01*X006384D01*
X006327Y003363D01*Y00342D01*X006384Y003476D01*X007108Y003307D02*
Y003462D01*X00716Y003532D01*X007213Y003462D01*Y003307D01*
X007002Y003462D02*X007055Y003532D01*X007107Y003462D01*X007002Y00356D02*
Y003307D01*X007445D02*Y003462D01*X007498Y003532D01*X007551Y003462D01*
Y003307D01*X00734Y003462D02*X007392Y003532D01*X007445Y003462D01*
X00734Y00356D02*Y003307D01*X008015Y003532D02*Y003363D01*
X008057Y003307D01*X008085D01*X008127Y003363D01*X008169Y003307D01*
X008197D01*X00824Y003363D01*Y003532D01*X008127Y003363D02*Y00349D01*
X008458Y003525D02*Y003307D01*Y003616D02*Y003623D01*X008788Y003645D02*
Y003307D01*Y003462D02*X008718Y003532D01*X008647D01*X008577Y003476D01*
Y003377D01*X008647Y003307D01*X008718D01*X008788Y003377D01*
X008915Y003434D02*X009125D01*Y003462D01*X009055Y003532D01*X008985D01*
X008915Y003476D01*Y003377D01*Y003363D01*X008971Y003307D01*X009083D01*
X009125Y003335D01*X009336Y003307D02*X009364D01*X009322Y003265D01*
X00935Y003321D01*X009364Y003307D02*Y003335D01*X009336D01*Y003307D01*
X010152Y003588D02*X010096Y003645D01*X009983D01*X009927Y003588D01*
Y003363D01*X009983Y003307D01*X010096D01*X010152Y003363D01*Y003448D01*
X010096Y003504D01*X009983D01*X009927Y003448D01*X010264Y003645D02*
X010489D01*X010321Y003307D01*X010686D02*X010714D01*Y003335D01*
X010686D01*Y003307D01*X010939Y003588D02*X010996Y003645D01*X011108D01*
X011164Y003588D01*Y003532D01*X011108Y003476D01*X011164Y00342D01*
Y003363D01*X011108Y003307D01*X010996D01*X010939Y003363D01*
X011108Y003476D02*X011052D01*X011382Y003307D02*Y003462D01*
X011435Y003532D01*X011488Y003462D01*Y003307D01*X011277Y003462D02*
X011329Y003532D01*X011382Y003462D01*X011277Y00356D02*Y003307D01*
X01172D02*Y003462D01*X011772Y003532D01*X011825Y003462D01*Y003307D01*
X011614Y003462D02*X011667Y003532D01*X011719Y003462D01*X011614Y00356D02*
Y003307D01*X012345D02*Y003645D01*X012627Y003377D02*Y003462D01*
X012697Y003532D01*X012767D01*X012837Y003462D01*Y003377D01*
X012767Y003307D01*X012697D01*X012627Y003377D01*X012964Y00356D02*
Y003307D01*Y003462D02*X013034Y003532D01*X013105D01*X013175Y003462D01*
Y003307D01*X013512Y003377D02*X013442Y003307D01*X013372D01*
X013301Y003377D01*Y003476D01*X013372Y003532D01*X013442D01*
X013512Y003462D01*Y003251D01*X013442Y003181D01*X013372D01*
X013301Y003223D01*X013976Y003532D02*Y003363D01*X014019Y003307D01*
X014047D01*X014089Y003363D01*X014131Y003307D01*X014159D01*
X014201Y003363D01*Y003532D01*X014089Y003363D02*Y00349D01*
X014419Y003525D02*Y003307D01*Y003616D02*Y003623D01*X014595Y003588D02*
Y003335D01*X014623Y003307D01*X014665D01*X014693Y003335D01*
X014539Y003532D02*X014651D01*X014876Y003645D02*Y003307D01*Y003476D02*
X014947Y003532D01*X015017D01*X015087Y003462D01*Y003307D01*
X015551Y003645D02*Y003363D01*X015607Y003307D01*X01572D01*
X015776Y003363D01*Y003645D01*X016114Y003588D02*X016057Y003645D01*
X015945D01*X015889Y003588D01*Y003532D01*X015945Y003476D01*X016057D01*
X016114Y00342D01*Y003363D01*X016057Y003307D01*X015945D01*
X015889Y003363D01*X016226Y003307D02*Y003645D01*X016395D01*
X016451Y003588D01*Y003532D01*X016395Y003476D01*X016451Y00342D01*
Y003363D01*X016395Y003307D01*X016226D01*X016395Y003476D02*X016226D01*
X017056Y003532D02*Y003504D01*X017014Y003532D01*X016999D01*
X016971Y003518D01*X016929Y003476D01*X016901Y003406D01*Y003377D01*
X016915Y003335D01*X016971Y003307D01*X017042D01*X017112Y003349D01*
X017238Y003377D02*Y003462D01*X017309Y003532D01*X017379D01*
X017449Y003462D01*Y003377D01*X017379Y003307D01*X017309D01*
X017238Y003377D01*X017576Y00356D02*Y003307D01*Y003462D02*
X017646Y003532D01*X017717D01*X017787Y003462D01*Y003307D01*
X017913Y00356D02*Y003307D01*Y003462D02*X017984Y003532D01*X018054D01*
X018124Y003462D01*Y003307D01*X018251Y003434D02*X018462D01*Y003462D01*
X018391Y003532D01*X018321D01*X018251Y003476D01*Y003377D01*Y003363D01*
X018307Y003307D01*X01842D01*X018462Y003335D01*X018743Y003532D02*
Y003504D01*X018701Y003532D01*X018687D01*X018659Y003518D01*
X018616Y003476D01*X018588Y003406D01*Y003377D01*X018602Y003335D01*
X018659Y003307D01*X018729D01*X018799Y003349D01*X018982Y003588D02*
Y003335D01*X01901Y003307D01*X019052D01*X01908Y003335D01*
X018926Y003532D02*X019038D01*X019263Y003377D02*Y003462D01*
X019334Y003532D01*X019404D01*X019474Y003462D01*Y003377D01*
X019404Y003307D01*X019334D01*X019263Y003377D01*X019601Y00356D02*
Y003307D01*X019812Y00349D02*X019741Y003532D01*X019671D01*
X019601Y00349D01*X000517Y002576D02*Y002801D01*X000461Y002857D01*
X000349D01*X000292Y002801D01*Y002576D01*X000349Y00252D01*X000461D01*
X000517Y002576D01*X000405Y002632D02*X000517Y00252D01*X00063Y002857D02*
X000686Y00252D01*X000742Y002857D01*X000799Y00252D01*X000855Y002857D01*
X001024Y00252D02*Y002857D01*X001249Y00252D02*Y002857D01*
X001642Y002801D02*X001586Y002857D01*X001474D01*X001417Y002801D01*
Y002576D01*X001474Y00252D01*X001586D01*X001642Y002576D01*
X001839Y00252D02*X001867D01*X001825Y002478D01*X001853Y002534D01*
X001867Y00252D02*Y002548D01*X001839D01*Y00252D01*X00243D02*Y002857D01*
X002598D01*X002655Y002801D01*Y002745D01*X002598Y002688D01*X00243D01*
X002936Y00252D02*Y002857D01*X002767Y00266D01*X002992D01*
X003189Y00252D02*X003217D01*X003175Y002478D01*X003203Y002534D01*
X003217Y00252D02*Y002548D01*X003189D01*Y00252D01*X004004Y002632D02*
X003906Y00252D01*X00385D01*X003808Y002562D01*X00378Y002604D01*
Y002632D01*X003794Y002674D01*X003892Y002801D01*Y002829D01*
X003864Y002857D01*X003836D01*X003808Y002829D01*Y002787D01*
X004004Y00252D01*X004454D02*Y002857D01*X004623D01*X004679Y002801D01*
Y002745D01*X004623Y002688D01*X004454D01*X005017Y002857D02*X004792D01*
Y002688D01*X004848Y002745D01*X004961D01*X005017Y002688D01*Y002576D01*
X004961Y00252D01*X004848D01*X004792Y002576D01*X005621Y002745D02*
Y002717D01*X005579Y002745D01*X005565D01*X005537Y002731D01*
X005495Y002688D01*X005467Y002618D01*Y00259D01*X005481Y002548D01*
X005537Y00252D01*X005607D01*X005678Y002562D01*X005804Y00259D02*
Y002674D01*X005875Y002745D01*X005945D01*X006015Y002674D01*Y00259D01*
X005945Y00252D01*X005875D01*X005804Y00259D01*X006142Y002773D02*
Y00252D01*Y002674D02*X006212Y002745D01*X006282D01*X006353Y002674D01*
Y00252D01*X006479Y002773D02*Y00252D01*Y002674D02*X006549Y002745D01*
X00662D01*X00669Y002674D01*Y00252D01*X006817Y002646D02*X007028D01*
Y002674D01*X006957Y002745D01*X006887D01*X006817Y002688D01*Y00259D01*
Y002576D01*X006873Y00252D01*X006985D01*X007028Y002548D01*
X007309Y002745D02*Y002717D01*X007267Y002745D01*X007253D01*
X007224Y002731D01*X007182Y002688D01*X007154Y002618D01*Y00259D01*
X007168Y002548D01*X007224Y00252D01*X007295D01*X007365Y002562D01*
X007548Y002801D02*Y002548D01*X007576Y00252D01*X007618D01*
X007646Y002548D01*X007492Y002745D02*X007604D01*X007829Y00259D02*
Y002674D01*X007899Y002745D01*X00797D01*X00804Y002674D01*Y00259D01*
X00797Y00252D01*X007899D01*X007829Y00259D01*X008166Y002773D02*
Y00252D01*X008377Y002702D02*X008307Y002745D01*X008237D01*
X008166Y002702D01*X008645Y00252D02*X008574D01*X008504Y002548D02*
X008532Y00252D01*X008687D01*X008715Y002548D01*Y002604D01*
X008687Y002632D01*X008532D01*X008504Y00266D01*Y002717D01*
X008532Y002745D01*X008687D01*X008715Y002717D01*X009334Y002745D02*
Y002717D01*X009291Y002745D01*X009277D01*X009249Y002731D01*
X009207Y002688D01*X009179Y002618D01*Y00259D01*X009193Y002548D01*
X009249Y00252D01*X009319D01*X00939Y002562D01*X009741Y00252D02*
Y002745D01*X009516Y002593D02*X009536Y002663D01*X009567Y002711D01*
X009606Y002736D01*X009634Y002745D01*X009657D01*X009696D01*
X009741Y002722D01*X009516Y00259D02*Y002573D01*X009519Y002562D01*
X009528Y002548D01*X009547Y002537D01*X009587Y00252D01*X009648D01*
X009708Y002545D01*X009741Y002576D01*X009854Y002773D02*Y00252D01*
Y002674D02*X009924Y002745D01*X009994D01*X010065Y002674D01*Y00252D01*
X010304Y002843D02*X010318Y002829D01*X010276Y002773D01*
X010304Y002843D01*X010585Y002801D02*Y002548D01*X010613Y00252D01*
X010655D01*X010683Y002548D01*X010529Y002745D02*X010641D01*
X011288Y00252D02*Y002829D01*X011316Y002857D01*X011372D01*
X0114Y002829D01*Y002815D01*X011232Y002688D02*X011344D01*
X011647Y002738D02*Y00252D01*Y002829D02*Y002836D01*X011822Y002801D02*
Y002548D01*X01185Y00252D01*X011893D01*X011921Y002548D01*
X011766Y002745D02*X011879D01*X012546Y002738D02*Y00252D01*Y002829D02*
Y002836D01*X012666Y002773D02*Y00252D01*Y002674D02*X012736Y002745D01*
X012807D01*X012877Y002674D01*Y00252D01*X013341D02*Y002857D01*X01351D01*
X013566Y002801D01*Y002745D01*X01351Y002688D01*X013566Y002632D01*
Y002576D01*X01351Y00252D01*X013341D01*X01351Y002688D02*X013341D01*
X013791Y00252D02*Y002857D01*X013903D01*X013791D02*X013678D01*
X014016Y002688D02*X014241D01*X014578Y002857D02*X014353D01*Y002688D01*
X014409Y002745D01*X014522D01*X014578Y002688D01*Y002576D01*
X014522Y00252D01*X014409D01*X014353Y002576D01*D10*X000312Y009403D02*
Y00926D01*X00034Y009231D01*X000397D01*X000426Y00926D01*Y009403D01*
X000597Y009374D02*X000569Y009403D01*X000512D01*X000483Y009374D01*
Y009346D01*X000512Y009317D01*X000569D01*X000597Y009289D01*Y00926D01*
X000569Y009231D01*X000512D01*X000483Y00926D01*X000654Y009231D02*
Y009403D01*X00074D01*X000769Y009374D01*Y009346D01*X00074Y009317D01*
X000769Y009289D01*Y00926D01*X00074Y009231D01*X000654D01*
X00074Y009317D02*X000654D01*X000826Y009231D02*Y009403D01*
X000883Y009317D01*X00094Y009403D01*Y009231D01*X001169Y009317D02*
X001283D01*X001512Y00926D02*X00154Y009231D01*X001597D01*
X001626Y00926D01*Y009374D01*X001597Y009403D01*X00154D01*
X001512Y009374D01*Y009331D01*X00154Y009303D01*X001597D01*
X001626Y009331D01*X001797Y009374D02*X001769Y009403D01*X001712D01*
X001683Y009374D01*Y00926D01*X001712Y009231D01*X001769D01*
X001797Y00926D01*Y009303D01*X001769Y009331D01*X001712D01*
X001683Y009303D01*X001908Y009231D02*Y00931D01*X001935Y009346D01*
X001962Y00931D01*Y009231D01*X001854Y00931D02*X001881Y009346D01*
X001908Y00931D01*X001854Y00936D02*Y009231D01*X002079Y009342D02*
Y009231D01*Y009389D02*Y009392D01*X002169Y009231D02*Y009403D01*
X002483Y009317D02*X002597D01*X00254Y009374D02*Y00926D01*
X002997Y009374D02*X003026Y009403D01*X003083D01*X003112Y009374D01*
Y009346D01*X003083Y009317D01*X002997Y00926D01*Y009231D01*X003112D01*
X003169Y009374D02*X003197Y009403D01*X003254D01*X003283Y009374D01*
Y009346D01*X003254Y009317D01*X003169Y00926D01*Y009231D01*X003283D01*
X003426D02*Y009403D01*X00334Y009303D01*X003454D01*X003554Y009231D02*
X003569D01*Y009246D01*X003554D01*Y009231D01*X003797Y009403D02*
X003683D01*Y009317D01*X003712Y009346D01*X003769D01*X003797Y009317D01*
Y00926D01*X003769Y009231D01*X003712D01*X003683Y00926D01*
X003908Y009231D02*Y00931D01*X003935Y009346D01*X003962Y00931D01*
Y009231D01*X003854Y00931D02*X003881Y009346D01*X003908Y00931D01*
X003854Y00936D02*Y009231D01*X004079Y009342D02*Y009231D01*Y009389D02*
Y009392D01*X004169Y009231D02*Y009403D01*X004483Y009289D02*X004597D01*
X004483Y009339D02*X004597D01*X004826Y009374D02*X004854Y009403D01*
X004912D01*X00494Y009374D01*Y009346D01*X004912Y009317D01*
X00494Y009289D01*Y00926D01*X004912Y009231D01*X004854D01*
X004826Y00926D01*X004912Y009317D02*X004883D01*X004997Y009374D02*
X005026Y009403D01*X005083D01*X005112Y009374D01*Y009346D01*
X005083Y009317D01*X004997Y00926D01*Y009231D01*X005112D01*
X005283Y009374D02*X005254Y009403D01*X005197D01*X005169Y009374D01*
Y00926D01*X005197Y009231D01*X005254D01*X005283Y00926D01*Y009374D01*
X005226Y009346D02*Y009289D01*X005383Y009231D02*X005397D01*Y009246D01*
X005383D01*Y009231D01*X005626Y009403D02*X005512D01*Y009317D01*
X00554Y009346D01*X005597D01*X005626Y009317D01*Y00926D01*
X005597Y009231D01*X00554D01*X005512Y00926D01*X000312Y009703D02*
Y00956D01*X00034Y009531D01*X000397D01*X000426Y00956D01*Y009703D01*
X000597Y009674D02*X000569Y009703D01*X000512D01*X000483Y009674D01*
Y009646D01*X000512Y009617D01*X000569D01*X000597Y009589D01*Y00956D01*
X000569Y009531D01*X000512D01*X000483Y00956D01*X000654Y009531D02*
Y009703D01*X00074D01*X000769Y009674D01*Y009646D01*X00074Y009617D01*
X000769Y009589D01*Y00956D01*X00074Y009531D01*X000654D01*
X00074Y009617D02*X000654D01*X000826Y009531D02*Y009703D01*X000912D01*
X00094Y009674D01*Y009646D01*X000912Y009617D01*X000826D01*X001169D02*
X001283D01*X001626Y009703D02*X001512D01*Y009617D01*X00154Y009646D01*
X001597D01*X001626Y009617D01*Y00956D01*X001597Y009531D01*X00154D01*
X001512Y00956D01*X001683Y009703D02*X001797D01*X001712Y009531D01*
X001908D02*Y00961D01*X001935Y009646D01*X001962Y00961D01*Y009531D01*
X001854Y00961D02*X001881Y009646D01*X001908Y00961D01*X001854Y00966D02*
Y009531D01*X00208Y009642D02*Y009531D01*Y009689D02*Y009692D01*
X002169Y009531D02*Y009703D01*X002483Y009617D02*X002597D01*
X00254Y009674D02*Y00956D01*X002997Y009674D02*X003026Y009703D01*
X003083D01*X003112Y009674D01*Y009646D01*X003083Y009617D01*
X002997Y00956D01*Y009531D01*X003112D01*X003169Y00956D02*
X003197Y009531D01*X003254D01*X003283Y00956D01*Y009674D01*
X003254Y009703D01*X003197D01*X003169Y009674D01*Y009631D01*
X003197Y009603D01*X003254D01*X003283Y009631D01*X003426Y009617D02*
X003454Y009646D01*Y009674D01*X003426Y009703D01*X003369D01*
X00334Y009674D01*Y009646D01*X003369Y009617D01*X003426D01*
X003454Y009589D01*Y00956D01*X003426Y009531D01*X003369D01*
X00334Y00956D01*Y009589D01*X003369Y009617D01*X003554Y009531D02*
X003569D01*Y009546D01*X003554D01*Y009531D01*X003683Y009674D02*
X003712Y009703D01*X003769D01*X003797Y009674D01*Y009646D01*
X003769Y009617D01*X003797Y009589D01*Y00956D01*X003769Y009531D01*
X003712D01*X003683Y00956D01*X003769Y009617D02*X00374D01*
X004026Y009589D02*X00414D01*X004026Y009639D02*X00414D01*
X00454Y009674D02*X004569Y009703D01*X004626D01*X004654Y009674D01*
Y009646D01*X004626Y009617D01*X004654Y009589D01*Y00956D01*
X004626Y009531D01*X004569D01*X00454Y00956D01*X004626Y009617D02*
X004597D01*X004826Y009703D02*X004712D01*Y009617D01*X00474Y009646D01*
X004797D01*X004826Y009617D01*Y00956D01*X004797Y009531D01*X00474D01*
X004712Y00956D01*X004997Y009703D02*X004883D01*Y009617D01*
X004912Y009646D01*X004969D01*X004997Y009617D01*Y00956D01*
X004969Y009531D01*X004912D01*X004883Y00956D01*X005097Y009531D02*
X005112D01*Y009546D01*X005097D01*Y009531D01*X005226Y009674D02*
X005254Y009703D01*X005312D01*X00534Y009674D01*Y009646D01*
X005312Y009617D01*X00534Y009589D01*Y00956D01*X005312Y009531D01*
X005254D01*X005226Y00956D01*X005312Y009617D02*X005283D01*D11*
X000478Y008628D02*X000422Y008684D01*X000309D01*X000253Y008628D01*
Y008403D01*X000309Y008346D01*X000422D01*X000478Y008403D01*Y008487D01*
X000422Y008543D01*X000309D01*X000253Y008487D01*X000816Y008684D02*
X000591D01*Y008515D01*X000647Y008571D01*X000759D01*X000816Y008515D01*
Y008403D01*X000759Y008346D01*X000647D01*X000591Y008403D01*
X001012Y008346D02*X00104D01*Y008375D01*X001012D01*Y008346D01*
X00149Y008684D02*X001265D01*Y008515D01*X001322Y008571D01*X001434D01*
X00149Y008515D01*Y008403D01*X001434Y008346D01*X001322D01*
X001265Y008403D01*X001708Y008346D02*Y008501D01*X001761Y008571D01*
X001814Y008501D01*Y008346D01*X001603Y008501D02*X001655Y008571D01*
X001708Y008501D01*X001603Y0086D02*Y008346D01*X002046D02*Y008501D01*
X002098Y008571D01*X002151Y008501D01*Y008346D01*X00194Y008501D02*
X001993Y008571D01*X002046Y008501D01*X00194Y0086D02*Y008346D01*
X002672D02*Y008684D01*X002953Y008417D02*Y008501D01*X003023Y008571D01*
X003093D01*X003164Y008501D01*Y008417D01*X003093Y008346D01*X003023D01*
X002953Y008417D01*X00329Y0086D02*Y008346D01*Y008501D02*
X003361Y008571D01*X003431D01*X003501Y008501D01*Y008346D01*
X003839Y008417D02*X003768Y008346D01*X003698D01*X003628Y008417D01*
Y008515D01*X003698Y008571D01*X003768D01*X003839Y008501D01*Y00829D01*
X003768Y00822D01*X003698D01*X003628Y008262D01*X004303Y008684D02*
Y008346D01*Y008417D02*X004373Y008346D01*X004443D01*X004514Y008417D01*
Y008501D01*X004443Y008571D01*X004373D01*X004303Y008515D01*
X00464Y008571D02*X004668D01*X004767Y008346D01*X004851Y008571D02*
Y008543D01*X00471Y00822D01*X004682D01*X005371Y008628D02*
X005427Y008684D01*Y008346D01*X005484D01*X005427D02*X005371D01*
X005652Y008628D02*X005709Y008684D01*X005821D01*X005877Y008628D01*
Y008571D01*X005821Y008515D01*X005652Y008403D01*Y008346D01*X005877D01*
X006074D02*X006102D01*Y008375D01*X006074D01*Y008346D01*
X006496Y008515D02*X006552Y008571D01*Y008628D01*X006496Y008684D01*
X006384D01*X006327Y008628D01*Y008571D01*X006384Y008515D01*X006496D01*
X006552Y008459D01*Y008403D01*X006496Y008346D01*X006384D01*
X006327Y008403D01*Y008459D01*X006384Y008515D01*X007108Y008346D02*
Y008501D01*X00716Y008571D01*X007213Y008501D01*Y008346D01*
X007002Y008501D02*X007055Y008571D01*X007107Y008501D01*X007002Y0086D02*
Y008346D01*X007445D02*Y008501D01*X007498Y008571D01*X007551Y008501D01*
Y008346D01*X00734Y008501D02*X007392Y008571D01*X007445Y008501D01*
X00734Y0086D02*Y008346D01*X008015Y008571D02*Y008403D01*
X008057Y008346D01*X008085D01*X008127Y008403D01*X008169Y008346D01*
X008197D01*X00824Y008403D01*Y008571D01*X008127Y008403D02*Y008529D01*
X008458Y008564D02*Y008346D01*Y008656D02*Y008663D01*X008788Y008684D02*
Y008346D01*Y008501D02*X008718Y008571D01*X008647D01*X008577Y008515D01*
Y008417D01*X008647Y008346D01*X008718D01*X008788Y008417D01*
X008915Y008473D02*X009125D01*Y008501D01*X009055Y008571D01*X008985D01*
X008915Y008515D01*Y008417D01*Y008403D01*X008971Y008346D01*X009083D01*
X009125Y008375D01*X009336Y008346D02*X009364D01*X009322Y008304D01*
X00935Y008361D01*X009364Y008346D02*Y008375D01*X009336D01*Y008346D01*
X010152Y008628D02*X010096Y008684D01*X009983D01*X009927Y008628D01*
Y008403D01*X009983Y008346D01*X010096D01*X010152Y008403D01*Y008487D01*
X010096Y008543D01*X009983D01*X009927Y008487D01*X010264Y008684D02*
X010489D01*X010321Y008346D01*X010686D02*X010714D01*Y008375D01*
X010686D01*Y008346D01*X010939Y008628D02*X010996Y008684D01*X011108D01*
X011164Y008628D01*Y008571D01*X011108Y008515D01*X011164Y008459D01*
Y008403D01*X011108Y008346D01*X010996D01*X010939Y008403D01*
X011108Y008515D02*X011052D01*X011382Y008346D02*Y008501D01*
X011435Y008571D01*X011488Y008501D01*Y008346D01*X011277Y008501D02*
X011329Y008571D01*X011382Y008501D01*X011277Y0086D02*Y008346D01*
X01172D02*Y008501D01*X011772Y008571D01*X011825Y008501D01*Y008346D01*
X011614Y008501D02*X011667Y008571D01*X011719Y008501D01*X011614Y0086D02*
Y008346D01*X012345D02*Y008684D01*X012627Y008417D02*Y008501D01*
X012697Y008571D01*X012767D01*X012837Y008501D01*Y008417D01*
X012767Y008346D01*X012697D01*X012627Y008417D01*X012964Y0086D02*
Y008346D01*Y008501D02*X013034Y008571D01*X013105D01*X013175Y008501D01*
Y008346D01*X013512Y008417D02*X013442Y008346D01*X013372D01*
X013301Y008417D01*Y008515D01*X013372Y008571D01*X013442D01*
X013512Y008501D01*Y00829D01*X013442Y00822D01*X013372D01*
X013301Y008262D01*X013976Y008571D02*Y008403D01*X014019Y008346D01*
X014047D01*X014089Y008403D01*X014131Y008346D01*X014159D01*
X014201Y008403D01*Y008571D01*X014089Y008403D02*Y008529D01*
X014419Y008564D02*Y008346D01*Y008656D02*Y008663D01*X014595Y008628D02*
Y008375D01*X014623Y008346D01*X014665D01*X014693Y008375D01*
X014539Y008571D02*X014651D01*X014876Y008684D02*Y008346D01*Y008515D02*
X014947Y008571D01*X015017D01*X015087Y008501D01*Y008346D01*
X015551Y008684D02*Y008403D01*X015607Y008346D01*X01572D01*
X015776Y008403D01*Y008684D01*X016114Y008628D02*X016057Y008684D01*
X015945D01*X015889Y008628D01*Y008571D01*X015945Y008515D01*X016057D01*
X016114Y008459D01*Y008403D01*X016057Y008346D01*X015945D01*
X015889Y008403D01*X016226Y008346D02*Y008684D01*X016395D01*
X016451Y008628D01*Y008571D01*X016395Y008515D01*X016451Y008459D01*
Y008403D01*X016395Y008346D01*X016226D01*X016395Y008515D02*X016226D01*
X017056Y008571D02*Y008543D01*X017014Y008571D01*X016999D01*
X016971Y008557D01*X016929Y008515D01*X016901Y008445D01*Y008417D01*
X016915Y008375D01*X016971Y008346D01*X017042D01*X017112Y008389D01*
X017238Y008417D02*Y008501D01*X017309Y008571D01*X017379D01*
X017449Y008501D01*Y008417D01*X017379Y008346D01*X017309D01*
X017238Y008417D01*X017576Y0086D02*Y008346D01*Y008501D02*
X017646Y008571D01*X017717D01*X017787Y008501D01*Y008346D01*
X017913Y0086D02*Y008346D01*Y008501D02*X017984Y008571D01*X018054D01*
X018124Y008501D01*Y008346D01*X018251Y008473D02*X018462D01*Y008501D01*
X018391Y008571D01*X018321D01*X018251Y008515D01*Y008417D01*Y008403D01*
X018307Y008346D01*X01842D01*X018462Y008375D01*X018743Y008571D02*
Y008543D01*X018701Y008571D01*X018687D01*X018659Y008557D01*
X018616Y008515D01*X018588Y008445D01*Y008417D01*X018602Y008375D01*
X018659Y008346D01*X018729D01*X018799Y008389D01*X018982Y008628D02*
Y008375D01*X01901Y008346D01*X019052D01*X01908Y008375D01*
X018926Y008571D02*X019038D01*X019263Y008417D02*Y008501D01*
X019334Y008571D01*X019404D01*X019474Y008501D01*Y008417D01*
X019404Y008346D01*X019334D01*X019263Y008417D01*X019601Y0086D02*
Y008346D01*X019812Y008529D02*X019741Y008571D01*X019671D01*
X019601Y008529D01*X000517Y007615D02*Y00784D01*X000461Y007897D01*
X000349D01*X000292Y00784D01*Y007615D01*X000349Y007559D01*X000461D01*
X000517Y007615D01*X000405Y007672D02*X000517Y007559D01*X00063Y007897D02*
X000686Y007559D01*X000742Y007897D01*X000799Y007559D01*
X000855Y007897D01*X001024Y007559D02*Y007897D01*X001249Y007559D02*
Y007897D01*X001642Y00784D02*X001586Y007897D01*X001474D01*
X001417Y00784D01*Y007615D01*X001474Y007559D01*X001586D01*
X001642Y007615D01*X001839Y007559D02*X001867D01*X001825Y007517D01*
X001853Y007573D01*X001867Y007559D02*Y007587D01*X001839D01*Y007559D01*
X00243D02*Y007897D01*X002598D01*X002655Y00784D01*Y007784D01*
X002598Y007728D01*X00243D01*X002936Y007559D02*Y007897D01*
X002767Y0077D01*X002992D01*X003189Y007559D02*X003217D01*
X003175Y007517D01*X003203Y007573D01*X003217Y007559D02*Y007587D01*
X003189D01*Y007559D01*X004004Y007672D02*X003906Y007559D01*X00385D01*
X003808Y007601D01*X00378Y007643D01*Y007672D01*X003794Y007714D01*
X003892Y00784D01*Y007868D01*X003864Y007897D01*X003836D01*
X003808Y007868D01*Y007826D01*X004004Y007559D01*X004454D02*Y007897D01*
X004623D01*X004679Y00784D01*Y007784D01*X004623Y007728D01*X004454D01*
X005017Y007897D02*X004792D01*Y007728D01*X004848Y007784D01*X004961D01*
X005017Y007728D01*Y007615D01*X004961Y007559D01*X004848D01*
X004792Y007615D01*X005621Y007784D02*Y007756D01*X005579Y007784D01*
X005565D01*X005537Y00777D01*X005495Y007728D01*X005467Y007657D01*
Y007629D01*X005481Y007587D01*X005537Y007559D01*X005607D01*
X005678Y007601D01*X005804Y007629D02*Y007714D01*X005875Y007784D01*
X005945D01*X006015Y007714D01*Y007629D01*X005945Y007559D01*X005875D01*
X005804Y007629D01*X006142Y007812D02*Y007559D01*Y007714D02*
X006212Y007784D01*X006282D01*X006353Y007714D01*Y007559D01*
X006479Y007812D02*Y007559D01*Y007714D02*X006549Y007784D01*X00662D01*
X00669Y007714D01*Y007559D01*X006817Y007686D02*X007028D01*Y007714D01*
X006957Y007784D01*X006887D01*X006817Y007728D01*Y007629D01*Y007615D01*
X006873Y007559D01*X006985D01*X007028Y007587D01*X007309Y007784D02*
Y007756D01*X007267Y007784D01*X007253D01*X007224Y00777D01*
X007182Y007728D01*X007154Y007657D01*Y007629D01*X007168Y007587D01*
X007224Y007559D01*X007295D01*X007365Y007601D01*X007548Y00784D02*
Y007587D01*X007576Y007559D01*X007618D01*X007646Y007587D01*
X007492Y007784D02*X007604D01*X007829Y007629D02*Y007714D01*
X007899Y007784D01*X00797D01*X00804Y007714D01*Y007629D01*
X00797Y007559D01*X007899D01*X007829Y007629D01*X008166Y007812D02*
Y007559D01*X008377Y007742D02*X008307Y007784D01*X008237D01*
X008166Y007742D01*X008645Y007559D02*X008574D01*X008504Y007587D02*
X008532Y007559D01*X008687D01*X008715Y007587D01*Y007643D01*
X008687Y007672D01*X008532D01*X008504Y0077D01*Y007756D01*
X008532Y007784D01*X008687D01*X008715Y007756D01*X009334Y007784D02*
Y007756D01*X009291Y007784D01*X009277D01*X009249Y00777D01*
X009207Y007728D01*X009179Y007657D01*Y007629D01*X009193Y007587D01*
X009249Y007559D01*X009319D01*X00939Y007601D01*X009741Y007559D02*
Y007784D01*X009516Y007632D02*X009536Y007702D01*X009567Y00775D01*
X009606Y007776D01*X009634Y007784D01*X009657D01*X009696D01*
X009741Y007762D01*X009516Y007629D02*Y007612D01*X009519Y007601D01*
X009528Y007587D01*X009547Y007576D01*X009587Y007559D01*X009648D01*
X009708Y007584D01*X009741Y007615D01*X009854Y007812D02*Y007559D01*
Y007714D02*X009924Y007784D01*X009994D01*X010065Y007714D01*Y007559D01*
X010304Y007882D02*X010318Y007868D01*X010276Y007812D01*
X010304Y007882D01*X010585Y00784D02*Y007587D01*X010613Y007559D01*
X010655D01*X010683Y007587D01*X010529Y007784D02*X010641D01*
X011288Y007559D02*Y007868D01*X011316Y007897D01*X011372D01*
X0114Y007868D01*Y007854D01*X011232Y007728D02*X011344D01*
X011647Y007777D02*Y007559D01*Y007868D02*Y007875D01*X011822Y00784D02*
Y007587D01*X01185Y007559D01*X011893D01*X011921Y007587D01*
X011766Y007784D02*X011879D01*X012546Y007777D02*Y007559D01*Y007868D02*
Y007875D01*X012666Y007812D02*Y007559D01*Y007714D02*X012736Y007784D01*
X012807D01*X012877Y007714D01*Y007559D01*X013341D02*Y007897D01*
X01351D01*X013566Y00784D01*Y007784D01*X01351Y007728D01*
X013566Y007672D01*Y007615D01*X01351Y007559D01*X013341D01*
X01351Y007728D02*X013341D01*X013791Y007559D02*Y007897D01*X013903D01*
X013791D02*X013678D01*X014016Y007728D02*X014241D01*X014578Y007897D02*
X014353D01*Y007728D01*X014409Y007784D01*X014522D01*X014578Y007728D01*
Y007615D01*X014522Y007559D01*X014409D01*X014353Y007615D01*D10*
X000312Y014442D02*Y014299D01*X00034Y014271D01*X000397D01*
X000426Y014299D01*Y014442D01*X000597Y014414D02*X000569Y014442D01*
X000512D01*X000483Y014414D01*Y014385D01*X000512Y014357D01*X000569D01*
X000597Y014328D01*Y014299D01*X000569Y014271D01*X000512D01*
X000483Y014299D01*X000654Y014271D02*Y014442D01*X00074D01*
X000769Y014414D01*Y014385D01*X00074Y014357D01*X000769Y014328D01*
Y014299D01*X00074Y014271D01*X000654D01*X00074Y014357D02*X000654D01*
X000826Y014271D02*Y014442D01*X000883Y014357D01*X00094Y014442D01*
Y014271D01*X001169Y014357D02*X001283D01*X001512Y014299D02*
X00154Y014271D01*X001597D01*X001626Y014299D01*Y014414D01*
X001597Y014442D01*X00154D01*X001512Y014414D01*Y014371D01*
X00154Y014342D01*X001597D01*X001626Y014371D01*X001797Y014414D02*
X001769Y014442D01*X001712D01*X001683Y014414D01*Y014299D01*
X001712Y014271D01*X001769D01*X001797Y014299D01*Y014342D01*
X001769Y014371D01*X001712D01*X001683Y014342D01*X001908Y014271D02*
Y014349D01*X001935Y014385D01*X001962Y014349D01*Y014271D01*
X001854Y014349D02*X001881Y014385D01*X001908Y014349D01*
X001854Y014399D02*Y014271D01*X002079Y014382D02*Y014271D01*Y014428D02*
Y014432D01*X002169Y014271D02*Y014442D01*X002483Y014357D02*X002597D01*
X00254Y014414D02*Y014299D01*X002997Y014414D02*X003026Y014442D01*
X003083D01*X003112Y014414D01*Y014385D01*X003083Y014357D01*
X002997Y014299D01*Y014271D01*X003112D01*X003169Y014414D02*
X003197Y014442D01*X003254D01*X003283Y014414D01*Y014385D01*
X003254Y014357D01*X003169Y014299D01*Y014271D01*X003283D01*X003426D02*
Y014442D01*X00334Y014342D01*X003454D01*X003554Y014271D02*X003569D01*
Y014285D01*X003554D01*Y014271D01*X003797Y014442D02*X003683D01*
Y014357D01*X003712Y014385D01*X003769D01*X003797Y014357D01*Y014299D01*
X003769Y014271D01*X003712D01*X003683Y014299D01*X003908Y014271D02*
Y014349D01*X003935Y014385D01*X003962Y014349D01*Y014271D01*
X003854Y014349D02*X003881Y014385D01*X003908Y014349D01*
X003854Y014399D02*Y014271D01*X004079Y014382D02*Y014271D01*Y014428D02*
Y014432D01*X004169Y014271D02*Y014442D01*X004483Y014328D02*X004597D01*
X004483Y014378D02*X004597D01*X004826Y014414D02*X004854Y014442D01*
X004912D01*X00494Y014414D01*Y014385D01*X004912Y014357D01*
X00494Y014328D01*Y014299D01*X004912Y014271D01*X004854D01*
X004826Y014299D01*X004912Y014357D02*X004883D01*X004997Y014414D02*
X005026Y014442D01*X005083D01*X005112Y014414D01*Y014385D01*
X005083Y014357D01*X004997Y014299D01*Y014271D01*X005112D01*
X005283Y014414D02*X005254Y014442D01*X005197D01*X005169Y014414D01*
Y014299D01*X005197Y014271D01*X005254D01*X005283Y014299D01*Y014414D01*
X005226Y014385D02*Y014328D01*X005383Y014271D02*X005397D01*Y014285D01*
X005383D01*Y014271D01*X005626Y014442D02*X005512D01*Y014357D01*
X00554Y014385D01*X005597D01*X005626Y014357D01*Y014299D01*
X005597Y014271D01*X00554D01*X005512Y014299D01*X000312Y014742D02*
Y014599D01*X00034Y014571D01*X000397D01*X000426Y014599D01*Y014742D01*
X000597Y014714D02*X000569Y014742D01*X000512D01*X000483Y014714D01*
Y014685D01*X000512Y014657D01*X000569D01*X000597Y014628D01*Y014599D01*
X000569Y014571D01*X000512D01*X000483Y014599D01*X000654Y014571D02*
Y014742D01*X00074D01*X000769Y014714D01*Y014685D01*X00074Y014657D01*
X000769Y014628D01*Y014599D01*X00074Y014571D01*X000654D01*
X00074Y014657D02*X000654D01*X000826Y014571D02*Y014742D01*X000912D01*
X00094Y014714D01*Y014685D01*X000912Y014657D01*X000826D01*X001169D02*
X001283D01*X001626Y014742D02*X001512D01*Y014657D01*X00154Y014685D01*
X001597D01*X001626Y014657D01*Y014599D01*X001597Y014571D01*X00154D01*
X001512Y014599D01*X001683Y014742D02*X001797D01*X001712Y014571D01*
X001908D02*Y014649D01*X001935Y014685D01*X001962Y014649D01*Y014571D01*
X001854Y014649D02*X001881Y014685D01*X001908Y014649D01*
X001854Y014699D02*Y014571D01*X00208Y014682D02*Y014571D01*Y014728D02*
Y014732D01*X002169Y014571D02*Y014742D01*X002483Y014657D02*X002597D01*
X00254Y014714D02*Y014599D01*X002997Y014714D02*X003026Y014742D01*
X003083D01*X003112Y014714D01*Y014685D01*X003083Y014657D01*
X002997Y014599D01*Y014571D01*X003112D01*X003169Y014599D02*
X003197Y014571D01*X003254D01*X003283Y014599D01*Y014714D01*
X003254Y014742D01*X003197D01*X003169Y014714D01*Y014671D01*
X003197Y014642D01*X003254D01*X003283Y014671D01*X003426Y014657D02*
X003454Y014685D01*Y014714D01*X003426Y014742D01*X003369D01*
X00334Y014714D01*Y014685D01*X003369Y014657D01*X003426D01*
X003454Y014628D01*Y014599D01*X003426Y014571D01*X003369D01*
X00334Y014599D01*Y014628D01*X003369Y014657D01*X003554Y014571D02*
X003569D01*Y014585D01*X003554D01*Y014571D01*X003683Y014714D02*
X003712Y014742D01*X003769D01*X003797Y014714D01*Y014685D01*
X003769Y014657D01*X003797Y014628D01*Y014599D01*X003769Y014571D01*
X003712D01*X003683Y014599D01*X003769Y014657D02*X00374D01*
X004026Y014628D02*X00414D01*X004026Y014678D02*X00414D01*
X00454Y014714D02*X004569Y014742D01*X004626D01*X004654Y014714D01*
Y014685D01*X004626Y014657D01*X004654Y014628D01*Y014599D01*
X004626Y014571D01*X004569D01*X00454Y014599D01*X004626Y014657D02*
X004597D01*X004826Y014742D02*X004712D01*Y014657D01*X00474Y014685D01*
X004797D01*X004826Y014657D01*Y014599D01*X004797Y014571D01*X00474D01*
X004712Y014599D01*X004997Y014742D02*X004883D01*Y014657D01*
X004912Y014685D01*X004969D01*X004997Y014657D01*Y014599D01*
X004969Y014571D01*X004912D01*X004883Y014599D01*X005097Y014571D02*
X005112D01*Y014585D01*X005097D01*Y014571D01*X005226Y014714D02*
X005254Y014742D01*X005312D01*X00534Y014714D01*Y014685D01*
X005312Y014657D01*X00534Y014628D01*Y014599D01*X005312Y014571D01*
X005254D01*X005226Y014599D01*X005312Y014657D02*X005283D01*D11*
X000478Y013667D02*X000422Y013723D01*X000309D01*X000253Y013667D01*
Y013442D01*X000309Y013386D01*X000422D01*X000478Y013442D01*Y013526D01*
X000422Y013583D01*X000309D01*X000253Y013526D01*X000816Y013723D02*
X000591D01*Y013555D01*X000647Y013611D01*X000759D01*X000816Y013555D01*
Y013442D01*X000759Y013386D01*X000647D01*X000591Y013442D01*
X001012Y013386D02*X00104D01*Y013414D01*X001012D01*Y013386D01*
X00149Y013723D02*X001265D01*Y013555D01*X001322Y013611D01*X001434D01*
X00149Y013555D01*Y013442D01*X001434Y013386D01*X001322D01*
X001265Y013442D01*X001708Y013386D02*Y01354D01*X001761Y01361D01*
X001814Y01354D01*Y013386D01*X001603Y01354D02*X001655Y01361D01*
X001708Y01354D01*X001603Y013639D02*Y013386D01*X002046D02*Y01354D01*
X002098Y01361D01*X002151Y01354D01*Y013386D01*X00194Y01354D02*
X001993Y01361D01*X002046Y01354D01*X00194Y013639D02*Y013386D01*
X002672D02*Y013723D01*X002953Y013456D02*Y01354D01*X003023Y013611D01*
X003093D01*X003164Y01354D01*Y013456D01*X003093Y013386D01*X003023D01*
X002953Y013456D01*X00329Y013639D02*Y013386D01*Y01354D02*
X003361Y013611D01*X003431D01*X003501Y01354D01*Y013386D01*
X003839Y013456D02*X003768Y013386D01*X003698D01*X003628Y013456D01*
Y013555D01*X003698Y013611D01*X003768D01*X003839Y01354D01*Y01333D01*
X003768Y013259D01*X003698D01*X003628Y013301D01*X004303Y013723D02*
Y013386D01*Y013456D02*X004373Y013386D01*X004443D01*X004514Y013456D01*
Y01354D01*X004443Y013611D01*X004373D01*X004303Y013555D01*
X00464Y013611D02*X004668D01*X004767Y013386D01*X004851Y013611D02*
Y013583D01*X00471Y013259D01*X004682D01*X005371Y013667D02*
X005427Y013723D01*Y013386D01*X005484D01*X005427D02*X005371D01*
X005652Y013667D02*X005709Y013723D01*X005821D01*X005877Y013667D01*
Y013611D01*X005821Y013555D01*X005652Y013442D01*Y013386D01*X005877D01*
X006074D02*X006102D01*Y013414D01*X006074D01*Y013386D01*
X006496Y013555D02*X006552Y013611D01*Y013667D01*X006496Y013723D01*
X006384D01*X006327Y013667D01*Y013611D01*X006384Y013555D01*X006496D01*
X006552Y013498D01*Y013442D01*X006496Y013386D01*X006384D01*
X006327Y013442D01*Y013498D01*X006384Y013555D01*X007108Y013386D02*
Y01354D01*X00716Y01361D01*X007213Y01354D01*Y013386D01*X007002Y01354D02*
X007055Y01361D01*X007107Y01354D01*X007002Y013639D02*Y013386D01*
X007445D02*Y01354D01*X007498Y01361D01*X007551Y01354D01*Y013386D01*
X00734Y01354D02*X007392Y01361D01*X007445Y01354D01*X00734Y013639D02*
Y013386D01*X008015Y013611D02*Y013442D01*X008057Y013386D01*X008085D01*
X008127Y013442D01*X008169Y013386D01*X008197D01*X00824Y013442D01*
Y013611D01*X008127Y013442D02*Y013569D01*X008458Y013604D02*Y013386D01*
Y013695D02*Y013702D01*X008788Y013723D02*Y013386D01*Y01354D02*
X008718Y013611D01*X008647D01*X008577Y013555D01*Y013456D01*
X008647Y013386D01*X008718D01*X008788Y013456D01*X008915Y013512D02*
X009125D01*Y01354D01*X009055Y013611D01*X008985D01*X008915Y013555D01*
Y013456D01*Y013442D01*X008971Y013386D01*X009083D01*X009125Y013414D01*
X009336Y013386D02*X009364D01*X009322Y013344D01*X00935Y0134D01*
X009364Y013386D02*Y013414D01*X009336D01*Y013386D01*X010152Y013667D02*
X010096Y013723D01*X009983D01*X009927Y013667D01*Y013442D01*
X009983Y013386D01*X010096D01*X010152Y013442D01*Y013526D01*
X010096Y013583D01*X009983D01*X009927Y013526D01*X010264Y013723D02*
X010489D01*X010321Y013386D01*X010686D02*X010714D01*Y013414D01*
X010686D01*Y013386D01*X010939Y013667D02*X010996Y013723D01*X011108D01*
X011164Y013667D01*Y013611D01*X011108Y013555D01*X011164Y013498D01*
Y013442D01*X011108Y013386D01*X010996D01*X010939Y013442D01*
X011108Y013555D02*X011052D01*X011382Y013386D02*Y01354D01*
X011435Y01361D01*X011488Y01354D01*Y013386D01*X011277Y01354D02*
X011329Y01361D01*X011382Y01354D01*X011277Y013639D02*Y013386D01*
X01172D02*Y01354D01*X011772Y01361D01*X011825Y01354D01*Y013386D01*
X011614Y01354D02*X011667Y01361D01*X011719Y01354D01*X011614Y013639D02*
Y013386D01*X012345D02*Y013723D01*X012627Y013456D02*Y01354D01*
X012697Y013611D01*X012767D01*X012837Y01354D01*Y013456D01*
X012767Y013386D01*X012697D01*X012627Y013456D01*X012964Y013639D02*
Y013386D01*Y01354D02*X013034Y013611D01*X013105D01*X013175Y01354D01*
Y013386D01*X013512Y013456D02*X013442Y013386D01*X013372D01*
X013301Y013456D01*Y013555D01*X013372Y013611D01*X013442D01*
X013512Y01354D01*Y01333D01*X013442Y013259D01*X013372D01*
X013301Y013301D01*X013976Y013611D02*Y013442D01*X014019Y013386D01*
X014047D01*X014089Y013442D01*X014131Y013386D01*X014159D01*
X014201Y013442D01*Y013611D01*X014089Y013442D02*Y013569D01*
X014419Y013604D02*Y013386D01*Y013695D02*Y013702D01*X014595Y013667D02*
Y013414D01*X014623Y013386D01*X014665D01*X014693Y013414D01*
X014539Y013611D02*X014651D01*X014876Y013723D02*Y013386D01*Y013555D02*
X014947Y013611D01*X015017D01*X015087Y01354D01*Y013386D01*
X015551Y013723D02*Y013442D01*X015607Y013386D01*X01572D01*
X015776Y013442D01*Y013723D01*X016114Y013667D02*X016057Y013723D01*
X015945D01*X015889Y013667D01*Y013611D01*X015945Y013555D01*X016057D01*
X016114Y013498D01*Y013442D01*X016057Y013386D01*X015945D01*
X015889Y013442D01*X016226Y013386D02*Y013723D01*X016395D01*
X016451Y013667D01*Y013611D01*X016395Y013555D01*X016451Y013498D01*
Y013442D01*X016395Y013386D01*X016226D01*X016395Y013555D02*X016226D01*
X017056Y013611D02*Y013583D01*X017014Y013611D01*X016999D01*
X016971Y013597D01*X016929Y013555D01*X016901Y013484D01*Y013456D01*
X016915Y013414D01*X016971Y013386D01*X017042D01*X017112Y013428D01*
X017238Y013456D02*Y01354D01*X017309Y013611D01*X017379D01*
X017449Y01354D01*Y013456D01*X017379Y013386D01*X017309D01*
X017238Y013456D01*X017576Y013639D02*Y013386D01*Y01354D02*
X017646Y013611D01*X017717D01*X017787Y01354D01*Y013386D01*
X017913Y013639D02*Y013386D01*Y01354D02*X017984Y013611D01*X018054D01*
X018124Y01354D01*Y013386D01*X018251Y013512D02*X018462D01*Y01354D01*
X018391Y013611D01*X018321D01*X018251Y013555D01*Y013456D01*Y013442D01*
X018307Y013386D01*X01842D01*X018462Y013414D01*X018743Y013611D02*
Y013583D01*X018701Y013611D01*X018687D01*X018659Y013597D01*
X018616Y013555D01*X018588Y013484D01*Y013456D01*X018602Y013414D01*
X018659Y013386D01*X018729D01*X018799Y013428D01*X018982Y013667D02*
Y013414D01*X01901Y013386D01*X019052D01*X01908Y013414D01*
X018926Y013611D02*X019038D01*X019263Y013456D02*Y01354D01*
X019334Y013611D01*X019404D01*X019474Y01354D01*Y013456D01*
X019404Y013386D01*X019334D01*X019263Y013456D01*X019601Y013639D02*
Y013386D01*X019812Y013569D02*X019741Y013611D01*X019671D01*
X019601Y013569D01*X000517Y012655D02*Y01288D01*X000461Y012936D01*
X000349D01*X000292Y01288D01*Y012655D01*X000349Y012598D01*X000461D01*
X000517Y012655D01*X000405Y012711D02*X000517Y012598D01*X00063Y012936D02*
X000686Y012598D01*X000742Y012936D01*X000799Y012598D01*
X000855Y012936D01*X001024Y012598D02*Y012936D01*X001249Y012598D02*
Y012936D01*X001642Y01288D02*X001586Y012936D01*X001474D01*
X001417Y01288D01*Y012655D01*X001474Y012598D01*X001586D01*
X001642Y012655D01*X001839Y012598D02*X001867D01*X001825Y012556D01*
X001853Y012612D01*X001867Y012598D02*Y012627D01*X001839D01*Y012598D01*
X00243D02*Y012936D01*X002598D01*X002655Y01288D01*Y012823D01*
X002598Y012767D01*X00243D01*X002936Y012598D02*Y012936D01*
X002767Y012739D01*X002992D01*X003189Y012598D02*X003217D01*
X003175Y012556D01*X003203Y012612D01*X003217Y012598D02*Y012627D01*
X003189D01*Y012598D01*X004004Y012711D02*X003906Y012598D01*X00385D01*
X003808Y012641D01*X00378Y012683D01*Y012711D01*X003794Y012753D01*
X003892Y01288D01*Y012908D01*X003864Y012936D01*X003836D01*
X003808Y012908D01*Y012866D01*X004004Y012598D01*X004454D02*Y012936D01*
X004623D01*X004679Y01288D01*Y012823D01*X004623Y012767D01*X004454D01*
X005017Y012936D02*X004792D01*Y012767D01*X004848Y012823D01*X004961D01*
X005017Y012767D01*Y012655D01*X004961Y012598D01*X004848D01*
X004792Y012655D01*X005621Y012823D02*Y012795D01*X005579Y012823D01*
X005565D01*X005537Y012809D01*X005495Y012767D01*X005467Y012697D01*
Y012669D01*X005481Y012627D01*X005537Y012598D01*X005607D01*
X005678Y012641D01*X005804Y012669D02*Y012753D01*X005875Y012823D01*
X005945D01*X006015Y012753D01*Y012669D01*X005945Y012598D01*X005875D01*
X005804Y012669D01*X006142Y012852D02*Y012598D01*Y012753D02*
X006212Y012823D01*X006282D01*X006353Y012753D01*Y012598D01*
X006479Y012852D02*Y012598D01*Y012753D02*X006549Y012823D01*X00662D01*
X00669Y012753D01*Y012598D01*X006817Y012725D02*X007028D01*Y012753D01*
X006957Y012823D01*X006887D01*X006817Y012767D01*Y012669D01*Y012655D01*
X006873Y012598D01*X006985D01*X007028Y012627D01*X007309Y012823D02*
Y012795D01*X007267Y012823D01*X007253D01*X007224Y012809D01*
X007182Y012767D01*X007154Y012697D01*Y012669D01*X007168Y012627D01*
X007224Y012598D01*X007295D01*X007365Y012641D01*X007548Y01288D02*
Y012627D01*X007576Y012598D01*X007618D01*X007646Y012627D01*
X007492Y012823D02*X007604D01*X007829Y012669D02*Y012753D01*
X007899Y012823D01*X00797D01*X00804Y012753D01*Y012669D01*
X00797Y012598D01*X007899D01*X007829Y012669D01*X008166Y012852D02*
Y012598D01*X008377Y012781D02*X008307Y012823D01*X008237D01*
X008166Y012781D01*X008645Y012598D02*X008574D01*X008504Y012627D02*
X008532Y012598D01*X008687D01*X008715Y012627D01*Y012683D01*
X008687Y012711D01*X008532D01*X008504Y012739D01*Y012795D01*
X008532Y012823D01*X008687D01*X008715Y012795D01*X009334Y012823D02*
Y012795D01*X009291Y012823D01*X009277D01*X009249Y012809D01*
X009207Y012767D01*X009179Y012697D01*Y012669D01*X009193Y012627D01*
X009249Y012598D01*X009319D01*X00939Y012641D01*X009741Y012598D02*
Y012823D01*X009516Y012672D02*X009536Y012742D01*X009567Y01279D01*
X009606Y012815D01*X009634Y012823D01*X009657D01*X009696D01*
X009741Y012801D01*X009516Y012669D02*Y012652D01*X009519Y012641D01*
X009528Y012627D01*X009547Y012615D01*X009587Y012598D01*X009648D01*
X009708Y012624D01*X009741Y012655D01*X009854Y012852D02*Y012598D01*
Y012753D02*X009924Y012823D01*X009994D01*X010065Y012753D01*Y012598D01*
X010304Y012922D02*X010318Y012908D01*X010276Y012852D01*
X010304Y012922D01*X010585Y01288D02*Y012627D01*X010613Y012598D01*
X010655D01*X010683Y012627D01*X010529Y012823D02*X010641D01*
X011288Y012598D02*Y012908D01*X011316Y012936D01*X011372D01*
X0114Y012908D01*Y012894D01*X011232Y012767D02*X011344D01*
X011647Y012816D02*Y012598D01*Y012908D02*Y012915D01*X011822Y01288D02*
Y012627D01*X01185Y012598D01*X011893D01*X011921Y012627D01*
X011766Y012823D02*X011879D01*X012546Y012816D02*Y012598D01*Y012908D02*
Y012915D01*X012666Y012852D02*Y012598D01*Y012753D02*X012736Y012823D01*
X012807D01*X012877Y012753D01*Y012598D01*X013341D02*Y012936D01*
X01351D01*X013566Y01288D01*Y012823D01*X01351Y012767D01*
X013566Y012711D01*Y012655D01*X01351Y012598D01*X013341D01*
X01351Y012767D02*X013341D01*X013791Y012598D02*Y012936D01*X013903D01*
X013791D02*X013678D01*X014016Y012767D02*X014241D01*X014578Y012936D02*
X014353D01*Y012767D01*X014409Y012823D01*X014522D01*X014578Y012767D01*
Y012655D01*X014522Y012598D01*X014409D01*X014353Y012655D01*D10*
X000312Y019482D02*Y019339D01*X00034Y01931D01*X000397D01*
X000426Y019339D01*Y019482D01*X000597Y019453D02*X000569Y019482D01*
X000512D01*X000483Y019453D01*Y019425D01*X000512Y019396D01*X000569D01*
X000597Y019367D01*Y019339D01*X000569Y01931D01*X000512D01*
X000483Y019339D01*X000654Y01931D02*Y019482D01*X00074D01*
X000769Y019453D01*Y019425D01*X00074Y019396D01*X000769Y019367D01*
Y019339D01*X00074Y01931D01*X000654D01*X00074Y019396D02*X000654D01*
X000826Y01931D02*Y019482D01*X000883Y019396D01*X00094Y019482D01*
Y01931D01*X001169Y019396D02*X001283D01*X001512Y019339D02*
X00154Y01931D01*X001597D01*X001626Y019339D01*Y019453D01*
X001597Y019482D01*X00154D01*X001512Y019453D01*Y01941D01*
X00154Y019382D01*X001597D01*X001626Y01941D01*X001797Y019453D02*
X001769Y019482D01*X001712D01*X001683Y019453D01*Y019339D01*
X001712Y01931D01*X001769D01*X001797Y019339D01*Y019382D01*
X001769Y01941D01*X001712D01*X001683Y019382D01*X001908Y01931D02*
Y019389D01*X001935Y019424D01*X001962Y019389D01*Y01931D01*
X001854Y019389D02*X001881Y019424D01*X001908Y019389D01*
X001854Y019439D02*Y01931D01*X002079Y019421D02*Y01931D01*Y019467D02*
Y019471D01*X002169Y01931D02*Y019482D01*X002483Y019396D02*X002597D01*
X00254Y019453D02*Y019339D01*X002997Y019453D02*X003026Y019482D01*
X003083D01*X003112Y019453D01*Y019425D01*X003083Y019396D01*
X002997Y019339D01*Y01931D01*X003112D01*X003169Y019453D02*
X003197Y019482D01*X003254D01*X003283Y019453D01*Y019425D01*
X003254Y019396D01*X003169Y019339D01*Y01931D01*X003283D01*X003426D02*
Y019482D01*X00334Y019382D01*X003454D01*X003554Y01931D02*X003569D01*
Y019325D01*X003554D01*Y01931D01*X003797Y019482D02*X003683D01*
Y019396D01*X003712Y019425D01*X003769D01*X003797Y019396D01*Y019339D01*
X003769Y01931D01*X003712D01*X003683Y019339D01*X003908Y01931D02*
Y019389D01*X003935Y019424D01*X003962Y019389D01*Y01931D01*
X003854Y019389D02*X003881Y019424D01*X003908Y019389D01*
X003854Y019439D02*Y01931D01*X004079Y019421D02*Y01931D01*Y019467D02*
Y019471D01*X004169Y01931D02*Y019482D01*X004483Y019367D02*X004597D01*
X004483Y019417D02*X004597D01*X004826Y019453D02*X004854Y019482D01*
X004912D01*X00494Y019453D01*Y019425D01*X004912Y019396D01*
X00494Y019367D01*Y019339D01*X004912Y01931D01*X004854D01*
X004826Y019339D01*X004912Y019396D02*X004883D01*X004997Y019453D02*
X005026Y019482D01*X005083D01*X005112Y019453D01*Y019425D01*
X005083Y019396D01*X004997Y019339D01*Y01931D01*X005112D01*
X005283Y019453D02*X005254Y019482D01*X005197D01*X005169Y019453D01*
Y019339D01*X005197Y01931D01*X005254D01*X005283Y019339D01*Y019453D01*
X005226Y019425D02*Y019367D01*X005383Y01931D02*X005397D01*Y019325D01*
X005383D01*Y01931D01*X005626Y019482D02*X005512D01*Y019396D01*
X00554Y019425D01*X005597D01*X005626Y019396D01*Y019339D01*
X005597Y01931D01*X00554D01*X005512Y019339D01*X000312Y019782D02*
Y019639D01*X00034Y01961D01*X000397D01*X000426Y019639D01*Y019782D01*
X000597Y019753D02*X000569Y019782D01*X000512D01*X000483Y019753D01*
Y019725D01*X000512Y019696D01*X000569D01*X000597Y019667D01*Y019639D01*
X000569Y01961D01*X000512D01*X000483Y019639D01*X000654Y01961D02*
Y019782D01*X00074D01*X000769Y019753D01*Y019725D01*X00074Y019696D01*
X000769Y019667D01*Y019639D01*X00074Y01961D01*X000654D01*
X00074Y019696D02*X000654D01*X000826Y01961D02*Y019782D01*X000912D01*
X00094Y019753D01*Y019725D01*X000912Y019696D01*X000826D01*X001169D02*
X001283D01*X001626Y019782D02*X001512D01*Y019696D01*X00154Y019725D01*
X001597D01*X001626Y019696D01*Y019639D01*X001597Y01961D01*X00154D01*
X001512Y019639D01*X001683Y019782D02*X001797D01*X001712Y01961D01*
X001908D02*Y019689D01*X001935Y019724D01*X001962Y019689D01*Y01961D01*
X001854Y019689D02*X001881Y019724D01*X001908Y019689D01*
X001854Y019739D02*Y01961D01*X00208Y019721D02*Y01961D01*Y019767D02*
Y019771D01*X002169Y01961D02*Y019782D01*X002483Y019696D02*X002597D01*
X00254Y019753D02*Y019639D01*X002997Y019753D02*X003026Y019782D01*
X003083D01*X003112Y019753D01*Y019725D01*X003083Y019696D01*
X002997Y019639D01*Y01961D01*X003112D01*X003169Y019639D02*
X003197Y01961D01*X003254D01*X003283Y019639D01*Y019753D01*
X003254Y019782D01*X003197D01*X003169Y019753D01*Y01971D01*
X003197Y019682D01*X003254D01*X003283Y01971D01*X003426Y019696D02*
X003454Y019725D01*Y019753D01*X003426Y019782D01*X003369D01*
X00334Y019753D01*Y019725D01*X003369Y019696D01*X003426D01*
X003454Y019667D01*Y019639D01*X003426Y01961D01*X003369D01*
X00334Y019639D01*Y019667D01*X003369Y019696D01*X003554Y01961D02*
X003569D01*Y019625D01*X003554D01*Y01961D01*X003683Y019753D02*
X003712Y019782D01*X003769D01*X003797Y019753D01*Y019725D01*
X003769Y019696D01*X003797Y019667D01*Y019639D01*X003769Y01961D01*
X003712D01*X003683Y019639D01*X003769Y019696D02*X00374D01*
X004026Y019667D02*X00414D01*X004026Y019717D02*X00414D01*
X00454Y019753D02*X004569Y019782D01*X004626D01*X004654Y019753D01*
Y019725D01*X004626Y019696D01*X004654Y019667D01*Y019639D01*
X004626Y01961D01*X004569D01*X00454Y019639D01*X004626Y019696D02*
X004597D01*X004826Y019782D02*X004712D01*Y019696D01*X00474Y019725D01*
X004797D01*X004826Y019696D01*Y019639D01*X004797Y01961D01*X00474D01*
X004712Y019639D01*X004997Y019782D02*X004883D01*Y019696D01*
X004912Y019725D01*X004969D01*X004997Y019696D01*Y019639D01*
X004969Y01961D01*X004912D01*X004883Y019639D01*X005097Y01961D02*
X005112D01*Y019625D01*X005097D01*Y01961D01*X005226Y019753D02*
X005254Y019782D01*X005312D01*X00534Y019753D01*Y019725D01*
X005312Y019696D01*X00534Y019667D01*Y019639D01*X005312Y01961D01*
X005254D01*X005226Y019639D01*X005312Y019696D02*X005283D01*
M02*