%FSTAX24Y24*%
%MOIN*%
%IN AUX14.GBR *%
%ADD10C,0.0042*%
%ADD11C,0.0050*%
%ADD12C,0.0056*%
D12*X-002193Y00374D02*G01X-002222Y003782D01*X-002236Y00381D01*
X-00225Y003867D01*Y003951D01*X-002236Y004007D01*X-002193Y004078D02*
X-002222Y004035D01*X-002236Y004007D01*X-001744Y004021D02*
X-0018Y004078D01*X-001912D01*X-001969Y004021D01*Y003796D01*
X-001912Y00374D01*X-0018D01*X-001744Y003796D01*Y004021D01*
X-001856Y003965D02*Y003853D01*X-001547Y00374D02*X-001519D01*
X-001561Y003698D01*X-001533Y003754D01*X-001519Y00374D02*Y003768D01*
X-001547D01*Y00374D01*X-001237Y004021D02*X-001181Y004078D01*Y00374D01*
X-001125D01*X-001181D02*X-001237D01*X-000731Y004021D02*
X-000787Y004078D01*X-0009D01*X-000956Y004021D01*Y003796D01*
X-0009Y00374D01*X-000787D01*X-000731Y003796D01*Y004021D01*
X-000844Y003965D02*Y003853D01*X-000619Y00374D02*X-000591Y003782D01*
X-000576Y00381D01*X-000562Y003867D01*Y003951D01*X-000576Y004007D01*
X-000591Y004035D01*X-000619Y004078D01*X-002728Y008816D02*
X-002756Y008858D01*X-00277Y008886D01*X-002784Y008943D01*Y009027D01*
X-00277Y009083D01*X-002728Y009154D02*X-002756Y009111D01*
X-00277Y009083D01*X-002278Y009097D02*X-002334Y009154D01*X-002447D01*
X-002503Y009097D01*Y008872D01*X-002447Y008816D01*X-002334D01*
X-002278Y008872D01*Y009097D01*X-00239Y009041D02*Y008929D01*
X-002081Y008816D02*X-002053D01*X-002095Y008774D01*X-002067Y00883D01*
X-002053Y008816D02*Y008844D01*X-002081D01*Y008816D01*
X-001828Y009097D02*X-001772Y009154D01*X-001659D01*X-001603Y009097D01*
Y009041D01*X-001659Y008985D01*X-001828Y008872D01*Y008816D01*
X-001603D01*X-00149Y009097D02*X-001434Y009154D01*X-001322D01*
X-001265Y009097D01*Y009041D01*X-001322Y008985D01*X-00149Y008872D01*
Y008816D01*X-001265D01*X-001069D02*X-00104D01*Y008844D01*X-001069D01*
Y008816D01*X-000647Y008985D02*X-000591Y009041D01*Y009097D01*
X-000647Y009154D01*X-000759D01*X-000816Y009097D01*Y009041D01*
X-000759Y008985D01*X-000647D01*X-000591Y008929D01*Y008872D01*
X-000647Y008816D01*X-000759D01*X-000816Y008872D01*Y008929D01*
X-000759Y008985D01*X-000478Y008816D02*X-00045Y008858D01*
X-000436Y008886D01*X-000422Y008943D01*Y009027D01*X-000436Y009083D01*
X-00045Y009111D01*X-000478Y009154D01*X-002728Y013934D02*
X-002756Y013976D01*X-00277Y014004D01*X-002784Y014061D01*Y014145D01*
X-00277Y014201D01*X-002728Y014272D02*X-002756Y014229D01*
X-00277Y014201D01*X-002278Y014215D02*X-002334Y014272D01*X-002447D01*
X-002503Y014215D01*Y01399D01*X-002447Y013934D01*X-002334D01*
X-002278Y01399D01*Y014215D01*X-00239Y014159D02*Y014047D01*
X-002081Y013934D02*X-002053D01*X-002095Y013892D01*X-002067Y013948D01*
X-002053Y013934D02*Y013962D01*X-002081D01*Y013934D01*
X-001828Y014215D02*X-001772Y014272D01*X-001659D01*X-001603Y014215D01*
Y014159D01*X-001659Y014103D01*X-001603Y014047D01*Y01399D01*
X-001659Y013934D01*X-001772D01*X-001828Y01399D01*X-001659Y014103D02*
X-001715D01*X-001265Y014272D02*X-00149D01*Y014103D01*
X-001434Y014159D01*X-001322D01*X-001265Y014103D01*Y01399D01*
X-001322Y013934D01*X-001434D01*X-00149Y01399D01*X-001069Y013934D02*
X-00104D01*Y013962D01*X-001069D01*Y013934D01*X-000591Y014215D02*
X-000647Y014272D01*X-000759D01*X-000816Y014215D01*Y01399D01*
X-000759Y013934D01*X-000647D01*X-000591Y01399D01*Y014075D01*
X-000647Y014131D01*X-000759D01*X-000816Y014075D01*X-000478Y013934D02*
X-00045Y013976D01*X-000436Y014004D01*X-000422Y014061D01*Y014145D01*
X-000436Y014201D01*X-00045Y014229D01*X-000478Y014272D01*D10*
X025675Y001746D02*X025633Y001704D01*Y00162D01*X025675Y001578D01*
X025844D01*X025886Y00162D01*Y001704D01*X025844Y001746D01*X025675D01*
X025717Y001662D02*X025801D01*X025886Y001894D02*Y001915D01*X025865D01*
Y001894D01*X025886D01*X025675Y002253D02*X025633Y00221D01*Y002126D01*
X025675Y002084D01*X025844D01*X025886Y002126D01*Y00221D01*
X025844Y002253D01*X025675D01*X025717Y002168D02*X025801D01*
X025886Y002416D02*X02577D01*X025717Y002455D01*X02577Y002495D01*
X025886D01*X02577Y002337D02*X025717Y002376D01*X02577Y002416D01*
X025696Y002337D02*X025886D01*Y002669D02*X02577D01*X025717Y002708D01*
X02577Y002748D01*X025886D01*X02577Y00259D02*X025717Y002629D01*
X02577Y002669D01*X025696Y00259D02*X025886D01*X027334Y004027D02*
X027292Y004069D01*X027208D01*X027165Y004027D01*Y003858D01*
X027208Y003816D01*X027292D01*X027334Y003858D01*Y004027D01*
X02725Y003985D02*Y0039D01*X027482Y003816D02*X027503D01*Y003837D01*
X027482D01*Y003816D01*X02784Y004027D02*X027798Y004069D01*X027714D01*
X027672Y004027D01*Y003858D01*X027714Y003816D01*X027798D01*
X02784Y003858D01*Y004027D01*X027756Y003985D02*Y0039D01*
X028004Y003816D02*Y003932D01*X028043Y003985D01*X028083Y003932D01*
Y003816D01*X027925Y003932D02*X027964Y003985D01*X028003Y003932D01*
X027925Y004006D02*Y003816D01*X028257D02*Y003932D01*X028296Y003985D01*
X028336Y003932D01*Y003816D01*X028178Y003932D02*X028217Y003985D01*
X028257Y003932D01*X028178Y004006D02*Y003816D01*X02725Y004601D02*
X027292Y004643D01*Y00439D01*X027334D01*X027292D02*X02725D01*X027524D02*
X027545D01*Y004411D01*X027524D01*Y00439D01*X02784D02*Y004643D01*
X027714Y004495D01*X027882D01*X028046Y00439D02*Y004506D01*
X028085Y004558D01*X028125Y004506D01*Y00439D01*X027967Y004506D02*
X028006Y004558D01*X028046Y004506D01*X027967Y00458D02*Y00439D01*
X028299D02*Y004506D01*X028338Y004558D01*X028378Y004506D01*Y00439D01*
X02822Y004506D02*X028259Y004558D01*X028299Y004506D01*X02822Y00458D02*
Y00439D01*X023946Y000689D02*X023903Y000731D01*X024156D01*Y000773D01*
Y000731D02*Y000689D01*Y000963D02*Y000984D01*X024135D01*Y000963D01*
X024156D01*Y001279D02*X023903D01*X024051Y001153D01*Y001322D01*
X024156Y001485D02*X02404D01*X023988Y001524D01*X02404Y001564D01*
X024156D01*X02404Y001406D02*X023988Y001445D01*X024041Y001485D01*
X023967Y001406D02*X024156D01*Y001738D02*X02404D01*X023988Y001777D01*
X02404Y001817D01*X024156D01*X02404Y001659D02*X023988Y001698D01*
X024041Y001738D01*X023967Y001659D02*X024156D01*X023903Y002323D02*
X024156D01*X02404D02*X023988Y002271D01*Y002218D01*X02403Y002165D01*
X024104D01*X024156Y002218D01*Y002271D01*X024104Y002323D01*
X023993Y002497D02*X024156D01*X023924D02*X023919D01*X024156Y002756D02*
X023988D01*X024102Y002587D02*X024049Y002602D01*X024013Y002625D01*
X023994Y002654D01*X023988Y002675D01*Y002692D01*Y002722D01*
X024005Y002756D01*X024104Y002587D02*X024116D01*X024125Y002589D01*
X024135Y002595D01*X024144Y00261D01*X024156Y00264D01*Y002686D01*
X024137Y00273D01*X024114Y002756D01*X024156Y002903D02*Y002924D01*
X024135D01*Y002903D01*X024156D01*X027171Y005211D02*X027213Y005253D01*
Y005D01*X027255D01*X027213D02*X027171D01*X027445D02*X027466D01*
Y005021D01*X027445D01*Y005D01*X027635Y005042D02*X027677Y005D01*
X027762D01*X027804Y005042D01*Y005211D01*X027762Y005253D01*X027677D01*
X027635Y005211D01*Y005148D01*X027677Y005105D01*X027762D01*
X027804Y005148D01*X028057Y005211D02*X028015Y005253D01*X02793D01*
X027888Y005211D01*Y005042D01*X02793Y005D01*X028015D01*
X028057Y005042D01*Y005211D01*X027972Y005169D02*Y005084D01*
X02822Y005D02*Y005116D01*X02826Y005168D01*X028299Y005116D01*Y005D01*
X028141Y005116D02*X028181Y005168D01*X02822Y005116D01*X028141Y00519D02*
Y005D01*X028473D02*Y005116D01*X028513Y005168D01*X028552Y005116D01*
Y005D01*X028394Y005116D02*X028434Y005168D01*X028473Y005116D01*
X028394Y00519D02*Y005D01*X027143Y007753D02*X027185Y007795D01*
Y007542D01*X027227D01*X027185D02*X027143D01*X027522Y007753D02*
X02748Y007795D01*X027396D01*X027354Y007753D01*Y007584D01*
X027396Y007542D01*X02748D01*X027522Y007584D01*Y007753D01*
X027438Y007711D02*Y007627D01*X02767Y007542D02*X027691D01*Y007563D01*
X02767D01*Y007542D01*X027986Y007669D02*X028029Y007711D01*Y007753D01*
X027986Y007795D01*X027902D01*X02786Y007753D01*Y007711D01*
X027902Y007669D01*X027986D01*X028029Y007627D01*Y007584D01*
X027986Y007542D01*X027902D01*X02786Y007584D01*Y007627D01*
X027902Y007669D01*X028282Y007753D02*X02824Y007795D01*X028155D01*
X028113Y007753D01*Y007584D01*X028155Y007542D01*X02824D01*
X028282Y007584D01*Y007753D01*X028197Y007711D02*Y007627D01*
X028445Y007542D02*Y007658D01*X028484Y007711D01*X028524Y007658D01*
Y007542D01*X028366Y007658D02*X028405Y007711D01*X028445Y007658D01*
X028366Y007732D02*Y007542D01*X028698D02*Y007658D01*X028738Y007711D01*
X028777Y007658D01*Y007542D01*X028619Y007658D02*X028659Y007711D01*
X028698Y007658D01*X028619Y007732D02*Y007542D01*X027203Y00838D02*
X027245Y008422D01*Y008169D01*X027287D01*X027245D02*X027203D01*
X027456Y00838D02*X027498Y008422D01*Y008169D01*X02754D01*X027498D02*
X027456D01*X02773D02*X027751D01*Y00819D01*X02773D01*Y008169D01*
X028088Y00838D02*X028046Y008422D01*X027962D01*X02792Y00838D01*
Y008211D01*X027962Y008169D01*X028046D01*X028088Y008211D01*Y00838D01*
X028004Y008338D02*Y008254D01*X028341Y00838D02*X028299Y008422D01*
X028215D01*X028173Y00838D01*Y008211D01*X028215Y008169D01*X028299D01*
X028341Y008211D01*Y008275D01*X028299Y008317D01*X028215D01*
X028173Y008275D01*X028505Y008169D02*Y008285D01*X028544Y008338D01*
X028584Y008285D01*Y008169D01*X028426Y008285D02*X028465Y008338D01*
X028505Y008285D01*X028426Y008359D02*Y008169D01*X028758D02*Y008285D01*
X028797Y008338D01*X028837Y008285D01*Y008169D01*X028679Y008285D02*
X028718Y008338D01*X028758Y008285D01*X028679Y008359D02*Y008169D01*
X020951Y001325D02*X020908Y001367D01*X021161D01*Y001409D01*Y001367D02*
Y001325D01*X020951Y001535D02*X020908Y001578D01*Y001662D01*
X020951Y001704D01*X020993D01*X021035Y001662D01*X021119Y001535D01*
X021161D01*Y001704D01*Y001852D02*Y001873D01*X02114D01*Y001852D01*
X021161D01*X020951Y00221D02*X020908Y002168D01*Y002084D01*
X020951Y002042D01*X021119D01*X021161Y002084D01*Y002168D01*
X021119Y00221D01*X020951D01*X020993Y002126D02*X021077D01*
X021161Y002374D02*X021045D01*X020993Y002413D01*X021045Y002453D01*
X021161D01*X021045Y002295D02*X020993Y002334D01*X021046Y002374D01*
X020972Y002295D02*X021161D01*Y002627D02*X021045D01*X020993Y002666D01*
X021045Y002706D01*X021161D01*X021045Y002548D02*X020993Y002587D01*
X021046Y002627D01*X020972Y002548D02*X021161D01*X02725Y009128D02*
X027292Y00917D01*Y008917D01*X027334D01*X027292D02*X02725D01*
X027461Y009128D02*X027503Y00917D01*X027587D01*X027629Y009128D01*
Y009086D01*X027587Y009044D01*X027461Y00896D01*Y008917D01*X027629D01*
X027777D02*X027798D01*Y008938D01*X027777D01*Y008917D01*
X028093Y009044D02*X028135Y009086D01*Y009128D01*X028093Y00917D01*
X028009D01*X027967Y009128D01*Y009086D01*X028009Y009044D01*X028093D01*
X028135Y009002D01*Y00896D01*X028093Y008917D01*X028009D01*
X027967Y00896D01*Y009002D01*X028009Y009044D01*X028389Y009128D02*
X028346Y00917D01*X028262D01*X02822Y009128D01*Y00896D01*
X028262Y008917D01*X028346D01*X028389Y00896D01*Y009128D01*
X028304Y009086D02*Y009002D01*X028552Y008917D02*Y009033D01*
X028591Y009086D01*X028631Y009033D01*Y008917D01*X028473Y009033D02*
X028512Y009086D01*X028552Y009033D01*X028473Y009107D02*Y008917D01*
X028805D02*Y009033D01*X028844Y009086D01*X028884Y009033D01*Y008917D01*
X028726Y009033D02*X028765Y009086D01*X028805Y009033D01*
X028726Y009107D02*Y008917D01*X024848Y001452D02*X024806Y001494D01*
Y001579D01*X024848Y001621D01*X024891D01*X024933Y001579D01*
X025017Y001452D01*X025059D01*Y001621D01*Y001769D02*Y00179D01*
X025038D01*Y001769D01*X025059D01*X024848Y001958D02*X024806Y002001D01*
Y002085D01*X024848Y002127D01*X024891D01*X024933Y002085D01*
X025017Y001958D01*X025059D01*Y002127D01*X024806Y00238D02*Y002211D01*
X024933D01*X024891Y002254D01*Y002338D01*X024933Y00238D01*X025017D01*
X025059Y002338D01*Y002254D01*X025017Y002211D01*X025059Y002544D02*
X024943D01*X024891Y002583D01*X024943Y002623D01*X025059D01*
X024943Y002465D02*X024891Y002504D01*X024944Y002543D01*X02487Y002465D02*
X025059D01*Y002797D02*X024943D01*X024891Y002836D01*X024943Y002876D01*
X025059D01*X024943Y002718D02*X024891Y002757D01*X024944Y002797D01*
X02487Y002718D02*X025059D01*X024358Y001459D02*X024316Y001501D01*
Y001586D01*X024358Y001628D01*X024401D01*X024443Y001586D01*
X024485Y001628D01*X024527D01*X024569Y001586D01*Y001501D01*
X024527Y001459D01*X024443Y001586D02*Y001544D01*X024569Y001776D02*
Y001797D01*X024548D01*Y001776D01*X024569D01*X024358Y001965D02*
X024316Y002008D01*Y002092D01*X024358Y002134D01*X024401D01*
X024443Y002092D01*X024485Y002134D01*X024527D01*X024569Y002092D01*
Y002008D01*X024527Y001965D01*X024443Y002092D02*Y00205D01*
X024316Y002218D02*Y002387D01*X024569Y002261D01*Y002551D02*X024453D01*
X024401Y00259D01*X024453Y00263D01*X024569D01*X024453Y002472D02*
X024401Y002511D01*X024454Y00255D01*X02438Y002472D02*X024569D01*
Y002804D02*X024453D01*X024401Y002843D01*X024453Y002883D01*X024569D01*
X024453Y002725D02*X024401Y002764D01*X024454Y002804D01*X02438Y002725D02*
X024569D01*X013372Y001184D02*X01333Y001226D01*Y00131D01*
X013372Y001353D01*X013414D01*X013456Y00131D01*X013498Y001353D01*
X01354D01*X013583Y00131D01*Y001226D01*X01354Y001184D01*
X013456Y00131D02*Y001268D01*X013372Y001479D02*X01333Y001521D01*
X013583D01*Y001564D01*Y001521D02*Y001479D01*Y001753D02*Y001774D01*
X013562D01*Y001753D01*X013583D01*X013372Y002112D02*X01333Y00207D01*
Y001985D01*X013372Y001943D01*X01354D01*X013583Y001985D01*Y00207D01*
X01354Y002112D01*X013372D01*X013414Y002028D02*X013498D01*
X01333Y002196D02*Y002365D01*X013583Y002238D01*Y002528D02*X013467D01*
X013414Y002568D01*X013467Y002607D01*X013583D01*X013467Y002449D02*
X013414Y002489D01*X013467Y002528D01*X013393Y002449D02*X013583D01*
Y002781D02*X013467D01*X013414Y002821D01*X013467Y002861D01*X013583D01*
X013467Y002702D02*X013414Y002742D01*X013467Y002781D01*
X013393Y002702D02*X013583D01*X00876Y00131D02*X008507D01*
X008654Y001184D01*Y001353D01*X008549Y001437D02*X008507Y001479D01*
Y001564D01*X008549Y001606D01*X008591D01*X008633Y001564D01*
X008675Y001606D01*X008718D01*X00876Y001564D01*Y001479D01*
X008718Y001437D01*X008633Y001564D02*Y001521D01*X00876Y001753D02*
Y001774D01*X008739D01*Y001753D01*X00876D01*Y00207D02*X008507D01*
X008654Y001943D01*Y002112D01*X008633Y002323D02*X008591Y002365D01*
X008549D01*X008507Y002323D01*Y002238D01*X008549Y002196D01*X008591D01*
X008633Y002238D01*Y002323D01*X008675Y002365D01*X008718D01*
X00876Y002323D01*Y002238D01*X008718Y002196D01*X008675D01*
X008633Y002238D01*X00876Y002528D02*X008644D01*X008591Y002568D01*
X008644Y002607D01*X00876D01*X008644Y002449D02*X008591Y002489D01*
X008644Y002528D01*X00857Y002449D02*X00876D01*Y002781D02*X008644D01*
X008591Y002821D01*X008644Y002861D01*X00876D01*X008644Y002702D02*
X008591Y002742D01*X008644Y002781D01*X00857Y002702D02*X00876D01*
X027278Y005962D02*X027109D01*Y005835D01*X027151Y005877D01*X027236D01*
X027278Y005835D01*Y005751D01*X027236Y005709D01*X027151D01*
X027109Y005751D01*X027425Y005709D02*X027447D01*Y00573D01*X027425D01*
Y005709D01*X027784Y00592D02*X027742Y005962D01*X027657D01*
X027615Y00592D01*Y005751D01*X027657Y005709D01*X027742D01*
X027784Y005751D01*Y00592D01*X0277Y005877D02*Y005793D01*
X028037Y00592D02*X027995Y005962D01*X027911D01*X027868Y00592D01*
Y005751D01*X027911Y005709D01*X027995D01*X028037Y005751D01*Y00592D01*
X027953Y005877D02*Y005793D01*X028201Y005709D02*Y005825D01*
X02824Y005877D01*X02828Y005825D01*Y005709D01*X028121Y005825D02*
X028161Y005877D01*X0282Y005824D01*X028121Y005898D02*Y005709D01*
X028454D02*Y005825D01*X028493Y005877D01*X028533Y005825D01*Y005709D01*
X028375Y005825D02*X028414Y005877D01*X028453Y005824D01*
X028375Y005898D02*Y005709D01*X023397Y001547D02*Y001378D01*X023524D01*
X023481Y00142D01*Y001504D01*X023524Y001547D01*X023608D01*
X02365Y001504D01*Y00142D01*X023608Y001378D01*X02365Y001694D02*
Y001715D01*X023629D01*Y001694D01*X02365D01*X023397Y001884D02*
Y002053D01*X02365Y001926D01*X023397Y002306D02*Y002137D01*X023524D01*
X023481Y002179D01*Y002264D01*X023524Y002306D01*X023608D01*
X02365Y002264D01*Y002179D01*X023608Y002137D01*X02365Y002469D02*
X023534D01*X023482Y002509D01*X023534Y002549D01*X02365D01*
X023534Y00239D02*X023482Y00243D01*X023534Y002469D01*X02346Y00239D02*
X02365D01*Y002723D02*X023534D01*X023482Y002762D01*X023534Y002802D01*
X02365D01*X023534Y002643D02*X023482Y002683D01*X023534Y002722D01*
X02346Y002643D02*X02365D01*X00446Y001429D02*Y001261D01*X004586D01*
X004544Y001303D01*Y001387D01*X004586Y001429D01*X00467D01*
X004713Y001387D01*Y001303D01*X00467Y001261D01*X004502Y001514D02*
X00446Y001556D01*Y00164D01*X004502Y001682D01*X004544D01*
X004586Y00164D01*X004628Y001682D01*X00467D01*X004713Y00164D01*
Y001556D01*X00467Y001514D01*X004586Y00164D02*Y001598D01*
X004713Y00183D02*Y001851D01*X004692D01*Y00183D01*X004713D01*
X00446Y00202D02*Y002188D01*X004713Y002062D01*X004502Y002442D02*
X00446Y002399D01*Y002315D01*X004502Y002273D01*X00467D01*
X004713Y002315D01*Y002399D01*X00467Y002442D01*X004607D01*
X004565Y002399D01*Y002315D01*X004607Y002273D01*X004713Y002605D02*
X004597D01*X004544Y002644D01*X004597Y002684D01*X004713D01*
X004597Y002526D02*X004544Y002565D01*X004597Y002605D01*
X004523Y002526D02*X004713D01*Y002858D02*X004597D01*X004544Y002897D01*
X004597Y002937D01*X004713D01*X004597Y002779D02*X004544Y002818D01*
X004597Y002858D01*X004523Y002779D02*X004713D01*X00318Y001429D02*
Y001261D01*X003307D01*X003264Y001303D01*Y001387D01*X003307Y001429D01*
X003391D01*X003433Y001387D01*Y001303D01*X003391Y001261D01*
X00318Y001514D02*Y001682D01*X003433Y001556D01*Y00183D02*Y001851D01*
X003412D01*Y00183D01*X003433D01*X003222Y002188D02*X00318Y002146D01*
Y002062D01*X003222Y00202D01*X003391D01*X003433Y002062D01*Y002146D01*
X003391Y002188D01*X003222D01*X003264Y002104D02*X003349D01*
X003222Y002273D02*X00318Y002315D01*Y002399D01*X003222Y002442D01*
X003264D01*X003307Y002399D01*X003349Y002442D01*X003391D01*
X003433Y002399D01*Y002315D01*X003391Y002273D01*X003307Y002399D02*
Y002357D01*X003433Y002605D02*X003317D01*X003265Y002644D01*
X003317Y002684D01*X003433D01*X003317Y002526D02*X003265Y002565D01*
X003317Y002605D01*X003243Y002526D02*X003433D01*Y002858D02*X003317D01*
X003265Y002897D01*X003317Y002937D01*X003433D01*X003317Y002779D02*
X003265Y002818D01*X003317Y002858D01*X003243Y002779D02*X003433D01*
X027286Y006647D02*X027243Y006689D01*X027159D01*X027117Y006647D01*
Y006478D01*X027159Y006436D01*X027243D01*X027286Y006478D01*Y006541D01*
X027243Y006583D01*X027159D01*X027117Y006541D01*X027433Y006436D02*
X027454D01*Y006457D01*X027433D01*Y006436D01*X027792Y006647D02*
X02775Y006689D01*X027665D01*X027623Y006647D01*Y006478D01*
X027665Y006436D01*X02775D01*X027792Y006478D01*Y006541D01*
X02775Y006583D01*X027665D01*X027623Y006541D01*X028045Y006689D02*
X027876D01*Y006562D01*X027918Y006604D01*X028003D01*X028045Y006562D01*
Y006478D01*X028003Y006436D01*X027918D01*X027876Y006478D01*
X028208Y006436D02*Y006552D01*X028248Y006604D01*X028287Y006552D01*
Y006436D01*X028129Y006552D02*X028169Y006604D01*X028208Y006551D01*
X028129Y006625D02*Y006436D01*X028461D02*Y006552D01*X028501Y006604D01*
X02854Y006552D01*Y006436D01*X028382Y006552D02*X028422Y006604D01*
X028461Y006551D01*X028382Y006625D02*Y006436D01*X022968Y001479D02*
X022926Y001437D01*Y001353D01*X022968Y00131D01*X023137D01*
X023179Y001353D01*Y001437D01*X023137Y001479D01*X023074D01*
X023031Y001437D01*Y001353D01*X023074Y00131D01*X023179Y001627D02*
Y001648D01*X023158D01*Y001627D01*X023179D01*X022926Y001817D02*
Y001985D01*X023179Y001859D01*X022926Y002238D02*Y00207D01*X023053D01*
X02301Y002112D01*Y002196D01*X023053Y002238D01*X023137D01*
X023179Y002196D01*Y002112D01*X023137Y00207D01*X023179Y002402D02*
X023063D01*X023011Y002441D01*X023063Y002481D01*X023179D01*
X023063Y002323D02*X023011Y002362D01*X023063Y002402D01*
X022989Y002323D02*X023179D01*Y002655D02*X023063D01*X023011Y002694D01*
X023063Y002734D01*X023179D01*X023063Y002576D02*X023011Y002615D01*
X023063Y002655D01*X022989Y002576D02*X023179D01*X001549Y001429D02*
X001507Y001387D01*Y001303D01*X001549Y001261D01*X001718D01*
X00176Y001303D01*Y001387D01*X001718Y001429D01*X001654D01*
X001612Y001387D01*Y001303D01*X001654Y001261D01*X001549Y001556D02*
X001507Y001598D01*X00176D01*Y00164D01*Y001598D02*Y001556D01*Y00183D02*
Y001851D01*X001739D01*Y00183D01*X00176D01*X001549Y00202D02*
X001507Y002062D01*Y002146D01*X001549Y002188D01*X001591D01*
X001633Y002146D01*X001718Y00202D01*X00176D01*Y002188D01*
X001549Y002273D02*X001507Y002315D01*Y002399D01*X001549Y002442D01*
X001591D01*X001633Y002399D01*X001718Y002273D01*X00176D01*Y002442D01*
Y002605D02*X001644D01*X001591Y002644D01*X001644Y002684D01*X00176D01*
X001644Y002526D02*X001591Y002565D01*X001644Y002605D01*X00157Y002526D02*
X00176D01*Y002858D02*X001644D01*X001591Y002897D01*X001644Y002937D01*
X00176D01*X001644Y002779D02*X001591Y002818D01*X001644Y002858D01*
X00157Y002779D02*X00176D01*X-000112Y001451D02*X-000155Y001409D01*
Y001325D01*X-000112Y001282D01*X000056D01*X000098Y001325D01*Y001409D01*
X000056Y001451D01*X-000007D01*X-000049Y001409D01*Y001325D01*
X-000007Y001282D01*X-000155Y001704D02*Y001535D01*X-000028D01*
X-00007Y001578D01*Y001662D01*X-000028Y001704D01*X000056D01*
X000098Y001662D01*Y001578D01*X000056Y001535D01*X000098Y001852D02*
Y001873D01*X000077D01*Y001852D01*X000098D01*X-000155Y00221D02*
Y002042D01*X-000028D01*X-00007Y002084D01*Y002168D01*X-000028Y00221D01*
X000056D01*X000098Y002168D01*Y002084D01*X000056Y002042D01*
X000098Y002374D02*X-000018D01*X-00007Y002413D01*X-000018Y002453D01*
X000098D01*X-000018Y002295D02*X-00007Y002334D01*X-000017Y002374D01*
X-000091Y002295D02*X000098D01*Y002627D02*X-000018D01*X-00007Y002666D01*
X-000018Y002706D01*X000098D01*X-000018Y002548D02*X-00007Y002587D01*
X-000017Y002627D01*X-000091Y002548D02*X000098D01*X-000858Y001409D02*
X-0009Y001367D01*Y001282D01*X-000858Y00124D01*X-000689D01*
X-000647Y001282D01*Y001367D01*X-000689Y001409D01*X-000752D01*
X-000794Y001367D01*Y001282D01*X-000752Y00124D01*X-0009Y001493D02*
Y001662D01*X-000647Y001535D01*Y00181D02*Y001831D01*X-000668D01*
Y00181D01*X-000647D01*X-000858Y001999D02*X-0009Y002042D01*Y002126D01*
X-000858Y002168D01*X-000816D01*X-000773Y002126D01*X-000689Y001999D01*
X-000647D01*Y002168D01*X-0009Y002421D02*Y002252D01*X-000773D01*
X-000816Y002295D01*Y002379D01*X-000773Y002421D01*X-000689D01*
X-000647Y002379D01*Y002295D01*X-000689Y002252D01*X-000647Y002585D02*
X-000763D01*X-000815Y002624D01*X-000763Y002664D01*X-000647D01*
X-000763Y002506D02*X-000815Y002545D01*X-000763Y002584D01*
X-000837Y002506D02*X-000647D01*Y002838D02*X-000763D01*
X-000815Y002877D01*X-000763Y002917D01*X-000647D01*X-000763Y002759D02*
X-000815Y002798D01*X-000763Y002838D01*X-000837Y002759D02*X-000647D01*
X022433Y001547D02*X02239Y001589D01*X022348D01*X022306Y001547D01*
Y001462D01*X022348Y00142D01*X02239D01*X022433Y001462D01*Y001547D01*
X022475Y001589D01*X022517D01*X022559Y001547D01*Y001462D01*
X022517Y00142D01*X022475D01*X022433Y001462D01*X022559Y001736D02*
Y001758D01*X022538D01*Y001736D01*X022559D01*Y002053D02*X022306D01*
X022454Y001926D01*Y002095D01*X022348Y002222D02*X022306Y002264D01*
X022559D01*Y002306D01*Y002264D02*Y002222D01*Y002512D02*X022443D01*
X022391Y002551D01*X022443Y002591D01*X022559D01*X022443Y002433D02*
X022391Y002472D01*X022443Y002511D01*X022369Y002433D02*X022559D01*
Y002765D02*X022443D01*X022391Y002804D01*X022443Y002844D01*X022559D01*
X022443Y002686D02*X022391Y002725D01*X022443Y002765D01*
X022369Y002686D02*X022559D01*X027236Y007272D02*X027278Y007314D01*
Y007357D01*X027236Y007399D01*X027151D01*X027109Y007357D01*Y007314D01*
X027151Y007272D01*X027236D01*X027278Y00723D01*Y007188D01*
X027236Y007146D01*X027151D01*X027109Y007188D01*Y00723D01*
X027151Y007272D01*X027425Y007146D02*X027447D01*Y007167D01*X027425D01*
Y007146D01*X027742D02*Y007399D01*X027615Y007251D01*X027784D01*
X027947Y007146D02*Y007262D01*X027987Y007314D01*X028027Y007262D01*
Y007146D01*X027868Y007262D02*X027908Y007314D01*X027947Y007261D01*
X027868Y007335D02*Y007146D01*X0282D02*Y007262D01*X02824Y007314D01*
X02828Y007262D01*Y007146D01*X028121Y007262D02*X028161Y007314D01*
X0282Y007261D01*X028121Y007335D02*Y007146D01*X-002535Y007511D02*
X-002493Y007469D01*X-002408D01*X-002366Y007511D01*Y00768D01*
X-002408Y007722D01*X-002493D01*X-002535Y00768D01*Y007616D01*
X-002493Y007574D01*X-002408D01*X-002366Y007616D01*X-002219Y007469D02*
X-002197D01*Y00749D01*X-002219D01*Y007469D01*X-002029Y00768D02*
X-001987Y007722D01*X-001902D01*X-00186Y00768D01*Y007637D01*
X-001902Y007595D01*X-002029Y007511D01*Y007469D01*X-00186D01*
X-001607Y00768D02*X-001649Y007722D01*X-001733D01*X-001776Y00768D01*
Y007511D01*X-001733Y007469D01*X-001649D01*X-001607Y007511D01*Y00768D01*
X-001691Y007637D02*Y007553D01*X-001443Y007469D02*Y007585D01*
X-001404Y007637D01*X-001364Y007585D01*Y007469D01*X-001523Y007585D02*
X-001483Y007637D01*X-001444Y007584D01*X-001523Y007658D02*Y007469D01*
X-00119D02*Y007585D01*X-001151Y007637D01*X-001111Y007585D01*Y007469D01*
X-001269Y007585D02*X-00123Y007637D01*X-001191Y007584D01*
X-001269Y007658D02*Y007469D01*X-002565Y008192D02*X-002522Y00815D01*
X-002438D01*X-002396Y008192D01*Y008361D01*X-002438Y008403D01*
X-002522D01*X-002565Y008361D01*Y008297D01*X-002522Y008255D01*
X-002438D01*X-002396Y008297D01*X-002248Y00815D02*X-002227D01*
Y008171D01*X-002248D01*Y00815D01*X-001932D02*Y008403D01*
X-002058Y008255D01*X-00189D01*X-001637Y008403D02*X-001805D01*
Y008276D01*X-001763Y008318D01*X-001679D01*X-001637Y008276D01*
Y008192D01*X-001679Y00815D01*X-001763D01*X-001805Y008192D01*
X-001473Y00815D02*Y008266D01*X-001434Y008318D01*X-001394Y008266D01*
Y00815D01*X-001552Y008266D02*X-001513Y008318D01*X-001473Y008265D01*
X-001552Y008339D02*Y00815D01*X-00122D02*Y008266D01*X-001181Y008318D01*
X-001141Y008266D01*Y00815D01*X-001299Y008266D02*X-00126Y008318D01*
X-00122Y008265D01*X-001299Y008339D02*Y00815D01*D11*X024902Y004094D02*
Y003012D01*X021063Y007933D02*Y003012D01*X025787Y003701D02*Y003012D01*
X0Y003701D02*Y003012D01*X00867Y007263D02*Y003227D01*X01355Y00753D02*
Y003199D01*X-000689Y005669D02*Y00311D01*X021299Y007953D02*
X024134Y003622D01*Y003031D01*Y003622D02*X024646Y004252D01*
X025984Y003937D02*X026969D01*X025984Y006555D02*X026969D01*
X025984Y007244D02*X026969D01*X025984Y008976D02*X026969D01*
X025295Y004488D02*X026969D01*X021378Y008189D02*X026004D01*
X026496Y007697D01*X026988D01*X02313Y006457D02*Y003012D01*
X001685Y007461D02*X001685Y003157D01*X003335Y007419D02*Y003187D01*
X004621Y00313D02*Y007461D01*X024134Y003622D02*X022717Y004409D01*
X024134Y003661D02*X023622Y005591D01*X023917Y005906D02*X026969D01*
X022835Y004685D02*X025591D01*X026083D01*X026339Y005118D01*X026929D01*
X023524Y005512D02*Y003051D01*X022476Y004331D02*Y003051D01*
X024658Y00829D02*X026921D01*X024461Y008071D02*Y003051D01*
X001587Y007559D02*X-000972D01*X001783D02*X00326D01*X004523Y007658D02*
X-0003D01*X-000694Y008248D01*X-000989D01*D10*X025675Y006786D02*
X025633Y006744D01*Y006659D01*X025675Y006617D01*X025844D01*
X025886Y006659D01*Y006744D01*X025844Y006786D01*X025675D01*
X025717Y006701D02*X025801D01*X025886Y006933D02*Y006954D01*X025865D01*
Y006933D01*X025886D01*X025675Y007292D02*X025633Y00725D01*Y007165D01*
X025675Y007123D01*X025844D01*X025886Y007165D01*Y00725D01*
X025844Y007292D01*X025675D01*X025717Y007208D02*X025801D01*
X025886Y007455D02*X02577D01*X025717Y007495D01*X02577Y007534D01*
X025886D01*X02577Y007376D02*X025717Y007416D01*X02577Y007455D01*
X025696Y007376D02*X025886D01*Y007708D02*X02577D01*X025717Y007748D01*
X02577Y007788D01*X025886D01*X02577Y007629D02*X025717Y007669D01*
X02577Y007708D01*X025696Y007629D02*X025886D01*X027334Y009066D02*
X027292Y009109D01*X027208D01*X027165Y009066D01*Y008898D01*
X027208Y008855D01*X027292D01*X027334Y008898D01*Y009066D01*
X02725Y009024D02*Y00894D01*X027482Y008855D02*X027503D01*Y008877D01*
X027482D01*Y008855D01*X02784Y009066D02*X027798Y009109D01*X027714D01*
X027672Y009066D01*Y008898D01*X027714Y008855D01*X027798D01*
X02784Y008898D01*Y009066D01*X027756Y009024D02*Y00894D01*
X028004Y008855D02*Y008971D01*X028043Y009024D01*X028083Y008971D01*
Y008855D01*X027925Y008971D02*X027964Y009024D01*X028003Y008971D01*
X027925Y009045D02*Y008855D01*X028257D02*Y008971D01*X028296Y009024D01*
X028336Y008971D01*Y008855D01*X028178Y008971D02*X028217Y009024D01*
X028257Y008971D01*X028178Y009045D02*Y008855D01*X02725Y00964D02*
X027292Y009682D01*Y009429D01*X027334D01*X027292D02*X02725D01*
X027524D02*X027545D01*Y00945D01*X027524D01*Y009429D01*X02784D02*
Y009682D01*X027714Y009535D01*X027882D01*X028046Y009429D02*Y009545D01*
X028085Y009598D01*X028125Y009545D01*Y009429D01*X027967Y009545D02*
X028006Y009598D01*X028046Y009545D01*X027967Y009619D02*Y009429D01*
X028299D02*Y009545D01*X028338Y009598D01*X028378Y009545D01*Y009429D01*
X02822Y009545D02*X028259Y009598D01*X028299Y009545D01*X02822Y009619D02*
Y009429D01*X023946Y005728D02*X023903Y00577D01*X024156D01*Y005813D01*
Y00577D02*Y005728D01*Y006002D02*Y006023D01*X024135D01*Y006002D01*
X024156D01*Y006319D02*X023903D01*X024051Y006192D01*Y006361D01*
X024156Y006524D02*X02404D01*X023988Y006564D01*X02404Y006603D01*
X024156D01*X02404Y006445D02*X023988Y006485D01*X024041Y006524D01*
X023967Y006445D02*X024156D01*Y006777D02*X02404D01*X023988Y006817D01*
X02404Y006856D01*X024156D01*X02404Y006698D02*X023988Y006738D01*
X024041Y006777D01*X023967Y006698D02*X024156D01*X023903Y007363D02*
X024156D01*X02404D02*X023988Y00731D01*Y007257D01*X02403Y007204D01*
X024104D01*X024156Y007257D01*Y00731D01*X024104Y007363D01*
X023993Y007537D02*X024156D01*X023924D02*X023919D01*X024156Y007795D02*
X023988D01*X024102Y007626D02*X024049Y007641D01*X024013Y007664D01*
X023994Y007694D01*X023988Y007715D01*Y007732D01*Y007761D01*
X024005Y007795D01*X024104Y007626D02*X024116D01*X024125Y007628D01*
X024135Y007635D01*X024144Y007649D01*X024156Y007679D01*Y007725D01*
X024137Y00777D01*X024114Y007795D01*X024156Y007943D02*Y007964D01*
X024135D01*Y007943D01*X024156D01*X027171Y01025D02*X027213Y010292D01*
Y010039D01*X027255D01*X027213D02*X027171D01*X027445D02*X027466D01*
Y01006D01*X027445D01*Y010039D01*X027635Y010082D02*X027677Y010039D01*
X027762D01*X027804Y010082D01*Y01025D01*X027762Y010292D01*X027677D01*
X027635Y01025D01*Y010187D01*X027677Y010145D01*X027762D01*
X027804Y010187D01*X028057Y01025D02*X028015Y010292D01*X02793D01*
X027888Y01025D01*Y010082D01*X02793Y010039D01*X028015D01*
X028057Y010082D01*Y01025D01*X027972Y010208D02*Y010124D01*
X02822Y010039D02*Y010155D01*X02826Y010208D01*X028299Y010155D01*
Y010039D01*X028141Y010155D02*X028181Y010208D01*X02822Y010155D01*
X028141Y010229D02*Y010039D01*X028473D02*Y010155D01*X028513Y010208D01*
X028552Y010155D01*Y010039D01*X028394Y010155D02*X028434Y010208D01*
X028473Y010155D01*X028394Y010229D02*Y010039D01*X027143Y012792D02*
X027185Y012835D01*Y012582D01*X027227D01*X027185D02*X027143D01*
X027522Y012792D02*X02748Y012835D01*X027396D01*X027354Y012792D01*
Y012624D01*X027396Y012582D01*X02748D01*X027522Y012624D01*Y012792D01*
X027438Y01275D02*Y012666D01*X02767Y012582D02*X027691D01*Y012603D01*
X02767D01*Y012582D01*X027986Y012708D02*X028029Y01275D01*Y012792D01*
X027986Y012835D01*X027902D01*X02786Y012792D01*Y01275D01*
X027902Y012708D01*X027986D01*X028029Y012666D01*Y012624D01*
X027986Y012582D01*X027902D01*X02786Y012624D01*Y012666D01*
X027902Y012708D01*X028282Y012792D02*X02824Y012835D01*X028155D01*
X028113Y012792D01*Y012624D01*X028155Y012582D01*X02824D01*
X028282Y012624D01*Y012792D01*X028197Y01275D02*Y012666D01*
X028445Y012582D02*Y012698D01*X028484Y01275D01*X028524Y012698D01*
Y012582D01*X028366Y012698D02*X028405Y01275D01*X028445Y012697D01*
X028366Y012771D02*Y012582D01*X028698D02*Y012698D01*X028738Y01275D01*
X028777Y012698D01*Y012582D01*X028619Y012698D02*X028659Y01275D01*
X028698Y012697D01*X028619Y012771D02*Y012582D01*X027203Y01342D02*
X027245Y013462D01*Y013209D01*X027287D01*X027245D02*X027203D01*
X027456Y01342D02*X027498Y013462D01*Y013209D01*X02754D01*X027498D02*
X027456D01*X02773D02*X027751D01*Y01323D01*X02773D01*Y013209D01*
X028088Y01342D02*X028046Y013462D01*X027962D01*X02792Y01342D01*
Y013251D01*X027962Y013209D01*X028046D01*X028088Y013251D01*Y01342D01*
X028004Y013377D02*Y013293D01*X028341Y01342D02*X028299Y013462D01*
X028215D01*X028173Y01342D01*Y013251D01*X028215Y013209D01*X028299D01*
X028341Y013251D01*Y013314D01*X028299Y013356D01*X028215D01*
X028173Y013314D01*X028505Y013209D02*Y013325D01*X028544Y013377D01*
X028584Y013325D01*Y013209D01*X028426Y013325D02*X028465Y013377D01*
X028505Y013324D01*X028426Y013398D02*Y013209D01*X028758D02*Y013325D01*
X028797Y013377D01*X028837Y013325D01*Y013209D01*X028679Y013325D02*
X028718Y013377D01*X028758Y013324D01*X028679Y013398D02*Y013209D01*
X020951Y006364D02*X020908Y006406D01*X021161D01*Y006448D01*Y006406D02*
Y006364D01*X020951Y006575D02*X020908Y006617D01*Y006701D01*
X020951Y006744D01*X020993D01*X021035Y006701D01*X021119Y006575D01*
X021161D01*Y006744D01*Y006891D02*Y006912D01*X02114D01*Y006891D01*
X021161D01*X020951Y00725D02*X020908Y007208D01*Y007123D01*
X020951Y007081D01*X021119D01*X021161Y007123D01*Y007208D01*
X021119Y00725D01*X020951D01*X020993Y007165D02*X021077D01*
X021161Y007413D02*X021045D01*X020993Y007452D01*X021045Y007492D01*
X021161D01*X021045Y007334D02*X020993Y007373D01*X021046Y007413D01*
X020972Y007334D02*X021161D01*Y007666D02*X021045D01*X020993Y007706D01*
X021045Y007745D01*X021161D01*X021045Y007587D02*X020993Y007627D01*
X021046Y007666D01*X020972Y007587D02*X021161D01*X02725Y014168D02*
X027292Y01421D01*Y013957D01*X027334D01*X027292D02*X02725D01*
X027461Y014168D02*X027503Y01421D01*X027587D01*X027629Y014168D01*
Y014125D01*X027587Y014083D01*X027461Y013999D01*Y013957D01*X027629D01*
X027777D02*X027798D01*Y013978D01*X027777D01*Y013957D01*
X028093Y014083D02*X028135Y014125D01*Y014168D01*X028093Y01421D01*
X028009D01*X027967Y014168D01*Y014125D01*X028009Y014083D01*X028093D01*
X028135Y014041D01*Y013999D01*X028093Y013957D01*X028009D01*
X027967Y013999D01*Y014041D01*X028009Y014083D01*X028389Y014168D02*
X028346Y01421D01*X028262D01*X02822Y014168D01*Y013999D01*
X028262Y013957D01*X028346D01*X028389Y013999D01*Y014168D01*
X028304Y014125D02*Y014041D01*X028552Y013957D02*Y014073D01*
X028591Y014125D01*X028631Y014073D01*Y013957D01*X028473Y014073D02*
X028512Y014125D01*X028552Y014073D01*X028473Y014146D02*Y013957D01*
X028805D02*Y014073D01*X028844Y014125D01*X028884Y014073D01*Y013957D01*
X028726Y014073D02*X028765Y014125D01*X028805Y014073D01*
X028726Y014146D02*Y013957D01*X024848Y006492D02*X024806Y006534D01*
Y006618D01*X024848Y00666D01*X024891D01*X024933Y006618D01*
X025017Y006492D01*X025059D01*Y00666D01*Y006808D02*Y006829D01*
X025038D01*Y006808D01*X025059D01*X024848Y006998D02*X024806Y00704D01*
Y007124D01*X024848Y007166D01*X024891D01*X024933Y007124D01*
X025017Y006998D01*X025059D01*Y007166D01*X024806Y00742D02*Y007251D01*
X024933D01*X024891Y007293D01*Y007377D01*X024933Y00742D01*X025017D01*
X025059Y007377D01*Y007293D01*X025017Y007251D01*X025059Y007583D02*
X024943D01*X024891Y007622D01*X024943Y007662D01*X025059D01*
X024943Y007504D02*X024891Y007543D01*X024944Y007583D01*X02487Y007504D02*
X025059D01*Y007836D02*X024943D01*X024891Y007875D01*X024943Y007915D01*
X025059D01*X024943Y007757D02*X024891Y007796D01*X024944Y007836D01*
X02487Y007757D02*X025059D01*X024358Y006499D02*X024316Y006541D01*
Y006625D01*X024358Y006667D01*X024401D01*X024443Y006625D01*
X024485Y006667D01*X024527D01*X024569Y006625D01*Y006541D01*
X024527Y006499D01*X024443Y006625D02*Y006583D01*X024569Y006815D02*
Y006836D01*X024548D01*Y006815D01*X024569D01*X024358Y007005D02*
X024316Y007047D01*Y007131D01*X024358Y007173D01*X024401D01*
X024443Y007131D01*X024485Y007173D01*X024527D01*X024569Y007131D01*
Y007047D01*X024527Y007005D01*X024443Y007131D02*Y007089D01*
X024316Y007258D02*Y007427D01*X024569Y0073D01*Y00759D02*X024453D01*
X024401Y007629D01*X024453Y007669D01*X024569D01*X024453Y007511D02*
X024401Y00755D01*X024454Y00759D01*X02438Y007511D02*X024569D01*
Y007843D02*X024453D01*X024401Y007882D01*X024453Y007922D01*X024569D01*
X024453Y007764D02*X024401Y007803D01*X024454Y007843D01*X02438Y007764D02*
X024569D01*X013372Y006223D02*X01333Y006265D01*Y00635D01*
X013372Y006392D01*X013414D01*X013456Y00635D01*X013498Y006392D01*
X01354D01*X013583Y00635D01*Y006265D01*X01354Y006223D01*
X013456Y00635D02*Y006308D01*X013372Y006519D02*X01333Y006561D01*
X013583D01*Y006603D01*Y006561D02*Y006519D01*Y006793D02*Y006814D01*
X013562D01*Y006793D01*X013583D01*X013372Y007151D02*X01333Y007109D01*
Y007025D01*X013372Y006983D01*X01354D01*X013583Y007025D01*Y007109D01*
X01354Y007151D01*X013372D01*X013414Y007067D02*X013498D01*
X01333Y007236D02*Y007404D01*X013583Y007278D01*Y007568D02*X013467D01*
X013414Y007607D01*X013467Y007647D01*X013583D01*X013467Y007489D02*
X013414Y007528D01*X013467Y007568D01*X013393Y007489D02*X013583D01*
Y007821D02*X013467D01*X013414Y00786D01*X013467Y0079D01*X013583D01*
X013467Y007742D02*X013414Y007781D01*X013467Y007821D01*
X013393Y007742D02*X013583D01*X00876Y00635D02*X008507D01*
X008654Y006223D01*Y006392D01*X008549Y006476D02*X008507Y006519D01*
Y006603D01*X008549Y006645D01*X008591D01*X008633Y006603D01*
X008675Y006645D01*X008718D01*X00876Y006603D01*Y006519D01*
X008718Y006476D01*X008633Y006603D02*Y006561D01*X00876Y006793D02*
Y006814D01*X008739D01*Y006793D01*X00876D01*Y007109D02*X008507D01*
X008654Y006983D01*Y007151D01*X008633Y007362D02*X008591Y007404D01*
X008549D01*X008507Y007362D01*Y007278D01*X008549Y007236D01*X008591D01*
X008633Y007278D01*Y007362D01*X008675Y007404D01*X008718D01*
X00876Y007362D01*Y007278D01*X008718Y007236D01*X008675D01*
X008633Y007278D01*X00876Y007568D02*X008644D01*X008591Y007607D01*
X008644Y007647D01*X00876D01*X008644Y007489D02*X008591Y007528D01*
X008644Y007568D01*X00857Y007489D02*X00876D01*Y007821D02*X008644D01*
X008591Y00786D01*X008644Y0079D01*X00876D01*X008644Y007742D02*
X008591Y007781D01*X008644Y007821D01*X00857Y007742D02*X00876D01*
X027278Y011001D02*X027109D01*Y010875D01*X027151Y010917D01*X027236D01*
X027278Y010875D01*Y01079D01*X027236Y010748D01*X027151D01*
X027109Y01079D01*X027425Y010748D02*X027447D01*Y010769D01*X027425D01*
Y010748D01*X027784Y010959D02*X027742Y011001D01*X027657D01*
X027615Y010959D01*Y01079D01*X027657Y010748D01*X027742D01*
X027784Y01079D01*Y010959D01*X0277Y010917D02*Y010832D01*
X028037Y010959D02*X027995Y011001D01*X027911D01*X027868Y010959D01*
Y01079D01*X027911Y010748D01*X027995D01*X028037Y01079D01*Y010959D01*
X027953Y010917D02*Y010832D01*X028201Y010748D02*Y010864D01*
X02824Y010916D01*X02828Y010864D01*Y010748D01*X028121Y010864D02*
X028161Y010916D01*X0282Y010864D01*X028121Y010938D02*Y010748D01*
X028454D02*Y010864D01*X028493Y010916D01*X028533Y010864D01*Y010748D01*
X028375Y010864D02*X028414Y010916D01*X028453Y010864D01*
X028375Y010938D02*Y010748D01*X023397Y006586D02*Y006417D01*X023524D01*
X023481Y00646D01*Y006544D01*X023524Y006586D01*X023608D01*
X02365Y006544D01*Y00646D01*X023608Y006417D01*X02365Y006734D02*
Y006755D01*X023629D01*Y006734D01*X02365D01*X023397Y006924D02*
Y007092D01*X02365Y006966D01*X023397Y007345D02*Y007177D01*X023524D01*
X023481Y007219D01*Y007303D01*X023524Y007345D01*X023608D01*
X02365Y007303D01*Y007219D01*X023608Y007177D01*X02365Y007509D02*
X023534D01*X023482Y007548D01*X023534Y007588D01*X02365D01*
X023534Y00743D02*X023482Y007469D01*X023534Y007509D01*X02346Y00743D02*
X02365D01*Y007762D02*X023534D01*X023482Y007801D01*X023534Y007841D01*
X02365D01*X023534Y007683D02*X023482Y007722D01*X023534Y007762D01*
X02346Y007683D02*X02365D01*X00446Y006469D02*Y0063D01*X004586D01*
X004544Y006342D01*Y006426D01*X004586Y006469D01*X00467D01*
X004713Y006426D01*Y006342D01*X00467Y0063D01*X004502Y006553D02*
X00446Y006595D01*Y00668D01*X004502Y006722D01*X004544D01*
X004586Y00668D01*X004628Y006722D01*X00467D01*X004713Y00668D01*
Y006595D01*X00467Y006553D01*X004586Y00668D02*Y006637D01*
X004713Y006869D02*Y00689D01*X004692D01*Y006869D01*X004713D01*
X00446Y007059D02*Y007228D01*X004713Y007101D01*X004502Y007481D02*
X00446Y007439D01*Y007354D01*X004502Y007312D01*X00467D01*
X004713Y007354D01*Y007439D01*X00467Y007481D01*X004607D01*
X004565Y007439D01*Y007354D01*X004607Y007312D01*X004713Y007644D02*
X004597D01*X004544Y007684D01*X004597Y007723D01*X004713D01*
X004597Y007565D02*X004544Y007605D01*X004597Y007644D01*
X004523Y007565D02*X004713D01*Y007897D02*X004597D01*X004544Y007937D01*
X004597Y007977D01*X004713D01*X004597Y007818D02*X004544Y007858D01*
X004597Y007897D01*X004523Y007818D02*X004713D01*X00318Y006469D02*
Y0063D01*X003307D01*X003264Y006342D01*Y006426D01*X003307Y006469D01*
X003391D01*X003433Y006426D01*Y006342D01*X003391Y0063D01*
X00318Y006553D02*Y006722D01*X003433Y006595D01*Y006869D02*Y00689D01*
X003412D01*Y006869D01*X003433D01*X003222Y007228D02*X00318Y007186D01*
Y007101D01*X003222Y007059D01*X003391D01*X003433Y007101D01*Y007186D01*
X003391Y007228D01*X003222D01*X003264Y007143D02*X003349D01*
X003222Y007312D02*X00318Y007354D01*Y007439D01*X003222Y007481D01*
X003264D01*X003307Y007439D01*X003349Y007481D01*X003391D01*
X003433Y007439D01*Y007354D01*X003391Y007312D01*X003307Y007439D02*
Y007397D01*X003433Y007644D02*X003317D01*X003265Y007684D01*
X003317Y007723D01*X003433D01*X003317Y007565D02*X003265Y007605D01*
X003317Y007644D01*X003243Y007565D02*X003433D01*Y007897D02*X003317D01*
X003265Y007937D01*X003317Y007977D01*X003433D01*X003317Y007818D02*
X003265Y007858D01*X003317Y007897D01*X003243Y007818D02*X003433D01*
X027286Y011686D02*X027243Y011728D01*X027159D01*X027117Y011686D01*
Y011517D01*X027159Y011475D01*X027243D01*X027286Y011517D01*Y01158D01*
X027243Y011623D01*X027159D01*X027117Y01158D01*X027433Y011475D02*
X027454D01*Y011496D01*X027433D01*Y011475D01*X027792Y011686D02*
X02775Y011728D01*X027665D01*X027623Y011686D01*Y011517D01*
X027665Y011475D01*X02775D01*X027792Y011517D01*Y01158D01*
X02775Y011623D01*X027665D01*X027623Y01158D01*X028045Y011728D02*
X027876D01*Y011602D01*X027918Y011644D01*X028003D01*X028045Y011602D01*
Y011517D01*X028003Y011475D01*X027918D01*X027876Y011517D01*
X028208Y011475D02*Y011591D01*X028248Y011643D01*X028287Y011591D01*
Y011475D01*X028129Y011591D02*X028169Y011643D01*X028208Y011591D01*
X028129Y011665D02*Y011475D01*X028461D02*Y011591D01*X028501Y011643D01*
X02854Y011591D01*Y011475D01*X028382Y011591D02*X028422Y011643D01*
X028461Y011591D01*X028382Y011665D02*Y011475D01*X022968Y006519D02*
X022926Y006476D01*Y006392D01*X022968Y00635D01*X023137D01*
X023179Y006392D01*Y006476D01*X023137Y006519D01*X023074D01*
X023031Y006476D01*Y006392D01*X023074Y00635D01*X023179Y006666D02*
Y006687D01*X023158D01*Y006666D01*X023179D01*X022926Y006856D02*
Y007025D01*X023179Y006898D01*X022926Y007278D02*Y007109D01*X023053D01*
X02301Y007151D01*Y007236D01*X023053Y007278D01*X023137D01*
X023179Y007236D01*Y007151D01*X023137Y007109D01*X023179Y007441D02*
X023063D01*X023011Y007481D01*X023063Y00752D01*X023179D01*
X023063Y007362D02*X023011Y007402D01*X023063Y007441D01*
X022989Y007362D02*X023179D01*Y007694D02*X023063D01*X023011Y007734D01*
X023063Y007773D01*X023179D01*X023063Y007615D02*X023011Y007655D01*
X023063Y007694D01*X022989Y007615D02*X023179D01*X001549Y006469D02*
X001507Y006426D01*Y006342D01*X001549Y0063D01*X001718D01*
X00176Y006342D01*Y006426D01*X001718Y006469D01*X001654D01*
X001612Y006426D01*Y006342D01*X001654Y0063D01*X001549Y006595D02*
X001507Y006637D01*X00176D01*Y00668D01*Y006637D02*Y006595D01*Y006869D02*
Y00689D01*X001739D01*Y006869D01*X00176D01*X001549Y007059D02*
X001507Y007101D01*Y007186D01*X001549Y007228D01*X001591D01*
X001633Y007186D01*X001718Y007059D01*X00176D01*Y007228D01*
X001549Y007312D02*X001507Y007354D01*Y007439D01*X001549Y007481D01*
X001591D01*X001633Y007439D01*X001718Y007312D01*X00176D01*Y007481D01*
Y007644D02*X001644D01*X001591Y007684D01*X001644Y007723D01*X00176D01*
X001644Y007565D02*X001591Y007605D01*X001644Y007644D01*X00157Y007565D02*
X00176D01*Y007897D02*X001644D01*X001591Y007937D01*X001644Y007977D01*
X00176D01*X001644Y007818D02*X001591Y007858D01*X001644Y007897D01*
X00157Y007818D02*X00176D01*X-000112Y00649D02*X-000155Y006448D01*
Y006364D01*X-000112Y006322D01*X000056D01*X000098Y006364D01*Y006448D01*
X000056Y00649D01*X-000007D01*X-000049Y006448D01*Y006364D01*
X-000007Y006322D01*X-000155Y006744D02*Y006575D01*X-000028D01*
X-00007Y006617D01*Y006701D01*X-000028Y006744D01*X000056D01*
X000098Y006701D01*Y006617D01*X000056Y006575D01*X000098Y006891D02*
Y006912D01*X000077D01*Y006891D01*X000098D01*X-000155Y00725D02*
Y007081D01*X-000028D01*X-00007Y007123D01*Y007208D01*X-000028Y00725D01*
X000056D01*X000098Y007208D01*Y007123D01*X000056Y007081D01*
X000098Y007413D02*X-000018D01*X-00007Y007452D01*X-000018Y007492D01*
X000098D01*X-000018Y007334D02*X-00007Y007373D01*X-000017Y007413D01*
X-000091Y007334D02*X000098D01*Y007666D02*X-000018D01*X-00007Y007706D01*
X-000018Y007745D01*X000098D01*X-000018Y007587D02*X-00007Y007627D01*
X-000017Y007666D01*X-000091Y007587D02*X000098D01*X-000858Y006448D02*
X-0009Y006406D01*Y006322D01*X-000858Y00628D01*X-000689D01*
X-000647Y006322D01*Y006406D01*X-000689Y006448D01*X-000752D01*
X-000794Y006406D01*Y006322D01*X-000752Y00628D01*X-0009Y006533D02*
Y006701D01*X-000647Y006575D01*Y006849D02*Y00687D01*X-000668D01*
Y006849D01*X-000647D01*X-000858Y007039D02*X-0009Y007081D01*Y007165D01*
X-000858Y007207D01*X-000816D01*X-000773Y007165D01*X-000689Y007039D01*
X-000647D01*Y007207D01*X-0009Y007461D02*Y007292D01*X-000773D01*
X-000816Y007334D01*Y007418D01*X-000773Y007461D01*X-000689D01*
X-000647Y007418D01*Y007334D01*X-000689Y007292D01*X-000647Y007624D02*
X-000763D01*X-000815Y007663D01*X-000763Y007703D01*X-000647D01*
X-000763Y007545D02*X-000815Y007584D01*X-000763Y007624D01*
X-000837Y007545D02*X-000647D01*Y007877D02*X-000763D01*
X-000815Y007916D01*X-000763Y007956D01*X-000647D01*X-000763Y007798D02*
X-000815Y007837D01*X-000763Y007877D01*X-000837Y007798D02*X-000647D01*
X022433Y006586D02*X02239Y006628D01*X022348D01*X022306Y006586D01*
Y006502D01*X022348Y00646D01*X02239D01*X022433Y006502D01*Y006586D01*
X022475Y006628D01*X022517D01*X022559Y006586D01*Y006502D01*
X022517Y00646D01*X022475D01*X022433Y006502D01*X022559Y006776D02*
Y006797D01*X022538D01*Y006776D01*X022559D01*Y007092D02*X022306D01*
X022454Y006966D01*Y007134D01*X022348Y007261D02*X022306Y007303D01*
X022559D01*Y007345D01*Y007303D02*Y007261D01*Y007551D02*X022443D01*
X022391Y00759D01*X022443Y00763D01*X022559D01*X022443Y007472D02*
X022391Y007511D01*X022443Y007551D01*X022369Y007472D02*X022559D01*
Y007804D02*X022443D01*X022391Y007843D01*X022443Y007883D01*X022559D01*
X022443Y007725D02*X022391Y007764D01*X022443Y007804D01*
X022369Y007725D02*X022559D01*X027236Y012312D02*X027278Y012354D01*
Y012396D01*X027236Y012438D01*X027151D01*X027109Y012396D01*Y012354D01*
X027151Y012312D01*X027236D01*X027278Y012269D01*Y012227D01*
X027236Y012185D01*X027151D01*X027109Y012227D01*Y012269D01*
X027151Y012312D01*X027425Y012185D02*X027447D01*Y012206D01*X027425D01*
Y012185D01*X027742D02*Y012438D01*X027615Y01229D01*X027784D01*
X027947Y012185D02*Y012301D01*X027987Y012353D01*X028027Y012301D01*
Y012185D01*X027868Y012301D02*X027908Y012353D01*X027947Y012301D01*
X027868Y012375D02*Y012185D01*X0282D02*Y012301D01*X02824Y012353D01*
X02828Y012301D01*Y012185D01*X028121Y012301D02*X028161Y012353D01*
X0282Y012301D01*X028121Y012375D02*Y012185D01*X-002535Y01255D02*
X-002493Y012508D01*X-002408D01*X-002366Y01255D01*Y012719D01*
X-002408Y012761D01*X-002493D01*X-002535Y012719D01*Y012656D01*
X-002493Y012613D01*X-002408D01*X-002366Y012656D01*X-002219Y012508D02*
X-002197D01*Y012529D01*X-002219D01*Y012508D01*X-002029Y012719D02*
X-001987Y012761D01*X-001902D01*X-00186Y012719D01*Y012677D01*
X-001902Y012635D01*X-002029Y01255D01*Y012508D01*X-00186D01*
X-001607Y012719D02*X-001649Y012761D01*X-001733D01*X-001776Y012719D01*
Y01255D01*X-001733Y012508D01*X-001649D01*X-001607Y01255D01*Y012719D01*
X-001691Y012677D02*Y012592D01*X-001443Y012508D02*Y012624D01*
X-001404Y012676D01*X-001364Y012624D01*Y012508D01*X-001523Y012624D02*
X-001483Y012676D01*X-001444Y012624D01*X-001523Y012698D02*Y012508D01*
X-00119D02*Y012624D01*X-001151Y012676D01*X-001111Y012624D01*Y012508D01*
X-001269Y012624D02*X-00123Y012676D01*X-001191Y012624D01*
X-001269Y012698D02*Y012508D01*X-002565Y013231D02*X-002522Y013189D01*
X-002438D01*X-002396Y013231D01*Y0134D01*X-002438Y013442D01*X-002522D01*
X-002565Y0134D01*Y013337D01*X-002522Y013294D01*X-002438D01*
X-002396Y013337D01*X-002248Y013189D02*X-002227D01*Y01321D01*
X-002248D01*Y013189D01*X-001932D02*Y013442D01*X-002058Y013294D01*
X-00189D01*X-001637Y013442D02*X-001805D01*Y013316D01*
X-001763Y013358D01*X-001679D01*X-001637Y013316D01*Y013231D01*
X-001679Y013189D01*X-001763D01*X-001805Y013231D01*X-001473Y013189D02*
Y013305D01*X-001434Y013357D01*X-001394Y013305D01*Y013189D01*
X-001552Y013305D02*X-001513Y013357D01*X-001473Y013305D01*
X-001552Y013379D02*Y013189D01*X-00122D02*Y013305D01*X-001181Y013357D01*
X-001141Y013305D01*Y013189D01*X-001299Y013305D02*X-00126Y013357D01*
X-00122Y013305D01*X-001299Y013379D02*Y013189D01*D11*X024902Y009134D02*
Y008051D01*X021063Y012972D02*Y008051D01*X025787Y00874D02*Y008051D01*
X0Y00874D02*Y008051D01*X00867Y012302D02*Y008267D01*X01355Y012569D02*
Y008238D01*X-000689Y010709D02*Y00815D01*X021299Y012992D02*
X024134Y008661D01*Y008071D01*Y008661D02*X024646Y009291D01*
X025984Y008976D02*X026969D01*X025984Y011594D02*X026969D01*
X025984Y012283D02*X026969D01*X025984Y014016D02*X026969D01*
X025295Y009528D02*X026969D01*X021378Y013228D02*X026004D01*
X026496Y012736D01*X026988D01*X02313Y011496D02*Y008051D01*
X001685Y0125D02*X001685Y008196D01*X003335Y012459D02*Y008226D01*
X004621Y008169D02*Y0125D01*X024134Y008661D02*X022717Y009449D01*
X024134Y008701D02*X023622Y01063D01*X023917Y010945D02*X026969D01*
X022835Y009724D02*X025591D01*X026083D01*X026339Y010157D01*X026929D01*
X023524Y010551D02*Y008091D01*X022476Y00937D02*Y008091D01*
X024658Y013329D02*X026921D01*X024461Y01311D02*Y008091D01*
X001587Y012598D02*X-000972D01*X001783D02*X00326D01*X004523Y012697D02*
X-0003D01*X-000694Y013288D01*X-000989D01*D10*X025675Y011825D02*
X025633Y011783D01*Y011699D01*X025675Y011656D01*X025844D01*
X025886Y011699D01*Y011783D01*X025844Y011825D01*X025675D01*
X025717Y011741D02*X025801D01*X025886Y011973D02*Y011994D01*X025865D01*
Y011973D01*X025886D01*X025675Y012331D02*X025633Y012289D01*Y012205D01*
X025675Y012163D01*X025844D01*X025886Y012205D01*Y012289D01*
X025844Y012331D01*X025675D01*X025717Y012247D02*X025801D01*
X025886Y012495D02*X02577D01*X025717Y012534D01*X02577Y012574D01*
X025886D01*X02577Y012416D02*X025717Y012455D01*X02577Y012495D01*
X025696Y012416D02*X025886D01*Y012748D02*X02577D01*X025717Y012787D01*
X02577Y012827D01*X025886D01*X02577Y012669D02*X025717Y012708D01*
X02577Y012748D01*X025696Y012669D02*X025886D01*X027334Y014106D02*
X027292Y014148D01*X027208D01*X027165Y014106D01*Y013937D01*
X027208Y013895D01*X027292D01*X027334Y013937D01*Y014106D01*
X02725Y014064D02*Y013979D01*X027482Y013895D02*X027503D01*Y013916D01*
X027482D01*Y013895D01*X02784Y014106D02*X027798Y014148D01*X027714D01*
X027672Y014106D01*Y013937D01*X027714Y013895D01*X027798D01*
X02784Y013937D01*Y014106D01*X027756Y014064D02*Y013979D01*
X028004Y013895D02*Y014011D01*X028043Y014063D01*X028083Y014011D01*
Y013895D01*X027925Y014011D02*X027964Y014063D01*X028003Y014011D01*
X027925Y014085D02*Y013895D01*X028257D02*Y014011D01*X028296Y014063D01*
X028336Y014011D01*Y013895D01*X028178Y014011D02*X028217Y014063D01*
X028257Y014011D01*X028178Y014085D02*Y013895D01*X02725Y014679D02*
X027292Y014722D01*Y014468D01*X027334D01*X027292D02*X02725D01*
X027524D02*X027545D01*Y01449D01*X027524D01*Y014468D01*X02784D02*
Y014722D01*X027714Y014574D01*X027882D01*X028046Y014468D02*Y014584D01*
X028085Y014637D01*X028125Y014584D01*Y014468D01*X027967Y014584D02*
X028006Y014637D01*X028046Y014584D01*X027967Y014658D02*Y014468D01*
X028299D02*Y014584D01*X028338Y014637D01*X028378Y014584D01*Y014468D01*
X02822Y014584D02*X028259Y014637D01*X028299Y014584D01*X02822Y014658D02*
Y014468D01*X023946Y010768D02*X023903Y01081D01*X024156D01*Y010852D01*
Y01081D02*Y010768D01*Y011042D02*Y011063D01*X024135D01*Y011042D01*
X024156D01*Y011358D02*X023903D01*X024051Y011232D01*Y0114D01*
X024156Y011564D02*X02404D01*X023988Y011603D01*X02404Y011643D01*
X024156D01*X02404Y011485D02*X023988Y011524D01*X024041Y011564D01*
X023967Y011485D02*X024156D01*Y011817D02*X02404D01*X023988Y011856D01*
X02404Y011896D01*X024156D01*X02404Y011738D02*X023988Y011777D01*
X024041Y011817D01*X023967Y011738D02*X024156D01*X023903Y012402D02*
X024156D01*X02404D02*X023988Y012349D01*Y012297D01*X02403Y012244D01*
X024104D01*X024156Y012297D01*Y012349D01*X024104Y012402D01*
X023993Y012576D02*X024156D01*X023924D02*X023919D01*X024156Y012834D02*
X023988D01*X024102Y012666D02*X024049Y01268D01*X024013Y012704D01*
X023994Y012733D01*X023988Y012754D01*Y012771D01*Y012801D01*
X024005Y012834D01*X024104Y012666D02*X024116D01*X024125Y012668D01*
X024135Y012674D01*X024144Y012689D01*X024156Y012718D01*Y012765D01*
X024137Y012809D01*X024114Y012834D01*X024156Y012982D02*Y013003D01*
X024135D01*Y012982D01*X024156D01*X027171Y01529D02*X027213Y015332D01*
Y015079D01*X027255D01*X027213D02*X027171D01*X027445D02*X027466D01*
Y0151D01*X027445D01*Y015079D01*X027635Y015121D02*X027677Y015079D01*
X027762D01*X027804Y015121D01*Y01529D01*X027762Y015332D01*X027677D01*
X027635Y01529D01*Y015226D01*X027677Y015184D01*X027762D01*
X027804Y015226D01*X028057Y01529D02*X028015Y015332D01*X02793D01*
X027888Y01529D01*Y015121D01*X02793Y015079D01*X028015D01*
X028057Y015121D01*Y01529D01*X027972Y015247D02*Y015163D01*
X02822Y015079D02*Y015195D01*X02826Y015247D01*X028299Y015195D01*
Y015079D01*X028141Y015195D02*X028181Y015247D01*X02822Y015195D01*
X028141Y015269D02*Y015079D01*X028473D02*Y015195D01*X028513Y015247D01*
X028552Y015195D01*Y015079D01*X028394Y015195D02*X028434Y015247D01*
X028473Y015195D01*X028394Y015269D02*Y015079D01*X027143Y017832D02*
X027185Y017874D01*Y017621D01*X027227D01*X027185D02*X027143D01*
X027522Y017832D02*X02748Y017874D01*X027396D01*X027354Y017832D01*
Y017663D01*X027396Y017621D01*X02748D01*X027522Y017663D01*Y017832D01*
X027438Y01779D02*Y017705D01*X02767Y017621D02*X027691D01*Y017642D01*
X02767D01*Y017621D01*X027986Y017747D02*X028029Y01779D01*Y017832D01*
X027986Y017874D01*X027902D01*X02786Y017832D01*Y01779D01*
X027902Y017747D01*X027986D01*X028029Y017705D01*Y017663D01*
X027986Y017621D01*X027902D01*X02786Y017663D01*Y017705D01*
X027902Y017747D01*X028282Y017832D02*X02824Y017874D01*X028155D01*
X028113Y017832D01*Y017663D01*X028155Y017621D01*X02824D01*
X028282Y017663D01*Y017832D01*X028197Y01779D02*Y017705D01*
X028445Y017621D02*Y017737D01*X028484Y017789D01*X028524Y017737D01*
Y017621D01*X028366Y017737D02*X028405Y017789D01*X028445Y017737D01*
X028366Y017811D02*Y017621D01*X028698D02*Y017737D01*X028738Y017789D01*
X028777Y017737D01*Y017621D01*X028619Y017737D02*X028659Y017789D01*
X028698Y017737D01*X028619Y017811D02*Y017621D01*X027203Y018459D02*
X027245Y018501D01*Y018248D01*X027287D01*X027245D02*X027203D01*
X027456Y018459D02*X027498Y018501D01*Y018248D01*X02754D01*X027498D02*
X027456D01*X02773D02*X027751D01*Y018269D01*X02773D01*Y018248D01*
X028088Y018459D02*X028046Y018501D01*X027962D01*X02792Y018459D01*
Y01829D01*X027962Y018248D01*X028046D01*X028088Y01829D01*Y018459D01*
X028004Y018417D02*Y018332D01*X028341Y018459D02*X028299Y018501D01*
X028215D01*X028173Y018459D01*Y01829D01*X028215Y018248D01*X028299D01*
X028341Y01829D01*Y018353D01*X028299Y018396D01*X028215D01*
X028173Y018353D01*X028505Y018248D02*Y018364D01*X028544Y018416D01*
X028584Y018364D01*Y018248D01*X028426Y018364D02*X028465Y018416D01*
X028505Y018364D01*X028426Y018438D02*Y018248D01*X028758D02*Y018364D01*
X028797Y018416D01*X028837Y018364D01*Y018248D01*X028679Y018364D02*
X028718Y018416D01*X028758Y018364D01*X028679Y018438D02*Y018248D01*
X020951Y011403D02*X020908Y011445D01*X021161D01*Y011488D01*Y011445D02*
Y011403D01*X020951Y011614D02*X020908Y011656D01*Y011741D01*
X020951Y011783D01*X020993D01*X021035Y011741D01*X021119Y011614D01*
X021161D01*Y011783D01*Y011931D02*Y011952D01*X02114D01*Y011931D01*
X021161D01*X020951Y012289D02*X020908Y012247D01*Y012163D01*
X020951Y01212D01*X021119D01*X021161Y012163D01*Y012247D01*
X021119Y012289D01*X020951D01*X020993Y012205D02*X021077D01*
X021161Y012453D02*X021045D01*X020993Y012492D01*X021045Y012532D01*
X021161D01*X021045Y012373D02*X020993Y012413D01*X021046Y012452D01*
X020972Y012373D02*X021161D01*Y012706D02*X021045D01*X020993Y012745D01*
X021045Y012785D01*X021161D01*X021045Y012627D02*X020993Y012666D01*
X021046Y012705D01*X020972Y012627D02*X021161D01*X02725Y019207D02*
X027292Y019249D01*Y018996D01*X027334D01*X027292D02*X02725D01*
X027461Y019207D02*X027503Y019249D01*X027587D01*X027629Y019207D01*
Y019165D01*X027587Y019123D01*X027461Y019038D01*Y018996D01*X027629D01*
X027777D02*X027798D01*Y019017D01*X027777D01*Y018996D01*
X028093Y019123D02*X028135Y019165D01*Y019207D01*X028093Y019249D01*
X028009D01*X027967Y019207D01*Y019165D01*X028009Y019123D01*X028093D01*
X028135Y01908D01*Y019038D01*X028093Y018996D01*X028009D01*
X027967Y019038D01*Y01908D01*X028009Y019123D01*X028389Y019207D02*
X028346Y019249D01*X028262D01*X02822Y019207D01*Y019038D01*
X028262Y018996D01*X028346D01*X028389Y019038D01*Y019207D01*
X028304Y019165D02*Y01908D01*X028552Y018996D02*Y019112D01*
X028591Y019165D01*X028631Y019112D01*Y018996D01*X028473Y019112D02*
X028512Y019165D01*X028552Y019112D01*X028473Y019186D02*Y018996D01*
X028805D02*Y019112D01*X028844Y019165D01*X028884Y019112D01*Y018996D01*
X028726Y019112D02*X028765Y019165D01*X028805Y019112D01*
X028726Y019186D02*Y018996D01*X024848Y011531D02*X024806Y011573D01*
Y011657D01*X024848Y0117D01*X024891D01*X024933Y011657D01*
X025017Y011531D01*X025059D01*Y0117D01*Y011847D02*Y011868D01*X025038D01*
Y011847D01*X025059D01*X024848Y012037D02*X024806Y012079D01*Y012164D01*
X024848Y012206D01*X024891D01*X024933Y012164D01*X025017Y012037D01*
X025059D01*Y012206D01*X024806Y012459D02*Y01229D01*X024933D01*
X024891Y012332D01*Y012417D01*X024933Y012459D01*X025017D01*
X025059Y012417D01*Y012332D01*X025017Y01229D01*X025059Y012622D02*
X024943D01*X024891Y012662D01*X024943Y012701D01*X025059D01*
X024943Y012543D02*X024891Y012583D01*X024944Y012622D01*X02487Y012543D02*
X025059D01*Y012875D02*X024943D01*X024891Y012915D01*X024943Y012955D01*
X025059D01*X024943Y012796D02*X024891Y012836D01*X024944Y012875D01*
X02487Y012796D02*X025059D01*X024358Y011538D02*X024316Y01158D01*
Y011664D01*X024358Y011707D01*X024401D01*X024443Y011664D01*
X024485Y011707D01*X024527D01*X024569Y011664D01*Y01158D01*
X024527Y011538D01*X024443Y011664D02*Y011622D01*X024569Y011854D02*
Y011875D01*X024548D01*Y011854D01*X024569D01*X024358Y012044D02*
X024316Y012086D01*Y012171D01*X024358Y012213D01*X024401D01*
X024443Y012171D01*X024485Y012213D01*X024527D01*X024569Y012171D01*
Y012086D01*X024527Y012044D01*X024443Y012171D02*Y012128D01*
X024316Y012297D02*Y012466D01*X024569Y012339D01*Y012629D02*X024453D01*
X024401Y012669D01*X024453Y012708D01*X024569D01*X024453Y01255D02*
X024401Y01259D01*X024454Y012629D01*X02438Y01255D02*X024569D01*
Y012882D02*X024453D01*X024401Y012922D01*X024453Y012962D01*X024569D01*
X024453Y012803D02*X024401Y012843D01*X024454Y012882D01*X02438Y012803D02*
X024569D01*X013372Y011263D02*X01333Y011305D01*Y011389D01*
X013372Y011431D01*X013414D01*X013456Y011389D01*X013498Y011431D01*
X01354D01*X013583Y011389D01*Y011305D01*X01354Y011263D01*
X013456Y011389D02*Y011347D01*X013372Y011558D02*X01333Y0116D01*
X013583D01*Y011642D01*Y0116D02*Y011558D01*Y011832D02*Y011853D01*
X013562D01*Y011832D01*X013583D01*X013372Y012191D02*X01333Y012148D01*
Y012064D01*X013372Y012022D01*X01354D01*X013583Y012064D01*Y012148D01*
X01354Y012191D01*X013372D01*X013414Y012106D02*X013498D01*
X01333Y012275D02*Y012444D01*X013583Y012317D01*Y012607D02*X013467D01*
X013414Y012646D01*X013467Y012686D01*X013583D01*X013467Y012528D02*
X013414Y012567D01*X013467Y012607D01*X013393Y012528D02*X013583D01*
Y01286D02*X013467D01*X013414Y012899D01*X013467Y012939D01*X013583D01*
X013467Y012781D02*X013414Y012821D01*X013467Y01286D01*X013393Y012781D02*
X013583D01*X00876Y011389D02*X008507D01*X008654Y011263D01*Y011431D01*
X008549Y011516D02*X008507Y011558D01*Y011642D01*X008549Y011684D01*
X008591D01*X008633Y011642D01*X008675Y011684D01*X008718D01*
X00876Y011642D01*Y011558D01*X008718Y011516D01*X008633Y011642D02*
Y0116D01*X00876Y011832D02*Y011853D01*X008739D01*Y011832D01*X00876D01*
Y012148D02*X008507D01*X008654Y012022D01*Y012191D01*X008633Y012402D02*
X008591Y012444D01*X008549D01*X008507Y012402D01*Y012317D01*
X008549Y012275D01*X008591D01*X008633Y012317D01*Y012402D01*
X008675Y012444D01*X008718D01*X00876Y012402D01*Y012317D01*
X008718Y012275D01*X008675D01*X008633Y012317D01*X00876Y012607D02*
X008644D01*X008591Y012646D01*X008644Y012686D01*X00876D01*
X008644Y012528D02*X008591Y012567D01*X008644Y012607D01*X00857Y012528D02*
X00876D01*Y01286D02*X008644D01*X008591Y0129D01*X008644Y012939D01*
X00876D01*X008644Y012781D02*X008591Y012821D01*X008644Y01286D01*
X00857Y012781D02*X00876D01*X027278Y01604D02*X027109D01*Y015914D01*
X027151Y015956D01*X027236D01*X027278Y015914D01*Y01583D01*
X027236Y015787D01*X027151D01*X027109Y01583D01*X027425Y015787D02*
X027447D01*Y015808D01*X027425D01*Y015787D01*X027784Y015998D02*
X027742Y01604D01*X027657D01*X027615Y015998D01*Y01583D01*
X027657Y015787D01*X027742D01*X027784Y01583D01*Y015998D01*
X0277Y015956D02*Y015872D01*X028037Y015998D02*X027995Y01604D01*
X027911D01*X027868Y015998D01*Y01583D01*X027911Y015787D01*X027995D01*
X028037Y01583D01*Y015998D01*X027953Y015956D02*Y015872D01*
X028201Y015787D02*Y015903D01*X02824Y015956D01*X02828Y015903D01*
Y015787D01*X028121Y015903D02*X028161Y015956D01*X0282Y015903D01*
X028121Y015977D02*Y015787D01*X028454D02*Y015903D01*X028493Y015956D01*
X028533Y015903D01*Y015787D01*X028375Y015903D02*X028414Y015956D01*
X028453Y015903D01*X028375Y015977D02*Y015787D01*X023397Y011625D02*
Y011457D01*X023524D01*X023481Y011499D01*Y011583D01*X023524Y011625D01*
X023608D01*X02365Y011583D01*Y011499D01*X023608Y011457D01*
X02365Y011773D02*Y011794D01*X023629D01*Y011773D01*X02365D01*
X023397Y011963D02*Y012132D01*X02365Y012005D01*X023397Y012385D02*
Y012216D01*X023524D01*X023481Y012258D01*Y012343D01*X023524Y012385D01*
X023608D01*X02365Y012343D01*Y012258D01*X023608Y012216D01*
X02365Y012548D02*X023534D01*X023482Y012587D01*X023534Y012627D01*
X02365D01*X023534Y012469D02*X023482Y012508D01*X023534Y012548D01*
X02346Y012469D02*X02365D01*Y012801D02*X023534D01*X023482Y012841D01*
X023534Y01288D01*X02365D01*X023534Y012722D02*X023482Y012762D01*
X023534Y012801D01*X02346Y012722D02*X02365D01*X00446Y011508D02*
Y011339D01*X004586D01*X004544Y011381D01*Y011466D01*X004586Y011508D01*
X00467D01*X004713Y011466D01*Y011381D01*X00467Y011339D01*
X004502Y011592D02*X00446Y011635D01*Y011719D01*X004502Y011761D01*
X004544D01*X004586Y011719D01*X004628Y011761D01*X00467D01*
X004713Y011719D01*Y011635D01*X00467Y011592D01*X004586Y011719D02*
Y011677D01*X004713Y011909D02*Y01193D01*X004692D01*Y011909D01*
X004713D01*X00446Y012098D02*Y012267D01*X004713Y012141D01*
X004502Y01252D02*X00446Y012478D01*Y012394D01*X004502Y012352D01*
X00467D01*X004713Y012394D01*Y012478D01*X00467Y01252D01*X004607D01*
X004565Y012478D01*Y012394D01*X004607Y012352D01*X004713Y012684D02*
X004597D01*X004544Y012723D01*X004597Y012763D01*X004713D01*
X004597Y012605D02*X004544Y012644D01*X004597Y012684D01*
X004523Y012605D02*X004713D01*Y012937D02*X004597D01*X004544Y012976D01*
X004597Y013016D01*X004713D01*X004597Y012858D02*X004544Y012897D01*
X004597Y012937D01*X004523Y012858D02*X004713D01*X00318Y011508D02*
Y011339D01*X003307D01*X003264Y011381D01*Y011466D01*X003307Y011508D01*
X003391D01*X003433Y011466D01*Y011381D01*X003391Y011339D01*
X00318Y011592D02*Y011761D01*X003433Y011635D01*Y011909D02*Y01193D01*
X003412D01*Y011909D01*X003433D01*X003222Y012267D02*X00318Y012225D01*
Y012141D01*X003222Y012098D01*X003391D01*X003433Y012141D01*Y012225D01*
X003391Y012267D01*X003222D01*X003264Y012183D02*X003349D01*
X003222Y012352D02*X00318Y012394D01*Y012478D01*X003222Y01252D01*
X003264D01*X003307Y012478D01*X003349Y01252D01*X003391D01*
X003433Y012478D01*Y012394D01*X003391Y012352D01*X003307Y012478D02*
Y012436D01*X003433Y012684D02*X003317D01*X003265Y012723D01*
X003317Y012763D01*X003433D01*X003317Y012605D02*X003265Y012644D01*
X003317Y012684D01*X003243Y012605D02*X003433D01*Y012937D02*X003317D01*
X003265Y012976D01*X003317Y013016D01*X003433D01*X003317Y012858D02*
X003265Y012897D01*X003317Y012937D01*X003243Y012858D02*X003433D01*
X027286Y016725D02*X027243Y016767D01*X027159D01*X027117Y016725D01*
Y016557D01*X027159Y016514D01*X027243D01*X027286Y016557D01*Y01662D01*
X027243Y016662D01*X027159D01*X027117Y01662D01*X027433Y016514D02*
X027454D01*Y016535D01*X027433D01*Y016514D01*X027792Y016725D02*
X02775Y016767D01*X027665D01*X027623Y016725D01*Y016557D01*
X027665Y016514D01*X02775D01*X027792Y016557D01*Y01662D01*
X02775Y016662D01*X027665D01*X027623Y01662D01*X028045Y016767D02*
X027876D01*Y016641D01*X027918Y016683D01*X028003D01*X028045Y016641D01*
Y016557D01*X028003Y016514D01*X027918D01*X027876Y016557D01*
X028208Y016514D02*Y01663D01*X028248Y016683D01*X028287Y01663D01*
Y016514D01*X028129Y01663D02*X028169Y016683D01*X028208Y01663D01*
X028129Y016704D02*Y016514D01*X028461D02*Y01663D01*X028501Y016683D01*
X02854Y01663D01*Y016514D01*X028382Y01663D02*X028422Y016683D01*
X028461Y01663D01*X028382Y016704D02*Y016514D01*X022968Y011558D02*
X022926Y011516D01*Y011431D01*X022968Y011389D01*X023137D01*
X023179Y011431D01*Y011516D01*X023137Y011558D01*X023074D01*
X023031Y011516D01*Y011431D01*X023074Y011389D01*X023179Y011706D02*
Y011727D01*X023158D01*Y011706D01*X023179D01*X022926Y011895D02*
Y012064D01*X023179Y011938D01*X022926Y012317D02*Y012148D01*X023053D01*
X02301Y012191D01*Y012275D01*X023053Y012317D01*X023137D01*
X023179Y012275D01*Y012191D01*X023137Y012148D01*X023179Y012481D02*
X023063D01*X023011Y01252D01*X023063Y01256D01*X023179D01*
X023063Y012402D02*X023011Y012441D01*X023063Y01248D01*X022989Y012402D02*
X023179D01*Y012734D02*X023063D01*X023011Y012773D01*X023063Y012813D01*
X023179D01*X023063Y012655D02*X023011Y012694D01*X023063Y012733D01*
X022989Y012655D02*X023179D01*X001549Y011508D02*X001507Y011466D01*
Y011381D01*X001549Y011339D01*X001718D01*X00176Y011381D01*Y011466D01*
X001718Y011508D01*X001654D01*X001612Y011466D01*Y011381D01*
X001654Y011339D01*X001549Y011635D02*X001507Y011677D01*X00176D01*
Y011719D01*Y011677D02*Y011635D01*Y011909D02*Y01193D01*X001739D01*
Y011909D01*X00176D01*X001549Y012098D02*X001507Y012141D01*Y012225D01*
X001549Y012267D01*X001591D01*X001633Y012225D01*X001718Y012098D01*
X00176D01*Y012267D01*X001549Y012352D02*X001507Y012394D01*Y012478D01*
X001549Y01252D01*X001591D01*X001633Y012478D01*X001718Y012352D01*
X00176D01*Y01252D01*Y012684D02*X001644D01*X001591Y012723D01*
X001644Y012763D01*X00176D01*X001644Y012605D02*X001591Y012644D01*
X001644Y012684D01*X00157Y012605D02*X00176D01*Y012937D02*X001644D01*
X001591Y012976D01*X001644Y013016D01*X00176D01*X001644Y012858D02*
X001591Y012897D01*X001644Y012937D01*X00157Y012858D02*X00176D01*
X-000112Y01153D02*X-000155Y011488D01*Y011403D01*X-000112Y011361D01*
X000056D01*X000098Y011403D01*Y011488D01*X000056Y01153D01*X-000007D01*
X-000049Y011488D01*Y011403D01*X-000007Y011361D01*X-000155Y011783D02*
Y011614D01*X-000028D01*X-00007Y011656D01*Y011741D01*X-000028Y011783D01*
X000056D01*X000098Y011741D01*Y011656D01*X000056Y011614D01*
X000098Y011931D02*Y011952D01*X000077D01*Y011931D01*X000098D01*
X-000155Y012289D02*Y01212D01*X-000028D01*X-00007Y012163D01*Y012247D01*
X-000028Y012289D01*X000056D01*X000098Y012247D01*Y012163D01*
X000056Y01212D01*X000098Y012452D02*X-000018D01*X-00007Y012492D01*
X-000018Y012532D01*X000098D01*X-000018Y012373D02*X-00007Y012413D01*
X-000017Y012452D01*X-000091Y012373D02*X000098D01*Y012706D02*
X-000018D01*X-00007Y012745D01*X-000018Y012785D01*X000098D01*
X-000018Y012626D02*X-00007Y012666D01*X-000017Y012705D01*
X-000091Y012626D02*X000098D01*X-000858Y011488D02*X-0009Y011445D01*
Y011361D01*X-000858Y011319D01*X-000689D01*X-000647Y011361D01*
Y011445D01*X-000689Y011488D01*X-000752D01*X-000794Y011445D01*
Y011361D01*X-000752Y011319D01*X-0009Y011572D02*Y011741D01*
X-000647Y011614D01*Y011888D02*Y011909D01*X-000668D01*Y011888D01*
X-000647D01*X-000858Y012078D02*X-0009Y01212D01*Y012205D01*
X-000858Y012247D01*X-000816D01*X-000773Y012205D01*X-000689Y012078D01*
X-000647D01*Y012247D01*X-0009Y0125D02*Y012331D01*X-000773D01*
X-000816Y012373D01*Y012458D01*X-000773Y0125D01*X-000689D01*
X-000647Y012458D01*Y012373D01*X-000689Y012331D01*X-000647Y012663D02*
X-000763D01*X-000815Y012703D01*X-000763Y012742D01*X-000647D01*
X-000763Y012584D02*X-000815Y012624D01*X-000763Y012663D01*
X-000837Y012584D02*X-000647D01*Y012916D02*X-000763D01*
X-000815Y012956D01*X-000763Y012996D01*X-000647D01*X-000763Y012837D02*
X-000815Y012877D01*X-000763Y012916D01*X-000837Y012837D02*X-000647D01*
X022433Y011625D02*X02239Y011668D01*X022348D01*X022306Y011625D01*
Y011541D01*X022348Y011499D01*X02239D01*X022433Y011541D01*Y011625D01*
X022475Y011668D01*X022517D01*X022559Y011625D01*Y011541D01*
X022517Y011499D01*X022475D01*X022433Y011541D01*X022559Y011815D02*
Y011836D01*X022538D01*Y011815D01*X022559D01*Y012132D02*X022306D01*
X022454Y012005D01*Y012174D01*X022348Y0123D02*X022306Y012343D01*
X022559D01*Y012385D01*Y012343D02*Y0123D01*Y01259D02*X022443D01*
X022391Y01263D01*X022443Y012669D01*X022559D01*X022443Y012511D02*
X022391Y012551D01*X022443Y01259D01*X022369Y012511D02*X022559D01*
Y012843D02*X022443D01*X022391Y012883D01*X022443Y012923D01*X022559D01*
X022443Y012764D02*X022391Y012804D01*X022443Y012843D01*
X022369Y012764D02*X022559D01*X027236Y017351D02*X027278Y017393D01*
Y017435D01*X027236Y017477D01*X027151D01*X027109Y017435D01*Y017393D01*
X027151Y017351D01*X027236D01*X027278Y017309D01*Y017267D01*
X027236Y017224D01*X027151D01*X027109Y017267D01*Y017309D01*
X027151Y017351D01*X027425Y017224D02*X027447D01*Y017246D01*X027425D01*
Y017224D01*X027742D02*Y017477D01*X027615Y01733D01*X027784D01*
X027947Y017224D02*Y01734D01*X027987Y017393D01*X028027Y01734D01*
Y017224D01*X027868Y01734D02*X027908Y017393D01*X027947Y01734D01*
X027868Y017414D02*Y017224D01*X0282D02*Y01734D01*X02824Y017393D01*
X02828Y01734D01*Y017224D01*X028121Y01734D02*X028161Y017393D01*
X0282Y01734D01*X028121Y017414D02*Y017224D01*X-002535Y01759D02*
X-002493Y017547D01*X-002408D01*X-002366Y01759D01*Y017758D01*
X-002408Y0178D01*X-002493D01*X-002535Y017758D01*Y017695D01*
X-002493Y017653D01*X-002408D01*X-002366Y017695D01*X-002219Y017547D02*
X-002197D01*Y017568D01*X-002219D01*Y017547D01*X-002029Y017758D02*
X-001987Y0178D01*X-001902D01*X-00186Y017758D01*Y017716D01*
X-001902Y017674D01*X-002029Y01759D01*Y017547D01*X-00186D01*
X-001607Y017758D02*X-001649Y0178D01*X-001733D01*X-001776Y017758D01*
Y01759D01*X-001733Y017547D01*X-001649D01*X-001607Y01759D01*Y017758D01*
X-001691Y017716D02*Y017632D01*X-001443Y017547D02*Y017663D01*
X-001404Y017716D01*X-001364Y017663D01*Y017547D01*X-001523Y017663D02*
X-001483Y017716D01*X-001444Y017663D01*X-001523Y017737D02*Y017547D01*
X-00119D02*Y017663D01*X-001151Y017716D01*X-001111Y017663D01*Y017547D01*
X-001269Y017663D02*X-00123Y017716D01*X-001191Y017663D01*
X-001269Y017737D02*Y017547D01*X-002565Y018271D02*X-002522Y018228D01*
X-002438D01*X-002396Y018271D01*Y018439D01*X-002438Y018481D01*
X-002522D01*X-002565Y018439D01*Y018376D01*X-002522Y018334D01*
X-002438D01*X-002396Y018376D01*X-002248Y018228D02*X-002227D01*
Y018249D01*X-002248D01*Y018228D01*X-001932D02*Y018481D01*
X-002058Y018334D01*X-00189D01*X-001637Y018481D02*X-001805D01*
Y018355D01*X-001763Y018397D01*X-001679D01*X-001637Y018355D01*
Y018271D01*X-001679Y018228D01*X-001763D01*X-001805Y018271D01*
X-001473Y018228D02*Y018344D01*X-001434Y018397D01*X-001394Y018344D01*
Y018228D01*X-001552Y018344D02*X-001513Y018397D01*X-001473Y018344D01*
X-001552Y018418D02*Y018228D01*X-00122D02*Y018344D01*X-001181Y018397D01*
X-001141Y018344D01*Y018228D01*X-001299Y018344D02*X-00126Y018397D01*
X-00122Y018344D01*X-001299Y018418D02*Y018228D01*D11*X024902Y014173D02*
Y013091D01*X021063Y018012D02*Y013091D01*X025787Y01378D02*Y013091D01*
X0Y01378D02*Y013091D01*X00867Y017342D02*Y013306D01*X01355Y017608D02*
Y013278D01*X-000689Y015748D02*Y013189D01*X021299Y018031D02*
X024134Y013701D01*Y01311D01*Y013701D02*X024646Y014331D01*
X025984Y014016D02*X026969D01*X025984Y016634D02*X026969D01*
X025984Y017323D02*X026969D01*X025984Y019055D02*X026969D01*
X025295Y014567D02*X026969D01*X021378Y018268D02*X026004D01*
X026496Y017776D01*X026988D01*X02313Y016535D02*Y013091D01*
X001685Y017539D02*X001685Y013236D01*X003335Y017498D02*Y013266D01*
X004621Y013209D02*Y017539D01*X024134Y013701D02*X022717Y014488D01*
X024134Y01374D02*X023622Y015669D01*X023917Y015984D02*X026969D01*
X022835Y014764D02*X026083D01*X026339Y015197D01*X026929D01*
X023524Y015591D02*Y01313D01*X022476Y014409D02*Y01313D01*
X024658Y018369D02*X026921D01*X024461Y01815D02*Y01313D01*
X001587Y017638D02*X-000972D01*X001783D02*X00326D01*X004523Y017736D02*
X-0003D01*X-000694Y018327D01*X-000989D01*
M02*