%FSTAX24Y24*%
%MOIN*%
%IN AUX1.GBR *%
%ADD10C,0.0030*%
%ADD11C,0.0100*%
D11*Y019055D02*G01Y022835D01*X001181Y023228D01*X024606D01*
X025787Y022835D01*Y019055D01*Y003937D02*Y000394D01*X024606Y0D01*
X001181D01*X0Y000394D01*Y003937D01*D10*X00043Y006045D02*X000288D01*
X000241Y006032D01*X000206Y005998D01*X000194Y00595D01*Y005942D01*
X000206Y005895D01*X000241Y005861D01*X000288Y005848D01*X000572D01*
X000619Y005861D01*X000653Y005895D01*X000666Y005942D01*Y00595D01*
X000653Y005998D01*X000619Y006032D01*X000572Y006045D01*X00043D01*
Y008643D02*X000288D01*X000241Y008631D01*X000206Y008596D01*
X000194Y008549D01*Y008541D01*X000206Y008494D01*X000241Y008459D01*
X000288Y008446D01*X000572D01*X000619Y008459D01*X000653Y008494D01*
X000666Y008541D01*Y008549D01*X000653Y008596D01*X000619Y008631D01*
X000572Y008643D01*X00043D01*D11*X0Y003937D02*Y008976D01*X025787D02*
Y007835D01*X025773Y007703D01*X025729Y007578D01*X025659Y007466D01*
X025565Y007373D01*X025453Y007303D01*X025328Y007259D01*
X025197Y007244D01*X023406D01*X02332Y007231D01*X023244Y007191D01*
X023183Y00713D01*X023143Y007054D01*X02313Y006969D01*Y006831D01*
X023143Y006746D01*X023183Y006669D01*X023244Y006608D01*X02332Y006569D01*
X023406Y006555D01*X025394D01*X025515Y006536D01*X025625Y00648D01*
X025712Y006393D01*X025768Y006283D01*X025787Y006161D01*Y003937D01*D10*
X00043Y011084D02*X000288D01*X000241Y011072D01*X000206Y011037D01*
X000194Y01099D01*Y010982D01*X000206Y010935D01*X000241Y0109D01*
X000288Y010887D01*X000572D01*X000619Y0109D01*X000653Y010935D01*
X000666Y010982D01*Y01099D01*X000653Y011037D01*X000619Y011072D01*
X000572Y011084D01*X00043D01*Y013683D02*X000288D01*X000241Y01367D01*
X000206Y013635D01*X000194Y013588D01*Y01358D01*X000206Y013533D01*
X000241Y013498D01*X000288Y013486D01*X000572D01*X000619Y013498D01*
X000653Y013533D01*X000666Y01358D01*Y013588D01*X000653Y013635D01*
X000619Y01367D01*X000572Y013683D01*X00043D01*D11*X0Y008976D02*
Y014016D01*X025787D02*Y012874D01*X025773Y012743D01*X025729Y012618D01*
X025659Y012506D01*X025565Y012412D01*X025453Y012342D01*
X025328Y012298D01*X025197Y012283D01*X023406D01*X02332Y01227D01*
X023244Y012231D01*X023183Y01217D01*X023143Y012093D01*X02313Y012008D01*
Y01187D01*X023143Y011785D01*X023183Y011708D01*X023244Y011647D01*
X02332Y011608D01*X023406Y011594D01*X025394D01*X025515Y011575D01*
X025625Y011519D01*X025712Y011432D01*X025768Y011322D01*
X025787Y011201D01*Y008976D01*D10*X00043Y016124D02*X000288D01*
X000241Y016111D01*X000206Y016076D01*X000194Y016029D01*Y016021D01*
X000206Y015974D01*X000241Y015939D01*X000288Y015927D01*X000572D01*
X000619Y015939D01*X000653Y015974D01*X000666Y016021D01*Y016029D01*
X000653Y016076D01*X000619Y016111D01*X000572Y016124D01*X00043D01*
Y018722D02*X000288D01*X000241Y018709D01*X000206Y018675D01*
X000194Y018627D01*Y01862D01*X000206Y018572D01*X000241Y018538D01*
X000288Y018525D01*X000572D01*X000619Y018538D01*X000653Y018572D01*
X000666Y01862D01*Y018627D01*X000653Y018675D01*X000619Y018709D01*
X000572Y018722D01*X00043D01*D11*X0Y014016D02*Y019055D01*X025787D02*
Y017913D01*X025773Y017782D01*X025729Y017657D01*X025659Y017545D01*
X025565Y017452D01*X025453Y017381D01*X025328Y017338D01*
X025197Y017323D01*X023406D01*X02332Y017309D01*X023244Y01727D01*
X023183Y017209D01*X023143Y017132D01*X02313Y017047D01*Y016909D01*
X023143Y016824D01*X023183Y016747D01*X023244Y016686D01*X02332Y016647D01*
X023406Y016634D01*X025394D01*X025515Y016615D01*X025625Y016559D01*
X025712Y016472D01*X025768Y016362D01*X025787Y01624D01*Y014016D01*
M02*