M48
FMAT,2
INCH,LZ
T1C0.0550
T2C0.0354
T3C0.0120
T4C0.0197
T5C0.0280
T6C0.0410
%
T1
X021063Y008189
X024902Y004488
X023524Y005906
X022475Y004686
X021063Y013228
X024902Y009528
X023524Y010945
X022475Y009725
X021063Y018268
X024902Y014567
X023524Y015984
X022475Y014765
T2
X002821Y0055
X00164Y0055
X002821Y010539
X00164Y010539
X002821Y015579
X00164Y015579
T3
X00202Y005103
X01443Y007888
X013883Y007271
X013951Y007608
X01566Y007018
X0162Y007018
X01622Y006457
X01563Y006448
X017799Y006961
X017799Y006358
X018451Y006391
X01741Y007328
X018429Y006961
X017505Y005957
X014851Y005718
X018268Y005
X018798Y005981
X018807Y005315
X02002Y006608
X01906Y006608
X02208Y007618
X02209Y006518
X004069Y004473
X0229Y006548
X02298Y007528
X01914Y007448
X009373Y004862
X000984Y007686
X000984Y007174
X01591Y007808
X01633Y008378
X019449Y004803
X022278Y005251
X004039Y004868
X021772Y00685
X02307Y004588
X025394Y004291
X02014Y007238
X0224Y008348
X018339Y007541
X01922Y007908
X02035Y007268
X00833Y005207
X0137Y004738
X00403Y005288
X01498Y005568
X01552Y004618
X005951Y008605
X006071Y008185
X01664Y008518
X01695Y008508
X018009Y007561
X016836Y007352
X021479Y007381
X00348Y005288
X00349Y005718
X00089Y005288
X000415Y00529
X000393Y005724
X002672Y006201
X000892Y005751
X00089Y004888
X000382Y004894
X00639Y005578
X00426Y008218
X005548Y005972
X00426Y008398
X00621Y005578
X00594Y006597
X006235Y006903
X00192Y006347
X006453Y006127
X00723Y008398
X007548Y008322
X00459Y008358
X00652Y006288
X007751Y006028
X007621Y007068
X010469Y008688
X008971Y005698
X004444Y006382
X00792Y007037
X006728Y007642
X009531Y008528
X009025Y008403
X006691Y005448
X00689Y005448
X02288Y008348
X006966Y005616
X006541Y004413
X006741Y004413
X005188Y005882
X006941Y004413
X007136Y005866
X007978Y008342
X00858Y008458
X01043Y008185
X010731Y008198
X00855Y007187
X00981Y006107
X009436Y005376
X00999Y004607
X005018Y005332
X009391Y005688
X011968Y005817
X012343Y005619
X010706Y004219
X017919Y007861
X0147Y007648
X014671Y006378
X015501Y004878
X004648Y006378
X012928Y004927
X004328Y005342
X013937Y004921
X011452Y007765
X01234Y006348
X01241Y008658
X012383Y005919
X013191Y007138
X013391Y007138
X012279Y007954
X01279Y005778
X0157Y005378
X002479Y005105
X013626Y005549
X013192Y00665
X01565Y005608
X025127Y007665
X023358Y007534
X007336Y005816
X013566Y00638
X017221Y007338
X01612Y007808
X012131Y007348
X000376Y004465
X015383Y006139
X012788Y005197
X004712Y004603
X014191Y008218
X021533Y006572
X015186Y008279
X01314Y007918
X01275Y008038
X01996Y007568
X014093Y007271
X00202Y010142
X01443Y012927
X013883Y01231
X013951Y012647
X01566Y012057
X0162Y012057
X01622Y011496
X01563Y011487
X017799Y012
X017799Y011397
X018451Y01143
X01741Y012367
X018429Y012
X017505Y010996
X014851Y010757
X018268Y010039
X018798Y01102
X018807Y010354
X02002Y011647
X01906Y011647
X02208Y012657
X02209Y011557
X004069Y009512
X0229Y011587
X02298Y012567
X01914Y012487
X009373Y009901
X000984Y012726
X000984Y012214
X01591Y012847
X01633Y013417
X019449Y009843
X022278Y01029
X004039Y009907
X021772Y01189
X02307Y009627
X025394Y009331
X02014Y012277
X0224Y013387
X018339Y01258
X01922Y012947
X02035Y012307
X00833Y010246
X0137Y009777
X00403Y010327
X01498Y010607
X01552Y009657
X005951Y013644
X006071Y013224
X01664Y013557
X01695Y013547
X018009Y0126
X016836Y012392
X021479Y01242
X00348Y010327
X00349Y010757
X00089Y010327
X000415Y010329
X000393Y010764
X002672Y011241
X000892Y01079
X00089Y009927
X000382Y009934
X00639Y010617
X00426Y013257
X005548Y011011
X00426Y013437
X00621Y010617
X00594Y011636
X006235Y011942
X00192Y011386
X006453Y011166
X00723Y013437
X007548Y013361
X00459Y013397
X00652Y011327
X007751Y011067
X007621Y012107
X010469Y013727
X008971Y010737
X004444Y011421
X00792Y012076
X006728Y012681
X009531Y013567
X009025Y013442
X006691Y010487
X00689Y010487
X02288Y013387
X006966Y010655
X006541Y009452
X006741Y009452
X005188Y010921
X006941Y009452
X007136Y010905
X007978Y013381
X00858Y013497
X01043Y013224
X010731Y013237
X00855Y012226
X00981Y011146
X009436Y010415
X00999Y009646
X005018Y010371
X009391Y010727
X011968Y010856
X012343Y010658
X010706Y009258
X017919Y0129
X0147Y012687
X014671Y011417
X015501Y009917
X004648Y011417
X012928Y009966
X004328Y010381
X013937Y009961
X011452Y012804
X01234Y011387
X01241Y013697
X012383Y010958
X013191Y012177
X013391Y012177
X012279Y012993
X01279Y010817
X0157Y010417
X002479Y010144
X013626Y010588
X013192Y011689
X01565Y010647
X025127Y012704
X023358Y012573
X007336Y010855
X013566Y011419
X017221Y012377
X01612Y012847
X012131Y012387
X000376Y009504
X015383Y011178
X012788Y010236
X004712Y009642
X014191Y013257
X021533Y011611
X015186Y013318
X01314Y012957
X01275Y013077
X01996Y012607
X014093Y01231
X00202Y015181
X01443Y017966
X013883Y017349
X013951Y017686
X01566Y017096
X0162Y017096
X01622Y016535
X01563Y016526
X017799Y017039
X017799Y016436
X018451Y016469
X01741Y017406
X018429Y017039
X017505Y016035
X014851Y015796
X018268Y015079
X018798Y01606
X018807Y015394
X02002Y016686
X01906Y016686
X02208Y017696
X02209Y016596
X004069Y014551
X0229Y016626
X02298Y017606
X01914Y017526
X009373Y01494
X000984Y017765
X000984Y017253
X01591Y017886
X01633Y018456
X019449Y014882
X022278Y015329
X004039Y014946
X021772Y016929
X02307Y014666
X025394Y01437
X02014Y017316
X0224Y018426
X018339Y017619
X01922Y017986
X02035Y017346
X00833Y015286
X0137Y014816
X00403Y015366
X01498Y015646
X01552Y014696
X005951Y018683
X006071Y018263
X01664Y018596
X01695Y018586
X018009Y017639
X016836Y017431
X021479Y017459
X00348Y015366
X00349Y015796
X00089Y015366
X000415Y015369
X000393Y015803
X002672Y01628
X000892Y01583
X00089Y014966
X000382Y014973
X00639Y015656
X00426Y018296
X005548Y016051
X00426Y018476
X00621Y015656
X00594Y016675
X006235Y016981
X00192Y016425
X006453Y016205
X00723Y018476
X007548Y0184
X00459Y018436
X00652Y016366
X007751Y016106
X007621Y017146
X010469Y018766
X008971Y015776
X004444Y01646
X00792Y017115
X006728Y01772
X009531Y018606
X009025Y018481
X006691Y015526
X00689Y015526
X02288Y018426
X006966Y015695
X006541Y014491
X006741Y014491
X005188Y015961
X006941Y014491
X007136Y015945
X007978Y01842
X00858Y018536
X01043Y018263
X010731Y018276
X00855Y017265
X00981Y016185
X009436Y015454
X00999Y014685
X005018Y015411
X009391Y015766
X011968Y015895
X012343Y015697
X010706Y014297
X017919Y017939
X0147Y017726
X014671Y016456
X015501Y014956
X004648Y016456
X012928Y015005
X004328Y015421
X013937Y015
X011452Y017843
X01234Y016426
X01241Y018736
X012383Y015997
X013191Y017216
X013391Y017216
X012279Y018032
X01279Y015856
X0157Y015456
X002479Y015183
X013626Y015627
X013192Y016728
X01565Y015686
X025127Y017744
X023358Y017612
X007336Y015895
X013566Y016458
X017221Y017416
X01612Y017886
X012131Y017426
X000376Y014543
X015383Y016217
X012788Y015275
X004712Y014681
X014191Y018296
X021533Y01665
X015186Y018357
X01314Y017996
X01275Y018116
X01996Y017646
X014093Y017349
T4
X00043Y008545
X00043Y005946
X00043Y013584
X00043Y010986
X00043Y018624
X00043Y016025
T5
X015006Y008626
X014006Y008626
X013006Y008626
X012006Y008626
X011006Y008626
X010006Y008626
X015006Y013665
X014006Y013665
X013006Y013665
X012006Y013665
X011006Y013665
X010006Y013665
X015006Y018705
X014006Y018705
X013006Y018705
X012006Y018705
X011006Y018705
X010006Y018705
T6
X00867Y007657
X00867Y012696
X00867Y017735
M30
