%FSTAX24Y24*%
%MOIN*%
%IN SPASTE1.GBR *%
%ADD10C,0.0400*%
%ADD11C,0.0500*%
%ADD12O,0.0098X0.0551*%
%ADD13O,0.0551X0.0098*%
%ADD14R,0.0091X0.0217*%
%ADD15R,0.0094X0.0394*%
%ADD16R,0.0134X0.0571*%
%ADD17R,0.0165X0.0701*%
%ADD18R,0.0200X0.0250*%
%ADD19R,0.0217X0.0091*%
%ADD20R,0.0220X0.0230*%
%ADD21R,0.0236X0.0610*%
%ADD22R,0.0236X0.0630*%
%ADD23R,0.0250X0.0200*%
%ADD24R,0.0315X0.0630*%
%ADD25R,0.0315X0.0669*%
%ADD26R,0.0354X0.0276*%
%ADD27R,0.0394X0.0094*%
%ADD28R,0.0394X0.0098*%
%ADD29R,0.0394X0.0177*%
%ADD30R,0.0394X0.0551*%
%ADD31R,0.0425X0.0413*%
%ADD32R,0.0500X0.0866*%
%ADD33R,0.0531X0.0157*%
%ADD34R,0.0551X0.0531*%
%ADD35R,0.0571X0.0134*%
%ADD36R,0.0571X0.0394*%
%ADD37R,0.0591X0.0866*%
%ADD38R,0.0689X0.0748*%
%ADD39R,0.0709X0.1181*%
%ADD40R,0.0748X0.0709*%
%ADD41R,0.0748X0.0157*%
%ADD42R,0.0748X0.0709*%
%ADD43R,0.0787X0.0787*%
%ADD44R,0.0827X0.1102*%
%ADD45R,0.0827X0.1181*%
%ADD46R,0.1181X0.1181*%
D11*X023622Y020866D03*X003937D03*Y002362D03*D23*X00693Y008428D03*
X021299Y005354D03*D24*X021526Y005857D03*D18*X00282Y007667D03*
X002053Y007251D03*D33*X001483Y007246D03*D18*X0195Y007908D03*D14*
X01893Y00783D03*D23*X01349Y004458D03*X01399D03*D29*X01605Y004877D03*
D23*X017259Y008611D03*D14*X018536Y008539D03*X018733D03*D23*
X017759Y008611D03*D14*X018339Y008539D03*X01893D03*D18*X0195Y008408D03*
D14*X018733Y00783D03*D22*X017229Y007872D03*D23*X00287Y007957D03*D18*
X002443Y007471D03*D33*X001483Y007501D03*D10*X025394Y006161D03*
X003839Y006063D03*D33*X001483Y007757D03*Y00699D03*D22*
X017623Y007872D03*D32*X018135Y006678D03*X01593D03*D25*
X003232Y006858D03*D44*X004728Y005755D03*X002228D03*D45*
X019538Y006999D03*X02253D03*D40*X018178Y005687D03*D42*X01932D03*D29*
X017389Y004877D03*D18*X002443Y007971D03*D35*X004407Y007425D03*D18*
X007361Y006128D03*X007766Y005761D03*X006966Y006606D03*
X007361Y006628D03*D23*X012488Y005037D03*X009708Y004893D03*D28*
X007321Y004513D03*D23*X010208Y004893D03*D12*X00983Y005524D03*D18*
X002053Y007751D03*D35*X004407Y007681D03*D23*X010518Y004847D03*D18*
X008191Y004373D03*D20*X007801Y004418D03*D28*X006081Y004513D03*
Y00471D03*D36*X005516Y004474D03*D37*X006701Y004907D03*D23*
X011018Y004847D03*D12*X010027Y005524D03*D23*X011988Y005037D03*
X008088Y008612D03*D18*X008191Y004873D03*D28*X007321Y004907D03*D18*
X007766Y005261D03*D28*X007321Y005103D03*D20*X007801Y004828D03*D28*
X007321Y00471D03*D13*X00922Y007315D03*D16*X005687Y008449D03*
X005431Y006658D03*X005687D03*D35*X006199Y007425D03*Y007937D03*D23*
X00672Y007938D03*D16*X005431Y008449D03*D23*X007588Y008612D03*D16*
X004919Y008449D03*D35*X004407Y007937D03*Y007169D03*D23*
X003703Y007371D03*D16*X004919Y006658D03*D12*X010224Y005524D03*
X010618D03*X010814D03*D13*X011425Y006331D03*X00922Y007118D03*
X011425Y006528D03*D18*X012Y006477D03*D13*X011425Y006134D03*D18*
X01243Y006748D03*X012881Y006748D03*D31*X013931Y006978D03*D17*
X014401Y007041D03*D13*X011425Y006921D03*Y007118D03*D18*
X01243Y007248D03*D12*X011011Y007728D03*X010421D03*X00983D03*X009633D03*
D13*X00922Y006331D03*D28*X006081Y0053D03*Y004907D03*D18*
X004958Y004437D03*D17*X014401Y004702D03*D27*X02484Y008331D03*D18*
X02541Y008618D03*D15*X024496Y008577D03*X024299D03*D27*
X023954Y008134D03*D15*X024496Y007692D03*D14*X018339Y00783D03*D19*
X01828Y008283D03*D14*X018536Y00783D03*D19*X018989Y008086D03*Y008283D03*
D26*X024158Y00431D03*D23*X00643Y008428D03*D18*X00757Y007378D03*D23*
X008711Y006818D03*D13*X00922Y006724D03*D28*X006081Y005103D03*D36*
X005516Y005222D03*D18*X004958Y004937D03*X013331Y005608D03*
X013891Y005268D03*D22*X016836Y007872D03*D17*X015169Y007041D03*D18*
X013891Y005768D03*D23*X005327Y006167D03*D16*X005175Y006658D03*D35*
X006199Y007169D03*D43*X005303Y007553D03*D16*X005175Y008449D03*D23*
X00722Y007938D03*D18*X00757Y007878D03*D12*X010224Y007728D03*X010814D03*
D23*X008211Y006818D03*D13*X00922Y006528D03*D46*X010322Y006626D03*D13*
X011425Y006724D03*D18*X012Y006977D03*D13*X00922Y006921D03*D35*
X006199Y007681D03*D12*X010027Y007728D03*D18*X023222Y008315D03*D27*
X023954Y008331D03*X02484Y008134D03*D18*X02541Y008118D03*D27*
X02484Y007938D03*D12*X010618Y007728D03*X009633Y005524D03*D18*
X013331Y006108D03*D17*X014913Y007041D03*D22*X016442Y007872D03*D19*
X01828Y008086D03*D21*X018946Y004692D03*D26*X023686Y00431D03*D17*
X014657Y007041D03*D31*X013931Y006297D03*D17*X014913Y004702D03*
X014657D03*X015169D03*D25*X003724Y006858D03*D23*X005827Y006167D03*
X003203Y007371D03*D18*X00282Y007167D03*D23*X00337Y007957D03*D13*
X011425Y005937D03*D12*X011011Y005524D03*X010421D03*D30*X0129Y007727D03*
D41*X008437Y006411D03*D13*X00922Y006134D03*D41*X008437Y005939D03*
Y005466D03*D13*X00922Y005937D03*D30*X014199Y007727D03*D18*
X012881Y007248D03*D13*X011425Y007315D03*D29*X017389Y005388D03*
Y005644D03*Y005132D03*D21*X018552Y004692D03*D39*X017015Y00526D03*D24*
X020542Y005857D03*D23*X020799Y005354D03*D24*X021034Y005857D03*D18*
X023222Y007815D03*D27*X023954Y007938D03*D15*X024299Y007692D03*D38*
X00043Y006773D03*Y007718D03*D34*X001394Y008456D03*Y006035D03*D33*
X001483Y006734D03*D28*X007321Y0053D03*D18*X006966Y006106D03*D29*
X01605Y005132D03*Y005388D03*Y005644D03*D23*X00693Y013467D03*
X021299Y010394D03*D24*X021526Y010897D03*D18*X00282Y012706D03*
X002053Y012291D03*D33*X001483Y012285D03*D18*X0195Y012947D03*D14*
X01893Y012869D03*D23*X01349Y009497D03*X01399D03*D29*X01605Y009916D03*
D23*X017259Y01365D03*D14*X018536Y013578D03*X018733D03*D23*
X017759Y01365D03*D14*X018339Y013578D03*X01893D03*D18*X0195Y013447D03*
D14*X018733Y012869D03*D22*X017229Y012912D03*D23*X00287Y012996D03*D18*
X002443Y012511D03*D33*X001483Y012541D03*D10*X025394Y011201D03*
X003839Y011102D03*D33*X001483Y012797D03*Y012029D03*D22*
X017623Y012912D03*D32*X018135Y011718D03*X01593D03*D25*
X003232Y011897D03*D44*X004728Y010795D03*X002228D03*D45*
X019538Y012038D03*X02253D03*D40*X018178Y010726D03*D42*X01932D03*D29*
X017389Y009916D03*D18*X002443Y013011D03*D35*X004407Y012465D03*D18*
X007361Y011167D03*X007766Y0108D03*X006966Y011645D03*X007361Y011667D03*
D23*X012488Y010076D03*X009708Y009932D03*D28*X007321Y009552D03*D23*
X010208Y009932D03*D12*X00983Y010563D03*D18*X002053Y012791D03*D35*
X004407Y012721D03*D23*X010518Y009886D03*D18*X008191Y009412D03*D20*
X007801Y009457D03*D28*X006081Y009552D03*Y009749D03*D36*
X005516Y009513D03*D37*X006701Y009946D03*D23*X011018Y009886D03*D12*
X010027Y010563D03*D23*X011988Y010076D03*X008088Y013651D03*D18*
X008191Y009912D03*D28*X007321Y009946D03*D18*X007766Y0103D03*D28*
X007321Y010143D03*D20*X007801Y009867D03*D28*X007321Y009749D03*D13*
X00922Y012354D03*D16*X005687Y013488D03*X005431Y011697D03*X005687D03*
D35*X006199Y012465D03*Y012977D03*D23*X00672Y012977D03*D16*
X005431Y013488D03*D23*X007588Y013651D03*D16*X004919Y013488D03*D35*
X004407Y012977D03*Y012209D03*D23*X003703Y012411D03*D16*
X004919Y011697D03*D12*X010224Y010563D03*X010618D03*X010814D03*D13*
X011425Y01137D03*X00922Y012158D03*X011425Y011567D03*D18*X012Y011516D03*
D13*X011425Y011173D03*D18*X01243Y011787D03*X012881Y011787D03*D31*
X013931Y012018D03*D17*X014401Y01208D03*D13*X011425Y011961D03*
Y012158D03*D18*X01243Y012287D03*D12*X011011Y012768D03*X010421D03*
X00983D03*X009633D03*D13*X00922Y01137D03*D28*X006081Y01034D03*
Y009946D03*D18*X004958Y009476D03*D17*X014401Y009741D03*D27*
X02484Y013371D03*D18*X02541Y013657D03*D15*X024496Y013617D03*X024299D03*
D27*X023954Y013174D03*D15*X024496Y012731D03*D14*X018339Y012869D03*D19*
X01828Y013322D03*D14*X018536Y012869D03*D19*X018989Y013125D03*
Y013322D03*D26*X024158Y009349D03*D23*X00643Y013467D03*D18*
X00757Y012417D03*D23*X008711Y011857D03*D13*X00922Y011764D03*D28*
X006081Y010143D03*D36*X005516Y010261D03*D18*X004958Y009976D03*
X013331Y010647D03*X013891Y010307D03*D22*X016836Y012912D03*D17*
X015169Y01208D03*D18*X013891Y010807D03*D23*X005327Y011206D03*D16*
X005175Y011697D03*D35*X006199Y012209D03*D43*X005303Y012593D03*D16*
X005175Y013488D03*D23*X00722Y012977D03*D18*X00757Y012917D03*D12*
X010224Y012768D03*X010814D03*D23*X008211Y011857D03*D13*
X00922Y011567D03*D46*X010322Y011665D03*D13*X011425Y011764D03*D18*
X012Y012016D03*D13*X00922Y011961D03*D35*X006199Y012721D03*D12*
X010027Y012768D03*D18*X023222Y013354D03*D27*X023954Y013371D03*
X02484Y013174D03*D18*X02541Y013157D03*D27*X02484Y012977D03*D12*
X010618Y012768D03*X009633Y010563D03*D18*X013331Y011147D03*D17*
X014913Y01208D03*D22*X016442Y012912D03*D19*X01828Y013125D03*D21*
X018946Y009732D03*D26*X023686Y009349D03*D17*X014657Y01208D03*D31*
X013931Y011336D03*D17*X014913Y009741D03*X014657D03*X015169D03*D25*
X003724Y011897D03*D23*X005827Y011206D03*X003203Y012411D03*D18*
X00282Y012206D03*D23*X00337Y012996D03*D13*X011425Y010976D03*D12*
X011011Y010563D03*X010421D03*D30*X0129Y012766D03*D41*X008437Y01145D03*
D13*X00922Y011173D03*D41*X008437Y010978D03*Y010506D03*D13*
X00922Y010976D03*D30*X014199Y012766D03*D18*X012881Y012287D03*D13*
X011425Y012354D03*D29*X017389Y010428D03*Y010684D03*Y010172D03*D21*
X018552Y009732D03*D39*X017015Y0103D03*D24*X020542Y010897D03*D23*
X020799Y010394D03*D24*X021034Y010897D03*D18*X023222Y012854D03*D27*
X023954Y012977D03*D15*X024299Y012731D03*D38*X00043Y011813D03*
Y012757D03*D34*X001394Y013496D03*Y011074D03*D33*X001483Y011773D03*D28*
X007321Y01034D03*D18*X006966Y011145D03*D29*X01605Y010172D03*Y010428D03*
Y010684D03*D23*X00693Y018506D03*X021299Y015433D03*D24*
X021526Y015936D03*D33*X001483Y017324D03*D18*X002053Y01733D03*
X00282Y017746D03*X0195Y017986D03*D14*X01893Y017909D03*D23*
X01349Y014536D03*X01399D03*D29*X01605Y014955D03*D23*X017259Y018689D03*
D14*X018536Y018617D03*X018733D03*D23*X017759Y018689D03*D14*
X018339Y018617D03*X01893D03*D18*X0195Y018486D03*D14*X018733Y017909D03*
D22*X017229Y017951D03*D23*X00287Y018036D03*D18*X002443Y01755D03*D33*
X001483Y01758D03*D10*X025394Y01624D03*X003839Y016142D03*D33*
X001483Y017836D03*Y017068D03*D22*X017623Y017951D03*D32*
X018135Y016757D03*X01593D03*D25*X003232Y016936D03*D44*
X004728Y015834D03*X002228D03*D45*X019538Y017078D03*X02253D03*D40*
X018178Y015765D03*D42*X01932D03*D29*X017389Y014955D03*D18*
X002443Y01805D03*D35*X004407Y017504D03*D18*X007361Y016206D03*
X007766Y01584D03*X006966Y016685D03*X007361Y016706D03*D23*
X012488Y015115D03*X009708Y014971D03*D28*X007321Y014592D03*D23*
X010208Y014971D03*D12*X00983Y015602D03*D18*X002053Y01783D03*D35*
X004407Y01776D03*D23*X010518Y014925D03*D18*X008191Y014451D03*D20*
X007801Y014496D03*D28*X006081Y014592D03*Y014788D03*D36*
X005516Y014552D03*D37*X006701Y014985D03*D23*X011018Y014925D03*D12*
X010027Y015602D03*D23*X011988Y015115D03*X008088Y01869D03*D18*
X008191Y014951D03*D28*X007321Y014985D03*D18*X007766Y01534D03*D28*
X007321Y015182D03*D20*X007801Y014906D03*D28*X007321Y014788D03*D13*
X00922Y017394D03*D16*X005687Y018528D03*X005431Y016736D03*X005687D03*
D35*X006199Y017504D03*Y018016D03*D23*X00672Y018016D03*D16*
X005431Y018528D03*D23*X007588Y01869D03*D16*X004919Y018528D03*D35*
X004407Y018016D03*Y017248D03*D23*X003703Y01745D03*D16*
X004919Y016736D03*D12*X010224Y015602D03*X010618D03*X010814D03*D13*
X011425Y01641D03*X00922Y017197D03*X011425Y016606D03*D18*X012Y016555D03*
D13*X011425Y016213D03*D18*X01243Y016826D03*X012881Y016826D03*D31*
X013931Y017057D03*D17*X014401Y017119D03*D13*X011425Y017D03*Y017197D03*
D18*X01243Y017326D03*D12*X011011Y017807D03*X010421D03*X00983D03*
X009633D03*D13*X00922Y01641D03*D28*X006081Y015379D03*Y014985D03*D18*
X004958Y014515D03*D17*X014401Y014781D03*D27*X02484Y01841D03*D18*
X02541Y018696D03*D15*X024496Y018656D03*X024299D03*D27*
X023954Y018213D03*D15*X024496Y01777D03*D14*X018339Y017909D03*D19*
X01828Y018362D03*D14*X018536Y017909D03*D19*X018989Y018165D03*
Y018362D03*D26*X024158Y014388D03*D23*X00643Y018506D03*D18*
X00757Y017456D03*D23*X008711Y016896D03*D13*X00922Y016803D03*D28*
X006081Y015182D03*D36*X005516Y0153D03*D18*X004958Y015015D03*
X013331Y015686D03*X013891Y015346D03*D22*X016836Y017951D03*D17*
X015169Y017119D03*D18*X013891Y015846D03*D23*X005327Y016245D03*D16*
X005175Y016736D03*D35*X006199Y017248D03*D43*X005303Y017632D03*D16*
X005175Y018528D03*D23*X00722Y018016D03*D18*X00757Y017956D03*D12*
X010224Y017807D03*X010814D03*D23*X008211Y016896D03*D13*
X00922Y016606D03*D46*X010322Y016705D03*D13*X011425Y016803D03*D18*
X012Y017055D03*D13*X00922Y017D03*D35*X006199Y01776D03*D12*
X010027Y017807D03*D18*X023222Y018393D03*D27*X023954Y01841D03*
X02484Y018213D03*D18*X02541Y018196D03*D27*X02484Y018016D03*D12*
X010618Y017807D03*X009633Y015602D03*D18*X013331Y016186D03*D17*
X014913Y017119D03*D22*X016442Y017951D03*D19*X01828Y018165D03*D21*
X018946Y014771D03*D26*X023686Y014388D03*D17*X014657Y017119D03*D31*
X013931Y016376D03*D17*X014913Y014781D03*X014657D03*X015169D03*D25*
X003724Y016936D03*D23*X005827Y016245D03*X003203Y01745D03*D18*
X00282Y017246D03*D23*X00337Y018036D03*D13*X011425Y016016D03*D12*
X011011Y015602D03*X010421D03*D30*X0129Y017805D03*D41*X008437Y01649D03*
D13*X00922Y016213D03*D41*X008437Y016017D03*Y015545D03*D13*
X00922Y016016D03*D30*X014199Y017805D03*D18*X012881Y017326D03*D13*
X011425Y017394D03*D29*X017389Y015467D03*Y015723D03*Y015211D03*D21*
X018552Y014771D03*D39*X017015Y015339D03*D24*X020542Y015936D03*D23*
X020799Y015433D03*D24*X021034Y015936D03*D18*X023222Y017893D03*D27*
X023954Y018016D03*D15*X024299Y01777D03*D38*X00043Y016852D03*Y017797D03*
D34*X001394Y018535D03*Y016114D03*D33*X001483Y016813D03*D28*
X007321Y015379D03*D18*X006966Y016185D03*D29*X01605Y015211D03*
Y015467D03*Y015723D03*
M02*