%FSTAX24Y24*%
%MOIN*%
%IN LAYER1.GBR *%
%ADD10C,0.0001*%
%ADD11C,0.0020*%
%ADD12C,0.0039*%
%ADD13C,0.0040*%
%ADD14C,0.0050*%
%ADD15C,0.0060*%
%ADD16C,0.0068*%
%ADD17C,0.0080*%
%ADD18C,0.0090*%
%ADD19C,0.0091*%
%ADD20C,0.0098*%
%ADD21C,0.0100*%
%ADD22C,0.0106*%
%ADD23C,0.0110*%
%ADD24C,0.0118*%
%ADD25C,0.0120*%
%ADD26C,0.0129*%
%ADD27C,0.0130*%
%ADD28C,0.0134*%
%ADD29C,0.0140*%
%ADD30C,0.0142*%
%ADD31C,0.0150*%
%ADD32C,0.0157*%
%ADD33C,0.0159*%
%ADD34C,0.0160*%
%ADD35C,0.0176*%
%ADD36C,0.0180*%
%ADD37C,0.0194*%
%ADD38C,0.0197*%
%ADD39C,0.0200*%
%ADD40C,0.0220*%
%ADD41C,0.0238*%
%ADD42C,0.0240*%
%ADD43C,0.0250*%
%ADD44C,0.0260*%
%ADD45C,0.0270*%
%ADD46C,0.0277*%
%ADD47C,0.0283*%
%ADD48C,0.0300*%
%ADD49C,0.0320*%
%ADD50C,0.0340*%
%ADD51C,0.0354*%
%ADD52C,0.0360*%
%ADD53C,0.0380*%
%ADD54C,0.0400*%
%ADD55C,0.0472*%
%ADD56C,0.0474*%
%ADD57C,0.0500*%
%ADD58C,0.0520*%
%ADD59C,0.0591*%
%ADD60C,0.0600*%
%ADD61C,0.0720*%
%ADD62C,0.0820*%
%ADD63O,0.0098X0.0551*%
%ADD64O,0.0218X0.0671*%
%ADD65O,0.0551X0.0098*%
%ADD66O,0.0630X0.0354*%
%ADD67O,0.0671X0.0218*%
%ADD68O,0.0750X0.0474*%
%ADD69R,0.0091X0.0217*%
%ADD70R,0.0094X0.0394*%
%ADD71R,0.0100X0.0150*%
%ADD72R,0.0134X0.0571*%
%ADD73R,0.0165X0.0701*%
%ADD74R,0.0200X0.0250*%
%ADD75R,0.0211X0.0337*%
%ADD76R,0.0214X0.0514*%
%ADD77R,0.0217X0.0091*%
%ADD78R,0.0220X0.0230*%
%ADD79R,0.0236X0.0610*%
%ADD80R,0.0236X0.0630*%
%ADD81R,0.0250X0.0200*%
%ADD82R,0.0254X0.0691*%
%ADD83R,0.0285X0.0821*%
%ADD84R,0.0315X0.0630*%
%ADD85R,0.0315X0.0669*%
%ADD86R,0.0320X0.0370*%
%ADD87R,0.0337X0.0211*%
%ADD88R,0.0340X0.0350*%
%ADD89R,0.0354X0.0276*%
%ADD90R,0.0356X0.0730*%
%ADD91R,0.0356X0.0750*%
%ADD92R,0.0370X0.0320*%
%ADD93R,0.0380X0.0430*%
%ADD94R,0.0394X0.0094*%
%ADD95R,0.0394X0.0098*%
%ADD96R,0.0394X0.0177*%
%ADD97R,0.0394X0.0551*%
%ADD98R,0.0425X0.0413*%
%ADD99R,0.0430X0.0380*%
%ADD100R,0.0435X0.0750*%
%ADD101R,0.0435X0.0789*%
%ADD102R,0.0471X0.0294*%
%ADD103R,0.0474X0.0396*%
%ADD104R,0.0500X0.0866*%
%ADD105R,0.0514X0.0214*%
%ADD106R,0.0514X0.0218*%
%ADD107R,0.0514X0.0297*%
%ADD108R,0.0514X0.0671*%
%ADD109R,0.0531X0.0157*%
%ADD110R,0.0551X0.0531*%
%ADD111R,0.0571X0.0134*%
%ADD112R,0.0571X0.0394*%
%ADD113R,0.0591X0.0866*%
%ADD114R,0.0620X0.0986*%
%ADD115R,0.0645X0.0633*%
%ADD116R,0.0651X0.0277*%
%ADD117R,0.0671X0.0651*%
%ADD118R,0.0688X0.0649*%
%ADD119R,0.0689X0.0748*%
%ADD120R,0.0691X0.0254*%
%ADD121R,0.0691X0.0514*%
%ADD122R,0.0709X0.1181*%
%ADD123R,0.0711X0.0986*%
%ADD124R,0.0748X0.0709*%
%ADD125R,0.0748X0.0157*%
%ADD126R,0.0748X0.0709*%
%ADD127R,0.0787X0.0787*%
%ADD128R,0.0809X0.0868*%
%ADD129R,0.0827X0.1102*%
%ADD130R,0.0827X0.1181*%
%ADD131R,0.0868X0.0277*%
%ADD132R,0.0868X0.0829*%
%ADD133R,0.0907X0.0907*%
%ADD134R,0.0947X0.1222*%
%ADD135R,0.0947X0.1301*%
%ADD136R,0.1181X0.1181*%
%ADD137R,0.1301X0.1301*%
D13*X017198Y004426D02*G01X01835D01*Y005108D01*X01875D01*
X018784Y005991D01*X018186Y005966D01*X017244Y00597D01*X01583Y006158D01*
X01582Y004426D01*X017198D01*G36*G01X01835D01*Y005108D01*X01875D01*
X018784Y005991D01*X018186Y005966D01*X017244Y00597D01*X01583Y006158D01*
X01582Y004426D01*X017198D01*G37*X00672Y005398D02*G01X007108Y005412D01*
X00726Y005788D01*X006343Y006007D01*X00615Y005548D01*X006705Y005308D01*
G36*X00672Y005398D02*G01X007108Y005412D01*X00726Y005788D01*
X006343Y006007D01*X00615Y005548D01*X006705Y005308D01*G37*D10*
X004249Y004091D02*G01X004251Y005093D01*D11*X004811D01*
X005211Y005713D01*X005271Y005733D01*X005631Y005673D01*
X005951Y006453D01*X006031Y006713D01*X006531Y007053D01*Y007573D01*
X007087Y007776D01*X007382D01*X007556Y006776D01*X006896D01*
X006751Y006433D01*X006431D01*X006131Y005713D01*X005911Y005393D01*
X005811Y005353D01*Y004953D01*X005686Y004808D01*X005111Y004713D01*
X005031Y004573D01*X004611D01*D10*X004803Y004488D01*X005157Y004252D01*
X009094Y004449D01*X009252Y004488D01*X010118D01*X010157Y004646D01*
X010748Y004803D01*X011417Y004961D01*X013071D01*Y005394D01*X013228D01*
X013189Y005551D01*X013661Y005591D01*Y004331D01*X010551Y004252D01*
X010559Y004091D01*X004249D01*G36*G01X004251Y005093D01*X004811D01*
X005211Y005713D01*X005271Y005733D01*X005631Y005673D01*
X005951Y006453D01*X006031Y006713D01*X006531Y007053D01*Y007573D01*
X007087Y007776D01*X007382D01*X007556Y006776D01*X006896D01*
X006751Y006433D01*X006431D01*X006131Y005713D01*X005911Y005393D01*
X005811Y005353D01*Y004953D01*X005686Y004808D01*X005111Y004713D01*
X005031Y004573D01*X004611D01*X004803Y004488D01*X005157Y004252D01*
X009094Y004449D01*X009252Y004488D01*X010118D01*X010157Y004646D01*
X010748Y004803D01*X011417Y004961D01*X013071D01*Y005394D01*X013228D01*
X013189Y005551D01*X013661Y005591D01*Y004331D01*X010551Y004252D01*
X010559Y004091D01*X004249D01*G37*D13*X017198Y009465D02*G01X01835D01*
Y010147D01*X01875D01*X018784Y01103D01*X018186Y011005D01*
X017244Y011009D01*X01583Y011197D01*X01582Y009465D01*X017198D01*G36*
G01X01835D01*Y010147D01*X01875D01*X018784Y01103D01*X018186Y011005D01*
X017244Y011009D01*X01583Y011197D01*X01582Y009465D01*X017198D01*G37*
X00672Y010437D02*G01X007108Y010451D01*X00726Y010827D01*
X006343Y011046D01*X00615Y010587D01*X006705Y010347D01*G36*
X00672Y010437D02*G01X007108Y010451D01*X00726Y010827D01*
X006343Y011046D01*X00615Y010587D01*X006705Y010347D01*G37*D10*
X004249Y00913D02*G01X004251Y010132D01*D11*X004811D01*X005211Y010752D01*
X005271Y010772D01*X005631Y010712D01*X005951Y011492D01*
X006031Y011752D01*X006531Y012092D01*Y012612D01*X007087Y012815D01*
X007382D01*X007556Y011815D01*X006896D01*X006751Y011472D01*X006431D01*
X006131Y010752D01*X005911Y010432D01*X005811Y010392D01*Y009992D01*
X005686Y009847D01*X005111Y009752D01*X005031Y009612D01*X004611D01*D10*
X004803Y009528D01*X005157Y009291D01*X009094Y009488D01*
X009252Y009528D01*X010118D01*X010157Y009685D01*X010748Y009843D01*
X011417Y01D01*X013071D01*Y010433D01*X013228D01*X013189Y010591D01*
X013661Y01063D01*Y00937D01*X010551Y009291D01*X010559Y00913D01*
X004249D01*G36*G01X004251Y010132D01*X004811D01*X005211Y010752D01*
X005271Y010772D01*X005631Y010712D01*X005951Y011492D01*
X006031Y011752D01*X006531Y012092D01*Y012612D01*X007087Y012815D01*
X007382D01*X007556Y011815D01*X006896D01*X006751Y011472D01*X006431D01*
X006131Y010752D01*X005911Y010432D01*X005811Y010392D01*Y009992D01*
X005686Y009847D01*X005111Y009752D01*X005031Y009612D01*X004611D01*
X004803Y009528D01*X005157Y009291D01*X009094Y009488D01*
X009252Y009528D01*X010118D01*X010157Y009685D01*X010748Y009843D01*
X011417Y01D01*X013071D01*Y010433D01*X013228D01*X013189Y010591D01*
X013661Y01063D01*Y00937D01*X010551Y009291D01*X010559Y00913D01*
X004249D01*G37*D13*X017198Y014505D02*G01X01835D01*Y015186D01*X01875D01*
X018784Y016069D01*X018186Y016044D01*X017244Y016048D01*X01583Y016236D01*
X01582Y014505D01*X017198D01*G36*G01X01835D01*Y015186D01*X01875D01*
X018784Y016069D01*X018186Y016044D01*X017244Y016048D01*X01583Y016236D01*
X01582Y014505D01*X017198D01*G37*X00672Y015476D02*G01X007108Y01549D01*
X00726Y015866D01*X006343Y016085D01*X00615Y015626D01*X006705Y015386D01*
G36*X00672Y015476D02*G01X007108Y01549D01*X00726Y015866D01*
X006343Y016085D01*X00615Y015626D01*X006705Y015386D01*G37*D10*
X004249Y014169D02*G01X004251Y015171D01*D11*X004811D01*
X005211Y015791D01*X005271Y015811D01*X005631Y015751D01*
X005951Y016531D01*X006031Y016791D01*X006531Y017131D01*Y017651D01*
X007087Y017854D01*X007382D01*X007556Y016855D01*X006896D01*
X006751Y016511D01*X006431D01*X006131Y015791D01*X005911Y015471D01*
X005811Y015431D01*Y015031D01*X005686Y014886D01*X005111Y014791D01*
X005031Y014651D01*X004611D01*D10*X004803Y014567D01*X005157Y014331D01*
X009094Y014528D01*X009252Y014567D01*X010118D01*X010157Y014724D01*
X010748Y014882D01*X011417Y015039D01*X013071D01*Y015472D01*X013228D01*
X013189Y01563D01*X013661Y015669D01*Y014409D01*X010551Y014331D01*
X010559Y014169D01*X004249D01*G36*G01X004251Y015171D01*X004811D01*
X005211Y015791D01*X005271Y015811D01*X005631Y015751D01*
X005951Y016531D01*X006031Y016791D01*X006531Y017131D01*Y017651D01*
X007087Y017854D01*X007382D01*X007556Y016855D01*X006896D01*
X006751Y016511D01*X006431D01*X006131Y015791D01*X005911Y015471D01*
X005811Y015431D01*Y015031D01*X005686Y014886D01*X005111Y014791D01*
X005031Y014651D01*X004611D01*X004803Y014567D01*X005157Y014331D01*
X009094Y014528D01*X009252Y014567D01*X010118D01*X010157Y014724D01*
X010748Y014882D01*X011417Y015039D01*X013071D01*Y015472D01*X013228D01*
X013189Y01563D01*X013661Y015669D01*Y014409D01*X010551Y014331D01*
X010559Y014169D01*X004249D01*G37*
%LPC*%
D62*X023622Y020866D03*X003937D03*Y002362D03*D99*X00693Y008428D03*D52*
X00723Y008398D03*D99*X021299Y005354D03*D100*X021526Y005857D03*D52*
X021533Y006572D03*D93*X00282Y007667D03*X002053Y007251D03*D116*
X001483Y007246D03*D52*X000984Y007174D03*D93*X0195Y007908D03*D52*
X01922D03*D75*X01893Y00783D03*D92*X01349Y004458D03*D52*X0137Y004738D03*
D92*X01399Y004458D03*D52*X013937Y004921D03*D107*X01605Y004877D03*D99*
X017259Y008611D03*D75*X018536Y008539D03*X018733D03*D52*
X01664Y008518D03*D99*X017759Y008611D03*D75*X018339Y008539D03*X01893D03*
D93*X0195Y008408D03*D75*X018733Y00783D03*D52*X01741Y007328D03*
X017221Y007338D03*D91*X017229Y007872D03*D99*X00287Y007957D03*D93*
X002443Y007471D03*D116*X001483Y007501D03*D52*X000984Y007686D03*D58*
X025394Y006161D03*X003839Y006063D03*D116*X001483Y007757D03*D52*
X00426Y008218D03*Y008398D03*D116*X001483Y00699D03*D29*
X021063Y008189D03*X024902Y004488D03*X023524Y005906D03*
X022475Y004686D03*D91*X017623Y007872D03*D29*X017919Y007861D03*D114*
X018135Y006678D03*X01593D03*D101*X003232Y006858D03*D52*
X002672Y006201D03*D134*X004728Y005755D03*X002228D03*D135*
X019538Y006999D03*X02253D03*D118*X018178Y005687D03*D132*X01932D03*D107*
X017389Y004877D03*D93*X002443Y007971D03*D120*X004407Y007425D03*D86*
X007361Y006128D03*D52*X007751Y006028D03*D93*X007766Y005761D03*D52*
X00833Y005207D03*D86*X006966Y006606D03*X007361Y006628D03*D52*
X007621Y007068D03*D92*X012488Y005037D03*D52*X012928Y004927D03*D99*
X009708Y004893D03*D106*X007321Y004513D03*D52*X009373Y004862D03*D99*
X010208Y004893D03*D64*X00983Y005524D03*D93*X002053Y007751D03*D120*
X004407Y007681D03*D92*X010518Y004847D03*D52*X00999Y004607D03*D93*
X008191Y004373D03*D88*X007801Y004418D03*D52*X006941Y004413D03*D106*
X006081Y004513D03*Y00471D03*D121*X005516Y004474D03*D52*
X006541Y004413D03*D123*X006701Y004907D03*D92*X011018Y004847D03*D64*
X010027Y005524D03*D92*X011988Y005037D03*D99*X008088Y008612D03*D52*
X007978Y008342D03*D93*X008191Y004873D03*D106*X007321Y004907D03*D93*
X007766Y005261D03*D106*X007321Y005103D03*D88*X007801Y004828D03*D106*
X007321Y00471D03*D33*X002821Y0055D03*X00164D03*D58*X015006Y008626D03*
X013006D03*D52*X012279Y007954D03*D58*X012006Y008626D03*D52*
X01241Y008658D03*D58*X011006Y008626D03*D52*X011452Y007765D03*D61*
X00867Y007657D03*D67*X00922Y007315D03*D82*X005687Y008449D03*D52*
X005951Y008605D03*D82*X005431Y006658D03*X005687D03*D120*
X006199Y007425D03*Y007937D03*D99*X00672Y007938D03*D82*
X005431Y008449D03*D99*X007588Y008612D03*D82*X004919Y008449D03*D120*
X004407Y007937D03*Y007169D03*D99*X003703Y007371D03*D82*
X004919Y006658D03*D64*X010224Y005524D03*X010618D03*X010814D03*D52*
X01279Y005778D03*D67*X011425Y006331D03*X00922Y007118D03*
X011425Y006528D03*D93*X012Y006477D03*D67*X011425Y006134D03*D93*
X01243Y006748D03*X012881Y006748D03*D52*X013192Y00665D03*D115*
X013931Y006978D03*D83*X014401Y007041D03*D52*X014093Y007271D03*
X013883D03*D67*X011425Y006921D03*Y007118D03*D93*X01243Y007248D03*D52*
X012131Y007348D03*D64*X011011Y007728D03*D52*X014191Y008218D03*D64*
X010421Y007728D03*D52*X01043Y008185D03*D64*X00983Y007728D03*D52*
X00858Y008458D03*D64*X009633Y007728D03*D52*X009025Y008403D03*D67*
X00922Y006331D03*D106*X006081Y0053D03*D52*X00639Y005578D03*X00621D03*
D106*X006081Y004907D03*D86*X004958Y004437D03*D52*X004712Y004603D03*D83*
X014401Y004702D03*D105*X02484Y008331D03*D93*X02541Y008618D03*D76*
X024496Y008577D03*D52*X025127Y007665D03*D76*X024299Y008577D03*D52*
X0224Y008348D03*D105*X023954Y008134D03*D52*X021479Y007381D03*D76*
X024496Y007692D03*D75*X018339Y00783D03*D52*X018339Y007541D03*D87*
X01828Y008283D03*D75*X018536Y00783D03*D52*X018009Y007561D03*D87*
X018989Y008086D03*Y008283D03*D52*X01633Y008378D03*X015186Y008279D03*
X021772Y00685D03*X02307Y004588D03*D103*X024158Y00431D03*D52*
X025394Y004291D03*X006071Y008185D03*D99*X00643Y008428D03*D86*
X00757Y007378D03*D99*X008711Y006818D03*D67*X00922Y006724D03*D52*
X00855Y007187D03*D106*X006081Y005103D03*D102*X005516Y005222D03*D71*
X004958Y004937D03*D93*X013331Y005608D03*X013891Y005268D03*D52*
X016836Y007352D03*D91*Y007872D03*D83*X015169Y007041D03*D93*
X013891Y005768D03*D52*X012343Y005619D03*X005548Y005972D03*D99*
X005327Y006167D03*D82*X005175Y006658D03*D52*X006235Y006903D03*D120*
X006199Y007169D03*D133*X005303Y007553D03*D82*X005175Y008449D03*D52*
X00459Y008358D03*X007548Y008322D03*D99*X00722Y007938D03*D86*
X00757Y007878D03*D58*X010006Y008626D03*D64*X010224Y007728D03*D52*
X010469Y008688D03*D64*X010814Y007728D03*D52*X00792Y007037D03*D99*
X008211Y006818D03*D67*X00922Y006528D03*D137*X010322Y006626D03*D67*
X011425Y006724D03*D93*X012Y006977D03*D52*X013191Y007138D03*X013391D03*
D67*X00922Y006921D03*D52*X006728Y007642D03*D120*X006199Y007681D03*D52*
X009531Y008528D03*D64*X010027Y007728D03*D52*X02288Y008348D03*D93*
X023222Y008315D03*D105*X023954Y008331D03*X02484Y008134D03*D93*
X02541Y008118D03*D105*X02484Y007938D03*D52*X010731Y008198D03*D64*
X010618Y007728D03*D52*X009436Y005376D03*D64*X009633Y005524D03*D52*
X011968Y005817D03*D93*X013331Y006108D03*D83*X014913Y007041D03*D91*
X016442Y007872D03*D87*X01828Y008086D03*D52*X01695Y008508D03*D53*
X010706Y004219D03*D90*X018946Y004692D03*D52*X022278Y005251D03*
X019449Y004803D03*X018807Y005315D03*X018798Y005981D03*D103*
X023686Y00431D03*D52*X0147Y007648D03*D83*X014657Y007041D03*D52*
X014671Y006378D03*D115*X013931Y006297D03*D52*X013566Y00638D03*
X015501Y004878D03*D83*X014913Y004702D03*X014657D03*X015169D03*D52*
X004648Y006378D03*D101*X003724Y006858D03*D52*X004444Y006382D03*
X005188Y005882D03*X00594Y006597D03*D92*X005827Y006167D03*D52*
X005018Y005332D03*X004328Y005342D03*D99*X003203Y007371D03*D93*
X00282Y007167D03*D99*X00337Y007957D03*D52*X01234Y006348D03*D67*
X011425Y005937D03*D52*X012383Y005919D03*D64*X011011Y005524D03*D52*
X012788Y005197D03*D64*X010421Y005524D03*D52*X01314Y007918D03*
X01275Y008038D03*D108*X0129Y007727D03*D131*X008437Y006411D03*D67*
X00922Y006134D03*D131*X008437Y005939D03*D52*X008971Y005698D03*D131*
X008437Y005466D03*D67*X00922Y005937D03*D52*X00202Y005103D03*
X01443Y007888D03*D108*X014199Y007727D03*D52*X013951Y007608D03*D93*
X012881Y007248D03*D67*X011425Y007315D03*D52*X01622Y006457D03*
X0162Y007018D03*X01566D03*X01563Y006448D03*X018451Y006391D03*
X017799Y006358D03*Y006961D03*X018429D03*D36*X017505Y005957D03*D107*
X017389Y005388D03*Y005644D03*Y005132D03*D90*X018552Y004692D03*D36*
X018268Y005D03*D52*X014851Y005718D03*X004069Y004473D03*
X02298Y007528D03*X02209Y006518D03*X02208Y007618D03*X0229Y006548D03*
X01914Y007448D03*X01996Y007568D03*X01906Y006608D03*X02002D03*D100*
X020542Y005857D03*D99*X020799Y005354D03*D52*X015383Y006139D03*
X01591Y007808D03*X01612D03*D58*X014006Y008626D03*D52*X004039Y004868D03*
X02035Y007268D03*D100*X021034Y005857D03*D93*X023222Y007815D03*D105*
X023954Y007938D03*D76*X024299Y007692D03*D52*X023358Y007534D03*
X02014Y007238D03*X00403Y005288D03*X01498Y005568D03*X01552Y004618D03*
X00348Y005288D03*X00349Y005718D03*X00089Y004888D03*Y005288D03*
X000892Y005751D03*X000415Y00529D03*X000382Y004894D03*X000376Y004465D03*
X000393Y005724D03*D68*X00043Y005946D03*D128*Y006773D03*Y007718D03*D68*
Y008545D03*D117*X001394Y008456D03*Y006035D03*D116*X001483Y006734D03*
D52*X00192Y006347D03*X00652Y006288D03*X006453Y006127D03*D106*
X007321Y0053D03*D86*X006966Y006106D03*D52*X007136Y005866D03*
X006741Y004413D03*X00981Y006107D03*X009391Y005688D03*X002479Y005105D03*
X01565Y005608D03*X0157Y005378D03*D107*X01605Y005132D03*Y005388D03*
Y005644D03*D52*X007336Y005816D03*D99*X00693Y013467D03*D52*
X00723Y013437D03*D99*X021299Y010394D03*D100*X021526Y010897D03*D52*
X021533Y011611D03*D93*X00282Y012706D03*X002053Y012291D03*D116*
X001483Y012285D03*D52*X000984Y012214D03*D93*X0195Y012947D03*D52*
X01922D03*D75*X01893Y012869D03*D92*X01349Y009497D03*D52*
X0137Y009777D03*D92*X01399Y009497D03*D52*X013937Y009961D03*D107*
X01605Y009916D03*D99*X017259Y01365D03*D75*X018536Y013578D03*X018733D03*
D52*X01664Y013557D03*D99*X017759Y01365D03*D75*X018339Y013578D03*
X01893D03*D93*X0195Y013447D03*D75*X018733Y012869D03*D52*
X01741Y012367D03*X017221Y012377D03*D91*X017229Y012912D03*D99*
X00287Y012996D03*D93*X002443Y012511D03*D116*X001483Y012541D03*D52*
X000984Y012726D03*D58*X025394Y011201D03*X003839Y011102D03*D116*
X001483Y012797D03*D52*X00426Y013257D03*Y013437D03*D116*
X001483Y012029D03*D29*X021063Y013228D03*X024902Y009528D03*
X023524Y010945D03*X022475Y009725D03*D91*X017623Y012912D03*D29*
X017919Y0129D03*D114*X018135Y011718D03*X01593D03*D101*
X003232Y011897D03*D52*X002672Y011241D03*D134*X004728Y010795D03*
X002228D03*D135*X019538Y012038D03*X02253D03*D118*X018178Y010726D03*
D132*X01932D03*D107*X017389Y009916D03*D93*X002443Y013011D03*D120*
X004407Y012465D03*D86*X007361Y011167D03*D52*X007751Y011067D03*D93*
X007766Y0108D03*D52*X00833Y010246D03*D86*X006966Y011645D03*
X007361Y011667D03*D52*X007621Y012107D03*D92*X012488Y010076D03*D52*
X012928Y009966D03*D99*X009708Y009932D03*D106*X007321Y009552D03*D52*
X009373Y009901D03*D99*X010208Y009932D03*D64*X00983Y010563D03*D93*
X002053Y012791D03*D120*X004407Y012721D03*D92*X010518Y009886D03*D52*
X00999Y009646D03*D93*X008191Y009412D03*D88*X007801Y009457D03*D52*
X006941Y009452D03*D106*X006081Y009552D03*Y009749D03*D121*
X005516Y009513D03*D52*X006541Y009452D03*D123*X006701Y009946D03*D92*
X011018Y009886D03*D64*X010027Y010563D03*D92*X011988Y010076D03*D99*
X008088Y013651D03*D52*X007978Y013381D03*D93*X008191Y009912D03*D106*
X007321Y009946D03*D93*X007766Y0103D03*D106*X007321Y010143D03*D88*
X007801Y009867D03*D106*X007321Y009749D03*D33*X002821Y010539D03*
X00164D03*D58*X015006Y013665D03*X013006D03*D52*X012279Y012993D03*D58*
X012006Y013665D03*D52*X01241Y013697D03*D58*X011006Y013665D03*D52*
X011452Y012804D03*D61*X00867Y012696D03*D67*X00922Y012354D03*D82*
X005687Y013488D03*D52*X005951Y013644D03*D82*X005431Y011697D03*
X005687D03*D120*X006199Y012465D03*Y012977D03*D99*X00672Y012977D03*D82*
X005431Y013488D03*D99*X007588Y013651D03*D82*X004919Y013488D03*D120*
X004407Y012977D03*Y012209D03*D99*X003703Y012411D03*D82*
X004919Y011697D03*D64*X010224Y010563D03*X010618D03*X010814D03*D52*
X01279Y010817D03*D67*X011425Y01137D03*X00922Y012158D03*
X011425Y011567D03*D93*X012Y011516D03*D67*X011425Y011173D03*D93*
X01243Y011787D03*X012881Y011787D03*D52*X013192Y011689D03*D115*
X013931Y012018D03*D83*X014401Y01208D03*D52*X014093Y01231D03*X013883D03*
D67*X011425Y011961D03*Y012158D03*D93*X01243Y012287D03*D52*
X012131Y012387D03*D64*X011011Y012768D03*D52*X014191Y013257D03*D64*
X010421Y012768D03*D52*X01043Y013224D03*D64*X00983Y012768D03*D52*
X00858Y013497D03*D64*X009633Y012768D03*D52*X009025Y013442D03*D67*
X00922Y01137D03*D106*X006081Y01034D03*D52*X00639Y010617D03*X00621D03*
D106*X006081Y009946D03*D86*X004958Y009476D03*D52*X004712Y009642D03*D83*
X014401Y009741D03*D105*X02484Y013371D03*D93*X02541Y013657D03*D76*
X024496Y013617D03*D52*X025127Y012704D03*D76*X024299Y013617D03*D52*
X0224Y013387D03*D105*X023954Y013174D03*D52*X021479Y01242D03*D76*
X024496Y012731D03*D75*X018339Y012869D03*D52*X018339Y01258D03*D87*
X01828Y013322D03*D75*X018536Y012869D03*D52*X018009Y0126D03*D87*
X018989Y013125D03*Y013322D03*D52*X01633Y013417D03*X015186Y013318D03*
X021772Y01189D03*X02307Y009627D03*D103*X024158Y009349D03*D52*
X025394Y009331D03*X006071Y013224D03*D99*X00643Y013467D03*D86*
X00757Y012417D03*D99*X008711Y011857D03*D67*X00922Y011764D03*D52*
X00855Y012226D03*D106*X006081Y010143D03*D102*X005516Y010261D03*D71*
X004958Y009976D03*D93*X013331Y010647D03*X013891Y010307D03*D52*
X016836Y012392D03*D91*Y012912D03*D83*X015169Y01208D03*D93*
X013891Y010807D03*D52*X012343Y010658D03*X005548Y011011D03*D99*
X005327Y011206D03*D82*X005175Y011697D03*D52*X006235Y011942D03*D120*
X006199Y012209D03*D133*X005303Y012593D03*D82*X005175Y013488D03*D52*
X00459Y013397D03*X007548Y013361D03*D99*X00722Y012977D03*D86*
X00757Y012917D03*D58*X010006Y013665D03*D64*X010224Y012768D03*D52*
X010469Y013727D03*D64*X010814Y012768D03*D52*X00792Y012076D03*D99*
X008211Y011857D03*D67*X00922Y011567D03*D137*X010322Y011665D03*D67*
X011425Y011764D03*D93*X012Y012016D03*D52*X013191Y012177D03*X013391D03*
D67*X00922Y011961D03*D52*X006728Y012681D03*D120*X006199Y012721D03*D52*
X009531Y013567D03*D64*X010027Y012768D03*D52*X02288Y013387D03*D93*
X023222Y013354D03*D105*X023954Y013371D03*X02484Y013174D03*D93*
X02541Y013157D03*D105*X02484Y012977D03*D52*X010731Y013237D03*D64*
X010618Y012768D03*D52*X009436Y010415D03*D64*X009633Y010563D03*D52*
X011968Y010856D03*D93*X013331Y011147D03*D83*X014913Y01208D03*D91*
X016442Y012912D03*D87*X01828Y013125D03*D52*X01695Y013547D03*D53*
X010706Y009258D03*D90*X018946Y009732D03*D52*X022278Y01029D03*
X019449Y009843D03*X018807Y010354D03*X018798Y01102D03*D103*
X023686Y009349D03*D52*X0147Y012687D03*D83*X014657Y01208D03*D52*
X014671Y011417D03*D115*X013931Y011336D03*D52*X013566Y011419D03*
X015501Y009917D03*D83*X014913Y009741D03*X014657D03*X015169D03*D52*
X004648Y011417D03*D101*X003724Y011897D03*D52*X004444Y011421D03*
X005188Y010921D03*X00594Y011636D03*D92*X005827Y011206D03*D52*
X005018Y010371D03*X004328Y010381D03*D99*X003203Y012411D03*D93*
X00282Y012206D03*D99*X00337Y012996D03*D52*X01234Y011387D03*D67*
X011425Y010976D03*D52*X012383Y010958D03*D64*X011011Y010563D03*D52*
X012788Y010236D03*D64*X010421Y010563D03*D52*X01314Y012957D03*
X01275Y013077D03*D108*X0129Y012766D03*D131*X008437Y01145D03*D67*
X00922Y011173D03*D131*X008437Y010978D03*D52*X008971Y010737D03*D131*
X008437Y010506D03*D67*X00922Y010976D03*D52*X00202Y010142D03*
X01443Y012927D03*D108*X014199Y012766D03*D52*X013951Y012647D03*D93*
X012881Y012287D03*D67*X011425Y012354D03*D52*X01622Y011496D03*
X0162Y012057D03*X01566D03*X01563Y011487D03*X018451Y01143D03*
X017799Y011397D03*Y012D03*X018429D03*D36*X017505Y010996D03*D107*
X017389Y010428D03*Y010684D03*Y010172D03*D90*X018552Y009732D03*D36*
X018268Y010039D03*D52*X014851Y010757D03*X004069Y009512D03*
X02298Y012567D03*X02209Y011557D03*X02208Y012657D03*X0229Y011587D03*
X01914Y012487D03*X01996Y012607D03*X01906Y011647D03*X02002D03*D100*
X020542Y010897D03*D99*X020799Y010394D03*D52*X015383Y011178D03*
X01591Y012847D03*X01612D03*D58*X014006Y013665D03*D52*X004039Y009907D03*
X02035Y012307D03*D100*X021034Y010897D03*D93*X023222Y012854D03*D105*
X023954Y012977D03*D76*X024299Y012731D03*D52*X023358Y012573D03*
X02014Y012277D03*X00403Y010327D03*X01498Y010607D03*X01552Y009657D03*
X00348Y010327D03*X00349Y010757D03*X00089Y009927D03*Y010327D03*
X000892Y01079D03*X000415Y010329D03*X000382Y009934D03*X000376Y009504D03*
X000393Y010764D03*D68*X00043Y010986D03*D128*Y011813D03*Y012757D03*D68*
Y013584D03*D117*X001394Y013496D03*Y011074D03*D116*X001483Y011773D03*
D52*X00192Y011386D03*X00652Y011327D03*X006453Y011166D03*D106*
X007321Y01034D03*D86*X006966Y011145D03*D52*X007136Y010905D03*
X006741Y009452D03*X00981Y011146D03*X009391Y010727D03*X002479Y010144D03*
X01565Y010647D03*X0157Y010417D03*D107*X01605Y010172D03*Y010428D03*
Y010684D03*D52*X007336Y010855D03*D99*X00693Y018506D03*D52*
X00723Y018476D03*D99*X021299Y015433D03*D100*X021526Y015936D03*D52*
X021533Y01665D03*X000984Y017253D03*D116*X001483Y017324D03*D93*
X002053Y01733D03*X00282Y017746D03*X0195Y017986D03*D52*X01922D03*D75*
X01893Y017909D03*D92*X01349Y014536D03*D52*X0137Y014816D03*D92*
X01399Y014536D03*D52*X013937Y015D03*D107*X01605Y014955D03*D99*
X017259Y018689D03*D75*X018536Y018617D03*X018733D03*D52*
X01664Y018596D03*D99*X017759Y018689D03*D75*X018339Y018617D03*X01893D03*
D93*X0195Y018486D03*D75*X018733Y017909D03*D52*X01741Y017406D03*
X017221Y017416D03*D91*X017229Y017951D03*D99*X00287Y018036D03*D93*
X002443Y01755D03*D116*X001483Y01758D03*D52*X000984Y017765D03*D58*
X025394Y01624D03*X003839Y016142D03*D116*X001483Y017836D03*D52*
X00426Y018296D03*Y018476D03*D116*X001483Y017068D03*D29*
X021063Y018268D03*X024902Y014567D03*X023524Y015984D03*
X022475Y014765D03*D91*X017623Y017951D03*D29*X017919Y017939D03*D114*
X018135Y016757D03*X01593D03*D101*X003232Y016936D03*D52*
X002672Y01628D03*D134*X004728Y015834D03*X002228D03*D135*
X019538Y017078D03*X02253D03*D118*X018178Y015765D03*D132*X01932D03*D107*
X017389Y014955D03*D93*X002443Y01805D03*D120*X004407Y017504D03*D86*
X007361Y016206D03*D52*X007751Y016106D03*D93*X007766Y01584D03*D52*
X00833Y015286D03*D86*X006966Y016685D03*X007361Y016706D03*D52*
X007621Y017146D03*D92*X012488Y015115D03*D52*X012928Y015005D03*D99*
X009708Y014971D03*D106*X007321Y014592D03*D52*X009373Y01494D03*D99*
X010208Y014971D03*D64*X00983Y015602D03*D93*X002053Y01783D03*D120*
X004407Y01776D03*D92*X010518Y014925D03*D52*X00999Y014685D03*D93*
X008191Y014451D03*D88*X007801Y014496D03*D52*X006941Y014491D03*D106*
X006081Y014592D03*Y014788D03*D121*X005516Y014552D03*D52*
X006541Y014491D03*D123*X006701Y014985D03*D92*X011018Y014925D03*D64*
X010027Y015602D03*D92*X011988Y015115D03*D99*X008088Y01869D03*D52*
X007978Y01842D03*D93*X008191Y014951D03*D106*X007321Y014985D03*D93*
X007766Y01534D03*D106*X007321Y015182D03*D88*X007801Y014906D03*D106*
X007321Y014788D03*D33*X002821Y015579D03*X00164D03*D58*
X015006Y018705D03*X013006D03*D52*X012279Y018032D03*D58*
X012006Y018705D03*D52*X01241Y018736D03*D58*X011006Y018705D03*D52*
X011452Y017843D03*D61*X00867Y017735D03*D67*X00922Y017394D03*D82*
X005687Y018528D03*D52*X005951Y018683D03*D82*X005431Y016736D03*
X005687D03*D120*X006199Y017504D03*Y018016D03*D99*X00672Y018016D03*D82*
X005431Y018528D03*D99*X007588Y01869D03*D82*X004919Y018528D03*D120*
X004407Y018016D03*Y017248D03*D99*X003703Y01745D03*D82*
X004919Y016736D03*D64*X010224Y015602D03*X010618D03*X010814D03*D52*
X01279Y015856D03*D67*X011425Y01641D03*X00922Y017197D03*
X011425Y016606D03*D93*X012Y016555D03*D67*X011425Y016213D03*D93*
X01243Y016826D03*X012881Y016826D03*D52*X013192Y016728D03*D115*
X013931Y017057D03*D83*X014401Y017119D03*D52*X014093Y017349D03*
X013883D03*D67*X011425Y017D03*Y017197D03*D93*X01243Y017326D03*D52*
X012131Y017426D03*D64*X011011Y017807D03*D52*X014191Y018296D03*D64*
X010421Y017807D03*D52*X01043Y018263D03*D64*X00983Y017807D03*D52*
X00858Y018536D03*D64*X009633Y017807D03*D52*X009025Y018481D03*D67*
X00922Y01641D03*D106*X006081Y015379D03*D52*X00639Y015656D03*X00621D03*
D106*X006081Y014985D03*D86*X004958Y014515D03*D52*X004712Y014681D03*D83*
X014401Y014781D03*D105*X02484Y01841D03*D93*X02541Y018696D03*D76*
X024496Y018656D03*D52*X025127Y017744D03*D76*X024299Y018656D03*D52*
X0224Y018426D03*D105*X023954Y018213D03*D52*X021479Y017459D03*D76*
X024496Y01777D03*D75*X018339Y017909D03*D52*X018339Y017619D03*D87*
X01828Y018362D03*D75*X018536Y017909D03*D52*X018009Y017639D03*D87*
X018989Y018165D03*Y018362D03*D52*X01633Y018456D03*X015186Y018357D03*
X021772Y016929D03*X02307Y014666D03*D103*X024158Y014388D03*D52*
X025394Y01437D03*X006071Y018263D03*D99*X00643Y018506D03*D86*
X00757Y017456D03*D99*X008711Y016896D03*D67*X00922Y016803D03*D52*
X00855Y017265D03*D106*X006081Y015182D03*D102*X005516Y0153D03*D71*
X004958Y015015D03*D93*X013331Y015686D03*X013891Y015346D03*D52*
X016836Y017431D03*D91*Y017951D03*D83*X015169Y017119D03*D93*
X013891Y015846D03*D52*X012343Y015697D03*X005548Y016051D03*D99*
X005327Y016245D03*D82*X005175Y016736D03*D52*X006235Y016981D03*D120*
X006199Y017248D03*D133*X005303Y017632D03*D82*X005175Y018528D03*D52*
X00459Y018436D03*X007548Y0184D03*D99*X00722Y018016D03*D86*
X00757Y017956D03*D58*X010006Y018705D03*D64*X010224Y017807D03*D52*
X010469Y018766D03*D64*X010814Y017807D03*D52*X00792Y017115D03*D99*
X008211Y016896D03*D67*X00922Y016606D03*D137*X010322Y016705D03*D67*
X011425Y016803D03*D93*X012Y017055D03*D52*X013191Y017216D03*X013391D03*
D67*X00922Y017D03*D52*X006728Y01772D03*D120*X006199Y01776D03*D52*
X009531Y018606D03*D64*X010027Y017807D03*D52*X02288Y018426D03*D93*
X023222Y018393D03*D105*X023954Y01841D03*X02484Y018213D03*D93*
X02541Y018196D03*D105*X02484Y018016D03*D52*X010731Y018276D03*D64*
X010618Y017807D03*D52*X009436Y015454D03*D64*X009633Y015602D03*D52*
X011968Y015895D03*D93*X013331Y016186D03*D83*X014913Y017119D03*D91*
X016442Y017951D03*D87*X01828Y018165D03*D52*X01695Y018586D03*D53*
X010706Y014297D03*D90*X018946Y014771D03*D52*X022278Y015329D03*
X019449Y014882D03*X018807Y015394D03*X018798Y01606D03*D103*
X023686Y014388D03*D52*X0147Y017726D03*D83*X014657Y017119D03*D52*
X014671Y016456D03*D115*X013931Y016376D03*D52*X013566Y016458D03*
X015501Y014956D03*D83*X014913Y014781D03*X014657D03*X015169D03*D52*
X004648Y016456D03*D101*X003724Y016936D03*D52*X004444Y01646D03*
X005188Y015961D03*X00594Y016675D03*D92*X005827Y016245D03*D52*
X005018Y015411D03*X004328Y015421D03*D99*X003203Y01745D03*D93*
X00282Y017246D03*D99*X00337Y018036D03*D52*X01234Y016426D03*D67*
X011425Y016016D03*D52*X012383Y015997D03*D64*X011011Y015602D03*D52*
X012788Y015275D03*D64*X010421Y015602D03*D52*X01314Y017996D03*
X01275Y018116D03*D108*X0129Y017805D03*D131*X008437Y01649D03*D67*
X00922Y016213D03*D131*X008437Y016017D03*D52*X008971Y015776D03*D131*
X008437Y015545D03*D67*X00922Y016016D03*D52*X00202Y015181D03*
X01443Y017966D03*D108*X014199Y017805D03*D52*X013951Y017686D03*D93*
X012881Y017326D03*D67*X011425Y017394D03*D52*X01622Y016535D03*
X0162Y017096D03*X01566D03*X01563Y016526D03*X018451Y016469D03*
X017799Y016436D03*Y017039D03*X018429D03*D36*X017505Y016035D03*D107*
X017389Y015467D03*Y015723D03*Y015211D03*D90*X018552Y014771D03*D36*
X018268Y015079D03*D52*X014851Y015796D03*X004069Y014551D03*
X02298Y017606D03*X02209Y016596D03*X02208Y017696D03*X0229Y016626D03*
X01914Y017526D03*X01996Y017646D03*X01906Y016686D03*X02002D03*D100*
X020542Y015936D03*D99*X020799Y015433D03*D52*X015383Y016217D03*
X01591Y017886D03*X01612D03*D58*X014006Y018705D03*D52*X004039Y014946D03*
X02035Y017346D03*D100*X021034Y015936D03*D93*X023222Y017893D03*D105*
X023954Y018016D03*D76*X024299Y01777D03*D52*X023358Y017612D03*
X02014Y017316D03*X00403Y015366D03*X01498Y015646D03*X01552Y014696D03*
X00348Y015366D03*X00349Y015796D03*X00089Y014966D03*Y015366D03*
X000892Y01583D03*X000415Y015369D03*X000382Y014973D03*X000376Y014543D03*
X000393Y015803D03*D68*X00043Y016025D03*D128*Y016852D03*Y017797D03*D68*
Y018624D03*D117*X001394Y018535D03*Y016114D03*D116*X001483Y016813D03*
D52*X00192Y016425D03*X00652Y016366D03*X006453Y016205D03*D106*
X007321Y015379D03*D86*X006966Y016185D03*D52*X007136Y015945D03*
X006741Y014491D03*X00981Y016185D03*X009391Y015766D03*X002479Y015183D03*
X01565Y015686D03*X0157Y015456D03*D107*X01605Y015211D03*Y015467D03*
Y015723D03*D52*X007336Y015895D03*D36*X00693Y008428D02*
G01X00723Y008398D01*X021299Y005354D02*X021526Y005581D01*
X021526Y005857D01*D42*X021533Y006572D01*D36*X00282Y007667D02*
Y007567D01*X0027Y007447D01*X00257Y007197D01*X00227D01*X00224Y007227D01*
X002216Y007251D01*X002053D01*D20*X001483Y007246D01*D36*
X001133Y007251D01*X000984Y007174D01*D18*X0195Y007908D02*X01922D01*D19*
X01909Y007888D01*X019035Y007833D01*X01893Y00783D01*D36*
X01349Y004458D02*Y004598D01*X0137Y004738D01*X01399Y004458D02*
Y004868D01*X013937Y004921D01*X01422Y005177D01*X014221Y005478D01*
X014551Y005928D01*X015151D01*X015433Y005709D01*X01543Y005377D01*
X01578Y004898D01*X01605Y004877D01*X017259Y008611D02*X017153Y008727D01*
X017229Y008401D01*X017929D01*X01804Y008288D01*X01853D01*
X018536Y008539D01*X01854Y008618D01*X01873D01*X018733Y008539D01*
X017153Y008727D02*X01715Y008738D01*X01686D01*X01664Y008518D01*
X017759Y008611D02*X018339Y008611D01*X018339Y008539D01*D19*
X018339Y008697D01*D36*X01838Y008738D01*X01889D01*X01893Y008698D01*D19*
X01893Y008539D01*X019206Y008542D01*X01934Y008408D01*X0195D01*D16*
X01972D01*Y00769D01*X0191D01*X01891Y007538D01*X01874Y007528D01*
X018733Y00783D01*D18*X018733Y007354D01*X018579Y007201D01*D36*
X017559D01*X01748Y007258D01*X01741Y007328D01*D42*X017231D01*D36*
X017221Y007338D01*X017229Y007346D01*D34*Y007872D01*D36*
X00287Y007957D02*X00273D01*X00268Y007927D01*X0026Y007747D01*
X002443Y00759D01*Y007471D01*D20*X002383Y007501D01*X001483Y007501D01*
D36*X001123Y007501D01*X000984Y007686D01*D32*X001483Y007757D02*
X001464Y007886D01*D47*X001654D01*D48*X00226Y008618D01*D47*X00382D01*
X004244Y008293D01*D32*X00426Y008218D01*D36*X004244Y008293D02*
X00426Y008309D01*Y008398D01*X017623Y007872D02*Y007779D01*D34*
X017919Y007861D01*D38*X003232Y006858D02*X002672Y006201D01*D20*
X002443Y007971D02*X00244Y007987D01*X00264Y008168D01*X00356Y008168D01*
X003853Y007641D01*X004069Y007425D01*X004407D01*D36*X007361Y006128D02*
X007711D01*X007751Y006028D01*X007766Y006073D01*Y005761D01*
X00797Y005687D01*Y005197D01*X00821Y005297D01*X00833Y005207D01*
X006966Y006606D02*X007361Y006628D01*X007616Y006626D01*
X007621Y007068D01*X012488Y005037D02*X012618Y005027D01*
X012928Y004927D01*X009708Y004893D02*X009321D01*X008891D01*
X008811Y004813D01*Y004753D01*X008731Y004673D01*X008431D01*
X008381Y004623D01*X007621D01*X007521Y004513D01*X007321Y004513D01*
X009321Y004893D02*X009373Y004862D01*X010208Y004893D02*
X010053Y004903D01*X009913Y005043D01*Y005176D01*X00983Y005258D01*
Y005524D01*D20*X002053Y007751D02*Y007961D01*X00235Y008337D01*X00367D01*
X004083Y007681D01*X004407D01*D36*X010518Y004847D02*X010403Y004702D01*
X010158D01*X00999Y004607D01*D42*X00912D01*D36*X009093Y004634D01*D42*
X009Y004478D01*D36*X008991Y00447D01*D29*X008959Y004438D01*D44*
X008191Y004373D01*D36*X008601Y004408D01*X008201Y004413D01*D42*
X007801Y004418D01*X007559Y004344D01*X007079D01*D25*X006863Y00439D01*
D36*X006941Y004413D01*D29*X006863Y00439D02*X006831Y004418D01*
X00674Y004398D01*X006631Y004428D01*X006591Y004612D01*D36*
X006566Y004503D01*X006081Y004513D01*D21*X006551D01*X006761Y004723D01*
X006081Y00471D01*D36*X006586Y004723D01*X006511Y004513D01*
X005936Y004518D01*X005516Y004474D01*X005838Y004352D01*X006481D01*
X006541Y004413D01*X006591Y004612D02*X006575Y004907D01*X006701D01*
X011018Y004847D02*X011008Y004912D01*X011173Y004917D01*X010858D01*
X010673Y005037D01*X010418D01*X010293Y005157D01*X01009Y005158D01*
X01003Y005238D01*X010027Y005524D01*X011173Y004917D02*X011198D01*
X011378Y005037D01*X011988D01*X008088Y008612D02*Y008462D01*
X007978Y008342D01*X008191Y004873D02*Y004988D01*X008121Y005058D01*
X007651D01*X007528Y004907D01*X007321D01*X007766Y005261D02*
X007507Y005103D01*X007321D01*X007801Y004828D02*X007641Y004788D01*
X007531Y004708D01*X007321Y00471D01*D17*X013006Y008626D02*
X01228Y008318D01*X012279Y007954D01*X012006Y008626D02*X01241Y008658D01*
X011006Y008626D02*X011291Y008398D01*X011452Y007765D01*X00867Y007657D02*
X008885Y007313D01*X00922Y007315D01*D36*X005687Y008449D02*Y008605D01*
D29*X005951D01*D36*X006199Y007937D02*X00672Y007938D01*
X005431Y008449D02*Y008135D01*X005491Y008075D01*X005851D01*Y008395D01*
X006201D01*X006211Y008635D01*X007588D01*Y008612D01*D20*
X004407Y007169D02*X004085D01*X003883Y007371D01*X003703D01*D36*
X010814Y005524D02*X010818Y005238D01*X010958Y005157D01*X011088D01*
X011191Y005224D01*Y005404D01*X012451D01*X01279Y005778D01*D21*
X011425Y006528D02*X011879D01*X012Y006477D01*D36*X01193Y006407D01*D21*
Y006327D01*X011737Y006134D01*X011425D01*D25*X012Y006477D02*
X01211Y006478D01*X01223Y006638D01*X012232Y0067D01*X01228Y006748D01*
X01243Y006748D01*X012881Y006748D01*D36*X012939Y006739D01*D25*
X012881Y006748D01*D36*X013192Y00665D01*D25*X012881Y006748D02*
X013036Y006676D01*D42*X013553Y006683D01*X013722Y006888D01*D40*
X013931Y006978D01*D52*X014151Y006888D01*X014251Y006988D01*D25*
X014401Y007041D01*D36*X01434Y006988D01*D52*X014093Y007271D01*
X013883D01*D36*X011425Y007118D02*X011752D01*X01188Y007237D01*
X01243Y007248D01*X012131Y007248D01*Y007348D01*X011011Y007728D02*
X011127D01*X011317Y007539D01*X011653D01*X011798Y007684D01*X012357D01*
X012508Y007835D01*Y008144D01*X012637Y008273D01*X014136D01*
X014191Y008218D01*X010421Y007728D02*Y008166D01*X01043Y008185D01*
X00983Y007728D02*X009811Y007747D01*X009825Y008008D01*X009678Y008095D01*
X009591D01*X009281Y008408D01*X009175Y008613D01*X008935D01*
X008755Y008523D01*X00858Y008458D01*X009633Y007728D02*X009261Y007728D01*
X009Y007989D01*X009025Y008403D01*D23*X006081Y0053D02*X00633Y005518D01*
D36*X00639Y005578D01*X00621D01*X006081Y004907D02*X005856Y004893D01*
X005708Y004762D01*X005188D01*X005148Y004712D01*X005141Y004658D01*
Y004558D01*X005091Y004453D01*X005021Y00444D01*X004958Y004437D01*
X004712Y004603D01*X02484Y008331D02*Y008626D01*X024841Y008628D01*
Y008598D01*X025351D01*X025381Y008628D01*X02541Y008618D01*X024536D01*
X024496Y008577D01*X024534Y008618D01*X025411Y008611D01*Y008371D01*
X0256Y008327D01*Y007897D01*X025127Y007665D01*X024299Y008577D02*
X02312D01*X02306Y008638D01*X02259D01*X0224Y008348D01*X023954Y008134D02*
X021793D01*X021569Y007911D01*Y007561D01*X021479Y007381D01*D19*
X018339Y00783D02*X018339Y007572D01*D36*X018339Y007541D01*
X018536Y00783D02*X018536Y007634D01*X018549Y007621D01*Y007441D01*
X018429Y007321D01*X018249D01*X018009Y007561D01*X01633Y008378D02*
X01609Y008158D01*X015307D01*X015186Y008279D01*D21*X021772Y00685D02*
X021811Y006693D01*Y006102D01*X02277D01*X02307Y004588D01*
X024086Y00459D01*X024156Y00455D01*X024158Y00431D01*X024156Y00453D01*
X024606Y00491D01*X025246D01*X025394Y004764D01*Y004291D01*D36*
X006071Y008185D02*X006041D01*D29*X00643Y008188D01*D37*Y008428D01*
Y008188D02*X00642D01*X00691Y008177D01*X006973Y008091D01*X00697D01*D26*
Y007788D01*D28*X006973Y007571D01*X006966Y007398D01*D34*X00755D01*
X00757Y007378D01*X00769D01*X00813Y007268D01*X008472Y007198D01*
X00871Y006968D01*Y006909D01*D25*X008711Y006818D01*D21*
X008931Y006728D01*X00922Y006724D01*D36*X008472Y007198D02*
X008483Y007187D01*X00855D01*D14*X006966Y007398D02*X006731Y007153D01*
X006581Y006653D01*X006341Y006593D01*X006161Y006383D01*
X006111Y005973D01*X005951Y005723D01*X005561Y005453D01*D15*
X005571Y005123D01*X006081Y005103D01*D22*X00581Y005098D01*D15*
X005647Y005243D01*X005512Y005356D01*X005516Y005222D01*
X005228Y004972D01*X004958Y004937D01*X004448Y004912D01*
X004398Y004262D01*X004519Y004161D01*X010149D01*X010544Y004582D01*
X01261Y004601D01*X013073Y004649D01*X013358Y005022D01*X013328Y005632D01*
D36*X013331Y005611D01*D25*Y005608D01*Y005611D02*Y005613D01*
X013651Y005598D01*X013622Y005354D01*D17*X013621Y005268D01*X013891D01*
D25*X013651Y005598D02*X013626Y005549D01*D36*X016836Y007352D02*
Y007872D01*X016835Y007861D01*Y007458D01*X01529D01*X015174Y007435D01*
X015169Y007041D01*X015151Y006118D01*X015081Y006048D01*X014461D01*
X014251Y005778D01*X013891Y005768D01*X013741Y005778D01*
X013591Y005868D01*X01313Y005898D01*X01307Y005988D01*X01259Y005998D01*
X012593Y005869D01*X012573Y005809D01*X012503Y005729D01*
X012343Y005619D01*D17*X005548Y005972D02*X005463Y006027D01*
X00546Y006107D01*X005327Y006167D01*X00525Y006358D01*X005175Y006658D01*
D27*X006235Y006903D02*Y007133D01*D36*X006199Y007169D01*D27*X00579D01*
X005737Y007222D01*X005634D01*D36*X005303Y007553D01*X005175Y007685D01*
Y007681D01*D27*Y008449D01*D36*Y007685D02*X00465Y008208D01*
X00459Y008358D01*X007548Y008322D02*X00722Y008108D01*Y007938D01*
X00736D01*X00742Y007878D01*X00757D01*X00778D01*X00786Y008118D01*
X008328Y008162D01*Y008582D01*X00849Y008668D01*X00873D01*
X008935Y008733D01*X009385D01*X009681Y008738D01*X009967Y008676D01*
X010006Y008626D01*X009967Y008676D02*X009986Y008591D01*D17*
X01022Y008008D01*X010224Y007728D01*D36*X010469Y008688D02*
X010638Y008499D01*X011009Y008274D01*X010982Y008147D01*
X010931Y008071D01*X010841Y007998D01*X010814Y007728D01*X00792Y007037D02*
X008083Y006939D01*X0082Y006778D01*X008211Y006818D01*X00835Y006768D01*
D17*X008531Y006618D01*X008781D01*X008961Y006528D01*D35*X00922D01*
X010224D01*D36*X010317Y006621D01*X010322Y006626D01*X010421Y006724D01*
D34*X011425D01*X011818D01*D23*X012Y006977D01*D36*X012021Y006998D01*
X013071D01*X013091Y007078D01*X013191Y007138D01*X013301Y007058D01*
X013121Y006988D01*X013081D01*X013291D01*X013391Y007138D01*
X010317Y006621D02*X010016Y006921D01*D17*X00922D01*D36*
X006728Y007642D02*X006729Y007681D01*X006199D01*X009531Y008528D02*
X01002Y008028D01*X010027Y007728D01*X02288Y008348D02*X023043Y008318D01*
X023222Y008315D01*X023609Y008312D01*X023645Y008331D01*X023954D01*
X024148D01*X024271Y008208D01*X024391D01*X024464Y008134D01*X02484D01*
X02486Y008127D01*X02505Y008137D01*X02541Y008118D01*X02484Y008134D02*
Y007938D01*X010731Y008198D02*X010621Y007988D01*X010618Y007728D01*
X009436Y005376D02*X009628Y005384D01*X00963Y00552D01*X009633Y005524D01*
X011968Y005817D02*X012232Y006137D01*X013331Y006108D01*X013471D01*
X013651Y005988D01*X014221D01*X014371Y006168D01*X014851D01*
X014911Y006228D01*X014913Y007041D01*X014925Y007431D01*
X015151Y007588D01*X016442D01*Y007872D01*X016479Y008221D01*
X016689Y008281D01*X016819D01*X017002Y008395D01*X01701Y008398D01*
X017049Y008281D01*X017779D01*X017821Y008263D01*X017839Y008221D01*
Y008091D01*X018147Y008094D01*X01828Y008086D01*X017002Y008395D02*
X01695Y008448D01*Y008508D01*D39*X010706Y004219D02*X01077Y00419D01*D50*
X018962D01*D39*Y00437D01*X01896Y004678D01*D36*X018946Y004692D01*
X01896Y004678D02*X018945Y004693D01*X019016Y004764D01*Y004803D01*D44*
X019449D01*X021589Y004955D01*X022278Y005251D01*D36*X019449Y004803D02*
X018945Y004693D02*X01894Y004698D01*Y005218D01*X01887Y005288D01*
X018807Y005315D01*X018798Y005981D01*D39*X018962Y00419D02*X023216D01*
D21*X023376D01*X023406Y00432D01*X023686Y00431D01*D36*X0147Y007648D02*
X014662Y007467D01*X014657Y007041D01*D50*X014671Y006378D02*
X013931Y006297D01*D24*X013566Y00638D01*D38*X015501Y004878D02*
X015472Y004646D01*X015199Y004649D01*D36*X014913Y004702D01*X014657D01*
X015199Y004649D02*X015228Y004678D01*X015169Y004702D01*
X004648Y006378D02*X004223Y006377D01*X003724Y006858D01*D38*
X004444Y006382D01*D36*X005188Y005882D01*X00519Y005865D01*D41*
X005438Y005732D01*X005698D01*X00579Y005852D01*Y005957D01*
X00588Y006037D01*Y006587D01*D24*X00594Y006597D01*D36*X00585D01*
Y006307D01*X005827Y006167D01*X005188Y005882D02*X005018Y005332D01*
X004328Y005342D01*X003724Y006858D02*X003667Y007048D01*X00355Y007143D01*
X003409Y007371D01*X00321Y007371D01*X003203Y007371D01*X003064D01*
X00286Y007167D01*X00282D01*X00321Y007371D02*Y007577D01*
X00337Y007737D01*Y007957D01*X01234Y006348D02*X01208Y006227D01*
X011731Y005938D01*X011425Y005937D01*X012383Y005919D02*
X012258Y005852D01*X012015Y005523D01*X011011Y005524D01*
X012788Y005197D02*X012511Y005284D01*X011311D01*Y005164D01*
X011128Y005037D01*X010913D01*X010713Y005157D01*X010478D01*
X010421Y005214D01*Y005524D01*X01314Y007918D02*X0129Y007727D01*
X012911D01*X01275Y007888D01*Y008038D01*X012911Y007727D02*X012949D01*
X0129D01*X008437Y006411D02*X008718Y00637D01*X008954Y006134D01*
X00922D01*X008437Y005939D02*X00883Y005898D01*X00886Y005868D01*
Y005778D01*X008971Y005698D01*X008437Y005466D02*X008801Y005488D01*
X009091D01*X009181Y005598D01*Y005928D01*X00922Y005937D01*
X01443Y007888D02*X01433D01*X014168Y007725D01*X014199Y007727D01*
X01403Y007558D01*X013951Y007608D01*X014168Y007725D02*X01371Y007708D01*
X01356Y007408D01*X013498Y007354D01*X013078D01*X01298Y007248D01*
X012881D01*X01272D01*X01253Y007558D01*X012D01*X01183Y007398D01*
X011667Y007315D01*X011425D01*X01622Y006457D02*X01621Y006548D01*D39*
Y006908D01*D36*X0162Y007018D01*X01566D01*D39*Y006478D01*D36*
X01563Y006448D01*X018451Y006391D02*X017799Y006358D01*D39*Y006961D01*
D36*X018429D01*D40*X017505Y005957D02*X017691Y005388D01*X017389D01*
Y005644D01*D36*Y005388D02*Y005132D01*D40*X017876D01*X017861Y005298D01*
D36*X018557Y005137D01*D40*X018552Y004692D01*D36*X018548Y005115D01*
X018442Y005245D01*X01848Y005478D01*X018393Y005382D01*X018268Y005D01*
D40*X017389Y005132D02*X017015Y00526D01*D36*X02298Y007528D02*X02293D01*
X022102Y006699D01*X02209Y006518D01*X02208Y007618D01*X022102Y006699D02*
X02229Y006538D01*X0229Y006548D01*X01914Y007448D02*X01996Y007568D01*
X01906Y006608D01*X02002D01*X01937Y007188D01*X0194Y007248D01*
X01958Y007128D01*X01993Y006648D01*X02054Y006468D01*X020542Y005857D01*
X020542Y005612D01*X020799Y005354D01*X01937Y007188D02*X01931Y007218D01*
X01906Y006608D01*X018699Y006328D01*X018579Y006148D01*X017649D01*
X01747Y006217D01*X016303Y006139D01*X015383D01*X01591Y007808D02*
X01612D01*D53*X015031Y007838D01*X014591Y008278D01*X014451Y008573D01*
X014006Y008626D01*D42*X02035Y007268D02*X02017D01*D36*X02014Y007238D01*
Y007228D01*X02027Y007098D01*X02102Y006588D01*X021034Y005857D01*
X02027Y007098D02*X02099Y006588D01*X021299Y00689D01*X021772Y007205D01*
X0218Y007758D01*X02189Y007908D01*X02288D01*X02297Y007878D01*
X02309Y007814D01*X023222Y007815D01*X023359Y007807D01*X023447Y007733D01*
X023851Y007728D01*X023926Y007803D01*X023954Y007831D01*Y007938D01*
X023926Y007803D02*X024037Y007692D01*X024299D01*X023447Y007733D02*
X023358Y007534D01*X02014Y007228D02*Y007238D01*X00089Y004888D02*
Y005288D01*X000892Y005751D01*X00089Y005288D02*X000415Y00529D01*
X000382Y004894D01*X000376Y004465D01*X000415Y00529D02*X000393Y005724D01*
X00043Y005946D01*D55*Y006773D01*D59*Y007718D01*D51*Y008545D01*D56*
X000983Y008541D01*X001068Y008536D01*X001394Y008456D01*D55*
X00043Y005946D02*X000913Y005941D01*D36*X001003Y006081D01*D55*
X001037Y006115D01*X001346D01*X001394Y006035D01*D27*X001483Y006734D01*
D36*X00652Y006288D02*X00643Y006188D01*X006453Y006127D01*
X006473Y006122D01*D46*X00692Y005898D01*X00714D01*X007178Y005854D01*
X007306Y005836D01*D23*X007321Y0053D01*D36*X007306Y005836D02*
X006966Y006106D01*X007178Y005854D02*X007136Y005866D01*X01565Y005608D02*
Y005438D01*X0157Y005378D01*X01605Y005383D01*Y005132D01*Y005388D01*
Y005644D01*D23*X001304Y006205D02*X001421Y006743D01*X001516Y006182D02*
X001551Y006767D01*X004565Y006181D02*X003835Y006928D01*X00383Y007031D02*
X00476Y006109D01*D18*X004937Y007189D02*X004239Y00646D01*
X00494Y007908D02*X00456Y008288D01*X00466Y008208D02*X00465Y008338D01*
D31*X00678Y005268D02*Y005478D01*X006481Y005328D02*X00663Y005418D01*
X00687Y005548D02*X00692Y005588D01*D45*X00621Y005578D02*
X00599Y005328D01*D21*X00615Y004708D02*X00649Y004718D01*
X00614Y004508D02*X00651D01*X00635Y004688D02*Y004538D01*D15*
X008901Y005298D02*X007971D01*X009391Y005688D02*X009308Y005552D01*
X009148Y005368D01*X008901D01*Y005298D01*X007946Y006086D02*
X007751Y006088D01*X00776Y006597D01*X007971Y006598D01*Y005298D01*
Y005938D02*X008301D01*X008561Y006598D02*X007971D01*X006521Y004468D02*
X006931D01*D25*X01314Y006997D02*X01206D01*D17*X00828Y006727D02*
X008411Y006618D01*X00792Y007037D02*X00819Y006787D01*X00798Y007087D02*
X00825Y006817D01*X00804Y006997D02*X008093Y006909D01*X008083Y006959D01*
D48*X018151Y005658D02*X017341D01*Y005478D01*D39*X019091Y005688D02*
X019101Y004208D01*D49*X015691Y005628D02*X016001D01*D17*
X009381Y005658D02*Y005778D01*X009481D01*D15*X009591Y006438D02*
Y005888D01*D17*X00652Y006278D02*X006816Y006346D01*X007106Y006356D01*
X007118Y005852D01*X0065Y006198D02*X007016Y005956D01*X007086Y005936D02*
Y006196D01*D27*X00699Y007628D02*X00788D01*D31*X00774D02*X0079D01*
X00813Y007308D01*X00856Y007168D01*X00803Y007288D02*X00866Y007008D01*
D39*X01759Y005628D02*X01761Y004678D01*X01747Y004588D02*
X01746Y005288D01*D15*X01931Y007428D02*X01929Y007168D01*D25*
X01383Y007198D02*Y006928D01*D40*X01565Y005588D02*X0157Y005378D01*
X01568Y005388D01*D17*X01894Y005848D02*X01893Y005458D01*
X01789Y006908D02*X01787Y006378D01*X02214Y007568D02*X02212Y006728D01*
D29*X017691Y005268D02*X017751Y005298D01*D21*X01902Y005228D02*
X01892Y005298D01*D53*X018801Y005986D02*X019578Y006007D01*
X018851Y005981D02*X018846Y005338D01*D49*X005948Y006622D02*
X006058Y006802D01*X006238Y006922D01*D40*X006538Y004352D02*
X005728Y004362D01*D21*X01899Y004817D02*Y005367D01*D43*X01485Y005718D02*
X01521Y005368D01*D36*X01549Y004978D01*X015512Y004882D01*D30*
X00867Y007887D02*X00855Y007988D01*X00803Y007948D01*X00802Y007898D01*
X00831Y007508D01*X00844Y007448D01*X00849Y007507D01*X0088Y007628D02*
X00836Y007598D01*D15*X008523Y006599D02*X008803D01*X008823Y006589D02*
X008333D01*X007766Y005716D02*X007946Y005696D01*X00797Y005197D02*
X00921D01*Y005427D01*X0092Y005247D02*X00799Y005237D01*X0089Y005287D02*
X00918D01*X00919Y005347D02*X00894Y005337D01*X00776Y005957D02*X00797D01*
Y006017D02*X00783Y006007D01*X00782Y006037D02*X00794Y006047D01*
X00793Y006057D02*Y006587D01*X00791Y006597D02*Y006077D01*
X00779Y006067D02*X0078Y006567D01*X00783Y006587D02*Y006107D01*
X00787Y006087D02*Y006557D01*D34*X00788Y007037D02*Y006557D01*D30*
X00857Y007858D02*X00813Y007828D01*X00869Y007738D02*X00825Y007708D01*
D25*X020365Y007261D02*Y007064D01*X02043Y007268D02*X02046Y006968D01*
X02085Y006698D02*X02109D01*D36*X00693Y013467D02*X00723Y013437D01*
X021299Y010394D02*X021526Y010621D01*X021526Y010897D01*D42*
X021533Y011611D01*D36*X00282Y012706D02*Y012606D01*X0027Y012486D01*
X00257Y012236D01*X00227D01*X00224Y012266D01*X002216Y012291D01*
X002053D01*D20*X001483Y012285D01*D36*X001133Y012291D01*
X000984Y012214D01*D18*X0195Y012947D02*X01922D01*D19*X01909Y012927D01*
X019035Y012872D01*X01893Y012869D01*D36*X01349Y009497D02*Y009637D01*
X0137Y009777D01*X01399Y009497D02*Y009908D01*X013937Y009961D01*
X01422Y010216D01*X014221Y010517D01*X014551Y010967D01*X015151D01*
X015433Y010748D01*X01543Y010416D01*X01578Y009937D01*X01605Y009916D01*
X017259Y01365D02*X017153Y013766D01*X017229Y01344D01*X017929D01*
X01804Y013327D01*X01853D01*X018536Y013578D01*X01854Y013657D01*
X01873D01*X018733Y013578D01*X017153Y013766D02*X01715Y013777D01*
X01686D01*X01664Y013557D01*X017759Y01365D02*X018339Y01365D01*
X018339Y013578D01*D19*X018339Y013736D01*D36*X01838Y013777D01*X01889D01*
X01893Y013737D01*D19*X01893Y013578D01*X019206Y013581D01*
X01934Y013447D01*X0195D01*D16*X01972D01*Y012729D01*X0191D01*
X01891Y012577D01*X01874Y012567D01*X018733Y012869D01*D18*
X018733Y012394D01*X018579Y01224D01*D36*X017559D01*X01748Y012297D01*
X01741Y012367D01*D42*X017231D01*D36*X017221Y012377D01*
X017229Y012385D01*D34*Y012912D01*D36*X00287Y012996D02*X00273D01*
X00268Y012966D01*X0026Y012786D01*X002443Y012629D01*Y012511D01*D20*
X002383Y012541D01*X001483Y012541D01*D36*X001123Y012541D01*
X000984Y012726D01*D32*X001483Y012797D02*X001464Y012925D01*D47*
X001654D01*D48*X00226Y013657D01*D47*X00382D01*X004244Y013333D01*D32*
X00426Y013257D01*D36*X004244Y013333D02*X00426Y013348D01*Y013437D01*
X017623Y012912D02*Y012819D01*D34*X017919Y0129D01*D38*X003232Y011897D02*
X002672Y011241D01*D20*X002443Y013011D02*X00244Y013026D01*
X00264Y013207D01*X00356Y013207D01*X003853Y012681D01*X004069Y012465D01*
X004407D01*D36*X007361Y011167D02*X007711D01*X007751Y011067D01*
X007766Y011112D01*Y0108D01*X00797Y010726D01*Y010236D01*
X00821Y010336D01*X00833Y010246D01*X006966Y011645D02*X007361Y011667D01*
X007616Y011665D01*X007621Y012107D01*X012488Y010076D02*
X012618Y010066D01*X012928Y009966D01*X009708Y009932D02*X009321D01*
X008891D01*X008811Y009852D01*Y009792D01*X008731Y009712D01*X008431D01*
X008381Y009662D01*X007621D01*X007521Y009552D01*X007321Y009552D01*
X009321Y009932D02*X009373Y009901D01*X010208Y009932D02*
X010053Y009942D01*X009913Y010082D01*Y010215D01*X00983Y010298D01*
Y010563D01*D20*X002053Y012791D02*Y013001D01*X00235Y013376D01*X00367D01*
X004083Y012721D01*X004407D01*D36*X010518Y009886D02*X010403Y009741D01*
X010158D01*X00999Y009646D01*D42*X00912D01*D36*X009093Y009673D01*D42*
X009Y009518D01*D36*X008991Y009509D01*D29*X008959Y009477D01*D44*
X008191Y009412D01*D36*X008601Y009447D01*X008201Y009452D01*D42*
X007801Y009457D01*X007559Y009383D01*X007079D01*D25*X006863Y009429D01*
D36*X006941Y009452D01*D29*X006863Y009429D02*X006831Y009457D01*
X00674Y009437D01*X006631Y009467D01*X006591Y009652D01*D36*
X006566Y009542D01*X006081Y009552D01*D21*X006551D01*X006761Y009762D01*
X006081Y009749D01*D36*X006586Y009762D01*X006511Y009552D01*
X005936Y009557D01*X005516Y009513D01*X005838Y009391D01*X006481D01*
X006541Y009452D01*X006591Y009652D02*X006575Y009946D01*X006701D01*
X011018Y009886D02*X011008Y009951D01*X011173Y009956D01*X010858D01*
X010673Y010076D01*X010418D01*X010293Y010196D01*X01009Y010197D01*
X01003Y010277D01*X010027Y010563D01*X011173Y009956D02*X011198D01*
X011378Y010076D01*X011988D01*X008088Y013651D02*Y013501D01*
X007978Y013381D01*X008191Y009912D02*Y010027D01*X008121Y010097D01*
X007651D01*X007528Y009946D01*X007321D01*X007766Y0103D02*
X007507Y010143D01*X007321D01*X007801Y009867D02*X007641Y009827D01*
X007531Y009747D01*X007321Y009749D01*D17*X013006Y013665D02*
X01228Y013357D01*X012279Y012993D01*X012006Y013665D02*X01241Y013697D01*
X011006Y013665D02*X011291Y013437D01*X011452Y012804D01*X00867Y012696D02*
X008885Y012352D01*X00922Y012354D01*D36*X005687Y013488D02*Y013644D01*
D29*X005951D01*D36*X006199Y012977D02*X00672Y012977D01*
X005431Y013488D02*Y013174D01*X005491Y013114D01*X005851D01*Y013434D01*
X006201D01*X006211Y013674D01*X007588D01*Y013651D01*D20*
X004407Y012209D02*X004085D01*X003883Y012411D01*X003703D01*D36*
X010814Y010563D02*X010818Y010277D01*X010958Y010196D01*X011088D01*
X011191Y010263D01*Y010443D01*X012451D01*X01279Y010817D01*D21*
X011425Y011567D02*X011879D01*X012Y011516D01*D36*X01193Y011446D01*D21*
Y011366D01*X011737Y011173D01*X011425D01*D25*X012Y011516D02*
X01211Y011517D01*X01223Y011677D01*X012232Y011739D01*X01228Y011787D01*
X01243Y011787D01*X012881Y011787D01*D36*X012939Y011778D01*D25*
X012881Y011787D01*D36*X013192Y011689D01*D25*X012881Y011787D02*
X013036Y011715D01*D42*X013553Y011722D01*X013722Y011927D01*D40*
X013931Y012018D01*D52*X014151Y011927D01*X014251Y012027D01*D25*
X014401Y01208D01*D36*X01434Y012027D01*D52*X014093Y01231D01*X013883D01*
D36*X011425Y012158D02*X011752D01*X01188Y012276D01*X01243Y012287D01*
X012131Y012287D01*Y012387D01*X011011Y012768D02*X011127D01*
X011317Y012578D01*X011653D01*X011798Y012723D01*X012357D01*
X012508Y012874D01*Y013183D01*X012637Y013312D01*X014136D01*
X014191Y013257D01*X010421Y012768D02*Y013205D01*X01043Y013224D01*
X00983Y012768D02*X009811Y012787D01*X009825Y013047D01*X009678Y013134D01*
X009591D01*X009281Y013447D01*X009175Y013652D01*X008935D01*
X008755Y013562D01*X00858Y013497D01*X009633Y012768D02*X009261Y012767D01*
X009Y013028D01*X009025Y013442D01*D23*X006081Y01034D02*X00633Y010557D01*
D36*X00639Y010617D01*X00621D01*X006081Y009946D02*X005856Y009932D01*
X005708Y009801D01*X005188D01*X005148Y009751D01*X005141Y009697D01*
Y009597D01*X005091Y009492D01*X005021Y00948D01*X004958Y009476D01*
X004712Y009642D01*X02484Y013371D02*Y013666D01*X024841Y013667D01*
Y013637D01*X025351D01*X025381Y013667D01*X02541Y013657D01*X024536D01*
X024496Y013617D01*X024534Y013657D01*X025411Y01365D01*Y01341D01*
X0256Y013366D01*Y012936D01*X025127Y012704D01*X024299Y013617D02*
X02312D01*X02306Y013677D01*X02259D01*X0224Y013387D01*X023954Y013174D02*
X021793D01*X021569Y01295D01*Y0126D01*X021479Y01242D01*D19*
X018339Y012869D02*X018339Y012611D01*D36*X018339Y01258D01*
X018536Y012869D02*X018536Y012673D01*X018549Y01266D01*Y01248D01*
X018429Y01236D01*X018249D01*X018009Y0126D01*X01633Y013417D02*
X01609Y013197D01*X015307D01*X015186Y013318D01*D21*X021772Y01189D02*
X021811Y011732D01*Y011142D01*X02277D01*X02307Y009627D01*
X024086Y009629D01*X024156Y009589D01*X024158Y009349D01*
X024156Y009569D01*X024606Y009949D01*X025246D01*X025394Y009803D01*
Y009331D01*D36*X006071Y013224D02*X006041D01*D29*X00643Y013227D01*D37*
Y013467D01*Y013227D02*X00642D01*X00691Y013216D01*X006973Y013131D01*
X00697D01*D26*Y012827D01*D28*X006973Y012611D01*X006966Y012437D01*D34*
X00755D01*X00757Y012417D01*X00769D01*X00813Y012307D01*
X008472Y012237D01*X00871Y012007D01*Y011948D01*D25*X008711Y011857D01*
D21*X008931Y011767D01*X00922Y011764D01*D36*X008472Y012237D02*
X008483Y012226D01*X00855D01*D14*X006966Y012437D02*X006731Y012192D01*
X006581Y011692D01*X006341Y011632D01*X006161Y011422D01*
X006111Y011012D01*X005951Y010762D01*X005561Y010492D01*D15*
X005571Y010162D01*X006081Y010143D01*D22*X00581Y010137D01*D15*
X005647Y010283D01*X005512Y010396D01*X005516Y010261D01*
X005228Y010011D01*X004958Y009976D01*X004448Y009951D01*
X004398Y009301D01*X004519Y0092D01*X010149D01*X010544Y009621D01*
X01261Y00964D01*X013073Y009688D01*X013358Y010061D01*X013328Y010671D01*
D36*X013331Y01065D01*D25*Y010647D01*Y01065D02*Y010652D01*
X013651Y010637D01*X013622Y010394D01*D17*X013621Y010307D01*X013891D01*
D25*X013651Y010637D02*X013626Y010588D01*D36*X016836Y012392D02*
Y012912D01*X016835Y0129D01*Y012497D01*X01529D01*X015174Y012474D01*
X015169Y01208D01*X015151Y011157D01*X015081Y011087D01*X014461D01*
X014251Y010817D01*X013891Y010807D01*X013741Y010817D01*
X013591Y010907D01*X01313Y010937D01*X01307Y011027D01*X01259Y011037D01*
X012593Y010908D01*X012573Y010848D01*X012503Y010768D01*
X012343Y010658D01*D17*X005548Y011011D02*X005463Y011066D01*
X00546Y011146D01*X005327Y011206D01*X00525Y011397D01*X005175Y011697D01*
D27*X006235Y011942D02*Y012173D01*D36*X006199Y012209D01*D27*X00579D01*
X005737Y012261D01*X005634D01*D36*X005303Y012593D01*X005175Y012724D01*
Y012721D01*D27*Y013488D01*D36*Y012724D02*X00465Y013247D01*
X00459Y013397D01*X007548Y013361D02*X00722Y013147D01*Y012977D01*
X00736D01*X00742Y012917D01*X00757D01*X00778D01*X00786Y013157D01*
X008328Y013201D01*Y013621D01*X00849Y013707D01*X00873D01*
X008935Y013772D01*X009385D01*X009681Y013777D01*X009967Y013715D01*
X010006Y013665D01*X009967Y013715D02*X009986Y01363D01*D17*
X01022Y013047D01*X010224Y012768D01*D36*X010469Y013727D02*
X010638Y013538D01*X011009Y013313D01*X010982Y013186D01*X010931Y01311D01*
X010841Y013037D01*X010814Y012768D01*X00792Y012076D02*X008083Y011978D01*
X0082Y011817D01*X008211Y011857D01*X00835Y011807D01*D17*
X008531Y011657D01*X008781D01*X008961Y011567D01*D35*X00922D01*
X010224D01*D36*X010317Y01166D01*X010322Y011665D01*X010421Y011764D01*
D34*X011425D01*X011818D01*D23*X012Y012016D01*D36*X012021Y012037D01*
X013071D01*X013091Y012117D01*X013191Y012177D01*X013301Y012097D01*
X013121Y012027D01*X013081D01*X013291D01*X013391Y012177D01*
X010317Y01166D02*X010016Y011961D01*D17*X00922D01*D36*X006728Y012681D02*
X006729Y012721D01*X006199D01*X009531Y013567D02*X01002Y013067D01*
X010027Y012768D01*X02288Y013387D02*X023043Y013357D01*X023222Y013354D01*
X023609Y013351D01*X023645Y013371D01*X023954D01*X024148D01*
X024271Y013247D01*X024391D01*X024464Y013174D01*X02484D01*
X02486Y013166D01*X02505Y013176D01*X02541Y013157D01*X02484Y013174D02*
Y012977D01*X010731Y013237D02*X010621Y013027D01*X010618Y012768D01*
X009436Y010415D02*X009628Y010423D01*X00963Y01056D01*X009633Y010563D01*
X011968Y010856D02*X012232Y011176D01*X013331Y011147D01*X013471D01*
X013651Y011027D01*X014221D01*X014371Y011207D01*X014851D01*
X014911Y011267D01*X014913Y01208D01*X014925Y01247D01*X015151Y012627D01*
X016442D01*Y012912D01*X016479Y01326D01*X016689Y01332D01*X016819D01*
X017002Y013435D01*X01701Y013437D01*X017049Y01332D01*X017779D01*
X017821Y013302D01*X017839Y01326D01*Y01313D01*X018147Y013133D01*
X01828Y013125D01*X017002Y013435D02*X01695Y013487D01*Y013547D01*D39*
X010706Y009258D02*X01077Y009229D01*D50*X018962D01*D39*Y009409D01*
X01896Y009718D01*D36*X018946Y009732D01*X01896Y009718D02*
X018945Y009733D01*X019016Y009803D01*Y009843D01*D44*X019449D01*
X021589Y009995D01*X022278Y01029D01*D36*X019449Y009843D02*
X018945Y009733D02*X01894Y009738D01*Y010257D01*X01887Y010327D01*
X018807Y010354D01*X018798Y01102D01*D39*X018962Y009229D02*X023216D01*
D21*X023376D01*X023406Y009359D01*X023686Y009349D01*D36*X0147Y012687D02*
X014662Y012506D01*X014657Y01208D01*D50*X014671Y011417D02*
X013931Y011336D01*D24*X013566Y011419D01*D38*X015501Y009917D02*
X015472Y009685D01*X015199Y009688D01*D36*X014913Y009741D01*X014657D01*
X015199Y009688D02*X015228Y009717D01*X015169Y009741D01*
X004648Y011417D02*X004223Y011416D01*X003724Y011897D01*D38*
X004444Y011421D01*D36*X005188Y010921D01*X00519Y010904D01*D41*
X005438Y010771D01*X005698D01*X00579Y010891D01*Y010996D01*
X00588Y011076D01*Y011626D01*D24*X00594Y011636D01*D36*X00585D01*
Y011346D01*X005827Y011206D01*X005188Y010921D02*X005018Y010371D01*
X004328Y010381D01*X003724Y011897D02*X003667Y012088D01*X00355Y012182D01*
X003409Y012411D01*X00321Y012411D01*X003203Y012411D01*X003064D01*
X00286Y012206D01*X00282D01*X00321Y012411D02*Y012616D01*
X00337Y012776D01*Y012996D01*X01234Y011387D02*X01208Y011266D01*
X011731Y010977D01*X011425Y010976D01*X012383Y010958D02*
X012258Y010891D01*X012015Y010562D01*X011011Y010563D01*
X012788Y010236D02*X012511Y010323D01*X011311D01*Y010203D01*
X011128Y010076D01*X010913D01*X010713Y010196D01*X010478D01*
X010421Y010254D01*Y010563D01*X01314Y012957D02*X0129Y012766D01*
X012911D01*X01275Y012927D01*Y013077D01*X012911Y012766D02*X012949D01*
X0129D01*X008437Y01145D02*X008718Y011409D01*X008954Y011173D01*
X00922D01*X008437Y010978D02*X00883Y010937D01*X00886Y010907D01*
Y010817D01*X008971Y010737D01*X008437Y010506D02*X008801Y010527D01*
X009091D01*X009181Y010637D01*Y010967D01*X00922Y010976D01*
X01443Y012927D02*X01433D01*X014168Y012765D01*X014199Y012766D01*
X01403Y012597D01*X013951Y012647D01*X014168Y012765D02*X01371Y012747D01*
X01356Y012447D01*X013498Y012393D01*X013078D01*X01298Y012287D01*
X012881D01*X01272D01*X01253Y012597D01*X012D01*X01183Y012437D01*
X011667Y012354D01*X011425D01*X01622Y011496D02*X01621Y011587D01*D39*
Y011947D01*D36*X0162Y012057D01*X01566D01*D39*Y011517D01*D36*
X01563Y011487D01*X018451Y01143D02*X017799Y011397D01*D39*Y012D01*D36*
X018429D01*D40*X017505Y010996D02*X017691Y010428D01*X017389D01*
Y010684D01*D36*Y010428D02*Y010172D01*D40*X017876D01*X017861Y010337D01*
D36*X018557Y010176D01*D40*X018552Y009732D01*D36*X018548Y010154D01*
X018442Y010284D01*X01848Y010517D01*X018393Y010421D01*X018268Y010039D01*
D40*X017389Y010172D02*X017015Y0103D01*D36*X02298Y012567D02*X02293D01*
X022102Y011739D01*X02209Y011557D01*X02208Y012657D01*X022102Y011739D02*
X02229Y011577D01*X0229Y011587D01*X01914Y012487D02*X01996Y012607D01*
X01906Y011647D01*X02002D01*X01937Y012227D01*X0194Y012287D01*
X01958Y012167D01*X01993Y011687D01*X02054Y011507D01*X020542Y010897D01*
X020542Y010651D01*X020799Y010394D01*X01937Y012227D02*X01931Y012257D01*
X01906Y011647D01*X018699Y011367D01*X018579Y011187D01*X017649D01*
X01747Y011256D01*X016303Y011178D01*X015383D01*X01591Y012847D02*
X01612D01*D53*X015031Y012877D01*X014591Y013317D01*X014451Y013612D01*
X014006Y013665D01*D42*X02035Y012307D02*X02017D01*D36*X02014Y012277D01*
Y012267D01*X02027Y012137D01*X02102Y011627D01*X021034Y010897D01*
X02027Y012137D02*X02099Y011627D01*X021299Y011929D01*X021772Y012244D01*
X0218Y012797D01*X02189Y012947D01*X02288D01*X02297Y012917D01*
X02309Y012853D01*X023222Y012854D01*X023359Y012846D01*X023447Y012772D01*
X023851Y012767D01*X023926Y012842D01*X023954Y01287D01*Y012977D01*
X023926Y012842D02*X024037Y012731D01*X024299D01*X023447Y012772D02*
X023358Y012573D01*X02014Y012267D02*Y012277D01*X00089Y009927D02*
Y010327D01*X000892Y01079D01*X00089Y010327D02*X000415Y010329D01*
X000382Y009934D01*X000376Y009504D01*X000415Y010329D02*
X000393Y010764D01*X00043Y010986D01*D55*Y011813D01*D59*Y012757D01*D51*
Y013584D01*D56*X000983Y013581D01*X001068Y013576D01*X001394Y013496D01*
D55*X00043Y010986D02*X000913Y010981D01*D36*X001003Y011121D01*D55*
X001037Y011154D01*X001346D01*X001394Y011074D01*D27*X001483Y011773D01*
D36*X00652Y011327D02*X00643Y011227D01*X006453Y011166D01*
X006473Y011161D01*D46*X00692Y010937D01*X00714D01*X007178Y010893D01*
X007306Y010875D01*D23*X007321Y01034D01*D36*X007306Y010875D02*
X006966Y011145D01*X007178Y010893D02*X007136Y010905D01*X01565Y010647D02*
Y010477D01*X0157Y010417D01*X01605Y010422D01*Y010172D01*Y010428D01*
Y010684D01*D23*X001304Y011244D02*X001421Y011782D01*X001516Y011222D02*
X001551Y011806D01*X004565Y011221D02*X003835Y011967D01*X00383Y01207D02*
X00476Y011148D01*D18*X004937Y012228D02*X004239Y011499D01*
X00494Y012947D02*X00456Y013327D01*X00466Y013247D02*X00465Y013377D01*
D31*X00678Y010307D02*Y010517D01*X006481Y010367D02*X00663Y010457D01*
X00687Y010587D02*X00692Y010627D01*D45*X00621Y010617D02*
X00599Y010367D01*D21*X00615Y009747D02*X00649Y009757D01*
X00614Y009547D02*X00651D01*X00635Y009727D02*Y009577D01*D15*
X008901Y010337D02*X007971D01*X009391Y010727D02*X009308Y010591D01*
X009148Y010407D01*X008901D01*Y010337D01*X007946Y011125D02*
X007751Y011127D01*X00776Y011636D01*X007971Y011637D01*Y010337D01*
Y010977D02*X008301D01*X008561Y011637D02*X007971D01*X006521Y009507D02*
X006931D01*D25*X01314Y012036D02*X01206D01*D17*X00828Y011766D02*
X008411Y011657D01*X00792Y012076D02*X00819Y011826D01*X00798Y012126D02*
X00825Y011856D01*X00804Y012036D02*X008093Y011948D01*X008083Y011998D01*
D48*X018151Y010697D02*X017341D01*Y010517D01*D39*X019091Y010727D02*
X019101Y009247D01*D49*X015691Y010667D02*X016001D01*D17*
X009381Y010697D02*Y010817D01*X009481D01*D15*X009591Y011477D02*
Y010927D01*D17*X00652Y011317D02*X006816Y011385D01*X007106Y011395D01*
X007118Y010891D01*X0065Y011237D02*X007016Y010995D01*X007086Y010975D02*
Y011235D01*D27*X00699Y012667D02*X00788D01*D31*X00774D02*X0079D01*
X00813Y012347D01*X00856Y012207D01*X00803Y012327D02*X00866Y012047D01*
D39*X01759Y010667D02*X01761Y009717D01*X01747Y009627D02*
X01746Y010327D01*D15*X01931Y012467D02*X01929Y012207D01*D25*
X01383Y012237D02*Y011967D01*D40*X01565Y010627D02*X0157Y010417D01*
X01568Y010427D01*D17*X01894Y010887D02*X01893Y010497D01*
X01789Y011947D02*X01787Y011417D01*X02214Y012607D02*X02212Y011767D01*
D29*X017691Y010307D02*X017751Y010337D01*D21*X01902Y010267D02*
X01892Y010337D01*D53*X018801Y011025D02*X019578Y011046D01*
X018851Y01102D02*X018846Y010377D01*D49*X005948Y011661D02*
X006058Y011841D01*X006238Y011961D01*D40*X006538Y009391D02*
X005728Y009401D01*D21*X01899Y009856D02*Y010406D01*D43*X01485Y010757D02*
X01521Y010407D01*D36*X01549Y010017D01*X015512Y009921D01*D30*
X00867Y012926D02*X00855Y013027D01*X00803Y012987D01*X00802Y012937D01*
X00831Y012547D01*X00844Y012487D01*X00849Y012546D01*X0088Y012667D02*
X00836Y012637D01*D15*X008523Y011638D02*X008803D01*X008823Y011628D02*
X008333D01*X007766Y010755D02*X007946Y010735D01*X00797Y010236D02*
X00921D01*Y010466D01*X0092Y010286D02*X00799Y010276D01*X0089Y010326D02*
X00918D01*X00919Y010386D02*X00894Y010376D01*X00776Y010996D02*X00797D01*
Y011056D02*X00783Y011046D01*X00782Y011076D02*X00794Y011086D01*
X00793Y011096D02*Y011626D01*X00791Y011636D02*Y011116D01*
X00779Y011106D02*X0078Y011606D01*X00783Y011626D02*Y011146D01*
X00787Y011126D02*Y011596D01*D34*X00788Y012076D02*Y011596D01*D30*
X00857Y012897D02*X00813Y012867D01*X00869Y012777D02*X00825Y012747D01*
D25*X020365Y012301D02*Y012104D01*X02043Y012307D02*X02046Y012007D01*
X02085Y011737D02*X02109D01*D36*X00693Y018506D02*X00723Y018476D01*
X021299Y015433D02*X021526Y01566D01*X021526Y015936D01*D42*
X021533Y01665D01*D36*X001133Y01733D02*X000984Y017253D01*
X001483Y017324D02*X001133Y01733D01*D20*X002053D02*X001483Y017324D01*
D36*X002216Y01733D02*X002053D01*X00227Y017276D02*X002216Y01733D01*
X00257Y017276D02*X00227D01*X0027Y017526D02*X00257Y017276D01*
X00282Y017646D02*X0027Y017526D01*X00282Y017746D02*Y017646D01*D18*
X0195Y017986D02*X01922D01*D19*X01909Y017966D01*X019035Y017912D01*
X01893Y017909D01*D36*X01349Y014536D02*Y014676D01*X0137Y014816D01*
X01399Y014536D02*Y014947D01*X013937Y015D01*X01422Y015255D01*
X014221Y015556D01*X014551Y016006D01*X015151D01*X015433Y015787D01*
X01543Y015455D01*X01578Y014976D01*X01605Y014955D01*X017259Y018689D02*
X017153Y018806D01*X017229Y018479D01*X017929D01*X01804Y018366D01*
X01853D01*X018536Y018617D01*X01854Y018696D01*X01873D01*
X018733Y018617D01*X017153Y018806D02*X01715Y018816D01*X01686D01*
X01664Y018596D01*X017759Y018689D02*X018339Y018689D01*X018339Y018617D01*
D19*X018339Y018775D01*D36*X01838Y018816D01*X01889D01*X01893Y018777D01*
D19*X01893Y018617D01*X019206Y01862D01*X01934Y018486D01*X0195D01*D16*
X01972D01*Y017768D01*X0191D01*X01891Y017616D01*X01874Y017606D01*
X018733Y017909D01*D18*X018733Y017433D01*X018579Y017279D01*D36*
X017559D01*X01748Y017336D01*X01741Y017406D01*D42*X017231D01*D36*
X017221Y017416D01*X017229Y017424D01*D34*Y017951D01*D36*
X00287Y018036D02*X00273D01*X00268Y018006D01*X0026Y017826D01*
X002443Y017669D01*Y01755D01*D20*X002383Y01758D01*X001483Y01758D01*D36*
X001123Y01758D01*X000984Y017765D01*D32*X001483Y017836D02*
X001464Y017964D01*D47*X001654D01*D48*X00226Y018696D01*D47*X00382D01*
X004244Y018372D01*D32*X00426Y018296D01*D36*X004244Y018372D02*
X00426Y018388D01*Y018476D01*X017623Y017951D02*Y017858D01*D34*
X017919Y017939D01*D38*X003232Y016936D02*X002672Y01628D01*D20*
X002443Y01805D02*X00244Y018066D01*X00264Y018246D01*X00356Y018246D01*
X003853Y01772D01*X004069Y017504D01*X004407D01*D36*X007361Y016206D02*
X007711D01*X007751Y016106D01*X007766Y016151D01*Y01584D01*
X00797Y015766D01*Y015276D01*X00821Y015376D01*X00833Y015286D01*
X006966Y016685D02*X007361Y016706D01*X007616Y016705D01*
X007621Y017146D01*X012488Y015115D02*X012618Y015105D01*
X012928Y015005D01*X009708Y014971D02*X009321D01*X008891D01*
X008811Y014891D01*Y014831D01*X008731Y014751D01*X008431D01*
X008381Y014701D01*X007621D01*X007521Y014591D01*X007321Y014592D01*
X009321Y014971D02*X009373Y01494D01*X010208Y014971D02*X010053Y014981D01*
X009913Y015121D01*Y015254D01*X00983Y015337D01*Y015602D01*D20*
X002053Y01783D02*Y01804D01*X00235Y018416D01*X00367D01*X004083Y01776D01*
X004407D01*D36*X010518Y014925D02*X010403Y01478D01*X010158D01*
X00999Y014685D01*D42*X00912D01*D36*X009093Y014712D01*D42*
X009Y014557D01*D36*X008991Y014548D01*D29*X008959Y014516D01*D44*
X008191Y014451D01*D36*X008601Y014486D01*X008201Y014491D01*D42*
X007801Y014496D01*X007559Y014422D01*X007079D01*D25*X006863Y014468D01*
D36*X006941Y014491D01*D29*X006863Y014468D02*X006831Y014496D01*
X00674Y014476D01*X006631Y014506D01*X006591Y014691D01*D36*
X006566Y014581D01*X006081Y014592D01*D21*X006551D01*X006761Y014801D01*
X006081Y014788D01*D36*X006586Y014801D01*X006511Y014591D01*
X005936Y014596D01*X005516Y014552D01*X005838Y014431D01*X006481D01*
X006541Y014491D01*X006591Y014691D02*X006575Y014985D01*X006701D01*
X011018Y014925D02*X011008Y01499D01*X011173Y014995D01*X010858D01*
X010673Y015115D01*X010418D01*X010293Y015235D01*X01009Y015236D01*
X01003Y015316D01*X010027Y015602D01*X011173Y014995D02*X011198D01*
X011378Y015115D01*X011988D01*X008088Y01869D02*Y01854D01*
X007978Y01842D01*X008191Y014951D02*Y015066D01*X008121Y015136D01*
X007651D01*X007528Y014985D01*X007321D01*X007766Y01534D02*
X007507Y015182D01*X007321D01*X007801Y014906D02*X007641Y014866D01*
X007531Y014786D01*X007321Y014788D01*D17*X013006Y018705D02*
X01228Y018396D01*X012279Y018032D01*X012006Y018705D02*X01241Y018736D01*
X011006Y018705D02*X011291Y018476D01*X011452Y017843D01*X00867Y017735D02*
X008885Y017391D01*X00922Y017394D01*D36*X005687Y018528D02*Y018683D01*
D29*X005951D01*D36*X006199Y018016D02*X00672Y018016D01*
X005431Y018528D02*Y018214D01*X005491Y018153D01*X005851D01*Y018473D01*
X006201D01*X006211Y018713D01*X007588D01*Y01869D01*D20*
X004407Y017248D02*X004085D01*X003883Y01745D01*X003703D01*D36*
X010814Y015602D02*X010818Y015316D01*X010958Y015235D01*X011088D01*
X011191Y015302D01*Y015482D01*X012451D01*X01279Y015856D01*D21*
X011425Y016606D02*X011879D01*X012Y016555D01*D36*X01193Y016485D01*D21*
Y016405D01*X011737Y016213D01*X011425D01*D25*X012Y016555D02*
X01211Y016556D01*X01223Y016716D01*X012232Y016778D01*X01228Y016826D01*
X01243Y016826D01*X012881Y016826D01*D36*X012939Y016817D01*D25*
X012881Y016826D01*D36*X013192Y016728D01*D25*X012881Y016826D02*
X013036Y016754D01*D42*X013553Y016761D01*X013722Y016966D01*D40*
X013931Y017057D01*D52*X014151Y016966D01*X014251Y017066D01*D25*
X014401Y017119D01*D36*X01434Y017066D01*D52*X014093Y017349D01*
X013883D01*D36*X011425Y017197D02*X011752D01*X01188Y017315D01*
X01243Y017326D01*X012131Y017326D01*Y017426D01*X011011Y017807D02*
X011127D01*X011317Y017617D01*X011653D01*X011798Y017762D01*X012357D01*
X012508Y017913D01*Y018222D01*X012637Y018351D01*X014136D01*
X014191Y018296D01*X010421Y017807D02*Y018244D01*X01043Y018263D01*
X00983Y017807D02*X009811Y017826D01*X009825Y018086D01*X009678Y018173D01*
X009591D01*X009281Y018486D01*X009175Y018691D01*X008935D01*
X008755Y018601D01*X00858Y018536D01*X009633Y017807D02*X009261Y017806D01*
X009Y018068D01*X009025Y018481D01*D23*X006081Y015379D02*
X00633Y015596D01*D36*X00639Y015656D01*X00621D01*X006081Y014985D02*
X005856Y014971D01*X005708Y014841D01*X005188D01*X005148Y014791D01*
X005141Y014736D01*Y014636D01*X005091Y014531D01*X005021Y014519D01*
X004958Y014515D01*X004712Y014681D01*X02484Y01841D02*Y018705D01*
X024841Y018706D01*Y018676D01*X025351D01*X025381Y018706D01*
X02541Y018696D01*X024536D01*X024496Y018656D01*X024534Y018696D01*
X025411Y018689D01*Y018449D01*X0256Y018406D01*Y017976D01*
X025127Y017744D01*X024299Y018656D02*X02312D01*X02306Y018716D01*
X02259D01*X0224Y018426D01*X023954Y018213D02*X021793D01*
X021569Y017989D01*Y017639D01*X021479Y017459D01*D19*X018339Y017909D02*
X018339Y01765D01*D36*X018339Y017619D01*X018536Y017909D02*
X018536Y017712D01*X018549Y017699D01*Y017519D01*X018429Y017399D01*
X018249D01*X018009Y017639D01*X01633Y018456D02*X01609Y018236D01*
X015307D01*X015186Y018357D01*D21*X021772Y016929D02*X021811Y016772D01*
Y016181D01*X02277D01*X02307Y014666D01*X024086Y014668D01*
X024156Y014628D01*X024158Y014388D01*X024156Y014608D01*
X024606Y014988D01*X025246D01*X025394Y014843D01*Y01437D01*D36*
X006071Y018263D02*X006041D01*D29*X00643Y018266D01*D37*Y018506D01*
Y018266D02*X00642D01*X00691Y018255D01*X006973Y01817D01*X00697D01*D26*
Y017866D01*D28*X006973Y01765D01*X006966Y017476D01*D34*X00755D01*
X00757Y017456D01*X00769D01*X00813Y017346D01*X008472Y017276D01*
X00871Y017046D01*Y016988D01*D25*X008711Y016896D01*D21*
X008931Y016806D01*X00922Y016803D01*D36*X008472Y017276D02*
X008483Y017265D01*X00855D01*D14*X006966Y017476D02*X006731Y017231D01*
X006581Y016731D01*X006341Y016671D01*X006161Y016461D01*
X006111Y016051D01*X005951Y015801D01*X005561Y015531D01*D15*
X005571Y015201D01*X006081Y015182D01*D22*X00581Y015176D01*D15*
X005647Y015322D01*X005512Y015435D01*X005516Y0153D01*X005228Y01505D01*
X004958Y015015D01*X004448Y01499D01*X004398Y01434D01*X004519Y014239D01*
X010149D01*X010544Y01466D01*X01261Y014679D01*X013073Y014727D01*
X013358Y0151D01*X013328Y01571D01*D36*X013331Y01569D01*D25*Y015686D01*
Y01569D02*Y015691D01*X013651Y015676D01*X013622Y015433D01*D17*
X013621Y015346D01*X013891D01*D25*X013651Y015676D02*X013626Y015627D01*
D36*X016836Y017431D02*Y017951D01*X016835Y017939D01*Y017536D01*
X01529D01*X015174Y017513D01*X015169Y017119D01*X015151Y016196D01*
X015081Y016126D01*X014461D01*X014251Y015856D01*X013891Y015846D01*
X013741Y015856D01*X013591Y015946D01*X01313Y015976D01*X01307Y016066D01*
X01259Y016076D01*X012593Y015947D01*X012573Y015887D01*X012503Y015807D01*
X012343Y015697D01*D17*X005548Y016051D02*X005463Y016105D01*
X00546Y016185D01*X005327Y016245D01*X00525Y016436D01*X005175Y016736D01*
D27*X006235Y016981D02*Y017212D01*D36*X006199Y017248D01*D27*X00579D01*
X005737Y017301D01*X005634D01*D36*X005303Y017632D01*X005175Y017764D01*
Y01776D01*D27*Y018528D01*D36*Y017764D02*X00465Y018286D01*
X00459Y018436D01*X007548Y0184D02*X00722Y018186D01*Y018016D01*X00736D01*
X00742Y017956D01*X00757D01*X00778D01*X00786Y018196D01*X008328Y01824D01*
Y01866D01*X00849Y018746D01*X00873D01*X008935Y018811D01*X009385D01*
X009681Y018816D01*X009967Y018755D01*X010006Y018705D01*
X009967Y018755D02*X009986Y01867D01*D17*X01022Y018086D01*
X010224Y017807D01*D36*X010469Y018766D02*X010638Y018578D01*
X011009Y018353D01*X010982Y018226D01*X010931Y018149D01*
X010841Y018076D01*X010814Y017807D01*X00792Y017115D02*X008083Y017017D01*
X0082Y016856D01*X008211Y016896D01*X00835Y016846D01*D17*
X008531Y016696D01*X008781D01*X008961Y016606D01*D35*X00922D01*
X010224D01*D36*X010317Y016699D01*X010322Y016705D01*X010421Y016803D01*
D34*X011425D01*X011818D01*D23*X012Y017055D01*D36*X012021Y017076D01*
X013071D01*X013091Y017156D01*X013191Y017216D01*X013301Y017136D01*
X013121Y017066D01*X013081D01*X013291D01*X013391Y017216D01*
X010317Y016699D02*X010016Y017D01*D17*X00922D01*D36*X006728Y01772D02*
X006729Y01776D01*X006199D01*X009531Y018606D02*X01002Y018106D01*
X010027Y017807D01*X02288Y018426D02*X023043Y018396D01*X023222Y018393D01*
X023609Y01839D01*X023645Y01841D01*X023954D01*X024148D01*
X024271Y018286D01*X024391D01*X024464Y018213D01*X02484D01*
X02486Y018205D01*X02505Y018215D01*X02541Y018196D01*X02484Y018213D02*
Y018016D01*X010731Y018276D02*X010621Y018066D01*X010618Y017807D01*
X009436Y015454D02*X009628Y015462D01*X00963Y015599D01*X009633Y015602D01*
X011968Y015895D02*X012232Y016215D01*X013331Y016186D01*X013471D01*
X013651Y016066D01*X014221D01*X014371Y016246D01*X014851D01*
X014911Y016306D01*X014913Y017119D01*X014925Y017509D01*
X015151Y017666D01*X016442D01*Y017951D01*X016479Y018299D01*
X016689Y018359D01*X016819D01*X017002Y018474D01*X01701Y018476D01*
X017049Y018359D01*X017779D01*X017821Y018342D01*X017839Y018299D01*
Y018169D01*X018147Y018173D01*X01828Y018165D01*X017002Y018474D02*
X01695Y018526D01*Y018586D01*D39*X010706Y014297D02*X01077Y014268D01*D50*
X018962D01*D39*Y014449D01*X01896Y014757D01*D36*X018946Y014771D01*
X01896Y014757D02*X018945Y014772D01*X019016Y014843D01*Y014882D01*D44*
X019449D01*X021589Y015034D01*X022278Y015329D01*D36*X019449Y014882D02*
X018945Y014772D02*X01894Y014777D01*Y015296D01*X01887Y015366D01*
X018807Y015394D01*X018798Y01606D01*D39*X018962Y014268D02*X023216D01*
D21*X023376D01*X023406Y014398D01*X023686Y014388D01*D36*X0147Y017726D02*
X014662Y017545D01*X014657Y017119D01*D50*X014671Y016456D02*
X013931Y016376D01*D24*X013566Y016458D01*D38*X015501Y014956D02*
X015472Y014724D01*X015199Y014728D01*D36*X014913Y014781D01*X014657D01*
X015199Y014728D02*X015228Y014756D01*X015169Y014781D01*
X004648Y016456D02*X004223Y016455D01*X003724Y016936D01*D38*
X004444Y01646D01*D36*X005188Y015961D01*X00519Y015944D01*D41*
X005438Y015811D01*X005698D01*X00579Y01593D01*Y016035D01*
X00588Y016115D01*Y016665D01*D24*X00594Y016675D01*D36*X00585D01*
Y016385D01*X005827Y016245D01*X005188Y015961D02*X005018Y015411D01*
X004328Y015421D01*X003724Y016936D02*X003667Y017127D01*X00355Y017222D01*
X003409Y01745D01*X00321Y01745D01*X003203Y01745D01*X003064D01*
X00286Y017246D01*X00282D01*X00321Y01745D02*Y017656D01*X00337Y017816D01*
Y018036D01*X01234Y016426D02*X01208Y016305D01*X011731Y016016D01*
X011425Y016016D01*X012383Y015997D02*X012258Y01593D01*X012015Y015601D01*
X011011Y015602D01*X012788Y015275D02*X012511Y015362D01*X011311D01*
Y015242D01*X011128Y015115D01*X010913D01*X010713Y015235D01*X010478D01*
X010421Y015293D01*Y015602D01*X01314Y017996D02*X0129Y017805D01*
X012911D01*X01275Y017966D01*Y018116D01*X012911Y017805D02*X012949D01*
X0129D01*X008437Y01649D02*X008718Y016449D01*X008954Y016213D01*
X00922D01*X008437Y016017D02*X00883Y015976D01*X00886Y015946D01*
Y015856D01*X008971Y015776D01*X008437Y015545D02*X008801Y015566D01*
X009091D01*X009181Y015676D01*Y016006D01*X00922Y016016D01*
X01443Y017966D02*X01433D01*X014168Y017804D01*X014199Y017805D01*
X01403Y017636D01*X013951Y017686D01*X014168Y017804D02*X01371Y017786D01*
X01356Y017486D01*X013498Y017432D01*X013078D01*X01298Y017326D01*
X012881D01*X01272D01*X01253Y017636D01*X012D01*X01183Y017476D01*
X011667Y017394D01*X011425D01*X01622Y016535D02*X01621Y016626D01*D39*
Y016986D01*D36*X0162Y017096D01*X01566D01*D39*Y016556D01*D36*
X01563Y016526D01*X018451Y016469D02*X017799Y016436D01*D39*Y017039D01*
D36*X018429D01*D40*X017505Y016035D02*X017691Y015467D01*X017389D01*
Y015723D01*D36*Y015467D02*Y015211D01*D40*X017876D01*X017861Y015376D01*
D36*X018557Y015216D01*D40*X018552Y014771D01*D36*X018548Y015194D01*
X018442Y015324D01*X01848Y015556D01*X018393Y015461D01*X018268Y015079D01*
D40*X017389Y015211D02*X017015Y015339D01*D36*X02298Y017606D02*X02293D01*
X022102Y016778D01*X02209Y016596D01*X02208Y017696D01*X022102Y016778D02*
X02229Y016616D01*X0229Y016626D01*X01914Y017526D02*X01996Y017646D01*
X01906Y016686D01*X02002D01*X01937Y017266D01*X0194Y017326D01*
X01958Y017206D01*X01993Y016726D01*X02054Y016546D01*X020542Y015936D01*
X020542Y01569D01*X020799Y015433D01*X01937Y017266D02*X01931Y017296D01*
X01906Y016686D01*X018699Y016406D01*X018579Y016226D01*X017649D01*
X01747Y016295D01*X016303Y016217D01*X015383D01*X01591Y017886D02*
X01612D01*D53*X015031Y017916D01*X014591Y018356D01*X014451Y018651D01*
X014006Y018705D01*D42*X02035Y017346D02*X02017D01*D36*X02014Y017316D01*
Y017306D01*X02027Y017176D01*X02102Y016666D01*X021034Y015936D01*
X02027Y017176D02*X02099Y016666D01*X021299Y016969D01*X021772Y017283D01*
X0218Y017836D01*X02189Y017986D01*X02288D01*X02297Y017956D01*
X02309Y017892D01*X023222Y017893D01*X023359Y017885D01*X023447Y017811D01*
X023851Y017806D01*X023926Y017881D01*X023954Y017909D01*Y018016D01*
X023926Y017881D02*X024037Y01777D01*X024299D01*X023447Y017811D02*
X023358Y017612D01*X02014Y017306D02*Y017316D01*X00089Y014966D02*
Y015366D01*X000892Y01583D01*X00089Y015366D02*X000415Y015369D01*
X000382Y014973D01*X000376Y014543D01*X000415Y015369D02*
X000393Y015803D01*X00043Y016025D01*D55*Y016852D01*D59*Y017797D01*D51*
Y018624D01*D56*X000983Y01862D01*X001068Y018615D01*X001394Y018535D01*
D55*X00043Y016025D02*X000913Y01602D01*D36*X001003Y01616D01*D55*
X001037Y016194D01*X001346D01*X001394Y016114D01*D27*X001483Y016813D01*
D36*X00652Y016366D02*X00643Y016266D01*X006453Y016205D01*
X006473Y0162D01*D46*X00692Y015976D01*X00714D01*X007178Y015932D01*
X007306Y015915D01*D23*X007321Y015379D01*D36*X007306Y015915D02*
X006966Y016185D01*X007178Y015932D02*X007136Y015945D01*X01565Y015686D02*
Y015516D01*X0157Y015456D01*X01605Y015461D01*Y015211D01*Y015467D01*
Y015723D01*D23*X001304Y016284D02*X001421Y016822D01*X001516Y016261D02*
X001551Y016845D01*X004565Y01626D02*X003835Y017007D01*X00383Y017109D02*
X00476Y016188D01*D18*X004937Y017267D02*X004239Y016539D01*
X00494Y017986D02*X00456Y018366D01*X00466Y018286D02*X00465Y018416D01*
D31*X00678Y015346D02*Y015556D01*X006481Y015406D02*X00663Y015496D01*
X00687Y015626D02*X00692Y015666D01*D45*X00621Y015656D02*
X00599Y015406D01*D21*X00615Y014786D02*X00649Y014796D01*
X00614Y014586D02*X00651D01*X00635Y014766D02*Y014616D01*D15*
X008901Y015376D02*X007971D01*X009391Y015766D02*X009308Y01563D01*
X009148Y015446D01*X008901D01*Y015376D01*X007946Y016165D02*
X007751Y016166D01*X00776Y016676D01*X007971Y016676D01*Y015376D01*
Y016016D02*X008301D01*X008561Y016676D02*X007971D01*X006521Y014546D02*
X006931D01*D25*X01314Y017075D02*X01206D01*D17*X00828Y016805D02*
X008411Y016696D01*X00792Y017115D02*X00819Y016865D01*X00798Y017165D02*
X00825Y016895D01*X00804Y017075D02*X008093Y016987D01*X008083Y017037D01*
D48*X018151Y015736D02*X017341D01*Y015556D01*D39*X019091Y015766D02*
X019101Y014286D01*D49*X015691Y015706D02*X016001D01*D17*
X009381Y015736D02*Y015856D01*X009481D01*D15*X009591Y016516D02*
Y015966D01*D17*X00652Y016356D02*X006816Y016425D01*X007106Y016435D01*
X007118Y01593D01*X0065Y016276D02*X007016Y016035D01*X007086Y016015D02*
Y016275D01*D27*X00699Y017706D02*X00788D01*D31*X00774D02*X0079D01*
X00813Y017386D01*X00856Y017246D01*X00803Y017366D02*X00866Y017086D01*
D39*X01759Y015706D02*X01761Y014756D01*X01747Y014666D02*
X01746Y015366D01*D15*X01931Y017506D02*X01929Y017246D01*D25*
X01383Y017276D02*Y017006D01*D40*X01565Y015666D02*X0157Y015456D01*
X01568Y015466D01*D17*X01894Y015926D02*X01893Y015536D01*
X01789Y016986D02*X01787Y016456D01*X02214Y017646D02*X02212Y016806D01*
D29*X017691Y015346D02*X017751Y015376D01*D21*X01902Y015306D02*
X01892Y015376D01*D53*X018801Y016065D02*X019578Y016086D01*
X018851Y01606D02*X018846Y015417D01*D49*X005948Y0167D02*
X006058Y01688D01*X006238Y017D01*D40*X006538Y014431D02*X005728Y01444D01*
D21*X01899Y014896D02*Y015446D01*D43*X01485Y015796D02*X01521Y015446D01*
D36*X01549Y015056D01*X015512Y014961D01*D30*X00867Y017966D02*
X00855Y018066D01*X00803Y018026D01*X00802Y017976D01*X00831Y017586D01*
X00844Y017526D01*X00849Y017586D01*X0088Y017706D02*X00836Y017676D01*D15*
X008523Y016677D02*X008803D01*X008823Y016667D02*X008333D01*
X007766Y015795D02*X007946Y015775D01*X00797Y015276D02*X00921D01*
Y015506D01*X0092Y015326D02*X00799Y015316D01*X0089Y015366D02*X00918D01*
X00919Y015426D02*X00894Y015416D01*X00776Y016036D02*X00797D01*
Y016096D02*X00783Y016086D01*X00782Y016116D02*X00794Y016126D01*
X00793Y016136D02*Y016666D01*X00791Y016676D02*Y016156D01*
X00779Y016146D02*X0078Y016646D01*X00783Y016666D02*Y016186D01*
X00787Y016166D02*Y016636D01*D34*X00788Y017116D02*Y016636D01*D30*
X00857Y017936D02*X00813Y017906D01*X00869Y017816D02*X00825Y017786D01*
D25*X020365Y01734D02*Y017143D01*X02043Y017346D02*X02046Y017046D01*
X02085Y016776D02*X02109D01*
%LPD*%
D57*X023622Y020866D03*X003937D03*Y002362D03*D81*X00693Y008428D03*D42*
X00723Y008398D03*D81*X021299Y005354D03*D84*X021526Y005857D03*D42*
X021533Y006572D03*D74*X00282Y007667D03*X002053Y007251D03*D109*
X001483Y007246D03*D42*X000984Y007174D03*D74*X0195Y007908D03*D42*
X01922D03*D69*X01893Y00783D03*D81*X01349Y004458D03*D42*X0137Y004738D03*
D81*X01399Y004458D03*D42*X013937Y004921D03*D96*X01605Y004877D03*D81*
X017259Y008611D03*D69*X018536Y008539D03*X018733D03*D42*
X01664Y008518D03*D81*X017759Y008611D03*D69*X018339Y008539D03*X01893D03*
D74*X0195Y008408D03*D69*X018733Y00783D03*D42*X01741Y007328D03*
X017221Y007338D03*D80*X017229Y007872D03*D81*X00287Y007957D03*D74*
X002443Y007471D03*D109*X001483Y007501D03*D42*X000984Y007686D03*D54*
X025394Y006161D03*X003839Y006063D03*D109*X001483Y007757D03*D42*
X00426Y008218D03*Y008398D03*D109*X001483Y00699D03*D11*
X021063Y008189D03*X024902Y004488D03*X023524Y005906D03*
X022475Y004686D03*D80*X017623Y007872D03*D42*X017919Y007861D03*D104*
X018135Y006678D03*X01593D03*D85*X003232Y006858D03*D42*
X002672Y006201D03*D129*X004728Y005755D03*X002228D03*D130*
X019538Y006999D03*X02253D03*D124*X018178Y005687D03*D126*X01932D03*D96*
X017389Y004877D03*D74*X002443Y007971D03*D111*X004407Y007425D03*D74*
X007361Y006128D03*D42*X007751Y006028D03*D74*X007766Y005761D03*D42*
X00833Y005207D03*D74*X006966Y006606D03*X007361Y006628D03*D42*
X007621Y007068D03*D81*X012488Y005037D03*D42*X012928Y004927D03*D81*
X009708Y004893D03*D95*X007321Y004513D03*D42*X009373Y004862D03*D81*
X010208Y004893D03*D63*X00983Y005524D03*D74*X002053Y007751D03*D111*
X004407Y007681D03*D81*X010518Y004847D03*D42*X00999Y004607D03*D74*
X008191Y004373D03*D78*X007801Y004418D03*D42*X006941Y004413D03*D95*
X006081Y004513D03*Y00471D03*D112*X005516Y004474D03*D42*
X006541Y004413D03*D113*X006701Y004907D03*D81*X011018Y004847D03*D63*
X010027Y005524D03*D81*X011988Y005037D03*X008088Y008612D03*D42*
X007978Y008342D03*D74*X008191Y004873D03*D95*X007321Y004907D03*D74*
X007766Y005261D03*D95*X007321Y005103D03*D78*X007801Y004828D03*D95*
X007321Y00471D03*D12*X002821Y0055D03*X00164D03*D54*X015006Y008626D03*
X013006D03*D42*X012279Y007954D03*D54*X012006Y008626D03*D42*
X01241Y008658D03*D54*X011006Y008626D03*D42*X011452Y007765D03*D60*
X00867Y007657D03*D65*X00922Y007315D03*D72*X005687Y008449D03*D42*
X005951Y008605D03*D72*X005431Y006658D03*X005687D03*D111*
X006199Y007425D03*Y007937D03*D81*X00672Y007938D03*D72*
X005431Y008449D03*D81*X007588Y008612D03*D72*X004919Y008449D03*D111*
X004407Y007937D03*Y007169D03*D81*X003703Y007371D03*D72*
X004919Y006658D03*D63*X010224Y005524D03*X010618D03*X010814D03*D42*
X01279Y005778D03*D65*X011425Y006331D03*X00922Y007118D03*
X011425Y006528D03*D74*X012Y006477D03*D65*X011425Y006134D03*D74*
X01243Y006748D03*X012881Y006748D03*D42*X013192Y00665D03*D98*
X013931Y006978D03*D73*X014401Y007041D03*D42*X014093Y007271D03*
X013883D03*D65*X011425Y006921D03*Y007118D03*D74*X01243Y007248D03*D42*
X012131Y007348D03*D63*X011011Y007728D03*D42*X014191Y008218D03*D63*
X010421Y007728D03*D42*X01043Y008185D03*D63*X00983Y007728D03*D42*
X00858Y008458D03*D63*X009633Y007728D03*D42*X009025Y008403D03*D65*
X00922Y006331D03*D95*X006081Y0053D03*D42*X00639Y005578D03*X00621D03*
D95*X006081Y004907D03*D74*X004958Y004437D03*D42*X004712Y004603D03*D73*
X014401Y004702D03*D94*X02484Y008331D03*D74*X02541Y008618D03*D70*
X024496Y008577D03*D42*X025127Y007665D03*D70*X024299Y008577D03*D42*
X0224Y008348D03*D94*X023954Y008134D03*D42*X021479Y007381D03*D70*
X024496Y007692D03*D69*X018339Y00783D03*D42*X018339Y007541D03*D77*
X01828Y008283D03*D69*X018536Y00783D03*D42*X018009Y007561D03*D77*
X018989Y008086D03*Y008283D03*D42*X01633Y008378D03*X015186Y008279D03*
X021772Y00685D03*X02307Y004588D03*D89*X024158Y00431D03*D42*
X025394Y004291D03*X006071Y008185D03*D81*X00643Y008428D03*D74*
X00757Y007378D03*D81*X008711Y006818D03*D65*X00922Y006724D03*D42*
X00855Y007187D03*D95*X006081Y005103D03*D112*X005516Y005222D03*D74*
X004958Y004937D03*X013331Y005608D03*X013891Y005268D03*D42*
X013626Y005549D03*X016836Y007352D03*D80*Y007872D03*D73*
X015169Y007041D03*D74*X013891Y005768D03*D42*X012343Y005619D03*
X005548Y005972D03*D81*X005327Y006167D03*D72*X005175Y006658D03*D42*
X006235Y006903D03*D111*X006199Y007169D03*D127*X005303Y007553D03*D72*
X005175Y008449D03*D42*X00459Y008358D03*X007548Y008322D03*D81*
X00722Y007938D03*D74*X00757Y007878D03*D54*X010006Y008626D03*D63*
X010224Y007728D03*D42*X010469Y008688D03*D63*X010814Y007728D03*D42*
X00792Y007037D03*D81*X008211Y006818D03*D65*X00922Y006528D03*D136*
X010322Y006626D03*D65*X011425Y006724D03*D74*X012Y006977D03*D42*
X013191Y007138D03*X013391D03*D65*X00922Y006921D03*D42*
X006728Y007642D03*D111*X006199Y007681D03*D42*X009531Y008528D03*D63*
X010027Y007728D03*D42*X02288Y008348D03*D74*X023222Y008315D03*D94*
X023954Y008331D03*X02484Y008134D03*D74*X02541Y008118D03*D94*
X02484Y007938D03*D42*X010731Y008198D03*D63*X010618Y007728D03*D42*
X009436Y005376D03*D63*X009633Y005524D03*D42*X011968Y005817D03*D74*
X013331Y006108D03*D73*X014913Y007041D03*D80*X016442Y007872D03*D77*
X01828Y008086D03*D42*X01695Y008508D03*X010706Y004219D03*D79*
X018946Y004692D03*D42*X022278Y005251D03*X019449Y004803D03*
X018807Y005315D03*X018798Y005981D03*D89*X023686Y00431D03*D42*
X0147Y007648D03*D73*X014657Y007041D03*D42*X014671Y006378D03*D98*
X013931Y006297D03*D42*X013566Y00638D03*X015501Y004878D03*D73*
X014913Y004702D03*X014657D03*X015169D03*D42*X004648Y006378D03*D85*
X003724Y006858D03*D42*X004444Y006382D03*X005188Y005882D03*
X00594Y006597D03*D81*X005827Y006167D03*D42*X005018Y005332D03*
X004328Y005342D03*D81*X003203Y007371D03*D74*X00282Y007167D03*D81*
X00337Y007957D03*D42*X01234Y006348D03*D65*X011425Y005937D03*D42*
X012383Y005919D03*D63*X011011Y005524D03*D42*X012788Y005197D03*D63*
X010421Y005524D03*D42*X01314Y007918D03*X01275Y008038D03*D97*
X0129Y007727D03*D125*X008437Y006411D03*D65*X00922Y006134D03*D125*
X008437Y005939D03*D42*X008971Y005698D03*D125*X008437Y005466D03*D65*
X00922Y005937D03*D42*X00202Y005103D03*X01443Y007888D03*D97*
X014199Y007727D03*D42*X013951Y007608D03*D74*X012881Y007248D03*D65*
X011425Y007315D03*D42*X01622Y006457D03*X0162Y007018D03*X01566D03*
X01563Y006448D03*X018451Y006391D03*X017799Y006358D03*Y006961D03*
X018429D03*X017505Y005957D03*D96*X017389Y005388D03*Y005644D03*
Y005132D03*D79*X018552Y004692D03*D42*X018268Y005D03*D122*
X017015Y00526D03*D42*X014851Y005718D03*X004069Y004473D03*
X02298Y007528D03*X02209Y006518D03*X02208Y007618D03*X0229Y006548D03*
X01914Y007448D03*X01996Y007568D03*X01906Y006608D03*X02002D03*D84*
X020542Y005857D03*D81*X020799Y005354D03*D42*X015383Y006139D03*
X01591Y007808D03*X01612D03*D54*X014006Y008626D03*D42*X004039Y004868D03*
X02035Y007268D03*D84*X021034Y005857D03*D74*X023222Y007815D03*D94*
X023954Y007938D03*D70*X024299Y007692D03*D42*X023358Y007534D03*
X02014Y007238D03*X00403Y005288D03*X01498Y005568D03*X01552Y004618D03*
X00348Y005288D03*X00349Y005718D03*X00089Y004888D03*Y005288D03*
X000892Y005751D03*X000415Y00529D03*X000382Y004894D03*X000376Y004465D03*
X000393Y005724D03*D66*X00043Y005946D03*D119*Y006773D03*Y007718D03*D66*
Y008545D03*D110*X001394Y008456D03*Y006035D03*D109*X001483Y006734D03*
D42*X00192Y006347D03*X00652Y006288D03*X006453Y006127D03*D95*
X007321Y0053D03*D74*X006966Y006106D03*D42*X007136Y005866D03*
X006691Y005448D03*X00689D03*X006966Y005616D03*X006741Y004413D03*
X00981Y006107D03*X009391Y005688D03*X002479Y005105D03*X01565Y005608D03*
X0157Y005378D03*D96*X01605Y005132D03*Y005388D03*Y005644D03*D42*
X007336Y005816D03*D81*X00693Y013467D03*D42*X00723Y013437D03*D81*
X021299Y010394D03*D84*X021526Y010897D03*D42*X021533Y011611D03*D74*
X00282Y012706D03*X002053Y012291D03*D109*X001483Y012285D03*D42*
X000984Y012214D03*D74*X0195Y012947D03*D42*X01922D03*D69*
X01893Y012869D03*D81*X01349Y009497D03*D42*X0137Y009777D03*D81*
X01399Y009497D03*D42*X013937Y009961D03*D96*X01605Y009916D03*D81*
X017259Y01365D03*D69*X018536Y013578D03*X018733D03*D42*X01664Y013557D03*
D81*X017759Y01365D03*D69*X018339Y013578D03*X01893D03*D74*
X0195Y013447D03*D69*X018733Y012869D03*D42*X01741Y012367D03*
X017221Y012377D03*D80*X017229Y012912D03*D81*X00287Y012996D03*D74*
X002443Y012511D03*D109*X001483Y012541D03*D42*X000984Y012726D03*D54*
X025394Y011201D03*X003839Y011102D03*D109*X001483Y012797D03*D42*
X00426Y013257D03*Y013437D03*D109*X001483Y012029D03*D11*
X021063Y013228D03*X024902Y009528D03*X023524Y010945D03*
X022475Y009725D03*D80*X017623Y012912D03*D42*X017919Y0129D03*D104*
X018135Y011718D03*X01593D03*D85*X003232Y011897D03*D42*
X002672Y011241D03*D129*X004728Y010795D03*X002228D03*D130*
X019538Y012038D03*X02253D03*D124*X018178Y010726D03*D126*X01932D03*D96*
X017389Y009916D03*D74*X002443Y013011D03*D111*X004407Y012465D03*D74*
X007361Y011167D03*D42*X007751Y011067D03*D74*X007766Y0108D03*D42*
X00833Y010246D03*D74*X006966Y011645D03*X007361Y011667D03*D42*
X007621Y012107D03*D81*X012488Y010076D03*D42*X012928Y009966D03*D81*
X009708Y009932D03*D95*X007321Y009552D03*D42*X009373Y009901D03*D81*
X010208Y009932D03*D63*X00983Y010563D03*D74*X002053Y012791D03*D111*
X004407Y012721D03*D81*X010518Y009886D03*D42*X00999Y009646D03*D74*
X008191Y009412D03*D78*X007801Y009457D03*D42*X006941Y009452D03*D95*
X006081Y009552D03*Y009749D03*D112*X005516Y009513D03*D42*
X006541Y009452D03*D113*X006701Y009946D03*D81*X011018Y009886D03*D63*
X010027Y010563D03*D81*X011988Y010076D03*X008088Y013651D03*D42*
X007978Y013381D03*D74*X008191Y009912D03*D95*X007321Y009946D03*D74*
X007766Y0103D03*D95*X007321Y010143D03*D78*X007801Y009867D03*D95*
X007321Y009749D03*D12*X002821Y010539D03*X00164D03*D54*
X015006Y013665D03*X013006D03*D42*X012279Y012993D03*D54*
X012006Y013665D03*D42*X01241Y013697D03*D54*X011006Y013665D03*D42*
X011452Y012804D03*D60*X00867Y012696D03*D65*X00922Y012354D03*D72*
X005687Y013488D03*D42*X005951Y013644D03*D72*X005431Y011697D03*
X005687D03*D111*X006199Y012465D03*Y012977D03*D81*X00672Y012977D03*D72*
X005431Y013488D03*D81*X007588Y013651D03*D72*X004919Y013488D03*D111*
X004407Y012977D03*Y012209D03*D81*X003703Y012411D03*D72*
X004919Y011697D03*D63*X010224Y010563D03*X010618D03*X010814D03*D42*
X01279Y010817D03*D65*X011425Y01137D03*X00922Y012158D03*
X011425Y011567D03*D74*X012Y011516D03*D65*X011425Y011173D03*D74*
X01243Y011787D03*X012881Y011787D03*D42*X013192Y011689D03*D98*
X013931Y012018D03*D73*X014401Y01208D03*D42*X014093Y01231D03*X013883D03*
D65*X011425Y011961D03*Y012158D03*D74*X01243Y012287D03*D42*
X012131Y012387D03*D63*X011011Y012768D03*D42*X014191Y013257D03*D63*
X010421Y012768D03*D42*X01043Y013224D03*D63*X00983Y012768D03*D42*
X00858Y013497D03*D63*X009633Y012768D03*D42*X009025Y013442D03*D65*
X00922Y01137D03*D95*X006081Y01034D03*D42*X00639Y010617D03*X00621D03*
D95*X006081Y009946D03*D74*X004958Y009476D03*D42*X004712Y009642D03*D73*
X014401Y009741D03*D94*X02484Y013371D03*D74*X02541Y013657D03*D70*
X024496Y013617D03*D42*X025127Y012704D03*D70*X024299Y013617D03*D42*
X0224Y013387D03*D94*X023954Y013174D03*D42*X021479Y01242D03*D70*
X024496Y012731D03*D69*X018339Y012869D03*D42*X018339Y01258D03*D77*
X01828Y013322D03*D69*X018536Y012869D03*D42*X018009Y0126D03*D77*
X018989Y013125D03*Y013322D03*D42*X01633Y013417D03*X015186Y013318D03*
X021772Y01189D03*X02307Y009627D03*D89*X024158Y009349D03*D42*
X025394Y009331D03*X006071Y013224D03*D81*X00643Y013467D03*D74*
X00757Y012417D03*D81*X008711Y011857D03*D65*X00922Y011764D03*D42*
X00855Y012226D03*D95*X006081Y010143D03*D112*X005516Y010261D03*D74*
X004958Y009976D03*X013331Y010647D03*X013891Y010307D03*D42*
X013626Y010588D03*X016836Y012392D03*D80*Y012912D03*D73*
X015169Y01208D03*D74*X013891Y010807D03*D42*X012343Y010658D03*
X005548Y011011D03*D81*X005327Y011206D03*D72*X005175Y011697D03*D42*
X006235Y011942D03*D111*X006199Y012209D03*D127*X005303Y012593D03*D72*
X005175Y013488D03*D42*X00459Y013397D03*X007548Y013361D03*D81*
X00722Y012977D03*D74*X00757Y012917D03*D54*X010006Y013665D03*D63*
X010224Y012768D03*D42*X010469Y013727D03*D63*X010814Y012768D03*D42*
X00792Y012076D03*D81*X008211Y011857D03*D65*X00922Y011567D03*D136*
X010322Y011665D03*D65*X011425Y011764D03*D74*X012Y012016D03*D42*
X013191Y012177D03*X013391D03*D65*X00922Y011961D03*D42*
X006728Y012681D03*D111*X006199Y012721D03*D42*X009531Y013567D03*D63*
X010027Y012768D03*D42*X02288Y013387D03*D74*X023222Y013354D03*D94*
X023954Y013371D03*X02484Y013174D03*D74*X02541Y013157D03*D94*
X02484Y012977D03*D42*X010731Y013237D03*D63*X010618Y012768D03*D42*
X009436Y010415D03*D63*X009633Y010563D03*D42*X011968Y010856D03*D74*
X013331Y011147D03*D73*X014913Y01208D03*D80*X016442Y012912D03*D77*
X01828Y013125D03*D42*X01695Y013547D03*X010706Y009258D03*D79*
X018946Y009732D03*D42*X022278Y01029D03*X019449Y009843D03*
X018807Y010354D03*X018798Y01102D03*D89*X023686Y009349D03*D42*
X0147Y012687D03*D73*X014657Y01208D03*D42*X014671Y011417D03*D98*
X013931Y011336D03*D42*X013566Y011419D03*X015501Y009917D03*D73*
X014913Y009741D03*X014657D03*X015169D03*D42*X004648Y011417D03*D85*
X003724Y011897D03*D42*X004444Y011421D03*X005188Y010921D03*
X00594Y011636D03*D81*X005827Y011206D03*D42*X005018Y010371D03*
X004328Y010381D03*D81*X003203Y012411D03*D74*X00282Y012206D03*D81*
X00337Y012996D03*D42*X01234Y011387D03*D65*X011425Y010976D03*D42*
X012383Y010958D03*D63*X011011Y010563D03*D42*X012788Y010236D03*D63*
X010421Y010563D03*D42*X01314Y012957D03*X01275Y013077D03*D97*
X0129Y012766D03*D125*X008437Y01145D03*D65*X00922Y011173D03*D125*
X008437Y010978D03*D42*X008971Y010737D03*D125*X008437Y010506D03*D65*
X00922Y010976D03*D42*X00202Y010142D03*X01443Y012927D03*D97*
X014199Y012766D03*D42*X013951Y012647D03*D74*X012881Y012287D03*D65*
X011425Y012354D03*D42*X01622Y011496D03*X0162Y012057D03*X01566D03*
X01563Y011487D03*X018451Y01143D03*X017799Y011397D03*Y012D03*X018429D03*
X017505Y010996D03*D96*X017389Y010428D03*Y010684D03*Y010172D03*D79*
X018552Y009732D03*D42*X018268Y010039D03*D122*X017015Y0103D03*D42*
X014851Y010757D03*X004069Y009512D03*X02298Y012567D03*X02209Y011557D03*
X02208Y012657D03*X0229Y011587D03*X01914Y012487D03*X01996Y012607D03*
X01906Y011647D03*X02002D03*D84*X020542Y010897D03*D81*X020799Y010394D03*
D42*X015383Y011178D03*X01591Y012847D03*X01612D03*D54*X014006Y013665D03*
D42*X004039Y009907D03*X02035Y012307D03*D84*X021034Y010897D03*D74*
X023222Y012854D03*D94*X023954Y012977D03*D70*X024299Y012731D03*D42*
X023358Y012573D03*X02014Y012277D03*X00403Y010327D03*X01498Y010607D03*
X01552Y009657D03*X00348Y010327D03*X00349Y010757D03*X00089Y009927D03*
Y010327D03*X000892Y01079D03*X000415Y010329D03*X000382Y009934D03*
X000376Y009504D03*X000393Y010764D03*D66*X00043Y010986D03*D119*
Y011813D03*Y012757D03*D66*Y013584D03*D110*X001394Y013496D03*Y011074D03*
D109*X001483Y011773D03*D42*X00192Y011386D03*X00652Y011327D03*
X006453Y011166D03*D95*X007321Y01034D03*D74*X006966Y011145D03*D42*
X007136Y010905D03*X006691Y010487D03*X00689D03*X006966Y010655D03*
X006741Y009452D03*X00981Y011146D03*X009391Y010727D03*X002479Y010144D03*
X01565Y010647D03*X0157Y010417D03*D96*X01605Y010172D03*Y010428D03*
Y010684D03*D42*X007336Y010855D03*D81*X00693Y018506D03*D42*
X00723Y018476D03*D81*X021299Y015433D03*D84*X021526Y015936D03*D42*
X021533Y01665D03*X000984Y017253D03*D109*X001483Y017324D03*D74*
X002053Y01733D03*X00282Y017746D03*X0195Y017986D03*D42*X01922D03*D69*
X01893Y017909D03*D81*X01349Y014536D03*D42*X0137Y014816D03*D81*
X01399Y014536D03*D42*X013937Y015D03*D96*X01605Y014955D03*D81*
X017259Y018689D03*D69*X018536Y018617D03*X018733D03*D42*
X01664Y018596D03*D81*X017759Y018689D03*D69*X018339Y018617D03*X01893D03*
D74*X0195Y018486D03*D69*X018733Y017909D03*D42*X01741Y017406D03*
X017221Y017416D03*D80*X017229Y017951D03*D81*X00287Y018036D03*D74*
X002443Y01755D03*D109*X001483Y01758D03*D42*X000984Y017765D03*D54*
X025394Y01624D03*X003839Y016142D03*D109*X001483Y017836D03*D42*
X00426Y018296D03*Y018476D03*D109*X001483Y017068D03*D11*
X021063Y018268D03*X024902Y014567D03*X023524Y015984D03*
X022475Y014765D03*D80*X017623Y017951D03*D42*X017919Y017939D03*D104*
X018135Y016757D03*X01593D03*D85*X003232Y016936D03*D42*X002672Y01628D03*
D129*X004728Y015834D03*X002228D03*D130*X019538Y017078D03*X02253D03*
D124*X018178Y015765D03*D126*X01932D03*D96*X017389Y014955D03*D74*
X002443Y01805D03*D111*X004407Y017504D03*D74*X007361Y016206D03*D42*
X007751Y016106D03*D74*X007766Y01584D03*D42*X00833Y015286D03*D74*
X006966Y016685D03*X007361Y016706D03*D42*X007621Y017146D03*D81*
X012488Y015115D03*D42*X012928Y015005D03*D81*X009708Y014971D03*D95*
X007321Y014592D03*D42*X009373Y01494D03*D81*X010208Y014971D03*D63*
X00983Y015602D03*D74*X002053Y01783D03*D111*X004407Y01776D03*D81*
X010518Y014925D03*D42*X00999Y014685D03*D74*X008191Y014451D03*D78*
X007801Y014496D03*D42*X006941Y014491D03*D95*X006081Y014592D03*
Y014788D03*D112*X005516Y014552D03*D42*X006541Y014491D03*D113*
X006701Y014985D03*D81*X011018Y014925D03*D63*X010027Y015602D03*D81*
X011988Y015115D03*X008088Y01869D03*D42*X007978Y01842D03*D74*
X008191Y014951D03*D95*X007321Y014985D03*D74*X007766Y01534D03*D95*
X007321Y015182D03*D78*X007801Y014906D03*D95*X007321Y014788D03*D12*
X002821Y015579D03*X00164D03*D54*X015006Y018705D03*X013006D03*D42*
X012279Y018032D03*D54*X012006Y018705D03*D42*X01241Y018736D03*D54*
X011006Y018705D03*D42*X011452Y017843D03*D60*X00867Y017735D03*D65*
X00922Y017394D03*D72*X005687Y018528D03*D42*X005951Y018683D03*D72*
X005431Y016736D03*X005687D03*D111*X006199Y017504D03*Y018016D03*D81*
X00672Y018016D03*D72*X005431Y018528D03*D81*X007588Y01869D03*D72*
X004919Y018528D03*D111*X004407Y018016D03*Y017248D03*D81*
X003703Y01745D03*D72*X004919Y016736D03*D63*X010224Y015602D03*
X010618D03*X010814D03*D42*X01279Y015856D03*D65*X011425Y01641D03*
X00922Y017197D03*X011425Y016606D03*D74*X012Y016555D03*D65*
X011425Y016213D03*D74*X01243Y016826D03*X012881Y016826D03*D42*
X013192Y016728D03*D98*X013931Y017057D03*D73*X014401Y017119D03*D42*
X014093Y017349D03*X013883D03*D65*X011425Y017D03*Y017197D03*D74*
X01243Y017326D03*D42*X012131Y017426D03*D63*X011011Y017807D03*D42*
X014191Y018296D03*D63*X010421Y017807D03*D42*X01043Y018263D03*D63*
X00983Y017807D03*D42*X00858Y018536D03*D63*X009633Y017807D03*D42*
X009025Y018481D03*D65*X00922Y01641D03*D95*X006081Y015379D03*D42*
X00639Y015656D03*X00621D03*D95*X006081Y014985D03*D74*X004958Y014515D03*
D42*X004712Y014681D03*D73*X014401Y014781D03*D94*X02484Y01841D03*D74*
X02541Y018696D03*D70*X024496Y018656D03*D42*X025127Y017744D03*D70*
X024299Y018656D03*D42*X0224Y018426D03*D94*X023954Y018213D03*D42*
X021479Y017459D03*D70*X024496Y01777D03*D69*X018339Y017909D03*D42*
X018339Y017619D03*D77*X01828Y018362D03*D69*X018536Y017909D03*D42*
X018009Y017639D03*D77*X018989Y018165D03*Y018362D03*D42*
X01633Y018456D03*X015186Y018357D03*X021772Y016929D03*X02307Y014666D03*
D89*X024158Y014388D03*D42*X025394Y01437D03*X006071Y018263D03*D81*
X00643Y018506D03*D74*X00757Y017456D03*D81*X008711Y016896D03*D65*
X00922Y016803D03*D42*X00855Y017265D03*D95*X006081Y015182D03*D112*
X005516Y0153D03*D74*X004958Y015015D03*X013331Y015686D03*
X013891Y015346D03*D42*X013626Y015627D03*X016836Y017431D03*D80*
Y017951D03*D73*X015169Y017119D03*D74*X013891Y015846D03*D42*
X012343Y015697D03*X005548Y016051D03*D81*X005327Y016245D03*D72*
X005175Y016736D03*D42*X006235Y016981D03*D111*X006199Y017248D03*D127*
X005303Y017632D03*D72*X005175Y018528D03*D42*X00459Y018436D03*
X007548Y0184D03*D81*X00722Y018016D03*D74*X00757Y017956D03*D54*
X010006Y018705D03*D63*X010224Y017807D03*D42*X010469Y018766D03*D63*
X010814Y017807D03*D42*X00792Y017115D03*D81*X008211Y016896D03*D65*
X00922Y016606D03*D136*X010322Y016705D03*D65*X011425Y016803D03*D74*
X012Y017055D03*D42*X013191Y017216D03*X013391D03*D65*X00922Y017D03*D42*
X006728Y01772D03*D111*X006199Y01776D03*D42*X009531Y018606D03*D63*
X010027Y017807D03*D42*X02288Y018426D03*D74*X023222Y018393D03*D94*
X023954Y01841D03*X02484Y018213D03*D74*X02541Y018196D03*D94*
X02484Y018016D03*D42*X010731Y018276D03*D63*X010618Y017807D03*D42*
X009436Y015454D03*D63*X009633Y015602D03*D42*X011968Y015895D03*D74*
X013331Y016186D03*D73*X014913Y017119D03*D80*X016442Y017951D03*D77*
X01828Y018165D03*D42*X01695Y018586D03*X010706Y014297D03*D79*
X018946Y014771D03*D42*X022278Y015329D03*X019449Y014882D03*
X018807Y015394D03*X018798Y01606D03*D89*X023686Y014388D03*D42*
X0147Y017726D03*D73*X014657Y017119D03*D42*X014671Y016456D03*D98*
X013931Y016376D03*D42*X013566Y016458D03*X015501Y014956D03*D73*
X014913Y014781D03*X014657D03*X015169D03*D42*X004648Y016456D03*D85*
X003724Y016936D03*D42*X004444Y01646D03*X005188Y015961D03*
X00594Y016675D03*D81*X005827Y016245D03*D42*X005018Y015411D03*
X004328Y015421D03*D81*X003203Y01745D03*D74*X00282Y017246D03*D81*
X00337Y018036D03*D42*X01234Y016426D03*D65*X011425Y016016D03*D42*
X012383Y015997D03*D63*X011011Y015602D03*D42*X012788Y015275D03*D63*
X010421Y015602D03*D42*X01314Y017996D03*X01275Y018116D03*D97*
X0129Y017805D03*D125*X008437Y01649D03*D65*X00922Y016213D03*D125*
X008437Y016017D03*D42*X008971Y015776D03*D125*X008437Y015545D03*D65*
X00922Y016016D03*D42*X00202Y015181D03*X01443Y017966D03*D97*
X014199Y017805D03*D42*X013951Y017686D03*D74*X012881Y017326D03*D65*
X011425Y017394D03*D42*X01622Y016535D03*X0162Y017096D03*X01566D03*
X01563Y016526D03*X018451Y016469D03*X017799Y016436D03*Y017039D03*
X018429D03*X017505Y016035D03*D96*X017389Y015467D03*Y015723D03*
Y015211D03*D79*X018552Y014771D03*D42*X018268Y015079D03*D122*
X017015Y015339D03*D42*X014851Y015796D03*X004069Y014551D03*
X02298Y017606D03*X02209Y016596D03*X02208Y017696D03*X0229Y016626D03*
X01914Y017526D03*X01996Y017646D03*X01906Y016686D03*X02002D03*D84*
X020542Y015936D03*D81*X020799Y015433D03*D42*X015383Y016217D03*
X01591Y017886D03*X01612D03*D54*X014006Y018705D03*D42*X004039Y014946D03*
X02035Y017346D03*D84*X021034Y015936D03*D74*X023222Y017893D03*D94*
X023954Y018016D03*D70*X024299Y01777D03*D42*X023358Y017612D03*
X02014Y017316D03*X00403Y015366D03*X01498Y015646D03*X01552Y014696D03*
X00348Y015366D03*X00349Y015796D03*X00089Y014966D03*Y015366D03*
X000892Y01583D03*X000415Y015369D03*X000382Y014973D03*X000376Y014543D03*
X000393Y015803D03*D66*X00043Y016025D03*D119*Y016852D03*Y017797D03*D66*
Y018624D03*D110*X001394Y018535D03*Y016114D03*D109*X001483Y016813D03*
D42*X00192Y016425D03*X00652Y016366D03*X006453Y016205D03*D95*
X007321Y015379D03*D74*X006966Y016185D03*D42*X007136Y015945D03*
X006691Y015526D03*X00689D03*X006966Y015695D03*X006741Y014491D03*
X00981Y016185D03*X009391Y015766D03*X002479Y015183D03*X01565Y015686D03*
X0157Y015456D03*D96*X01605Y015211D03*Y015467D03*Y015723D03*D42*
X007336Y015895D03*D15*X00693Y008428D02*X00723Y008398D01*
X021299Y005354D02*X021526Y005581D01*X021526Y005857D01*D42*
X021533Y006572D01*D15*X00282Y007667D02*Y007567D01*X0027Y007447D01*
X00257Y007197D01*X00227D01*X00224Y007227D01*X002216Y007251D01*
X002053D01*D20*X001483Y007246D01*D15*X001133Y007251D01*
X000984Y007174D01*D18*X0195Y007908D02*X01922D01*D19*X01909Y007888D01*
X019035Y007833D01*X01893Y00783D01*D15*X01349Y004458D02*Y004598D01*
X0137Y004738D01*X01399Y004458D02*Y004868D01*X013937Y004921D01*
X01422Y005177D01*X014221Y005478D01*X014551Y005928D01*X015151D01*
X015433Y005709D01*X01543Y005377D01*X01578Y004898D01*X01605Y004877D01*
X017259Y008611D02*X017153Y008727D01*X017229Y008401D01*X017929D01*
X01804Y008288D01*X01853D01*X018536Y008539D01*X01854Y008618D01*
X01873D01*X018733Y008539D01*X017153Y008727D02*X01715Y008738D01*
X01686D01*X01664Y008518D01*X017759Y008611D02*X018339Y008611D01*
X018339Y008539D01*D19*X018339Y008697D01*D15*X01838Y008738D01*X01889D01*
X01893Y008698D01*D19*X01893Y008539D01*X019206Y008542D01*
X01934Y008408D01*X0195D01*D16*X01972D01*Y00769D01*X0191D01*
X01891Y007538D01*X01874Y007528D01*X018733Y00783D01*D18*
X018733Y007354D01*X018579Y007201D01*D15*X017559D01*X01748Y007258D01*
X01741Y007328D01*D42*X017231D01*D15*X017221Y007338D01*
X017229Y007346D01*D34*Y007872D01*D15*X00287Y007957D02*X00273D01*
X00268Y007927D01*X0026Y007747D01*X002443Y00759D01*Y007471D01*D20*
X002383Y007501D01*X001483Y007501D01*D15*X001123Y007501D01*
X000984Y007686D01*D32*X001483Y007757D02*X001464Y007886D01*D47*
X001654D01*D36*X00226Y008618D01*D47*X00382D01*X004244Y008293D01*D32*
X00426Y008218D01*D15*X004244Y008293D02*X00426Y008309D01*Y008398D01*
X017623Y007872D02*Y007779D01*D34*X017919Y007861D01*D38*
X003232Y006858D02*X002672Y006201D01*D20*X002443Y007971D02*
X00244Y007987D01*X00264Y008168D01*X00356Y008168D01*X003853Y007641D01*
X004069Y007425D01*X004407D01*D15*X007361Y006128D02*X007711D01*
X007751Y006028D01*X007766Y006073D01*Y005761D01*X00797Y005687D01*
Y005197D01*X00821Y005297D01*X00833Y005207D01*X006966Y006606D02*
X007361Y006628D01*X007616Y006626D01*X007621Y007068D01*
X012488Y005037D02*X012618Y005027D01*X012928Y004927D01*
X009708Y004893D02*X009321D01*X008891D01*X008811Y004813D01*Y004753D01*
X008731Y004673D01*X008431D01*X008381Y004623D01*X007621D01*
X007521Y004513D01*X007321Y004513D01*X009321Y004893D02*
X009373Y004862D01*X010208Y004893D02*X010053Y004903D01*
X009913Y005043D01*Y005176D01*X00983Y005258D01*Y005524D01*D20*
X002053Y007751D02*Y007961D01*X00235Y008337D01*X00367D01*
X004083Y007681D01*X004407D01*D15*X010518Y004847D02*X010403Y004702D01*
X010158D01*X00999Y004607D01*D25*X00912D01*D15*X009093Y004634D01*D25*
X009Y004478D01*D15*X008991Y00447D01*D29*X008959Y004438D01*
X008191Y004373D01*D15*X008601Y004408D01*X008201Y004413D01*D25*
X007801Y004418D01*X007559Y004344D01*X007079D01*X006863Y00439D01*D15*
X006941Y004413D01*D29*X006863Y00439D02*X006831Y004418D01*
X00674Y004398D01*X006631Y004428D01*X006591Y004612D01*D15*
X006566Y004503D01*X006081Y004513D01*D21*X006551D01*X006761Y004723D01*
X006081Y00471D01*D15*X006586Y004723D01*X006511Y004513D01*
X005936Y004518D01*X005516Y004474D01*X005838Y004352D01*X006481D01*
X006541Y004413D01*X006591Y004612D02*X006575Y004907D01*X006701D01*
X011018Y004847D02*X011008Y004912D01*X011173Y004917D01*X010858D01*
X010673Y005037D01*X010418D01*X010293Y005157D01*X01009Y005158D01*
X01003Y005238D01*X010027Y005524D01*X011173Y004917D02*X011198D01*
X011378Y005037D01*X011988D01*X008088Y008612D02*Y008462D01*
X007978Y008342D01*X008191Y004873D02*Y004988D01*X008121Y005058D01*
X007651D01*X007528Y004907D01*X007321D01*X007766Y005261D02*
X007507Y005103D01*X007321D01*X007801Y004828D02*X007641Y004788D01*
X007531Y004708D01*X007321Y00471D01*D17*X013006Y008626D02*
X01228Y008318D01*X012279Y007954D01*X012006Y008626D02*X01241Y008658D01*
X011006Y008626D02*X011291Y008398D01*X011452Y007765D01*X00867Y007657D02*
X008885Y007313D01*X00922Y007315D01*D15*X005687Y008449D02*Y008605D01*
D29*X005951D01*D15*X006199Y007937D02*X00672Y007938D01*
X005431Y008449D02*Y008135D01*X005491Y008075D01*X005851D01*Y008395D01*
X006201D01*X006211Y008635D01*X007588D01*Y008612D01*D20*
X004407Y007169D02*X004085D01*X003883Y007371D01*X003703D01*D15*
X010814Y005524D02*X010818Y005238D01*X010958Y005157D01*X011088D01*
X011191Y005224D01*Y005404D01*X012451D01*X01279Y005778D01*D21*
X011425Y006528D02*X011879D01*X012Y006477D01*D15*X01193Y006407D01*D21*
Y006327D01*X011737Y006134D01*X011425D01*D25*X012Y006477D02*
X01211Y006478D01*X01223Y006638D01*X012232Y0067D01*X01228Y006748D01*
X01243Y006748D01*X012881Y006748D01*D15*X012939Y006739D01*D25*
X012881Y006748D01*D15*X013192Y00665D01*D25*X012881Y006748D02*
X013036Y006676D01*D42*X013553Y006683D01*X013722Y006888D01*D40*
X013931Y006978D01*D42*X014151Y006888D01*X014251Y006988D01*D25*
X014401Y007041D01*D15*X01434Y006988D01*D42*X014093Y007271D01*
X013883D01*D15*X011425Y007118D02*X011752D01*X01188Y007237D01*
X01243Y007248D01*X012131Y007248D01*Y007348D01*X011011Y007728D02*
X011127D01*X011317Y007539D01*X011653D01*X011798Y007684D01*X012357D01*
X012508Y007835D01*Y008144D01*X012637Y008273D01*X014136D01*
X014191Y008218D01*X010421Y007728D02*Y008166D01*X01043Y008185D01*
X00983Y007728D02*X009811Y007747D01*X009825Y008008D01*X009678Y008095D01*
X009591D01*X009281Y008408D01*X009175Y008613D01*X008935D01*
X008755Y008523D01*X00858Y008458D01*X009633Y007728D02*X009261Y007728D01*
X009Y007989D01*X009025Y008403D01*D23*X006081Y0053D02*X00633Y005518D01*
D15*X00639Y005578D01*X00621D01*X006081Y004907D02*X005856Y004893D01*
X005708Y004762D01*X005188D01*X005148Y004712D01*X005141Y004658D01*
Y004558D01*X005091Y004453D01*X005021Y00444D01*X004958Y004437D01*
X004712Y004603D01*X02484Y008331D02*Y008626D01*X024841Y008628D01*
Y008598D01*X025351D01*X025381Y008628D01*X02541Y008618D01*X024536D01*
X024496Y008577D01*X024534Y008618D01*X025411Y008611D01*Y008371D01*
X0256Y008327D01*Y007897D01*X025127Y007665D01*X024299Y008577D02*
X02312D01*X02306Y008638D01*X02259D01*X0224Y008348D01*X023954Y008134D02*
X021793D01*X021569Y007911D01*Y007561D01*X021479Y007381D01*D19*
X018339Y00783D02*X018339Y007572D01*D15*X018339Y007541D01*
X018536Y00783D02*X018536Y007634D01*X018549Y007621D01*Y007441D01*
X018429Y007321D01*X018249D01*X018009Y007561D01*X01633Y008378D02*
X01609Y008158D01*X015307D01*X015186Y008279D01*D21*X021772Y00685D02*
X021811Y006693D01*Y006102D01*X02277D01*X02307Y004588D01*
X024086Y00459D01*X024156Y00455D01*X024158Y00431D01*X024156Y00453D01*
X024606Y00491D01*X025246D01*X025394Y004764D01*Y004291D01*D15*
X006071Y008185D02*X006041D01*D29*X00643Y008188D01*D28*Y008428D01*
Y008188D02*X00642D01*X00691Y008177D01*X006973Y008091D01*X00697D01*D26*
Y007788D01*D28*X006973Y007571D01*X006966Y007398D01*D34*X00755D01*
X00757Y007378D01*X00769D01*X00813Y007268D01*X008472Y007198D01*
X00871Y006968D01*Y006909D01*D25*X008711Y006818D01*D21*
X008931Y006728D01*X00922Y006724D01*D15*X008472Y007198D02*
X008483Y007187D01*X00855D01*D14*X006966Y007398D02*X006731Y007153D01*
X006581Y006653D01*X006341Y006593D01*X006161Y006383D01*
X006111Y005973D01*X005951Y005723D01*X005561Y005453D01*D15*
X005571Y005123D01*X006081Y005103D01*D22*X00581Y005098D01*D15*
X005647Y005243D01*X005512Y005356D01*X005516Y005222D01*
X005228Y004972D01*X004958Y004937D01*X004448Y004912D01*
X004398Y004262D01*X004519Y004161D01*X010149D01*X010544Y004582D01*
X01261Y004601D01*X013073Y004649D01*X013358Y005022D01*X013328Y005632D01*
X013331Y005611D01*D25*Y005608D01*Y005611D02*Y005613D01*
X013651Y005598D01*X013622Y005354D01*D17*X013621Y005268D01*X013891D01*
D25*X013651Y005598D02*X013626Y005549D01*D15*X016836Y007352D02*
Y007872D01*X016835Y007861D01*Y007458D01*X01529D01*X015174Y007435D01*
X015169Y007041D01*X015151Y006118D01*X015081Y006048D01*X014461D01*
X014251Y005778D01*X013891Y005768D01*X013741Y005778D01*
X013591Y005868D01*X01313Y005898D01*X01307Y005988D01*X01259Y005998D01*
X012593Y005869D01*X012573Y005809D01*X012503Y005729D01*
X012343Y005619D01*D17*X005548Y005972D02*X005463Y006027D01*
X00546Y006107D01*X005327Y006167D01*X00525Y006358D01*X005175Y006658D01*
D27*X006235Y006903D02*Y007133D01*D15*X006199Y007169D01*D27*X00579D01*
X005737Y007222D01*X005634D01*D15*X005303Y007553D01*X005175Y007685D01*
Y007681D01*D27*Y008449D01*D15*Y007685D02*X00465Y008208D01*
X00459Y008358D01*X007548Y008322D02*X00722Y008108D01*Y007938D01*
X00736D01*X00742Y007878D01*X00757D01*X00778D01*X00786Y008118D01*
X008328Y008162D01*Y008582D01*X00849Y008668D01*X00873D01*
X008935Y008733D01*X009385D01*X009681Y008738D01*X009967Y008676D01*
X010006Y008626D01*X009967Y008676D02*X009986Y008591D01*D17*
X01022Y008008D01*X010224Y007728D01*D15*X010469Y008688D02*
X010638Y008499D01*X011009Y008274D01*X010982Y008147D01*
X010931Y008071D01*X010841Y007998D01*X010814Y007728D01*X00792Y007037D02*
X008083Y006939D01*X0082Y006778D01*X008211Y006818D01*X00835Y006768D01*
D17*X008531Y006618D01*X008781D01*X008961Y006528D01*D35*X00922D01*
X010224D01*D15*X010317Y006621D01*X010322Y006626D01*X010421Y006724D01*
D34*X011425D01*X011818D01*D23*X012Y006977D01*D15*X012021Y006998D01*
X013071D01*X013091Y007078D01*X013191Y007138D01*X013301Y007058D01*
X013121Y006988D01*X013081D01*X013291D01*X013391Y007138D01*
X010317Y006621D02*X010016Y006921D01*D17*X00922D01*D15*
X006728Y007642D02*X006729Y007681D01*X006199D01*X009531Y008528D02*
X01002Y008028D01*X010027Y007728D01*X02288Y008348D02*X023043Y008318D01*
X023222Y008315D01*X023609Y008312D01*X023645Y008331D01*X023954D01*
X024148D01*X024271Y008208D01*X024391D01*X024464Y008134D01*X02484D01*
X02486Y008127D01*X02505Y008137D01*X02541Y008118D01*X02484Y008134D02*
Y007938D01*X010731Y008198D02*X010621Y007988D01*X010618Y007728D01*
X009436Y005376D02*X009628Y005384D01*X00963Y00552D01*X009633Y005524D01*
X011968Y005817D02*X012232Y006137D01*X013331Y006108D01*X013471D01*
X013651Y005988D01*X014221D01*X014371Y006168D01*X014851D01*
X014911Y006228D01*X014913Y007041D01*X014925Y007431D01*
X015151Y007588D01*X016442D01*Y007872D01*X016479Y008221D01*
X016689Y008281D01*X016819D01*X017002Y008395D01*X01701Y008398D01*
X017049Y008281D01*X017779D01*X017821Y008263D01*X017839Y008221D01*
Y008091D01*X018147Y008094D01*X01828Y008086D01*X017002Y008395D02*
X01695Y008448D01*Y008508D01*D39*X010706Y004219D02*X01077Y00419D01*
X018962D01*Y00437D01*X01896Y004678D01*D15*X018946Y004692D01*
X01896Y004678D02*X018945Y004693D01*X019016Y004764D01*Y004803D01*D44*
X019449D01*X021589Y004955D01*X022278Y005251D01*D15*X019449Y004803D02*
X018945Y004693D02*X01894Y004698D01*Y005218D01*X01887Y005288D01*
X018807Y005315D01*X018798Y005981D01*D39*X018962Y00419D02*X023216D01*
D21*X023376D01*X023406Y00432D01*X023686Y00431D01*D15*X0147Y007648D02*
X014662Y007467D01*X014657Y007041D01*D29*X014671Y006378D02*
X013931Y006297D01*D24*X013566Y00638D01*D38*X015501Y004878D02*
X015472Y004646D01*X015199Y004649D01*D15*X014913Y004702D01*X014657D01*
X015199Y004649D02*X015228Y004678D01*X015169Y004702D01*
X004648Y006378D02*X004223Y006377D01*X003724Y006858D01*D38*
X004444Y006382D01*D15*X005188Y005882D01*X00519Y005865D01*D24*
X005438Y005732D01*X005698D01*X00579Y005852D01*Y005957D01*
X00588Y006037D01*Y006587D01*X00594Y006597D01*D15*X00585D01*Y006307D01*
X005827Y006167D01*X005188Y005882D02*X005018Y005332D01*
X004328Y005342D01*X003724Y006858D02*X003667Y007048D01*X00355Y007143D01*
X003409Y007371D01*X00321Y007371D01*X003203Y007371D01*X003064D01*
X00286Y007167D01*X00282D01*X00321Y007371D02*Y007577D01*
X00337Y007737D01*Y007957D01*X01234Y006348D02*X01208Y006227D01*
X011731Y005938D01*X011425Y005937D01*X012383Y005919D02*
X012258Y005852D01*X012015Y005523D01*X011011Y005524D01*
X012788Y005197D02*X012511Y005284D01*X011311D01*Y005164D01*
X011128Y005037D01*X010913D01*X010713Y005157D01*X010478D01*
X010421Y005214D01*Y005524D01*X01314Y007918D02*X0129Y007727D01*
X012911D01*X01275Y007888D01*Y008038D01*X012911Y007727D02*X012949D01*
X0129D01*X008437Y006411D02*X008718Y00637D01*X008954Y006134D01*
X00922D01*X008437Y005939D02*X00883Y005898D01*X00886Y005868D01*
Y005778D01*X008971Y005698D01*X008437Y005466D02*X008801Y005488D01*
X009091D01*X009181Y005598D01*Y005928D01*X00922Y005937D01*
X01443Y007888D02*X01433D01*X014168Y007725D01*X014199Y007727D01*
X01403Y007558D01*X013951Y007608D01*X014168Y007725D02*X01371Y007708D01*
X01356Y007408D01*X013498Y007354D01*X013078D01*X01298Y007248D01*
X012881D01*X01272D01*X01253Y007558D01*X012D01*X01183Y007398D01*
X011667Y007315D01*X011425D01*X01622Y006457D02*X01621Y006548D01*D39*
Y006908D01*D15*X0162Y007018D01*X01566D01*D39*Y006478D01*D15*
X01563Y006448D01*X018451Y006391D02*X017799Y006358D01*D39*Y006961D01*
D15*X018429D01*D40*X017505Y005957D02*X017691Y005388D01*X017389D01*
Y005644D01*D15*Y005388D02*Y005132D01*D40*X017876D01*X017861Y005298D01*
D36*X018557Y005137D01*D40*X018552Y004692D01*D36*X018548Y005115D01*
X018442Y005245D01*X01848Y005478D01*X018393Y005382D01*X018268Y005D01*
D40*X017389Y005132D02*X017015Y00526D01*D15*X02298Y007528D02*X02293D01*
X022102Y006699D01*X02209Y006518D01*X02208Y007618D01*X022102Y006699D02*
X02229Y006538D01*X0229Y006548D01*X01914Y007448D02*X01996Y007568D01*
X01906Y006608D01*X02002D01*X01937Y007188D01*X0194Y007248D01*
X01958Y007128D01*X01993Y006648D01*X02054Y006468D01*X020542Y005857D01*
X020542Y005612D01*X020799Y005354D01*X01937Y007188D02*X01931Y007218D01*
X01906Y006608D01*X018699Y006328D01*X018579Y006148D01*X017649D01*
X01747Y006217D01*X016303Y006139D01*X015383D01*X01591Y007808D02*
X01612D01*D44*X015031Y007838D01*X014591Y008278D01*X014451Y008573D01*
X014006Y008626D01*D42*X02035Y007268D02*X02017D01*D15*X02014Y007238D01*
Y007228D01*D36*X02027Y007098D01*X02102Y006588D01*X021034Y005857D01*
X02027Y007098D02*X02099Y006588D01*X021299Y00689D01*X021772Y007205D01*
X0218Y007758D01*X02189Y007908D01*X02288D01*D15*X02297Y007878D01*
X02309Y007814D01*X023222Y007815D01*X023359Y007807D01*X023447Y007733D01*
X023851Y007728D01*X023926Y007803D01*X023954Y007831D01*Y007938D01*
X023926Y007803D02*X024037Y007692D01*X024299D01*X023447Y007733D02*
X023358Y007534D01*X02014Y007228D02*Y007238D01*X00089Y004888D02*
Y005288D01*X000892Y005751D01*X00089Y005288D02*X000415Y00529D01*
X000382Y004894D01*X000376Y004465D01*X000415Y00529D02*X000393Y005724D01*
X00043Y005946D01*D55*Y006773D01*D59*Y007718D01*D51*Y008545D01*
X000983Y008541D01*X001068Y008536D01*X001394Y008456D01*D55*
X00043Y005946D02*X000913Y005941D01*D15*X001003Y006081D01*D55*
X001037Y006115D01*X001346D01*X001394Y006035D01*D27*X001483Y006734D01*
D15*X00652Y006288D02*X00643Y006188D01*X006453Y006127D01*
X006473Y006122D01*D32*X00692Y005898D01*X00714D01*X007178Y005854D01*
X007306Y005836D01*D23*X007321Y0053D01*D15*X007306Y005836D02*
X006966Y006106D01*X007178Y005854D02*X007136Y005866D01*X01565Y005608D02*
Y005438D01*X0157Y005378D01*D36*X01605Y005383D01*Y005132D01*Y005388D01*
Y005644D01*D23*X001304Y006205D02*X001421Y006743D01*X001516Y006182D02*
X001551Y006767D01*X004565Y006181D02*X003835Y006928D01*X00383Y007031D02*
X00476Y006109D01*D18*X004937Y007189D02*X004239Y00646D01*
X00494Y007908D02*X00456Y008288D01*X00466Y008208D02*X00465Y008338D01*
D31*X00678Y005268D02*Y005478D01*X006481Y005328D02*X00663Y005418D01*
X00687Y005548D02*X00692Y005588D01*X00621Y005578D02*X00599Y005328D01*
D21*X00615Y004708D02*X00649Y004718D01*X00614Y004508D02*X00651D01*
X00635Y004688D02*Y004538D01*D15*X008901Y005298D02*X007971D01*
X009391Y005688D02*X009308Y005552D01*X009148Y005368D01*X008901D01*
Y005298D01*X007946Y006086D02*X007751Y006088D01*X00776Y006597D01*
X007971Y006598D01*Y005298D01*Y005938D02*X008301D01*X008561Y006598D02*
X007971D01*X006521Y004468D02*X006931D01*D25*X01314Y006997D02*X01206D01*
D17*X00828Y006727D02*X008411Y006618D01*X00792Y007037D02*
X00819Y006787D01*X00798Y007087D02*X00825Y006817D01*X00804Y006997D02*
X008093Y006909D01*X008083Y006959D01*D48*X018151Y005658D02*X017341D01*
Y005478D01*D39*X019091Y005688D02*X019101Y004208D01*X015691Y005628D02*
X016001D01*D17*X009381Y005658D02*Y005778D01*X009481D01*D15*
X009591Y006438D02*Y005888D01*D17*X00652Y006278D02*X006816Y006346D01*
X007106Y006356D01*X007118Y005852D01*X0065Y006198D02*X007016Y005956D01*
X007086Y005936D02*Y006196D01*D27*X00699Y007628D02*X00788D01*D31*
X00774D02*X0079D01*X00813Y007308D01*X00856Y007168D01*X00803Y007288D02*
X00866Y007008D01*D39*X01759Y005628D02*X01761Y004678D01*
X01747Y004588D02*X01746Y005288D01*D15*X01931Y007428D02*
X01929Y007168D01*D25*X01383Y007198D02*Y006928D01*D40*X01565Y005588D02*
X0157Y005378D01*X01568Y005388D01*D17*X01894Y005848D02*X01893Y005458D01*
X01789Y006908D02*X01787Y006378D01*X02214Y007568D02*X02212Y006728D01*
D29*X017691Y005268D02*X017751Y005298D01*D21*X01902Y005228D02*
X01892Y005298D01*D42*X018801Y005986D02*X019578Y006007D01*
X018851Y005981D02*X018846Y005338D01*D39*X005948Y006622D02*
X006058Y006802D01*X006238Y006922D01*D21*X006538Y004352D02*
X005728Y004362D01*X01899Y004817D02*Y005367D01*D43*X01485Y005718D02*
X01521Y005368D01*D36*X01549Y004978D01*X015512Y004882D01*D30*
X00867Y007887D02*X00855Y007988D01*X00803Y007948D01*X00802Y007898D01*
X00831Y007508D01*X00844Y007448D01*X00849Y007507D01*X0088Y007628D02*
X00836Y007598D01*D15*X008523Y006599D02*X008803D01*X008823Y006589D02*
X008333D01*X007766Y005716D02*X007946Y005696D01*X00797Y005197D02*
X00921D01*Y005427D01*X0092Y005247D02*X00799Y005237D01*X0089Y005287D02*
X00918D01*X00919Y005347D02*X00894Y005337D01*X00776Y005957D02*X00797D01*
Y006017D02*X00783Y006007D01*X00782Y006037D02*X00794Y006047D01*
X00793Y006057D02*Y006587D01*X00791Y006597D02*Y006077D01*
X00779Y006067D02*X0078Y006567D01*X00783Y006587D02*Y006107D01*
X00787Y006087D02*Y006557D01*D34*X00788Y007037D02*Y006557D01*D30*
X00857Y007858D02*X00813Y007828D01*X00869Y007738D02*X00825Y007708D01*
D25*X020365Y007261D02*Y007064D01*X02043Y007268D02*X02046Y006968D01*
X02085Y006698D02*X02109D01*D15*X00693Y013467D02*X00723Y013437D01*
X021299Y010394D02*X021526Y010621D01*X021526Y010897D01*D42*
X021533Y011611D01*D15*X00282Y012706D02*Y012606D01*X0027Y012486D01*
X00257Y012236D01*X00227D01*X00224Y012266D01*X002216Y012291D01*
X002053D01*D20*X001483Y012285D01*D15*X001133Y012291D01*
X000984Y012214D01*D18*X0195Y012947D02*X01922D01*D19*X01909Y012927D01*
X019035Y012872D01*X01893Y012869D01*D15*X01349Y009497D02*Y009637D01*
X0137Y009777D01*X01399Y009497D02*Y009908D01*X013937Y009961D01*
X01422Y010216D01*X014221Y010517D01*X014551Y010967D01*X015151D01*
X015433Y010748D01*X01543Y010416D01*X01578Y009937D01*X01605Y009916D01*
X017259Y01365D02*X017153Y013766D01*X017229Y01344D01*X017929D01*
X01804Y013327D01*X01853D01*X018536Y013578D01*X01854Y013657D01*
X01873D01*X018733Y013578D01*X017153Y013766D02*X01715Y013777D01*
X01686D01*X01664Y013557D01*X017759Y01365D02*X018339Y01365D01*
X018339Y013578D01*D19*X018339Y013736D01*D15*X01838Y013777D01*X01889D01*
X01893Y013737D01*D19*X01893Y013578D01*X019206Y013581D01*
X01934Y013447D01*X0195D01*D16*X01972D01*Y012729D01*X0191D01*
X01891Y012577D01*X01874Y012567D01*X018733Y012869D01*D18*
X018733Y012394D01*X018579Y01224D01*D15*X017559D01*X01748Y012297D01*
X01741Y012367D01*D42*X017231D01*D15*X017221Y012377D01*
X017229Y012385D01*D34*Y012912D01*D15*X00287Y012996D02*X00273D01*
X00268Y012966D01*X0026Y012786D01*X002443Y012629D01*Y012511D01*D20*
X002383Y012541D01*X001483Y012541D01*D15*X001123Y012541D01*
X000984Y012726D01*D32*X001483Y012797D02*X001464Y012925D01*D47*
X001654D01*D36*X00226Y013657D01*D47*X00382D01*X004244Y013333D01*D32*
X00426Y013257D01*D15*X004244Y013333D02*X00426Y013348D01*Y013437D01*
X017623Y012912D02*Y012819D01*D34*X017919Y0129D01*D38*X003232Y011897D02*
X002672Y011241D01*D20*X002443Y013011D02*X00244Y013026D01*
X00264Y013207D01*X00356Y013207D01*X003853Y012681D01*X004069Y012465D01*
X004407D01*D15*X007361Y011167D02*X007711D01*X007751Y011067D01*
X007766Y011112D01*Y0108D01*X00797Y010726D01*Y010236D01*
X00821Y010336D01*X00833Y010246D01*X006966Y011645D02*X007361Y011667D01*
X007616Y011665D01*X007621Y012107D01*X012488Y010076D02*
X012618Y010066D01*X012928Y009966D01*X009708Y009932D02*X009321D01*
X008891D01*X008811Y009852D01*Y009792D01*X008731Y009712D01*X008431D01*
X008381Y009662D01*X007621D01*X007521Y009552D01*X007321Y009552D01*
X009321Y009932D02*X009373Y009901D01*X010208Y009932D02*
X010053Y009942D01*X009913Y010082D01*Y010215D01*X00983Y010298D01*
Y010563D01*D20*X002053Y012791D02*Y013001D01*X00235Y013376D01*X00367D01*
X004083Y012721D01*X004407D01*D15*X010518Y009886D02*X010403Y009741D01*
X010158D01*X00999Y009646D01*D25*X00912D01*D15*X009093Y009673D01*D25*
X009Y009518D01*D15*X008991Y009509D01*D29*X008959Y009477D01*
X008191Y009412D01*D15*X008601Y009447D01*X008201Y009452D01*D25*
X007801Y009457D01*X007559Y009383D01*X007079D01*X006863Y009429D01*D15*
X006941Y009452D01*D29*X006863Y009429D02*X006831Y009457D01*
X00674Y009437D01*X006631Y009467D01*X006591Y009652D01*D15*
X006566Y009542D01*X006081Y009552D01*D21*X006551D01*X006761Y009762D01*
X006081Y009749D01*D15*X006586Y009762D01*X006511Y009552D01*
X005936Y009557D01*X005516Y009513D01*X005838Y009391D01*X006481D01*
X006541Y009452D01*X006591Y009652D02*X006575Y009946D01*X006701D01*
X011018Y009886D02*X011008Y009951D01*X011173Y009956D01*X010858D01*
X010673Y010076D01*X010418D01*X010293Y010196D01*X01009Y010197D01*
X01003Y010277D01*X010027Y010563D01*X011173Y009956D02*X011198D01*
X011378Y010076D01*X011988D01*X008088Y013651D02*Y013501D01*
X007978Y013381D01*X008191Y009912D02*Y010027D01*X008121Y010097D01*
X007651D01*X007528Y009946D01*X007321D01*X007766Y0103D02*
X007507Y010143D01*X007321D01*X007801Y009867D02*X007641Y009827D01*
X007531Y009747D01*X007321Y009749D01*D17*X013006Y013665D02*
X01228Y013357D01*X012279Y012993D01*X012006Y013665D02*X01241Y013697D01*
X011006Y013665D02*X011291Y013437D01*X011452Y012804D01*X00867Y012696D02*
X008885Y012352D01*X00922Y012354D01*D15*X005687Y013488D02*Y013644D01*
D29*X005951D01*D15*X006199Y012977D02*X00672Y012977D01*
X005431Y013488D02*Y013174D01*X005491Y013114D01*X005851D01*Y013434D01*
X006201D01*X006211Y013674D01*X007588D01*Y013651D01*D20*
X004407Y012209D02*X004085D01*X003883Y012411D01*X003703D01*D15*
X010814Y010563D02*X010818Y010277D01*X010958Y010196D01*X011088D01*
X011191Y010263D01*Y010443D01*X012451D01*X01279Y010817D01*D21*
X011425Y011567D02*X011879D01*X012Y011516D01*D15*X01193Y011446D01*D21*
Y011366D01*X011737Y011173D01*X011425D01*D25*X012Y011516D02*
X01211Y011517D01*X01223Y011677D01*X012232Y011739D01*X01228Y011787D01*
X01243Y011787D01*X012881Y011787D01*D15*X012939Y011778D01*D25*
X012881Y011787D01*D15*X013192Y011689D01*D25*X012881Y011787D02*
X013036Y011715D01*D42*X013553Y011722D01*X013722Y011927D01*D40*
X013931Y012018D01*D42*X014151Y011927D01*X014251Y012027D01*D25*
X014401Y01208D01*D15*X01434Y012027D01*D42*X014093Y01231D01*X013883D01*
D15*X011425Y012158D02*X011752D01*X01188Y012276D01*X01243Y012287D01*
X012131Y012287D01*Y012387D01*X011011Y012768D02*X011127D01*
X011317Y012578D01*X011653D01*X011798Y012723D01*X012357D01*
X012508Y012874D01*Y013183D01*X012637Y013312D01*X014136D01*
X014191Y013257D01*X010421Y012768D02*Y013205D01*X01043Y013224D01*
X00983Y012768D02*X009811Y012787D01*X009825Y013047D01*X009678Y013134D01*
X009591D01*X009281Y013447D01*X009175Y013652D01*X008935D01*
X008755Y013562D01*X00858Y013497D01*X009633Y012768D02*X009261Y012767D01*
X009Y013028D01*X009025Y013442D01*D23*X006081Y01034D02*X00633Y010557D01*
D15*X00639Y010617D01*X00621D01*X006081Y009946D02*X005856Y009932D01*
X005708Y009801D01*X005188D01*X005148Y009751D01*X005141Y009697D01*
Y009597D01*X005091Y009492D01*X005021Y00948D01*X004958Y009476D01*
X004712Y009642D01*X02484Y013371D02*Y013666D01*X024841Y013667D01*
Y013637D01*X025351D01*X025381Y013667D01*X02541Y013657D01*X024536D01*
X024496Y013617D01*X024534Y013657D01*X025411Y01365D01*Y01341D01*
X0256Y013366D01*Y012936D01*X025127Y012704D01*X024299Y013617D02*
X02312D01*X02306Y013677D01*X02259D01*X0224Y013387D01*X023954Y013174D02*
X021793D01*X021569Y01295D01*Y0126D01*X021479Y01242D01*D19*
X018339Y012869D02*X018339Y012611D01*D15*X018339Y01258D01*
X018536Y012869D02*X018536Y012673D01*X018549Y01266D01*Y01248D01*
X018429Y01236D01*X018249D01*X018009Y0126D01*X01633Y013417D02*
X01609Y013197D01*X015307D01*X015186Y013318D01*D21*X021772Y01189D02*
X021811Y011732D01*Y011142D01*X02277D01*X02307Y009627D01*
X024086Y009629D01*X024156Y009589D01*X024158Y009349D01*
X024156Y009569D01*X024606Y009949D01*X025246D01*X025394Y009803D01*
Y009331D01*D15*X006071Y013224D02*X006041D01*D29*X00643Y013227D01*D28*
Y013467D01*Y013227D02*X00642D01*X00691Y013216D01*X006973Y013131D01*
X00697D01*D26*Y012827D01*D28*X006973Y012611D01*X006966Y012437D01*D34*
X00755D01*X00757Y012417D01*X00769D01*X00813Y012307D01*
X008472Y012237D01*X00871Y012007D01*Y011948D01*D25*X008711Y011857D01*
D21*X008931Y011767D01*X00922Y011764D01*D15*X008472Y012237D02*
X008483Y012226D01*X00855D01*D14*X006966Y012437D02*X006731Y012192D01*
X006581Y011692D01*X006341Y011632D01*X006161Y011422D01*
X006111Y011012D01*X005951Y010762D01*X005561Y010492D01*D15*
X005571Y010162D01*X006081Y010143D01*D22*X00581Y010137D01*D15*
X005647Y010283D01*X005512Y010396D01*X005516Y010261D01*
X005228Y010011D01*X004958Y009976D01*X004448Y009951D01*
X004398Y009301D01*X004519Y0092D01*X010149D01*X010544Y009621D01*
X01261Y00964D01*X013073Y009688D01*X013358Y010061D01*X013328Y010671D01*
X013331Y01065D01*D25*Y010647D01*Y01065D02*Y010652D01*X013651Y010637D01*
X013622Y010394D01*D17*X013621Y010307D01*X013891D01*D25*
X013651Y010637D02*X013626Y010588D01*D15*X016836Y012392D02*Y012912D01*
X016835Y0129D01*Y012497D01*X01529D01*X015174Y012474D01*
X015169Y01208D01*X015151Y011157D01*X015081Y011087D01*X014461D01*
X014251Y010817D01*X013891Y010807D01*X013741Y010817D01*
X013591Y010907D01*X01313Y010937D01*X01307Y011027D01*X01259Y011037D01*
X012593Y010908D01*X012573Y010848D01*X012503Y010768D01*
X012343Y010658D01*D17*X005548Y011011D02*X005463Y011066D01*
X00546Y011146D01*X005327Y011206D01*X00525Y011397D01*X005175Y011697D01*
D27*X006235Y011942D02*Y012173D01*D15*X006199Y012209D01*D27*X00579D01*
X005737Y012261D01*X005634D01*D15*X005303Y012593D01*X005175Y012724D01*
Y012721D01*D27*Y013488D01*D15*Y012724D02*X00465Y013247D01*
X00459Y013397D01*X007548Y013361D02*X00722Y013147D01*Y012977D01*
X00736D01*X00742Y012917D01*X00757D01*X00778D01*X00786Y013157D01*
X008328Y013201D01*Y013621D01*X00849Y013707D01*X00873D01*
X008935Y013772D01*X009385D01*X009681Y013777D01*X009967Y013715D01*
X010006Y013665D01*X009967Y013715D02*X009986Y01363D01*D17*
X01022Y013047D01*X010224Y012768D01*D15*X010469Y013727D02*
X010638Y013538D01*X011009Y013313D01*X010982Y013186D01*X010931Y01311D01*
X010841Y013037D01*X010814Y012768D01*X00792Y012076D02*X008083Y011978D01*
X0082Y011817D01*X008211Y011857D01*X00835Y011807D01*D17*
X008531Y011657D01*X008781D01*X008961Y011567D01*D35*X00922D01*
X010224D01*D15*X010317Y01166D01*X010322Y011665D01*X010421Y011764D01*
D34*X011425D01*X011818D01*D23*X012Y012016D01*D15*X012021Y012037D01*
X013071D01*X013091Y012117D01*X013191Y012177D01*X013301Y012097D01*
X013121Y012027D01*X013081D01*X013291D01*X013391Y012177D01*
X010317Y01166D02*X010016Y011961D01*D17*X00922D01*D15*X006728Y012681D02*
X006729Y012721D01*X006199D01*X009531Y013567D02*X01002Y013067D01*
X010027Y012768D01*X02288Y013387D02*X023043Y013357D01*X023222Y013354D01*
X023609Y013351D01*X023645Y013371D01*X023954D01*X024148D01*
X024271Y013247D01*X024391D01*X024464Y013174D01*X02484D01*
X02486Y013166D01*X02505Y013176D01*X02541Y013157D01*X02484Y013174D02*
Y012977D01*X010731Y013237D02*X010621Y013027D01*X010618Y012768D01*
X009436Y010415D02*X009628Y010423D01*X00963Y01056D01*X009633Y010563D01*
X011968Y010856D02*X012232Y011176D01*X013331Y011147D01*X013471D01*
X013651Y011027D01*X014221D01*X014371Y011207D01*X014851D01*
X014911Y011267D01*X014913Y01208D01*X014925Y01247D01*X015151Y012627D01*
X016442D01*Y012912D01*X016479Y01326D01*X016689Y01332D01*X016819D01*
X017002Y013435D01*X01701Y013437D01*X017049Y01332D01*X017779D01*
X017821Y013302D01*X017839Y01326D01*Y01313D01*X018147Y013133D01*
X01828Y013125D01*X017002Y013435D02*X01695Y013487D01*Y013547D01*D39*
X010706Y009258D02*X01077Y009229D01*X018962D01*Y009409D01*
X01896Y009718D01*D15*X018946Y009732D01*X01896Y009718D02*
X018945Y009733D01*X019016Y009803D01*Y009843D01*D44*X019449D01*
X021589Y009995D01*X022278Y01029D01*D15*X019449Y009843D02*
X018945Y009733D02*X01894Y009738D01*Y010257D01*X01887Y010327D01*
X018807Y010354D01*X018798Y01102D01*D39*X018962Y009229D02*X023216D01*
D21*X023376D01*X023406Y009359D01*X023686Y009349D01*D15*X0147Y012687D02*
X014662Y012506D01*X014657Y01208D01*D29*X014671Y011417D02*
X013931Y011336D01*D24*X013566Y011419D01*D38*X015501Y009917D02*
X015472Y009685D01*X015199Y009688D01*D15*X014913Y009741D01*X014657D01*
X015199Y009688D02*X015228Y009717D01*X015169Y009741D01*
X004648Y011417D02*X004223Y011416D01*X003724Y011897D01*D38*
X004444Y011421D01*D15*X005188Y010921D01*X00519Y010904D01*D24*
X005438Y010771D01*X005698D01*X00579Y010891D01*Y010996D01*
X00588Y011076D01*Y011626D01*X00594Y011636D01*D15*X00585D01*Y011346D01*
X005827Y011206D01*X005188Y010921D02*X005018Y010371D01*
X004328Y010381D01*X003724Y011897D02*X003667Y012088D01*X00355Y012182D01*
X003409Y012411D01*X00321Y012411D01*X003203Y012411D01*X003064D01*
X00286Y012206D01*X00282D01*X00321Y012411D02*Y012616D01*
X00337Y012776D01*Y012996D01*X01234Y011387D02*X01208Y011266D01*
X011731Y010977D01*X011425Y010976D01*X012383Y010958D02*
X012258Y010891D01*X012015Y010562D01*X011011Y010563D01*
X012788Y010236D02*X012511Y010323D01*X011311D01*Y010203D01*
X011128Y010076D01*X010913D01*X010713Y010196D01*X010478D01*
X010421Y010254D01*Y010563D01*X01314Y012957D02*X0129Y012766D01*
X012911D01*X01275Y012927D01*Y013077D01*X012911Y012766D02*X012949D01*
X0129D01*X008437Y01145D02*X008718Y011409D01*X008954Y011173D01*
X00922D01*X008437Y010978D02*X00883Y010937D01*X00886Y010907D01*
Y010817D01*X008971Y010737D01*X008437Y010506D02*X008801Y010527D01*
X009091D01*X009181Y010637D01*Y010967D01*X00922Y010976D01*
X01443Y012927D02*X01433D01*X014168Y012765D01*X014199Y012766D01*
X01403Y012597D01*X013951Y012647D01*X014168Y012765D02*X01371Y012747D01*
X01356Y012447D01*X013498Y012393D01*X013078D01*X01298Y012287D01*
X012881D01*X01272D01*X01253Y012597D01*X012D01*X01183Y012437D01*
X011667Y012354D01*X011425D01*X01622Y011496D02*X01621Y011587D01*D39*
Y011947D01*D15*X0162Y012057D01*X01566D01*D39*Y011517D01*D15*
X01563Y011487D01*X018451Y01143D02*X017799Y011397D01*D39*Y012D01*D15*
X018429D01*D40*X017505Y010996D02*X017691Y010428D01*X017389D01*
Y010684D01*D15*Y010428D02*Y010172D01*D40*X017876D01*X017861Y010337D01*
D36*X018557Y010176D01*D40*X018552Y009732D01*D36*X018548Y010154D01*
X018442Y010284D01*X01848Y010517D01*X018393Y010421D01*X018268Y010039D01*
D40*X017389Y010172D02*X017015Y0103D01*D15*X02298Y012567D02*X02293D01*
X022102Y011739D01*X02209Y011557D01*X02208Y012657D01*X022102Y011739D02*
X02229Y011577D01*X0229Y011587D01*X01914Y012487D02*X01996Y012607D01*
X01906Y011647D01*X02002D01*X01937Y012227D01*X0194Y012287D01*
X01958Y012167D01*X01993Y011687D01*X02054Y011507D01*X020542Y010897D01*
X020542Y010651D01*X020799Y010394D01*X01937Y012227D02*X01931Y012257D01*
X01906Y011647D01*X018699Y011367D01*X018579Y011187D01*X017649D01*
X01747Y011256D01*X016303Y011178D01*X015383D01*X01591Y012847D02*
X01612D01*D44*X015031Y012877D01*X014591Y013317D01*X014451Y013612D01*
X014006Y013665D01*D42*X02035Y012307D02*X02017D01*D15*X02014Y012277D01*
Y012267D01*D36*X02027Y012137D01*X02102Y011627D01*X021034Y010897D01*
X02027Y012137D02*X02099Y011627D01*X021299Y011929D01*X021772Y012244D01*
X0218Y012797D01*X02189Y012947D01*X02288D01*D15*X02297Y012917D01*
X02309Y012853D01*X023222Y012854D01*X023359Y012846D01*X023447Y012772D01*
X023851Y012767D01*X023926Y012842D01*X023954Y01287D01*Y012977D01*
X023926Y012842D02*X024037Y012731D01*X024299D01*X023447Y012772D02*
X023358Y012573D01*X02014Y012267D02*Y012277D01*X00089Y009927D02*
Y010327D01*X000892Y01079D01*X00089Y010327D02*X000415Y010329D01*
X000382Y009934D01*X000376Y009504D01*X000415Y010329D02*
X000393Y010764D01*X00043Y010986D01*D55*Y011813D01*D59*Y012757D01*D51*
Y013584D01*X000983Y013581D01*X001068Y013576D01*X001394Y013496D01*D55*
X00043Y010986D02*X000913Y010981D01*D15*X001003Y011121D01*D55*
X001037Y011154D01*X001346D01*X001394Y011074D01*D27*X001483Y011773D01*
D15*X00652Y011327D02*X00643Y011227D01*X006453Y011166D01*
X006473Y011161D01*D32*X00692Y010937D01*X00714D01*X007178Y010893D01*
X007306Y010875D01*D23*X007321Y01034D01*D15*X007306Y010875D02*
X006966Y011145D01*X007178Y010893D02*X007136Y010905D01*X01565Y010647D02*
Y010477D01*X0157Y010417D01*D36*X01605Y010422D01*Y010172D01*Y010428D01*
Y010684D01*D23*X001304Y011244D02*X001421Y011782D01*X001516Y011222D02*
X001551Y011806D01*X004565Y011221D02*X003835Y011967D01*X00383Y01207D02*
X00476Y011148D01*D18*X004937Y012228D02*X004239Y011499D01*
X00494Y012947D02*X00456Y013327D01*X00466Y013247D02*X00465Y013377D01*
D31*X00678Y010307D02*Y010517D01*X006481Y010367D02*X00663Y010457D01*
X00687Y010587D02*X00692Y010627D01*X00621Y010617D02*X00599Y010367D01*
D21*X00615Y009747D02*X00649Y009757D01*X00614Y009547D02*X00651D01*
X00635Y009727D02*Y009577D01*D15*X008901Y010337D02*X007971D01*
X009391Y010727D02*X009308Y010591D01*X009148Y010407D01*X008901D01*
Y010337D01*X007946Y011125D02*X007751Y011127D01*X00776Y011636D01*
X007971Y011637D01*Y010337D01*Y010977D02*X008301D01*X008561Y011637D02*
X007971D01*X006521Y009507D02*X006931D01*D25*X01314Y012036D02*X01206D01*
D17*X00828Y011766D02*X008411Y011657D01*X00792Y012076D02*
X00819Y011826D01*X00798Y012126D02*X00825Y011856D01*X00804Y012036D02*
X008093Y011948D01*X008083Y011998D01*D48*X018151Y010697D02*X017341D01*
Y010517D01*D39*X019091Y010727D02*X019101Y009247D01*X015691Y010667D02*
X016001D01*D17*X009381Y010697D02*Y010817D01*X009481D01*D15*
X009591Y011477D02*Y010927D01*D17*X00652Y011317D02*X006816Y011385D01*
X007106Y011395D01*X007118Y010891D01*X0065Y011237D02*X007016Y010995D01*
X007086Y010975D02*Y011235D01*D27*X00699Y012667D02*X00788D01*D31*
X00774D02*X0079D01*X00813Y012347D01*X00856Y012207D01*X00803Y012327D02*
X00866Y012047D01*D39*X01759Y010667D02*X01761Y009717D01*
X01747Y009627D02*X01746Y010327D01*D15*X01931Y012467D02*
X01929Y012207D01*D25*X01383Y012237D02*Y011967D01*D40*X01565Y010627D02*
X0157Y010417D01*X01568Y010427D01*D17*X01894Y010887D02*X01893Y010497D01*
X01789Y011947D02*X01787Y011417D01*X02214Y012607D02*X02212Y011767D01*
D29*X017691Y010307D02*X017751Y010337D01*D21*X01902Y010267D02*
X01892Y010337D01*D42*X018801Y011025D02*X019578Y011046D01*
X018851Y01102D02*X018846Y010377D01*D39*X005948Y011661D02*
X006058Y011841D01*X006238Y011961D01*D21*X006538Y009391D02*
X005728Y009401D01*X01899Y009856D02*Y010406D01*D43*X01485Y010757D02*
X01521Y010407D01*D36*X01549Y010017D01*X015512Y009921D01*D30*
X00867Y012926D02*X00855Y013027D01*X00803Y012987D01*X00802Y012937D01*
X00831Y012547D01*X00844Y012487D01*X00849Y012546D01*X0088Y012667D02*
X00836Y012637D01*D15*X008523Y011638D02*X008803D01*X008823Y011628D02*
X008333D01*X007766Y010755D02*X007946Y010735D01*X00797Y010236D02*
X00921D01*Y010466D01*X0092Y010286D02*X00799Y010276D01*X0089Y010326D02*
X00918D01*X00919Y010386D02*X00894Y010376D01*X00776Y010996D02*X00797D01*
Y011056D02*X00783Y011046D01*X00782Y011076D02*X00794Y011086D01*
X00793Y011096D02*Y011626D01*X00791Y011636D02*Y011116D01*
X00779Y011106D02*X0078Y011606D01*X00783Y011626D02*Y011146D01*
X00787Y011126D02*Y011596D01*D34*X00788Y012076D02*Y011596D01*D30*
X00857Y012897D02*X00813Y012867D01*X00869Y012777D02*X00825Y012747D01*
D25*X020365Y012301D02*Y012104D01*X02043Y012307D02*X02046Y012007D01*
X02085Y011737D02*X02109D01*D15*X00693Y018506D02*X00723Y018476D01*
X021299Y015433D02*X021526Y01566D01*X021526Y015936D01*D42*
X021533Y01665D01*D15*X001133Y01733D02*X000984Y017253D01*
X001483Y017324D02*X001133Y01733D01*D20*X002053D02*X001483Y017324D01*
D15*X002216Y01733D02*X002053D01*X00227Y017276D02*X002216Y01733D01*
X00257Y017276D02*X00227D01*X0027Y017526D02*X00257Y017276D01*
X00282Y017646D02*X0027Y017526D01*X00282Y017746D02*Y017646D01*D18*
X0195Y017986D02*X01922D01*D19*X01909Y017966D01*X019035Y017912D01*
X01893Y017909D01*D15*X01349Y014536D02*Y014676D01*X0137Y014816D01*
X01399Y014536D02*Y014947D01*X013937Y015D01*X01422Y015255D01*
X014221Y015556D01*X014551Y016006D01*X015151D01*X015433Y015787D01*
X01543Y015455D01*X01578Y014976D01*X01605Y014955D01*X017259Y018689D02*
X017153Y018806D01*X017229Y018479D01*X017929D01*X01804Y018366D01*
X01853D01*X018536Y018617D01*X01854Y018696D01*X01873D01*
X018733Y018617D01*X017153Y018806D02*X01715Y018816D01*X01686D01*
X01664Y018596D01*X017759Y018689D02*X018339Y018689D01*X018339Y018617D01*
D19*X018339Y018775D01*D15*X01838Y018816D01*X01889D01*X01893Y018777D01*
D19*X01893Y018617D01*X019206Y01862D01*X01934Y018486D01*X0195D01*D16*
X01972D01*Y017768D01*X0191D01*X01891Y017616D01*X01874Y017606D01*
X018733Y017909D01*D18*X018733Y017433D01*X018579Y017279D01*D15*
X017559D01*X01748Y017336D01*X01741Y017406D01*D42*X017231D01*D15*
X017221Y017416D01*X017229Y017424D01*D34*Y017951D01*D15*
X00287Y018036D02*X00273D01*X00268Y018006D01*X0026Y017826D01*
X002443Y017669D01*Y01755D01*D20*X002383Y01758D01*X001483Y01758D01*D15*
X001123Y01758D01*X000984Y017765D01*D32*X001483Y017836D02*
X001464Y017964D01*D47*X001654D01*D36*X00226Y018696D01*D47*X00382D01*
X004244Y018372D01*D32*X00426Y018296D01*D15*X004244Y018372D02*
X00426Y018388D01*Y018476D01*X017623Y017951D02*Y017858D01*D34*
X017919Y017939D01*D38*X003232Y016936D02*X002672Y01628D01*D20*
X002443Y01805D02*X00244Y018066D01*X00264Y018246D01*X00356Y018246D01*
X003853Y01772D01*X004069Y017504D01*X004407D01*D15*X007361Y016206D02*
X007711D01*X007751Y016106D01*X007766Y016151D01*Y01584D01*
X00797Y015766D01*Y015276D01*X00821Y015376D01*X00833Y015286D01*
X006966Y016685D02*X007361Y016706D01*X007616Y016705D01*
X007621Y017146D01*X012488Y015115D02*X012618Y015105D01*
X012928Y015005D01*X009708Y014971D02*X009321D01*X008891D01*
X008811Y014891D01*Y014831D01*X008731Y014751D01*X008431D01*
X008381Y014701D01*X007621D01*X007521Y014591D01*X007321Y014592D01*
X009321Y014971D02*X009373Y01494D01*X010208Y014971D02*X010053Y014981D01*
X009913Y015121D01*Y015254D01*X00983Y015337D01*Y015602D01*D20*
X002053Y01783D02*Y01804D01*X00235Y018416D01*X00367D01*X004083Y01776D01*
X004407D01*D15*X010518Y014925D02*X010403Y01478D01*X010158D01*
X00999Y014685D01*D25*X00912D01*D15*X009093Y014712D01*D25*
X009Y014557D01*D15*X008991Y014548D01*D29*X008959Y014516D01*
X008191Y014451D01*D15*X008601Y014486D01*X008201Y014491D01*D25*
X007801Y014496D01*X007559Y014422D01*X007079D01*X006863Y014468D01*D15*
X006941Y014491D01*D29*X006863Y014468D02*X006831Y014496D01*
X00674Y014476D01*X006631Y014506D01*X006591Y014691D01*D15*
X006566Y014581D01*X006081Y014592D01*D21*X006551D01*X006761Y014801D01*
X006081Y014788D01*D15*X006586Y014801D01*X006511Y014591D01*
X005936Y014596D01*X005516Y014552D01*X005838Y014431D01*X006481D01*
X006541Y014491D01*X006591Y014691D02*X006575Y014985D01*X006701D01*
X011018Y014925D02*X011008Y01499D01*X011173Y014995D01*X010858D01*
X010673Y015115D01*X010418D01*X010293Y015235D01*X01009Y015236D01*
X01003Y015316D01*X010027Y015602D01*X011173Y014995D02*X011198D01*
X011378Y015115D01*X011988D01*X008088Y01869D02*Y01854D01*
X007978Y01842D01*X008191Y014951D02*Y015066D01*X008121Y015136D01*
X007651D01*X007528Y014985D01*X007321D01*X007766Y01534D02*
X007507Y015182D01*X007321D01*X007801Y014906D02*X007641Y014866D01*
X007531Y014786D01*X007321Y014788D01*D17*X013006Y018705D02*
X01228Y018396D01*X012279Y018032D01*X012006Y018705D02*X01241Y018736D01*
X011006Y018705D02*X011291Y018476D01*X011452Y017843D01*X00867Y017735D02*
X008885Y017391D01*X00922Y017394D01*D15*X005687Y018528D02*Y018683D01*
D29*X005951D01*D15*X006199Y018016D02*X00672Y018016D01*
X005431Y018528D02*Y018214D01*X005491Y018153D01*X005851D01*Y018473D01*
X006201D01*X006211Y018713D01*X007588D01*Y01869D01*D20*
X004407Y017248D02*X004085D01*X003883Y01745D01*X003703D01*D15*
X010814Y015602D02*X010818Y015316D01*X010958Y015235D01*X011088D01*
X011191Y015302D01*Y015482D01*X012451D01*X01279Y015856D01*D21*
X011425Y016606D02*X011879D01*X012Y016555D01*D15*X01193Y016485D01*D21*
Y016405D01*X011737Y016213D01*X011425D01*D25*X012Y016555D02*
X01211Y016556D01*X01223Y016716D01*X012232Y016778D01*X01228Y016826D01*
X01243Y016826D01*X012881Y016826D01*D15*X012939Y016817D01*D25*
X012881Y016826D01*D15*X013192Y016728D01*D25*X012881Y016826D02*
X013036Y016754D01*D42*X013553Y016761D01*X013722Y016966D01*D40*
X013931Y017057D01*D42*X014151Y016966D01*X014251Y017066D01*D25*
X014401Y017119D01*D15*X01434Y017066D01*D42*X014093Y017349D01*
X013883D01*D15*X011425Y017197D02*X011752D01*X01188Y017315D01*
X01243Y017326D01*X012131Y017326D01*Y017426D01*X011011Y017807D02*
X011127D01*X011317Y017617D01*X011653D01*X011798Y017762D01*X012357D01*
X012508Y017913D01*Y018222D01*X012637Y018351D01*X014136D01*
X014191Y018296D01*X010421Y017807D02*Y018244D01*X01043Y018263D01*
X00983Y017807D02*X009811Y017826D01*X009825Y018086D01*X009678Y018173D01*
X009591D01*X009281Y018486D01*X009175Y018691D01*X008935D01*
X008755Y018601D01*X00858Y018536D01*X009633Y017807D02*X009261Y017806D01*
X009Y018068D01*X009025Y018481D01*D23*X006081Y015379D02*
X00633Y015596D01*D15*X00639Y015656D01*X00621D01*X006081Y014985D02*
X005856Y014971D01*X005708Y014841D01*X005188D01*X005148Y014791D01*
X005141Y014736D01*Y014636D01*X005091Y014531D01*X005021Y014519D01*
X004958Y014515D01*X004712Y014681D01*X02484Y01841D02*Y018705D01*
X024841Y018706D01*Y018676D01*X025351D01*X025381Y018706D01*
X02541Y018696D01*X024536D01*X024496Y018656D01*X024534Y018696D01*
X025411Y018689D01*Y018449D01*X0256Y018406D01*Y017976D01*
X025127Y017744D01*X024299Y018656D02*X02312D01*X02306Y018716D01*
X02259D01*X0224Y018426D01*X023954Y018213D02*X021793D01*
X021569Y017989D01*Y017639D01*X021479Y017459D01*D19*X018339Y017909D02*
X018339Y01765D01*D15*X018339Y017619D01*X018536Y017909D02*
X018536Y017712D01*X018549Y017699D01*Y017519D01*X018429Y017399D01*
X018249D01*X018009Y017639D01*X01633Y018456D02*X01609Y018236D01*
X015307D01*X015186Y018357D01*D21*X021772Y016929D02*X021811Y016772D01*
Y016181D01*X02277D01*X02307Y014666D01*X024086Y014668D01*
X024156Y014628D01*X024158Y014388D01*X024156Y014608D01*
X024606Y014988D01*X025246D01*X025394Y014843D01*Y01437D01*D15*
X006071Y018263D02*X006041D01*D29*X00643Y018266D01*D28*Y018506D01*
Y018266D02*X00642D01*X00691Y018255D01*X006973Y01817D01*X00697D01*D26*
Y017866D01*D28*X006973Y01765D01*X006966Y017476D01*D34*X00755D01*
X00757Y017456D01*X00769D01*X00813Y017346D01*X008472Y017276D01*
X00871Y017046D01*Y016988D01*D25*X008711Y016896D01*D21*
X008931Y016806D01*X00922Y016803D01*D15*X008472Y017276D02*
X008483Y017265D01*X00855D01*D14*X006966Y017476D02*X006731Y017231D01*
X006581Y016731D01*X006341Y016671D01*X006161Y016461D01*
X006111Y016051D01*X005951Y015801D01*X005561Y015531D01*D15*
X005571Y015201D01*X006081Y015182D01*D22*X00581Y015176D01*D15*
X005647Y015322D01*X005512Y015435D01*X005516Y0153D01*X005228Y01505D01*
X004958Y015015D01*X004448Y01499D01*X004398Y01434D01*X004519Y014239D01*
X010149D01*X010544Y01466D01*X01261Y014679D01*X013073Y014727D01*
X013358Y0151D01*X013328Y01571D01*X013331Y01569D01*D25*Y015686D01*
Y01569D02*Y015691D01*X013651Y015676D01*X013622Y015433D01*D17*
X013621Y015346D01*X013891D01*D25*X013651Y015676D02*X013626Y015627D01*
D15*X016836Y017431D02*Y017951D01*X016835Y017939D01*Y017536D01*
X01529D01*X015174Y017513D01*X015169Y017119D01*X015151Y016196D01*
X015081Y016126D01*X014461D01*X014251Y015856D01*X013891Y015846D01*
X013741Y015856D01*X013591Y015946D01*X01313Y015976D01*X01307Y016066D01*
X01259Y016076D01*X012593Y015947D01*X012573Y015887D01*X012503Y015807D01*
X012343Y015697D01*D17*X005548Y016051D02*X005463Y016105D01*
X00546Y016185D01*X005327Y016245D01*X00525Y016436D01*X005175Y016736D01*
D27*X006235Y016981D02*Y017212D01*D15*X006199Y017248D01*D27*X00579D01*
X005737Y017301D01*X005634D01*D15*X005303Y017632D01*X005175Y017764D01*
Y01776D01*D27*Y018528D01*D15*Y017764D02*X00465Y018286D01*
X00459Y018436D01*X007548Y0184D02*X00722Y018186D01*Y018016D01*X00736D01*
X00742Y017956D01*X00757D01*X00778D01*X00786Y018196D01*X008328Y01824D01*
Y01866D01*X00849Y018746D01*X00873D01*X008935Y018811D01*X009385D01*
X009681Y018816D01*X009967Y018755D01*X010006Y018705D01*
X009967Y018755D02*X009986Y01867D01*D17*X01022Y018086D01*
X010224Y017807D01*D15*X010469Y018766D02*X010638Y018578D01*
X011009Y018353D01*X010982Y018226D01*X010931Y018149D01*
X010841Y018076D01*X010814Y017807D01*X00792Y017115D02*X008083Y017017D01*
X0082Y016856D01*X008211Y016896D01*X00835Y016846D01*D17*
X008531Y016696D01*X008781D01*X008961Y016606D01*D35*X00922D01*
X010224D01*D15*X010317Y016699D01*X010322Y016705D01*X010421Y016803D01*
D34*X011425D01*X011818D01*D23*X012Y017055D01*D15*X012021Y017076D01*
X013071D01*X013091Y017156D01*X013191Y017216D01*X013301Y017136D01*
X013121Y017066D01*X013081D01*X013291D01*X013391Y017216D01*
X010317Y016699D02*X010016Y017D01*D17*X00922D01*D15*X006728Y01772D02*
X006729Y01776D01*X006199D01*X009531Y018606D02*X01002Y018106D01*
X010027Y017807D01*X02288Y018426D02*X023043Y018396D01*X023222Y018393D01*
X023609Y01839D01*X023645Y01841D01*X023954D01*X024148D01*
X024271Y018286D01*X024391D01*X024464Y018213D01*X02484D01*
X02486Y018205D01*X02505Y018215D01*X02541Y018196D01*X02484Y018213D02*
Y018016D01*X010731Y018276D02*X010621Y018066D01*X010618Y017807D01*
X009436Y015454D02*X009628Y015462D01*X00963Y015599D01*X009633Y015602D01*
X011968Y015895D02*X012232Y016215D01*X013331Y016186D01*X013471D01*
X013651Y016066D01*X014221D01*X014371Y016246D01*X014851D01*
X014911Y016306D01*X014913Y017119D01*X014925Y017509D01*
X015151Y017666D01*X016442D01*Y017951D01*X016479Y018299D01*
X016689Y018359D01*X016819D01*X017002Y018474D01*X01701Y018476D01*
X017049Y018359D01*X017779D01*X017821Y018342D01*X017839Y018299D01*
Y018169D01*X018147Y018173D01*X01828Y018165D01*X017002Y018474D02*
X01695Y018526D01*Y018586D01*D39*X010706Y014297D02*X01077Y014268D01*
X018962D01*Y014449D01*X01896Y014757D01*D15*X018946Y014771D01*
X01896Y014757D02*X018945Y014772D01*X019016Y014843D01*Y014882D01*D44*
X019449D01*X021589Y015034D01*X022278Y015329D01*D15*X019449Y014882D02*
X018945Y014772D02*X01894Y014777D01*Y015296D01*X01887Y015366D01*
X018807Y015394D01*X018798Y01606D01*D39*X018962Y014268D02*X023216D01*
D21*X023376D01*X023406Y014398D01*X023686Y014388D01*D15*X0147Y017726D02*
X014662Y017545D01*X014657Y017119D01*D29*X014671Y016456D02*
X013931Y016376D01*D24*X013566Y016458D01*D38*X015501Y014956D02*
X015472Y014724D01*X015199Y014728D01*D15*X014913Y014781D01*X014657D01*
X015199Y014728D02*X015228Y014756D01*X015169Y014781D01*
X004648Y016456D02*X004223Y016455D01*X003724Y016936D01*D38*
X004444Y01646D01*D15*X005188Y015961D01*X00519Y015944D01*D24*
X005438Y015811D01*X005698D01*X00579Y01593D01*Y016035D01*
X00588Y016115D01*Y016665D01*X00594Y016675D01*D15*X00585D01*Y016385D01*
X005827Y016245D01*X005188Y015961D02*X005018Y015411D01*
X004328Y015421D01*X003724Y016936D02*X003667Y017127D01*X00355Y017222D01*
X003409Y01745D01*X00321Y01745D01*X003203Y01745D01*X003064D01*
X00286Y017246D01*X00282D01*X00321Y01745D02*Y017656D01*X00337Y017816D01*
Y018036D01*X01234Y016426D02*X01208Y016305D01*X011731Y016016D01*
X011425Y016016D01*X012383Y015997D02*X012258Y01593D01*X012015Y015601D01*
X011011Y015602D01*X012788Y015275D02*X012511Y015362D01*X011311D01*
Y015242D01*X011128Y015115D01*X010913D01*X010713Y015235D01*X010478D01*
X010421Y015293D01*Y015602D01*X01314Y017996D02*X0129Y017805D01*
X012911D01*X01275Y017966D01*Y018116D01*X012911Y017805D02*X012949D01*
X0129D01*X008437Y01649D02*X008718Y016449D01*X008954Y016213D01*
X00922D01*X008437Y016017D02*X00883Y015976D01*X00886Y015946D01*
Y015856D01*X008971Y015776D01*X008437Y015545D02*X008801Y015566D01*
X009091D01*X009181Y015676D01*Y016006D01*X00922Y016016D01*
X01443Y017966D02*X01433D01*X014168Y017804D01*X014199Y017805D01*
X01403Y017636D01*X013951Y017686D01*X014168Y017804D02*X01371Y017786D01*
X01356Y017486D01*X013498Y017432D01*X013078D01*X01298Y017326D01*
X012881D01*X01272D01*X01253Y017636D01*X012D01*X01183Y017476D01*
X011667Y017394D01*X011425D01*X01622Y016535D02*X01621Y016626D01*D39*
Y016986D01*D15*X0162Y017096D01*X01566D01*D39*Y016556D01*D15*
X01563Y016526D01*X018451Y016469D02*X017799Y016436D01*D39*Y017039D01*
D15*X018429D01*D40*X017505Y016035D02*X017691Y015467D01*X017389D01*
Y015723D01*D15*Y015467D02*Y015211D01*D40*X017876D01*X017861Y015376D01*
D36*X018557Y015216D01*D40*X018552Y014771D01*D36*X018548Y015194D01*
X018442Y015324D01*X01848Y015556D01*X018393Y015461D01*X018268Y015079D01*
D40*X017389Y015211D02*X017015Y015339D01*D15*X02298Y017606D02*X02293D01*
X022102Y016778D01*X02209Y016596D01*X02208Y017696D01*X022102Y016778D02*
X02229Y016616D01*X0229Y016626D01*X01914Y017526D02*X01996Y017646D01*
X01906Y016686D01*X02002D01*X01937Y017266D01*X0194Y017326D01*
X01958Y017206D01*X01993Y016726D01*X02054Y016546D01*X020542Y015936D01*
X020542Y01569D01*X020799Y015433D01*X01937Y017266D02*X01931Y017296D01*
X01906Y016686D01*X018699Y016406D01*X018579Y016226D01*X017649D01*
X01747Y016295D01*X016303Y016217D01*X015383D01*X01591Y017886D02*
X01612D01*D44*X015031Y017916D01*X014591Y018356D01*X014451Y018651D01*
X014006Y018705D01*D42*X02035Y017346D02*X02017D01*D15*X02014Y017316D01*
Y017306D01*D36*X02027Y017176D01*X02102Y016666D01*X021034Y015936D01*
X02027Y017176D02*X02099Y016666D01*X021299Y016969D01*X021772Y017283D01*
X0218Y017836D01*X02189Y017986D01*X02288D01*D15*X02297Y017956D01*
X02309Y017892D01*X023222Y017893D01*X023359Y017885D01*X023447Y017811D01*
X023851Y017806D01*X023926Y017881D01*X023954Y017909D01*Y018016D01*
X023926Y017881D02*X024037Y01777D01*X024299D01*X023447Y017811D02*
X023358Y017612D01*X02014Y017306D02*Y017316D01*X00089Y014966D02*
Y015366D01*X000892Y01583D01*X00089Y015366D02*X000415Y015369D01*
X000382Y014973D01*X000376Y014543D01*X000415Y015369D02*
X000393Y015803D01*X00043Y016025D01*D55*Y016852D01*D59*Y017797D01*D51*
Y018624D01*X000983Y01862D01*X001068Y018615D01*X001394Y018535D01*D55*
X00043Y016025D02*X000913Y01602D01*D15*X001003Y01616D01*D55*
X001037Y016194D01*X001346D01*X001394Y016114D01*D27*X001483Y016813D01*
D15*X00652Y016366D02*X00643Y016266D01*X006453Y016205D01*
X006473Y0162D01*D32*X00692Y015976D01*X00714D01*X007178Y015932D01*
X007306Y015915D01*D23*X007321Y015379D01*D15*X007306Y015915D02*
X006966Y016185D01*X007178Y015932D02*X007136Y015945D01*X01565Y015686D02*
Y015516D01*X0157Y015456D01*D36*X01605Y015461D01*Y015211D01*Y015467D01*
Y015723D01*D23*X001304Y016284D02*X001421Y016822D01*X001516Y016261D02*
X001551Y016845D01*X004565Y01626D02*X003835Y017007D01*X00383Y017109D02*
X00476Y016188D01*D18*X004937Y017267D02*X004239Y016539D01*
X00494Y017986D02*X00456Y018366D01*X00466Y018286D02*X00465Y018416D01*
D31*X00678Y015346D02*Y015556D01*X006481Y015406D02*X00663Y015496D01*
X00687Y015626D02*X00692Y015666D01*X00621Y015656D02*X00599Y015406D01*
D21*X00615Y014786D02*X00649Y014796D01*X00614Y014586D02*X00651D01*
X00635Y014766D02*Y014616D01*D15*X008901Y015376D02*X007971D01*
X009391Y015766D02*X009308Y01563D01*X009148Y015446D01*X008901D01*
Y015376D01*X007946Y016165D02*X007751Y016166D01*X00776Y016676D01*
X007971Y016676D01*Y015376D01*Y016016D02*X008301D01*X008561Y016676D02*
X007971D01*X006521Y014546D02*X006931D01*D25*X01314Y017075D02*X01206D01*
D17*X00828Y016805D02*X008411Y016696D01*X00792Y017115D02*
X00819Y016865D01*X00798Y017165D02*X00825Y016895D01*X00804Y017075D02*
X008093Y016987D01*X008083Y017037D01*D48*X018151Y015736D02*X017341D01*
Y015556D01*D39*X019091Y015766D02*X019101Y014286D01*X015691Y015706D02*
X016001D01*D17*X009381Y015736D02*Y015856D01*X009481D01*D15*
X009591Y016516D02*Y015966D01*D17*X00652Y016356D02*X006816Y016425D01*
X007106Y016435D01*X007118Y01593D01*X0065Y016276D02*X007016Y016035D01*
X007086Y016015D02*Y016275D01*D27*X00699Y017706D02*X00788D01*D31*
X00774D02*X0079D01*X00813Y017386D01*X00856Y017246D01*X00803Y017366D02*
X00866Y017086D01*D39*X01759Y015706D02*X01761Y014756D01*
X01747Y014666D02*X01746Y015366D01*D15*X01931Y017506D02*
X01929Y017246D01*D25*X01383Y017276D02*Y017006D01*D40*X01565Y015666D02*
X0157Y015456D01*X01568Y015466D01*D17*X01894Y015926D02*X01893Y015536D01*
X01789Y016986D02*X01787Y016456D01*X02214Y017646D02*X02212Y016806D01*
D29*X017691Y015346D02*X017751Y015376D01*D21*X01902Y015306D02*
X01892Y015376D01*D42*X018801Y016065D02*X019578Y016086D01*
X018851Y01606D02*X018846Y015417D01*D39*X005948Y0167D02*
X006058Y01688D01*X006238Y017D01*D21*X006538Y014431D02*X005728Y01444D01*
X01899Y014896D02*Y015446D01*D43*X01485Y015796D02*X01521Y015446D01*D36*
X01549Y015056D01*X015512Y014961D01*D30*X00867Y017966D02*
X00855Y018066D01*X00803Y018026D01*X00802Y017976D01*X00831Y017586D01*
X00844Y017526D01*X00849Y017586D01*X0088Y017706D02*X00836Y017676D01*D15*
X008523Y016677D02*X008803D01*X008823Y016667D02*X008333D01*
X007766Y015795D02*X007946Y015775D01*X00797Y015276D02*X00921D01*
Y015506D01*X0092Y015326D02*X00799Y015316D01*X0089Y015366D02*X00918D01*
X00919Y015426D02*X00894Y015416D01*X00776Y016036D02*X00797D01*
Y016096D02*X00783Y016086D01*X00782Y016116D02*X00794Y016126D01*
X00793Y016136D02*Y016666D01*X00791Y016676D02*Y016156D01*
X00779Y016146D02*X0078Y016646D01*X00783Y016666D02*Y016186D01*
X00787Y016166D02*Y016636D01*D34*X00788Y017116D02*Y016636D01*D30*
X00857Y017936D02*X00813Y017906D01*X00869Y017816D02*X00825Y017786D01*
D25*X020365Y01734D02*Y017143D01*X02043Y017346D02*X02046Y017046D01*
X02085Y016776D02*X02109D01*
M02*