%FSTAX24Y24*%
%MOIN*%
%IN MASK2.GBR *%
%ADD10C,0.0040*%
%ADD11C,0.0060*%
%ADD12C,0.0079*%
%ADD13C,0.0080*%
%ADD14C,0.0090*%
%ADD15C,0.0099*%
%ADD16C,0.0140*%
%ADD17C,0.0160*%
%ADD18C,0.0240*%
%ADD19C,0.0300*%
%ADD20C,0.0460*%
%ADD21C,0.0480*%
%ADD22C,0.0540*%
%ADD23C,0.0560*%
%ADD24C,0.0660*%
%ADD25C,0.0787*%
%ADD26O,0.0690X0.0414*%
%ADD27R,0.0010X0.0010*%
%ADD28R,0.0260X0.0310*%
%ADD29R,0.0277X0.0454*%
%ADD30R,0.0310X0.0260*%
%ADD31R,0.0336X0.0336*%
%ADD32R,0.0355X0.0217*%
%ADD33R,0.0375X0.0375*%
%ADD34R,0.0375X0.0690*%
%ADD35R,0.0375X0.0729*%
%ADD36R,0.0414X0.0336*%
%ADD37R,0.0454X0.0277*%
%ADD38R,0.0454X0.0572*%
%ADD39R,0.0651X0.0178*%
%ADD40R,0.0729X0.0414*%
%ADD41R,0.0887X0.1241*%
%ADD42R,0.1241X0.1241*%
D25*X007874Y002362D03*Y020866D03*X019685Y002362D03*D30*
X00782Y004588D03*X00732D03*X01599Y008468D03*X01549D03*X016549Y00583D03*
X017049D03*X005557Y005118D03*X006057D03*D33*X004621Y007973D03*
Y007343D03*D36*X018622Y004528D03*X019094D03*D26*X00043Y008545D03*
Y005946D03*D39*X010288Y005558D03*Y00733D03*Y007526D03*Y007723D03*
Y005755D03*Y005952D03*Y006148D03*Y006345D03*Y006542D03*Y006739D03*
Y006936D03*Y007133D03*D38*X011489Y008205D03*Y005076D03*D17*
X021063Y008189D03*D13*X024902Y004488D03*X023524Y005906D03*
X022475Y004686D03*D34*X02277Y005841D03*X022278D03*X021786D03*D41*
X020782Y0047D03*X023774D03*D42*X019572Y005835D03*X02469D03*D30*
X005631Y006873D03*X005131D03*X017953Y005276D03*X018453D03*
X013106Y005269D03*X013606D03*X007278Y008072D03*X007778D03*D28*
X00754Y004988D03*Y005488D03*D30*X00558Y004432D03*X00508D03*
X006443Y005118D03*X006943D03*D35*X003116Y006228D03*X001935D03*
X001345D03*D40*X003805Y005087D03*Y005913D03*X000656D03*Y005087D03*D15*
X002821Y0055D03*X00164D03*D29*X00135Y008248D03*Y00687D03*
X00202Y008248D03*Y00687D03*D31*X001685Y008307D03*Y006811D03*D29*
X003Y008248D03*Y00687D03*X003669Y008248D03*Y00687D03*D31*
X003335Y008307D03*Y006811D03*D37*X023772Y007955D03*X02515D03*
X023772Y008625D03*X02515D03*D31*X023713Y00829D03*X025209D03*D20*
X015006Y008626D03*D23*X01811Y006654D03*D21*X025412Y004307D03*D23*
X017913Y004646D03*D22*X01453Y004897D03*D23*X004134Y008268D03*
X004488Y005752D03*D20*X014006Y008626D03*X013006D03*X012006D03*
X011006D03*X010006D03*D24*X00867Y007657D03*D23*X000591Y007835D03*
Y007047D03*D32*X016614Y004843D03*Y005098D03*Y005354D03*X017362D03*
Y005098D03*Y004843D03*D19*X009373Y004862D03*X000984Y007686D03*
Y007174D03*X01633Y008378D03*X019449Y004803D03*X022278Y005251D03*
X021772Y00685D03*X02307Y004588D03*X025394Y004291D03*X02014Y007238D03*
D14*X0224Y008348D03*D19*X018339Y007541D03*X01922Y007908D03*
X0137Y004738D03*X005951Y008605D03*X006071Y008185D03*X01664Y008518D03*
X01695Y008508D03*X018009Y007561D03*X016836Y007352D03*X021479Y007381D03*
X00639Y005578D03*X00426Y008218D03*X005548Y005972D03*X00594Y006597D03*
D12*X006235Y006903D03*D19*X006453Y006127D03*X00723Y008398D03*
X007548Y008322D03*X007751Y006028D03*D12*X007621Y007068D03*D19*
X010469Y008688D03*X008971Y005698D03*D12*X00792Y007037D03*D19*
X006728Y007642D03*X009531Y008528D03*X009025Y008403D03*D14*
X02288Y008348D03*D19*X007136Y005866D03*X007978Y008342D03*
X00858Y008458D03*X01043Y008185D03*X010731Y008198D03*D14*
X00855Y007187D03*D19*X009436Y005376D03*D18*X00999Y004607D03*D19*
X011968Y005817D03*X012343Y005619D03*X010706Y004219D03*
X017919Y007861D03*X0147Y007648D03*X014671Y006378D03*X015501Y004878D03*
X004648Y006378D03*D27*X012928Y004927D03*X013937Y004921D03*D19*
X011452Y007765D03*X01234Y006348D03*X01241Y008658D03*X012383Y005919D03*
X012279Y007954D03*X01279Y005778D03*X0157Y005378D03*X013626Y005549D03*
X013192Y00665D03*X025127Y007665D03*X023358Y007534D03*X013566Y00638D03*
X017221Y007338D03*X01612Y007808D03*X012131Y007348D03*D11*
X015383Y006139D03*D19*X012788Y005197D03*X004712Y004603D03*
X014191Y008218D03*X021533Y006572D03*X015186Y008279D03*X01314Y007918D03*
X014093Y007271D03*D30*X00782Y009627D03*X00732D03*X01599Y013507D03*
X01549D03*X016549Y010869D03*X017049D03*X005557Y010157D03*X006057D03*
D33*X004621Y013012D03*Y012382D03*D36*X018622Y009567D03*X019094D03*D26*
X00043Y013584D03*Y010986D03*D39*X010288Y010597D03*Y012369D03*
Y012566D03*Y012763D03*Y010794D03*Y010991D03*Y011188D03*Y011385D03*
Y011581D03*Y011778D03*Y011975D03*Y012172D03*D38*X011489Y013245D03*
Y010115D03*D17*X021063Y013228D03*D13*X024902Y009528D03*
X023524Y010945D03*X022475Y009725D03*D34*X02277Y010881D03*X022278D03*
X021786D03*D41*X020782Y009739D03*X023774D03*D42*X019572Y010874D03*
X02469D03*D30*X005631Y011912D03*X005131D03*X017953Y010315D03*
X018453D03*X013106Y010308D03*X013606D03*X007278Y013111D03*X007778D03*
D28*X00754Y010027D03*Y010527D03*D30*X00558Y009471D03*X00508D03*
X006443Y010157D03*X006943D03*D35*X003116Y011268D03*X001935D03*
X001345D03*D40*X003805Y010126D03*Y010953D03*X000656D03*Y010126D03*D15*
X002821Y010539D03*X00164D03*D29*X00135Y013287D03*Y011909D03*
X00202Y013287D03*Y011909D03*D31*X001685Y013346D03*Y01185D03*D29*
X003Y013287D03*Y011909D03*X003669Y013287D03*Y011909D03*D31*
X003335Y013346D03*Y01185D03*D37*X023772Y012995D03*X02515D03*
X023772Y013664D03*X02515D03*D31*X023713Y013329D03*X025209D03*D20*
X015006Y013665D03*D23*X01811Y011693D03*D21*X025412Y009346D03*D23*
X017913Y009685D03*D22*X01453Y009936D03*D23*X004134Y013307D03*
X004488Y010791D03*D20*X014006Y013665D03*X013006D03*X012006D03*
X011006D03*X010006D03*D24*X00867Y012696D03*D23*X000591Y012874D03*
Y012087D03*D32*X016614Y009882D03*Y010138D03*Y010394D03*X017362D03*
Y010138D03*Y009882D03*D19*X009373Y009901D03*X000984Y012726D03*
Y012214D03*X01633Y013417D03*X019449Y009843D03*X022278Y01029D03*
X021772Y01189D03*X02307Y009627D03*X025394Y009331D03*X02014Y012277D03*
D14*X0224Y013387D03*D19*X018339Y01258D03*X01922Y012947D03*
X0137Y009777D03*X005951Y013644D03*X006071Y013224D03*X01664Y013557D03*
X01695Y013547D03*X018009Y0126D03*X016836Y012392D03*X021479Y01242D03*
X00639Y010617D03*X00426Y013257D03*X005548Y011011D03*X00594Y011636D03*
D12*X006235Y011942D03*D19*X006453Y011166D03*X00723Y013437D03*
X007548Y013361D03*X007751Y011067D03*D12*X007621Y012107D03*D19*
X010469Y013727D03*X008971Y010737D03*D12*X00792Y012076D03*D19*
X006728Y012681D03*X009531Y013567D03*X009025Y013442D03*D14*
X02288Y013387D03*D19*X007136Y010905D03*X007978Y013381D03*
X00858Y013497D03*X01043Y013224D03*X010731Y013237D03*D14*
X00855Y012226D03*D19*X009436Y010415D03*D18*X00999Y009646D03*D19*
X011968Y010856D03*X012343Y010658D03*X010706Y009258D03*X017919Y0129D03*
X0147Y012687D03*X014671Y011417D03*X015501Y009917D03*X004648Y011417D03*
D27*X012928Y009966D03*X013937Y009961D03*D19*X011452Y012804D03*
X01234Y011387D03*X01241Y013697D03*X012383Y010958D03*X012279Y012993D03*
X01279Y010817D03*X0157Y010417D03*X013626Y010588D03*X013192Y011689D03*
X025127Y012704D03*X023358Y012573D03*X013566Y011419D03*
X017221Y012377D03*X01612Y012847D03*X012131Y012387D03*D11*
X015383Y011178D03*D19*X012788Y010236D03*X004712Y009642D03*
X014191Y013257D03*X021533Y011611D03*X015186Y013318D03*X01314Y012957D03*
X014093Y01231D03*D30*X00782Y014666D03*X00732D03*X01599Y018546D03*
X01549D03*X016549Y015909D03*X017049D03*X005557Y015197D03*X006057D03*
D33*X004621Y018051D03*Y017421D03*D36*X018622Y014606D03*X019094D03*D26*
X00043Y018624D03*Y016025D03*D39*X010288Y015637D03*Y017408D03*
Y017605D03*Y017802D03*Y015833D03*Y01603D03*Y016227D03*Y016424D03*
Y016621D03*Y016818D03*Y017015D03*Y017211D03*D38*X011489Y018284D03*
Y015154D03*D17*X021063Y018268D03*D13*X024902Y014567D03*
X023524Y015984D03*X022475Y014765D03*D34*X02277Y01592D03*X022278D03*
X021786D03*D41*X020782Y014778D03*X023774D03*D42*X019572Y015913D03*
X02469D03*D30*X005631Y016951D03*X005131D03*X017953Y015354D03*
X018453D03*X013106Y015347D03*X013606D03*X007278Y01815D03*X007778D03*
D28*X00754Y015066D03*Y015566D03*D30*X00558Y01451D03*X00508D03*
X006443Y015197D03*X006943D03*D35*X003116Y016307D03*X001935D03*
X001345D03*D40*X003805Y015165D03*Y015992D03*X000656D03*Y015165D03*D15*
X002821Y015579D03*X00164D03*D29*X00135Y018327D03*Y016949D03*
X00202Y018327D03*Y016949D03*D31*X001685Y018386D03*Y01689D03*D29*
X003Y018327D03*Y016949D03*X003669Y018327D03*Y016949D03*D31*
X003335Y018386D03*Y01689D03*D37*X023772Y018034D03*X02515D03*
X023772Y018703D03*X02515D03*D31*X023713Y018369D03*X025209D03*D20*
X015006Y018705D03*D23*X01811Y016732D03*D21*X025412Y014385D03*D23*
X017913Y014724D03*D22*X01453Y014976D03*D23*X004134Y018346D03*
X004488Y015831D03*D20*X014006Y018705D03*X013006D03*X012006D03*
X011006D03*X010006D03*D24*X00867Y017735D03*D23*X000591Y017913D03*
Y017126D03*D32*X016614Y014921D03*Y015177D03*Y015433D03*X017362D03*
Y015177D03*Y014921D03*D19*X009373Y01494D03*X000984Y017765D03*
Y017253D03*X01633Y018456D03*X019449Y014882D03*X022278Y015329D03*
X021772Y016929D03*X02307Y014666D03*X025394Y01437D03*X02014Y017316D03*
D14*X0224Y018426D03*D19*X018339Y017619D03*X01922Y017986D03*
X0137Y014816D03*X005951Y018683D03*X006071Y018263D03*X01664Y018596D03*
X01695Y018586D03*X018009Y017639D03*X016836Y017431D03*X021479Y017459D03*
X00639Y015656D03*X00426Y018296D03*X005548Y016051D03*X00594Y016675D03*
D12*X006235Y016981D03*D19*X006453Y016205D03*X00723Y018476D03*
X007548Y0184D03*X007751Y016106D03*D12*X007621Y017146D03*D19*
X010469Y018766D03*X008971Y015776D03*D12*X00792Y017115D03*D19*
X006728Y01772D03*X009531Y018606D03*X009025Y018481D03*D14*
X02288Y018426D03*D19*X007136Y015945D03*X007978Y01842D03*
X00858Y018536D03*X01043Y018263D03*X010731Y018276D03*D14*
X00855Y017265D03*D19*X009436Y015454D03*D18*X00999Y014685D03*D19*
X011968Y015895D03*X012343Y015697D03*X010706Y014297D03*
X017919Y017939D03*X0147Y017726D03*X014671Y016456D03*X015501Y014956D03*
X004648Y016456D03*D27*X012928Y015005D03*X013937Y015D03*D19*
X011452Y017843D03*X01234Y016426D03*X01241Y018736D03*X012383Y015997D03*
X012279Y018032D03*X01279Y015856D03*X0157Y015456D03*X013626Y015627D03*
X013192Y016728D03*X025127Y017744D03*X023358Y017612D03*
X013566Y016458D03*X017221Y017416D03*X01612Y017886D03*X012131Y017426D03*
D11*X015383Y016217D03*D19*X012788Y015275D03*X004712Y014681D03*
X014191Y018296D03*X021533Y01665D03*X015186Y018357D03*X01314Y017996D03*
X014093Y017349D03*D10*X00393Y006508D02*G01Y006538D01*D16*
X000295Y006457D02*X000886D01*Y005866D01*X000295D01*Y006358D01*
X000886D01*X000295D02*Y006457D01*X000886Y006161D02*X000394D01*
X000295Y00626D02*X000886D01*X000787Y006161D02*Y005965D01*D23*
X015208Y005652D02*X015858D01*D10*X00393Y011547D02*Y011577D01*D16*
X000295Y011496D02*X000886D01*Y010906D01*X000295D01*Y011398D01*
X000886D01*X000295D02*Y011496D01*X000886Y011201D02*X000394D01*
X000295Y011299D02*X000886D01*X000787Y011201D02*Y011004D01*D23*
X015208Y010691D02*X015858D01*D10*X00393Y016586D02*Y016616D01*D16*
X000295Y016535D02*X000886D01*Y015945D01*X000295D01*Y016437D01*
X000886D01*X000295D02*Y016535D01*X000886Y01624D02*X000394D01*
X000295Y016339D02*X000886D01*X000787Y01624D02*Y016043D01*D23*
X015208Y015731D02*X015858D01*
M02*