%FSTAX24Y24*%
%MOIN*%
%IN LAYER2.GBR *%
%ADD10C,0.0020*%
%ADD11C,0.0029*%
%ADD12C,0.0039*%
%ADD13C,0.0060*%
%ADD14C,0.0079*%
%ADD15C,0.0080*%
%ADD16C,0.0084*%
%ADD17C,0.0084*%
%ADD18C,0.0086*%
%ADD19C,0.0100*%
%ADD20C,0.0118*%
%ADD21C,0.0120*%
%ADD22C,0.0140*%
%ADD23C,0.0140*%
%ADD24C,0.0150*%
%ADD25C,0.0157*%
%ADD26C,0.0159*%
%ADD27C,0.0160*%
%ADD28C,0.0180*%
%ADD29C,0.0197*%
%ADD30C,0.0200*%
%ADD31C,0.0220*%
%ADD32C,0.0240*%
%ADD33C,0.0253*%
%ADD34C,0.0253*%
%ADD35C,0.0258*%
%ADD36C,0.0260*%
%ADD37C,0.0270*%
%ADD38C,0.0277*%
%ADD39C,0.0280*%
%ADD40C,0.0297*%
%ADD41C,0.0300*%
%ADD42C,0.0320*%
%ADD43C,0.0360*%
%ADD44C,0.0377*%
%ADD45C,0.0380*%
%ADD46C,0.0394*%
%ADD47C,0.0400*%
%ADD48C,0.0420*%
%ADD49C,0.0500*%
%ADD50C,0.0520*%
%ADD51C,0.0540*%
%ADD52C,0.0600*%
%ADD53C,0.0620*%
%ADD54C,0.0760*%
%ADD55C,0.0820*%
%ADD56C,0.0840*%
%ADD57O,0.0630X0.0354*%
%ADD58O,0.0750X0.0474*%
%ADD59R,0.0200X0.0250*%
%ADD60R,0.0217X0.0394*%
%ADD61R,0.0217X0.0394*%
%ADD62R,0.0250X0.0200*%
%ADD63R,0.0276X0.0276*%
%ADD64R,0.0295X0.0157*%
%ADD65R,0.0315X0.0315*%
%ADD66R,0.0315X0.0630*%
%ADD67R,0.0315X0.0669*%
%ADD68R,0.0320X0.0370*%
%ADD69R,0.0337X0.0514*%
%ADD70R,0.0337X0.0514*%
%ADD71R,0.0354X0.0276*%
%ADD72R,0.0370X0.0320*%
%ADD73R,0.0394X0.0217*%
%ADD74R,0.0394X0.0217*%
%ADD75R,0.0394X0.0512*%
%ADD76R,0.0396X0.0396*%
%ADD77R,0.0415X0.0277*%
%ADD78R,0.0430X0.0380*%
%ADD79R,0.0435X0.0750*%
%ADD80R,0.0435X0.0789*%
%ADD81R,0.0474X0.0396*%
%ADD82R,0.0495X0.0495*%
%ADD83R,0.0514X0.0337*%
%ADD84R,0.0514X0.0337*%
%ADD85R,0.0514X0.0632*%
%ADD86R,0.0591X0.0118*%
%ADD87R,0.0669X0.0354*%
%ADD88R,0.0711X0.0238*%
%ADD89R,0.0789X0.0474*%
%ADD90R,0.0827X0.1181*%
%ADD91R,0.0947X0.1301*%
%ADD92R,0.1181X0.1181*%
%ADD93R,0.1301X0.1301*%
D10*X014016Y004134D02*G01X010827D01*X010744Y004349D01*X00925Y004467D01*
Y004134D01*X004252D01*X00425Y006248D01*X0039D01*Y008148D01*X00415D01*
Y008448D01*X0043Y008648D01*X013307Y008661D01*X01374D01*
X014016Y008465D01*X014291Y008661D01*X014567D01*X01472Y008768D01*
X01815Y008758D01*X018149Y008301D01*X021339D01*X02134Y008758D01*
X02252Y008768D01*X022559Y006299D01*X021457D01*Y00561D01*X020177D01*
Y004134D01*X014016D01*G36*G01X010827D01*X010744Y004349D01*
X00925Y004467D01*Y004134D01*X004252D01*X00425Y006248D01*X0039D01*
Y008148D01*X00415D01*Y008448D01*X0043Y008648D01*X013307Y008661D01*
X01374D01*X014016Y008465D01*X014291Y008661D01*X014567D01*
X01472Y008768D01*X01815Y008758D01*X018149Y008301D01*X021339D01*
X02134Y008758D01*X02252Y008768D01*X022559Y006299D01*X021457D01*
Y00561D01*X020177D01*Y004134D01*X014016D01*G37*Y009173D02*
G01X010827D01*X010744Y009388D01*X00925Y009506D01*Y009173D01*X004252D01*
X00425Y011287D01*X0039D01*Y013187D01*X00415D01*Y013487D01*
X0043Y013687D01*X013307Y013701D01*X01374D01*X014016Y013504D01*
X014291Y013701D01*X014567D01*X01472Y013807D01*X01815Y013797D01*
X018149Y01334D01*X021339D01*X02134Y013797D01*X02252Y013807D01*
X022559Y011339D01*X021457D01*Y01065D01*X020177D01*Y009173D01*
X014016D01*G36*G01X010827D01*X010744Y009388D01*X00925Y009506D01*
Y009173D01*X004252D01*X00425Y011287D01*X0039D01*Y013187D01*X00415D01*
Y013487D01*X0043Y013687D01*X013307Y013701D01*X01374D01*
X014016Y013504D01*X014291Y013701D01*X014567D01*X01472Y013807D01*
X01815Y013797D01*X018149Y01334D01*X021339D01*X02134Y013797D01*
X02252Y013807D01*X022559Y011339D01*X021457D01*Y01065D01*X020177D01*
Y009173D01*X014016D01*G37*Y014213D02*G01X010827D01*X010744Y014427D01*
X00925Y014545D01*Y014213D01*X004252D01*X00425Y016326D01*X0039D01*
Y018226D01*X00415D01*Y018526D01*X0043Y018726D01*X013307Y01874D01*
X01374D01*X014016Y018543D01*X014291Y01874D01*X014567D01*
X01472Y018846D01*X01815Y018836D01*X018149Y018379D01*X021339D01*
X02134Y018836D01*X02252Y018846D01*X022559Y016378D01*X021457D01*
Y015689D01*X020177D01*Y014213D01*X014016D01*G36*G01X010827D01*
X010744Y014427D01*X00925Y014545D01*Y014213D01*X004252D01*
X00425Y016326D01*X0039D01*Y018226D01*X00415D01*Y018526D01*
X0043Y018726D01*X013307Y01874D01*X01374D01*X014016Y018543D01*
X014291Y01874D01*X014567D01*X01472Y018846D01*X01815Y018836D01*
X018149Y018379D01*X021339D01*X02134Y018836D01*X02252Y018846D01*
X022559Y016378D01*X021457D01*Y015689D01*X020177D01*Y014213D01*
X014016D01*G37*
%LPC*%
D55*X007874Y002362D03*Y020866D03*X019685Y002362D03*D72*
X00782Y004588D03*D68*X00754Y004988D03*D72*X00732Y004588D03*
X006943Y005118D03*D28*X00689Y005448D03*X006966Y005616D03*D22*
X007751Y006028D03*D28*X006691Y005448D03*X006741Y004413D03*X006941D03*
D78*X01549Y008468D03*D43*X01443Y007888D03*D78*X017049Y00583D03*D77*
X017362Y005098D03*D43*X018807Y005315D03*D72*X006057Y005118D03*
X006443D03*D81*X018622Y004528D03*D43*X018268Y005D03*D81*
X019094Y004528D03*D43*X019449Y004803D03*D58*X00043Y008545D03*D76*
X001685Y008307D03*X003335D03*D88*X010288Y006148D03*D43*
X011968Y005817D03*X01043Y008185D03*D85*X011489Y008205D03*Y005076D03*
D55*X021063Y008189D03*D22*X024902Y004488D03*X023524Y005906D03*D56*
X022475Y004686D03*D79*X022278Y005841D03*D43*Y005251D03*D79*
X021786Y005841D03*D93*X019572Y005835D03*D72*X018453Y005276D03*D91*
X020782Y0047D03*X023774D03*D93*X02469Y005835D03*D43*X025394Y004291D03*
D51*X025412Y004307D03*D78*X005631Y006873D03*D43*X009373Y004862D03*D78*
X005131Y006873D03*D82*X004621Y007343D03*D72*X013606Y005269D03*D43*
X013626Y005549D03*X013192Y00665D03*D78*X007278Y008072D03*D43*
X006728Y007642D03*D78*X007778Y008072D03*D43*X009531Y008528D03*D68*
X00754Y005488D03*D43*X007336Y005816D03*X007136Y005866D03*D80*
X001345Y006228D03*D89*X003805Y005087D03*Y005913D03*X000656D03*
Y005087D03*D26*X002821Y0055D03*X00164D03*D69*X00135Y008248D03*D70*
X00202D03*D43*X009025Y008403D03*D69*X00202Y00687D03*X003Y008248D03*D70*
X003669D03*D43*X007548Y008322D03*D69*X003669Y00687D03*D76*
X003335Y006811D03*D28*X004648Y006378D03*D70*X003Y00687D03*D76*
X001685Y006811D03*D70*X00135Y00687D03*D58*X00043Y005946D03*D22*
X004069Y004473D03*X004039Y004868D03*D43*X00403Y005288D03*X00348D03*
X00349Y005718D03*D83*X023772Y007955D03*X02515Y008625D03*D53*
X01811Y006654D03*D43*X017505Y005957D03*D53*X004134Y008268D03*D43*
X00426Y008218D03*X005548Y005972D03*X006453Y006127D03*D82*
X004621Y007973D03*D53*X004488Y005752D03*D43*X00621Y005578D03*D72*
X005557Y005118D03*D80*X003116Y006228D03*D50*X014006Y008626D03*D43*
X014093Y007271D03*D50*X013006Y008626D03*X012006D03*X011006D03*
X010006D03*D54*X00867Y007657D03*D77*X016614Y004843D03*D72*
X013106Y005269D03*D43*X012788Y005197D03*D77*X016614Y005354D03*
X017362Y004843D03*D53*X017913Y004646D03*D72*X017953Y005276D03*D77*
X017362Y005354D03*D43*X021772Y00685D03*X000984Y007686D03*D53*
X000591Y007835D03*D43*X000984Y007174D03*D53*X000591Y007047D03*D43*
X01633Y008378D03*D84*X023772Y008625D03*D43*X02307Y004588D03*D79*
X02277Y005841D03*D43*X0224Y008348D03*X01695Y008508D03*D28*
X0137Y004738D03*X01552Y004618D03*X015501Y004878D03*D22*
X00999Y004607D03*D88*X010288Y006739D03*D28*X013191Y007138D03*D22*
X01314Y007918D03*D88*X010288Y007723D03*Y007133D03*D22*X00981Y006107D03*
D88*X010288Y005558D03*Y006345D03*D23*X009391Y005688D03*D22*
X008971Y005698D03*D43*X005951Y008605D03*X006071Y008185D03*D22*
X01664Y008518D03*D28*X017919Y007861D03*D22*X017799Y006961D03*D76*
X025209Y00829D03*X023713D03*D84*X02515Y007955D03*D43*X02288Y008348D03*
X02298Y007528D03*D28*X0147Y007648D03*D22*X01563Y006448D03*D28*
X014671Y006378D03*D78*X01599Y008468D03*D43*X021479Y007381D03*
X018009Y007561D03*X016836Y007352D03*X00639Y005578D03*X010706Y004219D03*
D22*X00594Y006597D03*X006235Y006903D03*X00723Y008398D03*D43*
X010469Y008688D03*X007621Y007068D03*D22*X00792Y007037D03*D43*
X007978Y008342D03*X00858Y008458D03*X00855Y007187D03*D88*
X010288Y006936D03*Y00733D03*Y007526D03*D43*X009436Y005376D03*D88*
X010288Y006542D03*D43*X012343Y005619D03*D88*X010288Y005755D03*
Y005952D03*D43*X010731Y008198D03*X012928Y004927D03*X013937Y004921D03*
D53*X01453Y004897D03*D43*X011452Y007765D03*X01234Y006348D03*
X012383Y005919D03*X01241Y008658D03*X01279Y005778D03*X012279Y007954D03*
X023358Y007534D03*X025127Y007665D03*D22*X013566Y00638D03*D28*
X013391Y007138D03*D43*X01612Y007808D03*X017221Y007338D03*
X02014Y007238D03*X015383Y006139D03*X012131Y007348D03*X004712Y004603D03*
D72*X00508Y004432D03*D43*X014191Y008218D03*X015186Y008279D03*D22*
X021533Y006572D03*X02209Y006518D03*D43*X013883Y007271D03*
X013951Y007608D03*D23*X01566Y007018D03*X0162D03*D22*X01622Y006457D03*
D28*X0157Y005378D03*D77*X016614Y005098D03*D78*X016549Y00583D03*D23*
X017799Y006358D03*X018451Y006391D03*D43*X01741Y007328D03*D23*
X018429Y006961D03*D43*X018798Y005981D03*X02002Y006608D03*X01906D03*D23*
X02208Y007618D03*D43*X0229Y006548D03*X01914Y007448D03*X01591Y007808D03*
X02035Y007268D03*X00833Y005207D03*D28*X01498Y005568D03*
X01565Y005608D03*D22*X00089Y005288D03*X000415Y00529D03*
X000393Y005724D03*X000892Y005751D03*X00089Y004888D03*X000382Y004894D03*
D43*X00426Y008398D03*D22*X00459Y008358D03*D43*X00652Y006288D03*D22*
X004444Y006382D03*D28*X006541Y004413D03*D22*X004328Y005342D03*D72*
X00558Y004432D03*D22*X005188Y005882D03*X005018Y005332D03*D43*
X002479Y005105D03*X00202Y005103D03*D80*X001935Y006228D03*D43*
X00192Y006347D03*X002672Y006201D03*D22*X000376Y004465D03*D23*
X01275Y008038D03*D43*X01996Y007568D03*D72*X00782Y009627D03*D68*
X00754Y010027D03*D72*X00732Y009627D03*X006943Y010157D03*D28*
X00689Y010487D03*X006966Y010655D03*D22*X007751Y011067D03*D28*
X006691Y010487D03*X006741Y009452D03*X006941D03*D78*X01549Y013507D03*
D43*X01443Y012927D03*D78*X017049Y010869D03*D77*X017362Y010138D03*D43*
X018807Y010354D03*D72*X006057Y010157D03*X006443D03*D81*
X018622Y009567D03*D43*X018268Y010039D03*D81*X019094Y009567D03*D43*
X019449Y009843D03*D58*X00043Y013584D03*D76*X001685Y013346D03*
X003335D03*D88*X010288Y011188D03*D43*X011968Y010856D03*
X01043Y013224D03*D85*X011489Y013245D03*Y010115D03*D55*
X021063Y013228D03*D22*X024902Y009528D03*X023524Y010945D03*D56*
X022475Y009725D03*D79*X022278Y010881D03*D43*Y01029D03*D79*
X021786Y010881D03*D93*X019572Y010874D03*D72*X018453Y010315D03*D91*
X020782Y009739D03*X023774D03*D93*X02469Y010874D03*D43*
X025394Y009331D03*D51*X025412Y009346D03*D78*X005631Y011912D03*D43*
X009373Y009901D03*D78*X005131Y011912D03*D82*X004621Y012382D03*D72*
X013606Y010308D03*D43*X013626Y010588D03*X013192Y011689D03*D78*
X007278Y013111D03*D43*X006728Y012681D03*D78*X007778Y013111D03*D43*
X009531Y013567D03*D68*X00754Y010527D03*D43*X007336Y010855D03*
X007136Y010905D03*D80*X001345Y011268D03*D89*X003805Y010126D03*
Y010953D03*X000656D03*Y010126D03*D26*X002821Y010539D03*X00164D03*D69*
X00135Y013287D03*D70*X00202D03*D43*X009025Y013442D03*D69*
X00202Y011909D03*X003Y013287D03*D70*X003669D03*D43*X007548Y013361D03*
D69*X003669Y011909D03*D76*X003335Y01185D03*D28*X004648Y011417D03*D70*
X003Y011909D03*D76*X001685Y01185D03*D70*X00135Y011909D03*D58*
X00043Y010986D03*D22*X004069Y009512D03*X004039Y009907D03*D43*
X00403Y010327D03*X00348D03*X00349Y010757D03*D83*X023772Y012995D03*
X02515Y013664D03*D53*X01811Y011693D03*D43*X017505Y010996D03*D53*
X004134Y013307D03*D43*X00426Y013257D03*X005548Y011011D03*
X006453Y011166D03*D82*X004621Y013012D03*D53*X004488Y010791D03*D43*
X00621Y010617D03*D72*X005557Y010157D03*D80*X003116Y011268D03*D50*
X014006Y013665D03*D43*X014093Y01231D03*D50*X013006Y013665D03*
X012006D03*X011006D03*X010006D03*D54*X00867Y012696D03*D77*
X016614Y009882D03*D72*X013106Y010308D03*D43*X012788Y010236D03*D77*
X016614Y010394D03*X017362Y009882D03*D53*X017913Y009685D03*D72*
X017953Y010315D03*D77*X017362Y010394D03*D43*X021772Y01189D03*
X000984Y012726D03*D53*X000591Y012874D03*D43*X000984Y012214D03*D53*
X000591Y012087D03*D43*X01633Y013417D03*D84*X023772Y013664D03*D43*
X02307Y009627D03*D79*X02277Y010881D03*D43*X0224Y013387D03*
X01695Y013547D03*D28*X0137Y009777D03*X01552Y009657D03*
X015501Y009917D03*D22*X00999Y009646D03*D88*X010288Y011778D03*D28*
X013191Y012177D03*D22*X01314Y012957D03*D88*X010288Y012763D03*
Y012172D03*D22*X00981Y011146D03*D88*X010288Y010597D03*Y011385D03*D23*
X009391Y010727D03*D22*X008971Y010737D03*D43*X005951Y013644D03*
X006071Y013224D03*D22*X01664Y013557D03*D28*X017919Y0129D03*D22*
X017799Y012D03*D76*X025209Y013329D03*X023713D03*D84*X02515Y012995D03*
D43*X02288Y013387D03*X02298Y012567D03*D28*X0147Y012687D03*D22*
X01563Y011487D03*D28*X014671Y011417D03*D78*X01599Y013507D03*D43*
X021479Y01242D03*X018009Y0126D03*X016836Y012392D03*X00639Y010617D03*
X010706Y009258D03*D22*X00594Y011636D03*X006235Y011942D03*
X00723Y013437D03*D43*X010469Y013727D03*X007621Y012107D03*D22*
X00792Y012076D03*D43*X007978Y013381D03*X00858Y013497D03*
X00855Y012226D03*D88*X010288Y011975D03*Y012369D03*Y012566D03*D43*
X009436Y010415D03*D88*X010288Y011581D03*D43*X012343Y010658D03*D88*
X010288Y010794D03*Y010991D03*D43*X010731Y013237D03*X012928Y009966D03*
X013937Y009961D03*D53*X01453Y009936D03*D43*X011452Y012804D03*
X01234Y011387D03*X012383Y010958D03*X01241Y013697D03*X01279Y010817D03*
X012279Y012993D03*X023358Y012573D03*X025127Y012704D03*D22*
X013566Y011419D03*D28*X013391Y012177D03*D43*X01612Y012847D03*
X017221Y012377D03*X02014Y012277D03*X015383Y011178D03*X012131Y012387D03*
X004712Y009642D03*D72*X00508Y009471D03*D43*X014191Y013257D03*
X015186Y013318D03*D22*X021533Y011611D03*X02209Y011557D03*D43*
X013883Y01231D03*X013951Y012647D03*D23*X01566Y012057D03*X0162D03*D22*
X01622Y011496D03*D28*X0157Y010417D03*D77*X016614Y010138D03*D78*
X016549Y010869D03*D23*X017799Y011397D03*X018451Y01143D03*D43*
X01741Y012367D03*D23*X018429Y012D03*D43*X018798Y01102D03*
X02002Y011647D03*X01906D03*D23*X02208Y012657D03*D43*X0229Y011587D03*
X01914Y012487D03*X01591Y012847D03*X02035Y012307D03*X00833Y010246D03*
D28*X01498Y010607D03*X01565Y010647D03*D22*X00089Y010327D03*
X000415Y010329D03*X000393Y010764D03*X000892Y01079D03*X00089Y009927D03*
X000382Y009934D03*D43*X00426Y013437D03*D22*X00459Y013397D03*D43*
X00652Y011327D03*D22*X004444Y011421D03*D28*X006541Y009452D03*D22*
X004328Y010381D03*D72*X00558Y009471D03*D22*X005188Y010921D03*
X005018Y010371D03*D43*X002479Y010144D03*X00202Y010142D03*D80*
X001935Y011268D03*D43*X00192Y011386D03*X002672Y011241D03*D22*
X000376Y009504D03*D23*X01275Y013077D03*D43*X01996Y012607D03*D72*
X00782Y014666D03*D68*X00754Y015066D03*D72*X00732Y014666D03*
X006943Y015197D03*D28*X00689Y015526D03*X006966Y015695D03*D22*
X007751Y016106D03*D28*X006691Y015526D03*X006741Y014491D03*X006941D03*
D78*X01549Y018546D03*D43*X01443Y017966D03*X018807Y015394D03*D77*
X017362Y015177D03*D78*X017049Y015909D03*D72*X006057Y015197D03*
X006443D03*D81*X018622Y014606D03*D43*X018268Y015079D03*D81*
X019094Y014606D03*D43*X019449Y014882D03*D58*X00043Y018624D03*D76*
X001685Y018386D03*X003335D03*D88*X010288Y016227D03*D43*
X011968Y015895D03*X01043Y018263D03*D85*X011489Y018284D03*Y015154D03*
D55*X021063Y018268D03*D22*X024902Y014567D03*X023524Y015984D03*D56*
X022475Y014765D03*D79*X022278Y01592D03*D43*Y015329D03*D79*
X021786Y01592D03*D93*X019572Y015913D03*D72*X018453Y015354D03*D91*
X020782Y014778D03*X023774D03*D93*X02469Y015913D03*D43*X025394Y01437D03*
D51*X025412Y014385D03*D78*X005631Y016951D03*D43*X009373Y01494D03*D78*
X005131Y016951D03*D82*X004621Y017421D03*D72*X013606Y015347D03*D43*
X013626Y015627D03*X013192Y016728D03*D78*X007278Y01815D03*D43*
X006728Y01772D03*D78*X007778Y01815D03*D43*X009531Y018606D03*D68*
X00754Y015566D03*D43*X007336Y015895D03*X007136Y015945D03*D80*
X001345Y016307D03*D89*X003805Y015165D03*Y015992D03*X000656D03*
Y015165D03*D26*X002821Y015579D03*X00164D03*D69*X00135Y018327D03*D70*
X00202D03*D43*X009025Y018481D03*D69*X00202Y016949D03*X003Y018327D03*
D70*X003669D03*D43*X007548Y0184D03*D69*X003669Y016949D03*D76*
X003335Y01689D03*D28*X004648Y016456D03*D70*X003Y016949D03*D76*
X001685Y01689D03*D70*X00135Y016949D03*D58*X00043Y016025D03*D22*
X004069Y014551D03*X004039Y014946D03*D43*X00403Y015366D03*X00348D03*
X00349Y015796D03*D83*X023772Y018034D03*X02515Y018703D03*D53*
X01811Y016732D03*D43*X017505Y016035D03*D53*X004134Y018346D03*D43*
X00426Y018296D03*X005548Y016051D03*X006453Y016205D03*D82*
X004621Y018051D03*D53*X004488Y015831D03*D43*X00621Y015656D03*D72*
X005557Y015197D03*D80*X003116Y016307D03*D50*X014006Y018705D03*D43*
X014093Y017349D03*D50*X013006Y018705D03*X012006D03*X011006D03*
X010006D03*D54*X00867Y017735D03*D77*X016614Y014921D03*D72*
X013106Y015347D03*D43*X012788Y015275D03*D77*X016614Y015433D03*
X017362Y014921D03*D53*X017913Y014724D03*D72*X017953Y015354D03*D77*
X017362Y015433D03*D43*X021772Y016929D03*X000984Y017765D03*D53*
X000591Y017913D03*D43*X000984Y017253D03*D53*X000591Y017126D03*D43*
X01633Y018456D03*D84*X023772Y018703D03*D43*X02307Y014666D03*D79*
X02277Y01592D03*D43*X0224Y018426D03*X01695Y018586D03*D28*
X0137Y014816D03*X01552Y014696D03*X015501Y014956D03*D22*
X00999Y014685D03*D88*X010288Y016818D03*D28*X013191Y017216D03*D22*
X01314Y017996D03*D88*X010288Y017802D03*Y017211D03*D22*X00981Y016185D03*
D88*X010288Y015637D03*Y016424D03*D23*X009391Y015766D03*D22*
X008971Y015776D03*D43*X005951Y018683D03*X006071Y018263D03*D22*
X01664Y018596D03*D28*X017919Y017939D03*D22*X017799Y017039D03*D76*
X025209Y018369D03*X023713D03*D84*X02515Y018034D03*D43*X02288Y018426D03*
X02298Y017606D03*D28*X0147Y017726D03*D22*X01563Y016526D03*D28*
X014671Y016456D03*D78*X01599Y018546D03*D43*X021479Y017459D03*
X018009Y017639D03*X016836Y017431D03*X00639Y015656D03*X010706Y014297D03*
D22*X00594Y016675D03*X006235Y016981D03*X00723Y018476D03*D43*
X010469Y018766D03*X007621Y017146D03*D22*X00792Y017115D03*D43*
X007978Y01842D03*X00858Y018536D03*X00855Y017265D03*D88*
X010288Y017015D03*Y017408D03*Y017605D03*D43*X009436Y015454D03*D88*
X010288Y016621D03*D43*X012343Y015697D03*D88*X010288Y015833D03*
Y01603D03*D43*X010731Y018276D03*X012928Y015005D03*X013937Y015D03*D53*
X01453Y014976D03*D43*X011452Y017843D03*X01234Y016426D03*
X012383Y015997D03*X01241Y018736D03*X01279Y015856D03*X012279Y018032D03*
X023358Y017612D03*X025127Y017744D03*D22*X013566Y016458D03*D28*
X013391Y017216D03*D43*X01612Y017886D03*X017221Y017416D03*
X02014Y017316D03*X015383Y016217D03*X012131Y017426D03*X004712Y014681D03*
D72*X00508Y01451D03*D43*X014191Y018296D03*X015186Y018357D03*D22*
X021533Y01665D03*X02209Y016596D03*D43*X013883Y017349D03*
X013951Y017686D03*D23*X01566Y017096D03*X0162D03*D22*X01622Y016535D03*
D28*X0157Y015456D03*D77*X016614Y015177D03*D78*X016549Y015909D03*D23*
X017799Y016436D03*X018451Y016469D03*D43*X01741Y017406D03*D23*
X018429Y017039D03*D43*X018798Y01606D03*X02002Y016686D03*X01906D03*D23*
X02208Y017696D03*D43*X0229Y016626D03*X01914Y017526D03*X01591Y017886D03*
X02035Y017346D03*X00833Y015286D03*D28*X01498Y015646D03*
X01565Y015686D03*D22*X00089Y015366D03*X000415Y015369D03*
X000393Y015803D03*X000892Y01583D03*X00089Y014966D03*X000382Y014973D03*
D43*X00426Y018476D03*D22*X00459Y018436D03*D43*X00652Y016366D03*D22*
X004444Y01646D03*D28*X006541Y014491D03*D22*X004328Y015421D03*D72*
X00558Y01451D03*D22*X005188Y015961D03*X005018Y015411D03*D43*
X002479Y015183D03*X00202Y015181D03*D80*X001935Y016307D03*D43*
X00192Y016425D03*X002672Y01628D03*D22*X000376Y014543D03*D23*
X01275Y018116D03*D43*X01996Y017646D03*D33*X02174Y004872D02*
G01X021656Y004956D01*Y00445D01*X021571D01*X021656D02*X02174D01*
X02185Y009871D02*X021766Y009955D01*X021597D01*X021513Y009871D01*
Y009786D01*X021597Y009702D01*X02185Y009533D01*Y009449D01*X021513D01*
D34*X02186Y014927D02*X021776Y015012D01*X021607D01*X021523Y014927D01*
Y014843D01*X021607Y014759D01*X021523Y014674D01*Y01459D01*
X021607Y014506D01*X021776D01*X02186Y01459D01*X021607Y014759D02*
X021691D01*D18*X020588Y008483D02*X020559Y008512D01*Y008341D01*
X02053D01*X020559D02*X020588D01*X020445Y008512D02*X02033D01*
X020416Y008341D01*X020159Y008483D02*X020188Y008512D01*X020245D01*
X020273Y008483D01*Y008369D01*X020245Y008341D01*X020188D01*
X020159Y008369D01*Y008483D01*X020216Y008455D02*Y008398D01*
X019988Y008483D02*X020016Y008512D01*X020073D01*X020102Y008483D01*
Y008369D01*X020073Y008341D01*X020016D01*X019988Y008369D01*Y008483D01*
X020045Y008455D02*Y008398D01*X01993Y008426D02*X019816D01*
X019759Y008341D02*Y008512D01*X019702Y008426D01*X019645Y008512D01*
Y008341D01*X019559D02*Y008512D01*X019473Y008341D02*X019416Y008512D01*
X01938Y008405D01*X019359Y008341D01*X01938Y008405D02*X019452D01*
X019273Y008483D02*X019245Y008512D01*Y008341D01*X019216D01*X019245D02*
X019273D01*X01913Y008426D02*X019016D01*X018845Y008483D02*
X018873Y008512D01*X01893D01*X018959Y008483D01*Y008369D01*
X01893Y008341D01*X018873D01*X018845Y008369D01*Y008483D01*
X018902Y008455D02*Y008398D01*X018745Y008341D02*X01873D01*Y008355D01*
X018745D01*Y008341D01*X018502Y008483D02*X01853Y008512D01*X018588D01*
X018616Y008483D01*Y008369D01*X018588Y008341D01*X01853D01*
X018502Y008369D01*Y008483D01*X018559Y008455D02*Y008398D01*
X018416Y008483D02*X018388Y008512D01*Y008341D01*X018359D01*X018388D02*
X018416D01*D28*X00782Y004588D02*X00754Y004988D01*D13*X00732Y004588D02*
X0073Y004828D01*X007195Y004929D01*X007171Y005114D01*X006943Y005118D01*
Y005448D01*X00689D01*X006966Y005616D01*D10*X006866Y005846D01*
X007076Y006146D01*X007751Y006028D01*D13*X00689Y005448D02*X006691D01*
X006691Y004858D01*X006741Y004413D01*X006941D01*D28*X01549Y008468D02*
Y008228D01*X015076Y007899D01*X01443Y007888D01*D31*X017049Y00583D02*
Y005568D01*X01709Y005528D01*X01711Y005508D01*Y005178D01*
X017189Y005098D01*D40*X017362D01*X017539D01*D31*X017677Y005236D01*
Y005433D01*X017756Y005512D01*X01861D01*X018807Y005315D01*D28*
X006057Y005118D02*X006103Y005123D01*X006438D01*X006443Y005118D01*
X018622Y004528D02*Y004646D01*X018268Y005D01*X019094Y004528D02*
X019173D01*D32*X019449Y004803D01*D28*X00043Y008545D02*X00157Y008545D01*
X001686Y008494D01*X001685Y008307D01*X001685Y008023D01*X00183Y007878D01*
X00324D01*X003335Y007972D01*Y008307D01*X010288Y006148D02*
X011921Y006158D01*X012011Y006078D01*X012001Y006045D01*D49*
X011968Y005817D01*D28*X012011Y006078D02*X01096Y007207D01*
X01083Y007387D01*X01082Y007717D01*X0105Y008137D01*X01043Y008185D01*D35*
X022278Y005841D02*Y005251D01*X021786Y005841D02*X02161Y005468D01*
X02014D01*X019572Y005835D01*D28*Y005162D01*X019449Y005039D01*
X018543D01*X018453Y00513D01*Y005276D01*X02469Y005835D02*Y005153D01*
X024843Y005D01*X025118D01*X025394Y004724D01*Y004291D01*
X025412Y004307D01*X005631Y006873D02*Y006563D01*X005861Y006333D01*
X006381Y006463D01*X006421Y006503D01*X006632Y006504D01*
X008051Y006598D01*X009146Y004856D01*X009373Y004862D01*
X005131Y006873D02*X004851D01*X004621Y007103D01*Y007343D01*
X013606Y005269D02*X013622Y005551D01*X013626Y005549D01*D43*
X013266Y00629D01*X013192Y00665D01*D28*X007278Y008072D02*X007138D01*
X006728Y007642D01*X007778Y008072D02*X007928D01*X008588Y008232D01*
X009148Y008152D01*X009531Y008528D01*D32*X00754Y005488D02*
X007336Y005816D01*X007136Y005866D01*D28*X00202Y008248D02*
X002015Y008515D01*X00249Y008728D01*X00558D01*X00594Y007948D01*
X00621D01*X00669Y008728D01*X00864D01*X009025Y008403D01*
X003669Y008248D02*X003667Y008529D01*X00408Y008608D01*X005441D01*
X00582Y007828D01*X0063D01*X00702Y008608D01*X00741D01*X007548Y008322D01*
X003335Y006811D02*X00333Y006774D01*D22*X003412Y006626D01*
X003508Y00653D01*X00441Y006527D01*D13*X004648Y006378D01*D22*
X00333Y006774D02*X003276Y006829D01*X003Y00687D01*X002656Y006862D01*
X002372Y007248D01*X001833Y007227D01*X001685Y00706D01*X001685Y006811D01*
X001392Y006782D01*X00135Y00687D01*X00118Y006842D01*X00043Y005946D01*
D46*Y004464D01*X001965Y004465D01*D47*X0035Y004466D01*X004069Y004473D01*
D28*X004041Y004866D01*X004039Y004868D01*Y005315D01*X00403Y005288D01*
X00348D01*X003483Y005669D01*X00349Y005718D01*D36*X01811Y006654D02*
X01752Y006575D01*X017505Y005957D01*D28*X004134Y008268D02*
X00426Y008217D01*D38*X004263Y007973D01*X004271Y007063D01*
X005548Y005972D01*D44*X006453Y006127D01*D28*X004263Y007973D02*
X004621D01*X004488Y005752D02*X004798Y005692D01*D42*X004828Y005682D01*
X005548Y005472D01*X005738Y005562D01*X00606Y005567D01*X00621Y005578D01*
D28*X005557Y005512D01*Y005118D01*D42*X004798Y005692D02*
X004452Y00603D01*D37*X004128Y006306D01*X003484D01*X003116Y006228D01*
D41*X014006Y008626D02*X01384Y008318D01*X013887Y007978D01*X01404D01*
X01431Y007558D01*X014093Y007271D01*D40*X016614Y004843D02*X015906D01*
D28*X015512Y005236D01*X01451Y005247D01*X013937Y005236D01*
X01378Y005079D01*X013189D01*X013106Y005161D01*Y005269D01*
X01294Y005268D01*X012788Y005197D01*D40*X016614Y005354D02*X01689D01*D28*
X016979Y005276D01*Y004926D01*X017047Y004843D01*D40*X017362D01*
X017717D01*X017874Y004685D01*D28*X017913Y004646D01*X017874Y004685D02*
X017953Y004764D01*D40*Y005276D01*X017362Y005354D02*Y00563D01*D28*
X01748Y005748D01*X01815D01*X01873Y006338D01*Y006668D01*
X01894Y006818D01*X02152D01*X021772Y00685D01*X000984Y007686D02*
X000591Y007835D01*X000984Y007174D02*X000591Y007047D01*X01633Y008378D02*
X01641Y008738D01*X022924D01*X023378Y008625D01*X023772D01*D19*
X02307Y004588D02*X02277Y005841D01*D28*X0224Y008348D02*X02234Y008618D01*
X01707D01*X01695Y008508D01*D10*X0137Y004738D02*X013676Y004729D01*
X01461Y004287D01*X01552Y004618D01*X013676Y004729D02*X01464Y004407D01*
X015501Y004878D01*X014189Y004226D01*X01227Y004227D01*X01116D01*
X011076Y004252D01*X01075Y004598D01*X00999Y004607D01*Y005057D01*
X00981Y005237D01*Y005242D01*Y006107D01*Y006077D01*Y006107D01*
X00978Y006137D01*Y006347D01*X01083D01*Y006737D01*D15*X010288Y006739D01*
X00956Y006747D01*D10*X00914Y006217D01*X00913Y005327D01*
X00929Y005117D01*X01069Y005107D01*X01122Y004567D01*X01216Y004547D01*
X01256Y005407D01*X01284Y005437D01*X01304Y005737D01*X01289Y006867D01*
X013191Y007139D01*X013161Y007218D01*X01314Y007918D01*X010288Y006739D02*
X01068Y006737D01*X01083Y006743D01*Y007137D01*X0107Y007317D01*
X010659Y007726D01*D13*X010288Y007723D01*D15*X01083Y007137D02*
X010288Y007133D01*D10*X01083Y006743D02*Y00635D01*D15*X00978Y006347D01*
D10*X00981Y006317D01*Y006107D01*X00978Y006347D02*Y005562D01*D15*
X010288Y005558D01*D10*X01083Y00635D02*X010288Y006345D01*
X00981Y005242D02*X009656Y005156D01*X009266Y005096D01*X009146Y005456D01*
X009391Y005688D01*X009109Y005698D01*X008971D01*D39*X005951Y008605D02*
X006071Y008185D01*D13*X01664Y008518D02*Y007838D01*X01665Y007828D01*D10*
X017919Y007861D01*X017914Y007784D01*D13*X017916Y007784D01*
X017914Y007784D01*D10*X01792Y007778D01*X0181Y007808D01*D13*
X01834Y007628D01*D10*X018339Y007541D01*X017914Y007784D02*
X01588Y008168D01*D13*X01561Y008048D01*X01543Y007838D01*
X01552Y007538D01*X01618Y007298D01*X016419Y006841D01*X01663Y006688D01*
X016929Y006691D01*X017799Y006961D01*D10*X017916Y007784D02*
X017899Y008281D01*D13*X018109Y008041D01*X020419Y008101D01*
X020239Y008111D01*X01922Y007908D01*X020419Y008101D02*X02065Y007707D01*
X0212Y007618D01*X02161Y007867D01*X021614Y008228D01*D22*
X02232Y008028D01*X02289Y008032D01*X022892Y008108D01*D28*
X022912Y008089D01*D19*X023367D01*D28*X023372Y008285D01*D19*
X025209Y00829D01*D28*X023713D01*D19*X025209D02*X02515Y007955D01*D22*
X022892Y008108D02*X02288Y008348D01*D28*X02298Y007528D01*D13*
X017899Y008281D02*X016627Y008293D01*D19*X016863Y008018D01*D10*
X01579Y008098D01*X015643Y008057D01*X015524Y0079D01*Y007742D01*
X015591Y007244D01*D19*X015472Y007087D01*X015512Y006693D01*X014685D01*
X014671Y007618D01*D13*X0147Y007648D01*D19*X014671Y007618D02*Y006379D01*
D13*X01474Y006448D01*X01563D01*D19*X014671Y006379D02*Y006378D01*D10*
X016627Y008293D02*X01646Y008168D01*X01624Y008178D01*X01574Y008238D01*
X01599D01*D13*Y008468D01*D10*X01574Y008238D02*Y008708D01*
X015261Y008768D01*X015006Y008626D01*D28*X021479Y007381D02*X020549D01*
X020439Y007491D01*X020349D01*X020059Y007781D01*X019859D01*
X019749Y007671D01*X018809D01*X018469Y007331D01*X018229D01*
X018009Y007561D01*X017529D01*X017499Y007591D01*X016929D01*
X016836Y007352D01*D42*X00639Y005578D02*X006519Y005691D01*
X006919Y006331D01*X007951Y006398D01*X009076Y004626D01*
X009361Y004378D01*X009451Y004288D01*X010706Y004219D01*D13*
X00594Y006597D02*X006235Y006903D01*X006501Y007778D01*X00723Y008398D01*
D28*X010469Y008688D02*X010176Y008318D01*X009528Y008189D01*
X009173Y007992D01*X008615Y008088D01*X007711Y007752D01*
X007621Y007068D01*X007978Y008342D02*X00858Y008458D01*D32*
X00855Y007187D02*X008796Y00694D01*X010288Y006936D01*D28*
X00987Y00694D01*D32*Y007334D01*X010288Y00733D01*X009878Y007341D01*
Y007537D01*X010288Y007526D01*D28*X009436Y005376D02*X009608Y005552D01*
Y005952D01*X009588Y005982D01*X009598Y006432D01*X009718Y006542D01*
X010288D01*X012343Y005619D02*X01227Y005537D01*X012072D01*X01194D01*
X011717Y005759D01*X010288Y005755D01*X010744Y005766D01*Y005963D01*
X010288Y005952D01*X012072Y005537D02*X01227D01*X012072D01*X01217D01*
X012193Y005779D01*D45*X012153Y005999D01*X012171Y006128D01*D28*
X01203Y006317D01*X01122Y007127D01*X01096Y007437D01*X01095Y007747D01*
X010731Y008198D01*X012928Y004927D02*X01311Y004958D01*X01379D01*
X013937Y004921D01*D31*X01453Y004897D01*D28*X011452Y007765D02*
X011571Y007068D01*D45*X01234Y006348D01*D28*X012383Y005919D02*
X01255Y006268D01*Y006338D01*X01254Y006468D01*X012351Y006608D01*
X011701Y007138D01*X01185Y007948D01*X012121Y008323D01*X012271Y008413D01*
X01241Y008658D01*X01279Y005778D02*X01266Y006568D01*X012521Y006838D01*
X012279Y007954D01*X023358Y007534D02*X023553Y007665D01*X025127D01*D13*
X013566Y00638D02*X013671Y006608D01*X013449Y006809D01*X013391Y007138D01*
D43*X01612Y007808D02*X016599Y007021D01*X016989D01*X017221Y007338D01*
D32*X017639Y007191D01*D31*X018629D01*D32*X01876Y007208D01*X02002D01*
X02014Y007238D01*D28*X015383Y006139D02*X014576Y006149D01*
X01377Y006979D01*X0137Y007109D01*X013598Y007273D01*X013525Y007535D01*
X01337Y007888D01*X01333Y008088D01*X01287Y008238D01*X01273Y008258D01*
X012186Y008193D01*X012Y007928D01*X012131Y007348D01*X004712Y004603D02*
X004855Y004444D01*X00508Y004432D01*X014191Y008218D02*X015138D01*
X015186Y008279D01*D10*X021533Y006572D02*X02209Y006518D01*D13*
X01622Y006457D02*X015627Y005923D01*X0157Y005378D01*X015969Y005098D01*
D27*X016614D01*D28*X0166Y005098D01*D15*X01627D01*Y005778D01*
X016322Y00583D01*X016549D01*D10*X01498Y005568D02*X014851Y005718D01*D13*
X015736Y005669D01*X015631Y006348D01*X01565Y005608D01*X006541Y004413D02*
X006446Y004405D01*X006351Y004397D01*X00633Y004638D01*D12*
X005968Y004627D01*X004943Y004634D01*X00483Y005068D01*D14*
X004328Y005342D01*D13*X006351Y004397D02*X00558Y004432D01*D29*
X002479Y005105D02*X00202Y005103D01*X001935Y006228D01*X00192Y006347D01*
X002672Y006201D01*X0021Y006268D02*X00219Y005188D01*X00228Y006238D02*
X00237Y005158D01*X00246Y005098D02*Y006178D01*X002672Y006201D02*
X00247Y005558D01*X00249Y005098D01*D32*X00438Y006426D02*
X004611Y006263D01*D42*X00652Y006298D02*X005871Y006133D01*
X00545Y006168D01*X00621Y005578D02*X00639D01*D19*X011161Y004868D02*
X011791D01*X011151Y005278D02*X011811D01*X011821Y005078D02*X011131D01*
D32*X00872Y007028D02*X00985D01*D37*X00855Y007178D02*X00916Y006988D01*
D19*X011211Y008328D02*X011766D01*X011221Y008128D02*X011751Y008133D01*
D39*X02301Y007528D02*X0222D01*X02286Y007438D02*Y006538D01*
X02283Y006557D01*X02232Y006538D01*X02262Y007468D02*Y006688D01*D45*
X01391Y007268D02*X01415D01*D22*X000295Y005866D02*Y006457D01*X000886D01*
Y005866D01*X000394D01*X000886Y005965D02*X000492D01*X000886Y006063D02*
X000591D01*X000886Y006161D02*X000394D01*X000886Y00626D02*X000394D01*
X000886Y006358D02*X000394D01*D45*X0159Y007808D02*X01619Y007688D01*D30*
X003924Y00737D02*X001308Y007374D01*Y006886D01*X00068Y006402D02*
X001276Y006982D01*X001392Y007241D02*X002488Y007249D01*
X002452Y007254D02*X00394Y007242D01*D39*X004058Y004462D02*X004328D01*
D35*X022278Y005271D02*X021828D01*X021161Y005217D01*X020945Y004803D01*
D27*X016614Y005098D02*X016796Y005099D01*D43*X02016Y007238D02*
X02034Y007268D01*X017221Y007338D02*X0174Y007358D01*Y007298D02*
X01725D01*D42*X005378Y005572D02*X006558Y005792D01*X006598Y005852D02*
X005178Y005582D01*D18*X020588Y013523D02*X020559Y013551D01*Y01338D01*
X02053D01*X020559D02*X020588D01*X020445Y013551D02*X02033D01*
X020416Y01338D01*X020159Y013523D02*X020188Y013551D01*X020245D01*
X020273Y013523D01*Y013409D01*X020245Y01338D01*X020188D01*
X020159Y013409D01*Y013523D01*X020216Y013494D02*Y013437D01*
X019988Y013523D02*X020016Y013551D01*X020073D01*X020102Y013523D01*
Y013409D01*X020073Y01338D01*X020016D01*X019988Y013409D01*Y013523D01*
X020045Y013494D02*Y013437D01*X01993Y013466D02*X019816D01*
X019759Y01338D02*Y013551D01*X019702Y013466D01*X019645Y013551D01*
Y01338D01*X019559D02*Y013551D01*X019473Y01338D02*X019416Y013551D01*
X01938Y013444D01*X019359Y01338D01*X01938Y013444D02*X019452D01*
X019273Y013523D02*X019245Y013551D01*Y01338D01*X019216D01*X019245D02*
X019273D01*X01913Y013466D02*X019016D01*X018845Y013523D02*
X018873Y013551D01*X01893D01*X018959Y013523D01*Y013409D01*
X01893Y01338D01*X018873D01*X018845Y013409D01*Y013523D01*
X018902Y013494D02*Y013437D01*X018745Y01338D02*X01873D01*Y013394D01*
X018745D01*Y01338D01*X018502Y013523D02*X01853Y013551D01*X018588D01*
X018616Y013523D01*Y013409D01*X018588Y01338D01*X01853D01*
X018502Y013409D01*Y013523D01*X018559Y013494D02*Y013437D01*
X018416Y013523D02*X018388Y013551D01*Y01338D01*X018359D01*X018388D02*
X018416D01*D28*X00782Y009627D02*X00754Y010027D01*D13*X00732Y009627D02*
X0073Y009867D01*X007195Y009969D01*X007171Y010154D01*X006943Y010157D01*
Y010487D01*X00689D01*X006966Y010655D01*D10*X006866Y010885D01*
X007076Y011185D01*X007751Y011067D01*D13*X00689Y010487D02*X006691D01*
X006691Y009898D01*X006741Y009452D01*X006941D01*D28*X01549Y013507D02*
Y013267D01*X015076Y012938D01*X01443Y012927D01*D31*X017049Y010869D02*
Y010608D01*X01709Y010567D01*X01711Y010547D01*Y010217D01*
X017189Y010138D01*D40*X017362D01*X017539D01*D31*X017677Y010276D01*
Y010472D01*X017756Y010551D01*X01861D01*X018807Y010354D01*D28*
X006057Y010157D02*X006103Y010162D01*X006438D01*X006443Y010157D01*
X018622Y009567D02*Y009685D01*X018268Y010039D01*X019094Y009567D02*
X019173D01*D32*X019449Y009843D01*D28*X00043Y013584D02*X00157Y013584D01*
X001686Y013533D01*X001685Y013346D01*X001685Y013062D01*X00183Y012917D01*
X00324D01*X003335Y013012D01*Y013346D01*X010288Y011188D02*
X011921Y011197D01*X012011Y011117D01*X012001Y011085D01*D49*
X011968Y010856D01*D28*X012011Y011117D02*X01096Y012246D01*
X01083Y012426D01*X01082Y012756D01*X0105Y013176D01*X01043Y013224D01*D35*
X022278Y010881D02*Y01029D01*X021786Y010881D02*X02161Y010507D01*
X02014D01*X019572Y010874D01*D28*Y010202D01*X019449Y010079D01*
X018543D01*X018453Y010169D01*Y010315D01*X02469Y010874D02*Y010192D01*
X024843Y010039D01*X025118D01*X025394Y009764D01*Y009331D01*
X025412Y009346D01*X005631Y011912D02*Y011602D01*X005861Y011372D01*
X006381Y011502D01*X006421Y011542D01*X006632Y011543D01*
X008051Y011637D01*X009146Y009895D01*X009373Y009901D01*
X005131Y011912D02*X004851D01*X004621Y012142D01*Y012382D01*
X013606Y010308D02*X013622Y010591D01*X013626Y010588D01*D43*
X013266Y011329D01*X013192Y011689D01*D28*X007278Y013111D02*X007138D01*
X006728Y012681D01*X007778Y013111D02*X007928D01*X008588Y013271D01*
X009148Y013191D01*X009531Y013567D01*D32*X00754Y010527D02*
X007336Y010855D01*X007136Y010905D01*D28*X00202Y013287D02*
X002015Y013554D01*X00249Y013767D01*X00558D01*X00594Y012987D01*
X00621D01*X00669Y013767D01*X00864D01*X009025Y013442D01*
X003669Y013287D02*X003667Y013568D01*X00408Y013647D01*X005441D01*
X00582Y012867D01*X0063D01*X00702Y013647D01*X00741D01*X007548Y013361D01*
X003335Y01185D02*X00333Y011814D01*D22*X003412Y011665D01*
X003508Y011569D01*X00441Y011566D01*D13*X004648Y011417D01*D22*
X00333Y011814D02*X003276Y011868D01*X003Y011909D01*X002656Y011901D01*
X002372Y012287D01*X001833Y012266D01*X001685Y012099D01*X001685Y01185D01*
X001392Y011821D01*X00135Y011909D01*X00118Y011881D01*X00043Y010986D01*
D46*Y009503D01*X001965Y009504D01*D47*X0035Y009505D01*X004069Y009512D01*
D28*X004041Y009906D01*X004039Y009907D01*Y010355D01*X00403Y010327D01*
X00348D01*X003483Y010708D01*X00349Y010757D01*D36*X01811Y011693D02*
X01752Y011614D01*X017505Y010996D01*D28*X004134Y013307D02*
X00426Y013256D01*D38*X004263Y013012D01*X004271Y012102D01*
X005548Y011011D01*D44*X006453Y011166D01*D28*X004263Y013012D02*
X004621D01*X004488Y010791D02*X004798Y010731D01*D42*X004828Y010721D01*
X005548Y010511D01*X005738Y010601D01*X00606Y010606D01*X00621Y010617D01*
D28*X005557Y010551D01*Y010157D01*D42*X004798Y010731D02*
X004452Y011069D01*D37*X004128Y011345D01*X003484D01*X003116Y011268D01*
D41*X014006Y013665D02*X01384Y013357D01*X013887Y013017D01*X01404D01*
X01431Y012597D01*X014093Y01231D01*D40*X016614Y009882D02*X015906D01*D28*
X015512Y010276D01*X01451Y010286D01*X013937Y010276D01*X01378Y010118D01*
X013189D01*X013106Y010201D01*Y010308D01*X01294Y010307D01*
X012788Y010236D01*D40*X016614Y010394D02*X01689D01*D28*
X016979Y010315D01*Y009965D01*X017047Y009882D01*D40*X017362D01*
X017717D01*X017874Y009724D01*D28*X017913Y009685D01*X017874Y009724D02*
X017953Y009803D01*D40*Y010315D01*X017362Y010394D02*Y010669D01*D28*
X01748Y010787D01*X01815D01*X01873Y011377D01*Y011707D01*
X01894Y011857D01*X02152D01*X021772Y01189D01*X000984Y012726D02*
X000591Y012874D01*X000984Y012214D02*X000591Y012087D01*X01633Y013417D02*
X01641Y013777D01*X022924D01*X023378Y013664D01*X023772D01*D19*
X02307Y009627D02*X02277Y010881D01*D28*X0224Y013387D02*X02234Y013657D01*
X01707D01*X01695Y013547D01*D10*X0137Y009777D02*X013676Y009768D01*
X01461Y009326D01*X01552Y009657D01*X013676Y009768D02*X01464Y009446D01*
X015501Y009917D01*X014189Y009265D01*X01227Y009266D01*X01116D01*
X011076Y009291D01*X01075Y009637D01*X00999Y009646D01*Y010096D01*
X00981Y010276D01*Y010282D01*Y011146D01*Y011116D01*Y011146D01*
X00978Y011176D01*Y011386D01*X01083D01*Y011776D01*D15*X010288Y011778D01*
X00956Y011786D01*D10*X00914Y011256D01*X00913Y010366D01*
X00929Y010156D01*X01069Y010146D01*X01122Y009606D01*X01216Y009586D01*
X01256Y010446D01*X01284Y010476D01*X01304Y010776D01*X01289Y011906D01*
X013191Y012178D01*X013161Y012257D01*X01314Y012957D01*X010288Y011778D02*
X01068Y011776D01*X01083Y011783D01*Y012176D01*X0107Y012356D01*
X010659Y012765D01*D13*X010288Y012763D01*D15*X01083Y012176D02*
X010288Y012172D01*D10*X01083Y011783D02*Y011389D01*D15*X00978Y011386D01*
D10*X00981Y011356D01*Y011146D01*X00978Y011386D02*Y010602D01*D15*
X010288Y010597D01*D10*X01083Y011389D02*X010288Y011385D01*
X00981Y010282D02*X009656Y010195D01*X009266Y010135D01*X009146Y010495D01*
X009391Y010727D01*X009109Y010737D01*X008971D01*D39*X005951Y013644D02*
X006071Y013224D01*D13*X01664Y013557D02*Y012877D01*X01665Y012867D01*D10*
X017919Y0129D01*X017914Y012823D01*D13*X017916Y012823D01*
X017914Y012823D01*D10*X01792Y012817D01*X0181Y012847D01*D13*
X01834Y012667D01*D10*X018339Y01258D01*X017914Y012823D02*
X01588Y013207D01*D13*X01561Y013087D01*X01543Y012877D01*
X01552Y012577D01*X01618Y012337D01*X016419Y01188D01*X01663Y011727D01*
X016929Y01173D01*X017799Y012D01*D10*X017916Y012823D02*X017899Y01332D01*
D13*X018109Y01308D01*X020419Y01314D01*X020239Y01315D01*
X01922Y012947D01*X020419Y01314D02*X02065Y012746D01*X0212Y012657D01*
X02161Y012906D01*X021614Y013268D01*D22*X02232Y013067D01*
X02289Y013071D01*X022892Y013148D01*D28*X022912Y013128D01*D19*
X023367D01*D28*X023372Y013324D01*D19*X025209Y013329D01*D28*X023713D01*
D19*X025209D02*X02515Y012995D01*D22*X022892Y013148D02*X02288Y013387D01*
D28*X02298Y012567D01*D13*X017899Y01332D02*X016627Y013333D01*D19*
X016863Y013057D01*D10*X01579Y013137D01*X015643Y013096D01*
X015524Y012939D01*Y012781D01*X015591Y012283D01*D19*X015472Y012126D01*
X015512Y011732D01*X014685D01*X014671Y012657D01*D13*X0147Y012687D01*D19*
X014671Y012657D02*Y011418D01*D13*X01474Y011487D01*X01563D01*D19*
X014671Y011418D02*Y011417D01*D10*X016627Y013333D02*X01646Y013207D01*
X01624Y013217D01*X01574Y013277D01*X01599D01*D13*Y013507D01*D10*
X01574Y013277D02*Y013747D01*X015261Y013807D01*X015006Y013665D01*D28*
X021479Y01242D02*X020549D01*X020439Y01253D01*X020349D01*
X020059Y01282D01*X019859D01*X019749Y01271D01*X018809D01*
X018469Y01237D01*X018229D01*X018009Y0126D01*X017529D01*
X017499Y01263D01*X016929D01*X016836Y012392D01*D42*X00639Y010617D02*
X006519Y01073D01*X006919Y01137D01*X007951Y011437D01*X009076Y009665D01*
X009361Y009417D01*X009451Y009327D01*X010706Y009258D01*D13*
X00594Y011636D02*X006235Y011942D01*X006501Y012817D01*X00723Y013437D01*
D28*X010469Y013727D02*X010176Y013357D01*X009528Y013228D01*
X009173Y013031D01*X008615Y013127D01*X007711Y012791D01*
X007621Y012107D01*X007978Y013381D02*X00858Y013497D01*D32*
X00855Y012226D02*X008796Y01198D01*X010288Y011975D01*D28*
X00987Y01198D01*D32*Y012373D01*X010288Y012369D01*X009878Y01238D01*
Y012577D01*X010288Y012566D01*D28*X009436Y010415D02*X009608Y010591D01*
Y010991D01*X009588Y011021D01*X009598Y011471D01*X009718Y011581D01*
X010288D01*X012343Y010658D02*X01227Y010576D01*X012072D01*X01194D01*
X011717Y010799D01*X010288Y010794D01*X010744Y010805D01*Y011002D01*
X010288Y010991D01*X012072Y010576D02*X01227D01*X012072D01*X01217D01*
X012193Y010818D01*D45*X012153Y011038D01*X012171Y011167D01*D28*
X01203Y011356D01*X01122Y012166D01*X01096Y012476D01*X01095Y012786D01*
X010731Y013237D01*X012928Y009966D02*X01311Y009997D01*X01379D01*
X013937Y009961D01*D31*X01453Y009936D01*D28*X011452Y012804D02*
X011571Y012107D01*D45*X01234Y011387D01*D28*X012383Y010958D02*
X01255Y011307D01*Y011377D01*X01254Y011507D01*X012351Y011647D01*
X011701Y012177D01*X01185Y012987D01*X012121Y013362D01*X012271Y013452D01*
X01241Y013697D01*X01279Y010817D02*X01266Y011607D01*X012521Y011877D01*
X012279Y012993D01*X023358Y012573D02*X023553Y012704D01*X025127D01*D13*
X013566Y011419D02*X013671Y011647D01*X013449Y011848D01*
X013391Y012177D01*D43*X01612Y012847D02*X016599Y01206D01*X016989D01*
X017221Y012377D01*D32*X017639Y01223D01*D31*X018629D01*D32*
X01876Y012247D01*X02002D01*X02014Y012277D01*D28*X015383Y011178D02*
X014576Y011188D01*X01377Y012018D01*X0137Y012148D01*X013598Y012312D01*
X013525Y012574D01*X01337Y012927D01*X01333Y013127D01*X01287Y013277D01*
X01273Y013297D01*X012186Y013232D01*X012Y012967D01*X012131Y012387D01*
X004712Y009642D02*X004855Y009483D01*X00508Y009471D01*X014191Y013257D02*
X015138D01*X015186Y013318D01*D10*X021533Y011611D02*X02209Y011557D01*
D13*X01622Y011496D02*X015627Y010962D01*X0157Y010417D01*
X015969Y010138D01*D27*X016614D01*D28*X0166Y010137D01*D15*X01627D01*
Y010817D01*X016322Y010869D01*X016549D01*D10*X01498Y010607D02*
X014851Y010757D01*D13*X015736Y010708D01*X015631Y011387D01*
X01565Y010647D01*X006541Y009452D02*X006446Y009444D01*X006351Y009436D01*
X00633Y009677D01*D12*X005968Y009666D01*X004943Y009673D01*
X00483Y010107D01*D14*X004328Y010381D01*D13*X006351Y009436D02*
X00558Y009471D01*D29*X002479Y010144D02*X00202Y010142D01*
X001935Y011268D01*X00192Y011386D01*X002672Y011241D01*X0021Y011307D02*
X00219Y010227D01*X00228Y011277D02*X00237Y010197D01*X00246Y010137D02*
Y011217D01*X002672Y011241D02*X00247Y010597D01*X00249Y010137D01*D32*
X00438Y011465D02*X004611Y011302D01*D42*X00652Y011337D02*
X005871Y011172D01*X00545Y011207D01*X00621Y010617D02*X00639D01*D19*
X011161Y009907D02*X011791D01*X011151Y010317D02*X011811D01*
X011821Y010117D02*X011131D01*D32*X00872Y012067D02*X00985D01*D37*
X00855Y012217D02*X00916Y012027D01*D19*X011211Y013367D02*X011766D01*
X011221Y013167D02*X011751Y013172D01*D39*X02301Y012567D02*X0222D01*
X02286Y012477D02*Y011577D01*X02283Y011596D01*X02232Y011577D01*
X02262Y012507D02*Y011727D01*D45*X01391Y012307D02*X01415D01*D22*
X000295Y010906D02*Y011496D01*X000886D01*Y010906D01*X000394D01*
X000886Y011004D02*X000492D01*X000886Y011102D02*X000591D01*
X000886Y011201D02*X000394D01*X000886Y011299D02*X000394D01*
X000886Y011398D02*X000394D01*D45*X0159Y012847D02*X01619Y012727D01*D30*
X003924Y012409D02*X001308Y012413D01*Y011925D01*X00068Y011441D02*
X001276Y012021D01*X001392Y01228D02*X002488Y012288D01*X002452Y012293D02*
X00394Y012281D01*D39*X004058Y009501D02*X004328D01*D35*
X022278Y010311D02*X021828D01*X021161Y010256D01*X020945Y009843D01*D27*
X016614Y010138D02*X016796Y010138D01*D43*X02016Y012277D02*
X02034Y012307D01*X017221Y012377D02*X0174Y012397D01*Y012337D02*
X01725D01*D42*X005378Y010611D02*X006558Y010831D01*X006598Y010891D02*
X005178Y010621D01*D18*X020588Y018562D02*X020559Y018591D01*Y018419D01*
X02053D01*X020559D02*X020588D01*X020445Y018591D02*X02033D01*
X020416Y018419D01*X020159Y018562D02*X020188Y018591D01*X020245D01*
X020273Y018562D01*Y018448D01*X020245Y018419D01*X020188D01*
X020159Y018448D01*Y018562D01*X020216Y018534D02*Y018477D01*
X019988Y018562D02*X020016Y018591D01*X020073D01*X020102Y018562D01*
Y018448D01*X020073Y018419D01*X020016D01*X019988Y018448D01*Y018562D01*
X020045Y018534D02*Y018477D01*X01993Y018505D02*X019816D01*
X019759Y018419D02*Y018591D01*X019702Y018505D01*X019645Y018591D01*
Y018419D01*X019559D02*Y018591D01*X019473Y018419D02*X019416Y018591D01*
X01938Y018484D01*X019359Y018419D01*X01938Y018484D02*X019452D01*
X019273Y018562D02*X019245Y018591D01*Y018419D01*X019216D01*X019245D02*
X019273D01*X01913Y018505D02*X019016D01*X018845Y018562D02*
X018873Y018591D01*X01893D01*X018959Y018562D01*Y018448D01*
X01893Y018419D01*X018873D01*X018845Y018448D01*Y018562D01*
X018902Y018534D02*Y018477D01*X018745Y018419D02*X01873D01*Y018434D01*
X018745D01*Y018419D01*X018502Y018562D02*X01853Y018591D01*X018588D01*
X018616Y018562D01*Y018448D01*X018588Y018419D01*X01853D01*
X018502Y018448D01*Y018562D01*X018559Y018534D02*Y018477D01*
X018416Y018562D02*X018388Y018591D01*Y018419D01*X018359D01*X018388D02*
X018416D01*D28*X00782Y014666D02*X00754Y015066D01*D13*X00732Y014666D02*
X0073Y014906D01*X007195Y015008D01*X007171Y015193D01*X006943Y015197D01*
Y015526D01*X00689D01*X006966Y015695D01*D10*X006866Y015925D01*
X007076Y016225D01*X007751Y016106D01*D13*X00689Y015526D02*X006691D01*
X006691Y014937D01*X006741Y014491D01*X006941D01*D28*X01549Y018546D02*
Y018306D01*X015076Y017977D01*X01443Y017966D01*D31*X01861Y015591D02*
X018807Y015394D01*X017756Y015591D02*X01861D01*X017677Y015512D02*
X017756Y015591D01*X017677Y015315D02*Y015512D01*X017539Y015177D02*
X017677Y015315D01*D40*X017362Y015177D02*X017539D01*X017189D02*
X017362D01*D31*X01711Y015256D02*X017189Y015177D01*X01711Y015586D02*
Y015256D01*X017049Y015647D02*X01711Y015586D01*X017049Y015909D02*
Y015647D01*D28*X006057Y015197D02*X006103Y015202D01*X006438D01*
X006443Y015197D01*X018622Y014606D02*Y014724D01*X018268Y015079D01*
X019094Y014606D02*X019173D01*D32*X019449Y014882D01*D28*
X00043Y018624D02*X00157Y018624D01*X001686Y018573D01*X001685Y018386D01*
X001685Y018102D01*X00183Y017956D01*X00324D01*X003335Y018051D01*
Y018386D01*X010288Y016227D02*X011921Y016236D01*X012011Y016156D01*
X012001Y016124D01*D49*X011968Y015895D01*D28*X012011Y016156D02*
X01096Y017285D01*X01083Y017465D01*X01082Y017795D01*X0105Y018215D01*
X01043Y018263D01*D35*X022278Y01592D02*Y015329D01*X021786Y01592D02*
X02161Y015546D01*X02014D01*X019572Y015913D01*D28*Y015241D01*
X019449Y015118D01*X018543D01*X018453Y015209D01*Y015354D01*
X02469Y015913D02*Y015231D01*X024843Y015079D01*X025118D01*
X025394Y014803D01*Y01437D01*X025412Y014385D01*X005631Y016951D02*
Y016641D01*X005861Y016411D01*X006381Y016541D01*X006421Y016581D01*
X006632Y016583D01*X008051Y016676D01*X009146Y014935D01*X009373Y01494D01*
X005131Y016951D02*X004851D01*X004621Y017181D01*Y017421D01*
X013606Y015347D02*X013622Y01563D01*X013626Y015627D01*D43*
X013266Y016368D01*X013192Y016728D01*D28*X007278Y01815D02*X007138D01*
X006728Y01772D01*X007778Y01815D02*X007928D01*X008588Y01831D01*
X009148Y01823D01*X009531Y018606D01*D32*X00754Y015566D02*
X007336Y015895D01*X007136Y015945D01*D28*X00202Y018327D02*
X002015Y018594D01*X00249Y018806D01*X00558D01*X00594Y018026D01*
X00621D01*X00669Y018806D01*X00864D01*X009025Y018481D01*
X003669Y018327D02*X003667Y018608D01*X00408Y018686D01*X005441D01*
X00582Y017906D01*X0063D01*X00702Y018686D01*X00741D01*X007548Y0184D01*
X003335Y01689D02*X00333Y016853D01*D22*X003412Y016704D01*
X003508Y016608D01*X00441Y016605D01*D13*X004648Y016456D01*D22*
X00333Y016853D02*X003276Y016907D01*X003Y016949D01*X002656Y01694D01*
X002372Y017327D01*X001833Y017306D01*X001685Y017139D01*X001685Y01689D01*
X001392Y01686D01*X00135Y016949D01*X00118Y01692D01*X00043Y016025D01*D46*
Y014543D01*X001965Y014544D01*D47*X0035Y014544D01*X004069Y014551D01*D28*
X004041Y014945D01*X004039Y014946D01*Y015394D01*X00403Y015366D01*
X00348D01*X003483Y015748D01*X00349Y015796D01*D36*X01811Y016732D02*
X01752Y016654D01*X017505Y016035D01*D28*X004134Y018346D02*
X00426Y018296D01*D38*X004263Y018051D01*X004271Y017141D01*
X005548Y016051D01*D44*X006453Y016205D01*D28*X004263Y018051D02*
X004621D01*X004488Y015831D02*X004798Y015771D01*D42*X004828Y015761D01*
X005548Y015551D01*X005738Y015641D01*X00606Y015645D01*X00621Y015656D01*
D28*X005557Y015591D01*Y015197D01*D42*X004798Y015771D02*
X004452Y016108D01*D37*X004128Y016384D01*X003484D01*X003116Y016307D01*
D41*X014006Y018705D02*X01384Y018396D01*X013887Y018056D01*X01404D01*
X01431Y017636D01*X014093Y017349D01*D40*X016614Y014921D02*X015906D01*
D28*X015512Y015315D01*X01451Y015326D01*X013937Y015315D01*
X01378Y015157D01*X013189D01*X013106Y01524D01*Y015347D01*
X01294Y015346D01*X012788Y015275D01*D40*X016614Y015433D02*X01689D01*D28*
X016979Y015354D01*Y015004D01*X017047Y014921D01*D40*X017362D01*
X017717D01*X017874Y014764D01*D28*X017913Y014724D01*X017874Y014764D02*
X017953Y014843D01*D40*Y015354D01*X017362Y015433D02*Y015709D01*D28*
X01748Y015827D01*X01815D01*X01873Y016416D01*Y016746D01*
X01894Y016896D01*X02152D01*X021772Y016929D01*X000984Y017765D02*
X000591Y017913D01*X000984Y017253D02*X000591Y017126D01*X01633Y018456D02*
X01641Y018816D01*X022924D01*X023378Y018703D01*X023772D01*D19*
X02307Y014666D02*X02277Y01592D01*D28*X0224Y018426D02*X02234Y018696D01*
X01707D01*X01695Y018586D01*D10*X0137Y014816D02*X013676Y014808D01*
X01461Y014366D01*X01552Y014696D01*X013676Y014808D02*X01464Y014486D01*
X015501Y014956D01*X014189Y014304D01*X01227Y014305D01*X01116D01*
X011076Y01433D01*X01075Y014676D01*X00999Y014685D01*Y015135D01*
X00981Y015315D01*Y015321D01*Y016185D01*Y016155D01*Y016185D01*
X00978Y016215D01*Y016425D01*X01083D01*Y016815D01*D15*X010288Y016818D01*
X00956Y016826D01*D10*X00914Y016296D01*X00913Y015406D01*
X00929Y015196D01*X01069Y015186D01*X01122Y014646D01*X01216Y014626D01*
X01256Y015486D01*X01284Y015516D01*X01304Y015816D01*X01289Y016946D01*
X013191Y017217D01*X013161Y017296D01*X01314Y017996D01*X010288Y016818D02*
X01068Y016815D01*X01083Y016822D01*Y017216D01*X0107Y017395D01*
X010659Y017804D01*D13*X010288Y017802D01*D15*X01083Y017216D02*
X010288Y017211D01*D10*X01083Y016822D02*Y016428D01*D15*X00978Y016425D01*
D10*X00981Y016395D01*Y016185D01*X00978Y016425D02*Y015641D01*D15*
X010288Y015637D01*D10*X01083Y016428D02*X010288Y016424D01*
X00981Y015321D02*X009656Y015235D01*X009266Y015175D01*X009146Y015535D01*
X009391Y015766D01*X009109Y015776D01*X008971D01*D39*X005951Y018683D02*
X006071Y018263D01*D13*X01664Y018596D02*Y017916D01*X01665Y017906D01*D10*
X017919Y017939D01*X017914Y017862D01*D13*X017916Y017863D01*
X017914Y017862D01*D10*X01792Y017856D01*X0181Y017886D01*D13*
X01834Y017706D01*D10*X018339Y017619D01*X017914Y017862D02*
X01588Y018246D01*D13*X01561Y018126D01*X01543Y017916D01*
X01552Y017616D01*X01618Y017376D01*X016419Y016919D01*X01663Y016766D01*
X016929Y016769D01*X017799Y017039D01*D10*X017916Y017863D02*
X017899Y018359D01*D13*X018109Y018119D01*X020419Y018179D01*
X020239Y018189D01*X01922Y017986D01*X020419Y018179D02*X02065Y017785D01*
X0212Y017696D01*X02161Y017945D01*X021614Y018307D01*D22*
X02232Y018106D01*X02289Y01811D01*X022892Y018187D01*D28*
X022912Y018167D01*D19*X023367D01*D28*X023372Y018363D01*D19*
X025209Y018369D01*D28*X023713D01*D19*X025209D02*X02515Y018034D01*D22*
X022892Y018187D02*X02288Y018426D01*D28*X02298Y017606D01*D13*
X017899Y018359D02*X016627Y018372D01*D19*X016863Y018096D01*D10*
X01579Y018176D01*X015643Y018136D01*X015524Y017978D01*Y017821D01*
X015591Y017323D01*D19*X015472Y017165D01*X015512Y016772D01*X014685D01*
X014671Y017696D01*D13*X0147Y017726D01*D19*X014671Y017696D02*Y016458D01*
D13*X01474Y016526D01*X01563D01*D19*X014671Y016458D02*Y016456D01*D10*
X016627Y018372D02*X01646Y018246D01*X01624Y018256D01*X01574Y018316D01*
X01599D01*D13*Y018546D01*D10*X01574Y018316D02*Y018786D01*
X015261Y018846D01*X015006Y018705D01*D28*X021479Y017459D02*X020549D01*
X020439Y017569D01*X020349D01*X020059Y017859D01*X019859D01*
X019749Y017749D01*X018809D01*X018469Y017409D01*X018229D01*
X018009Y017639D01*X017529D01*X017499Y017669D01*X016929D01*
X016836Y017431D01*D42*X00639Y015656D02*X006519Y015769D01*
X006919Y016409D01*X007951Y016476D01*X009076Y014705D01*
X009361Y014456D01*X009451Y014366D01*X010706Y014297D01*D13*
X00594Y016675D02*X006235Y016981D01*X006501Y017856D01*X00723Y018476D01*
D28*X010469Y018766D02*X010176Y018396D01*X009528Y018268D01*
X009173Y018071D01*X008615Y018166D01*X007711Y017831D01*
X007621Y017146D01*X007978Y01842D02*X00858Y018536D01*D32*
X00855Y017265D02*X008796Y017019D01*X010288Y017015D01*D28*
X00987Y017019D01*D32*Y017413D01*X010288Y017408D01*X009878Y017419D01*
Y017616D01*X010288Y017605D01*D28*X009436Y015454D02*X009608Y015631D01*
Y016031D01*X009588Y016061D01*X009598Y016511D01*X009718Y016621D01*
X010288D01*X012343Y015697D02*X01227Y015615D01*X012072D01*X01194D01*
X011717Y015838D01*X010288Y015833D01*X010744Y015845D01*Y016041D01*
X010288Y01603D01*X012072Y015615D02*X01227D01*X012072D01*X01217D01*
X012193Y015857D01*D45*X012153Y016077D01*X012171Y016206D01*D28*
X01203Y016395D01*X01122Y017205D01*X01096Y017515D01*X01095Y017825D01*
X010731Y018276D01*X012928Y015005D02*X01311Y015036D01*X01379D01*
X013937Y015D01*D31*X01453Y014976D01*D28*X011452Y017843D02*
X011571Y017146D01*D45*X01234Y016426D01*D28*X012383Y015997D02*
X01255Y016346D01*Y016416D01*X01254Y016546D01*X012351Y016686D01*
X011701Y017216D01*X01185Y018026D01*X012121Y018401D01*X012271Y018491D01*
X01241Y018736D01*X01279Y015856D02*X01266Y016646D01*X012521Y016916D01*
X012279Y018032D01*X023358Y017612D02*X023553Y017744D01*X025127D01*D13*
X013566Y016458D02*X013671Y016686D01*X013449Y016887D01*
X013391Y017216D01*D43*X01612Y017886D02*X016599Y017099D01*X016989D01*
X017221Y017416D01*D32*X017639Y017269D01*D31*X018629D01*D32*
X01876Y017286D01*X02002D01*X02014Y017316D01*D28*X015383Y016217D02*
X014576Y016227D01*X01377Y017058D01*X0137Y017188D01*X013598Y017351D01*
X013525Y017613D01*X01337Y017966D01*X01333Y018166D01*X01287Y018316D01*
X01273Y018336D01*X012186Y018271D01*X012Y018006D01*X012131Y017426D01*
X004712Y014681D02*X004855Y014522D01*X00508Y01451D01*X014191Y018296D02*
X015138D01*X015186Y018357D01*D10*X021533Y01665D02*X02209Y016596D01*D13*
X01622Y016535D02*X015627Y016002D01*X0157Y015456D01*X015969Y015177D01*
D27*X016614D01*D28*X0166Y015176D01*D15*X01627D01*Y015856D01*
X016322Y015909D01*X016549D01*D10*X01498Y015646D02*X014851Y015796D01*
D13*X015736Y015747D01*X015631Y016426D01*X01565Y015686D01*
X006541Y014491D02*X006446Y014483D01*X006351Y014475D01*X00633Y014716D01*
D12*X005968Y014705D01*X004943Y014712D01*X00483Y015146D01*D14*
X004328Y015421D01*D13*X006351Y014475D02*X00558Y01451D01*D29*
X002479Y015183D02*X00202Y015181D01*X001935Y016307D01*X00192Y016425D01*
X002672Y01628D01*X0021Y016346D02*X00219Y015266D01*X00228Y016316D02*
X00237Y015236D01*X00246Y015176D02*Y016256D01*X002672Y01628D02*
X00247Y015636D01*X00249Y015176D01*D32*X00438Y016504D02*
X004611Y016342D01*D42*X00652Y016376D02*X005871Y016211D01*
X00545Y016246D01*X00621Y015656D02*X00639D01*D19*X011161Y014946D02*
X011791D01*X011151Y015356D02*X011811D01*X011821Y015156D02*X011131D01*
D32*X00872Y017106D02*X00985D01*D37*X00855Y017256D02*X00916Y017066D01*
D19*X011211Y018406D02*X011766D01*X011221Y018206D02*X011751Y018211D01*
D39*X02301Y017606D02*X0222D01*X02286Y017516D02*Y016616D01*
X02283Y016635D01*X02232Y016616D01*X02262Y017546D02*Y016766D01*D45*
X01391Y017346D02*X01415D01*D22*X000295Y015945D02*Y016535D01*X000886D01*
Y015945D01*X000394D01*X000886Y016043D02*X000492D01*X000886Y016142D02*
X000591D01*X000886Y01624D02*X000394D01*X000886Y016339D02*X000394D01*
X000886Y016437D02*X000394D01*D45*X0159Y017886D02*X01619Y017766D01*D30*
X003924Y017448D02*X001308Y017452D01*Y016964D01*X00068Y01648D02*
X001276Y01706D01*X001392Y01732D02*X002488Y017328D01*X002452Y017332D02*
X00394Y01732D01*D39*X004058Y01454D02*X004328D01*D35*X022278Y01535D02*
X021828D01*X021161Y015295D01*X020945Y014882D01*D27*X016614Y015177D02*
X016796Y015177D01*D43*X02016Y017316D02*X02034Y017346D01*
X017221Y017416D02*X0174Y017436D01*Y017376D02*X01725D01*D42*
X005378Y015651D02*X006558Y015871D01*X006598Y015931D02*
X005178Y015661D01*
%LPD*%
D49*X007874Y002362D03*Y020866D03*X019685Y002362D03*D62*
X00782Y004588D03*D59*X00754Y004988D03*D62*X00732Y004588D03*D15*
Y004688D02*Y004748D01*X007195Y004588D02*X007135D01*X00732Y004488D02*
Y004428D01*X007445Y004588D02*X007505D01*D62*X006943Y005118D03*D15*
Y005218D02*Y005278D01*X006818Y005118D02*X006758D01*X006943Y005018D02*
Y004958D01*X007068Y005118D02*X007128D01*D32*X00689Y005448D03*
X006966Y005616D03*X007751Y006028D03*X006691Y005448D03*
X006741Y004413D03*X006941D03*D62*X01549Y008468D03*D32*X01443Y007888D03*
D62*X017049Y00583D03*D64*X017362Y005098D03*D32*X018807Y005315D03*D62*
X006057Y005118D03*X006443D03*D71*X018622Y004528D03*D32*X018268Y005D03*
D71*X019094Y004528D03*D32*X019449Y004803D03*D57*X00043Y008545D03*D63*
X001685Y008307D03*X003335D03*D86*X010288Y006148D03*D32*
X011968Y005817D03*X01043Y008185D03*D75*X011489Y008205D03*Y005076D03*
D19*X021063Y008189D03*D10*X024902Y004488D03*X023524Y005906D03*
X022475Y004686D03*D66*X022278Y005841D03*D32*Y005251D03*D66*
X021786Y005841D03*D92*X019572Y005835D03*D62*X018453Y005276D03*D90*
X020782Y0047D03*X023774D03*D92*X02469Y005835D03*D32*X025394Y004291D03*
D48*X025412Y004307D03*D62*X005631Y006873D03*D32*X009373Y004862D03*D62*
X005131Y006873D03*D65*X004621Y007343D03*D62*X013606Y005269D03*D32*
X013626Y005549D03*X013192Y00665D03*D62*X007278Y008072D03*D32*
X006728Y007642D03*D62*X007778Y008072D03*D32*X009531Y008528D03*D59*
X00754Y005488D03*D32*X007336Y005816D03*X007136Y005866D03*D67*
X001345Y006228D03*D87*X003805Y005087D03*Y005913D03*X000656D03*
Y005087D03*D12*X002821Y0055D03*X00164D03*D60*X00135Y008248D03*D61*
X00202D03*D32*X009025Y008403D03*D60*X00202Y00687D03*X003Y008248D03*D61*
X003669D03*D32*X007548Y008322D03*D60*X003669Y00687D03*D63*
X003335Y006811D03*D32*X004648Y006378D03*D61*X003Y00687D03*D63*
X001685Y006811D03*D61*X00135Y00687D03*D57*X00043Y005946D03*D32*
X004069Y004473D03*X004039Y004868D03*X00403Y005288D03*X00348D03*
X00349Y005718D03*D73*X023772Y007955D03*X02515Y008625D03*D49*
X01811Y006654D03*D32*X017505Y005957D03*D49*X004134Y008268D03*D32*
X00426Y008218D03*X005548Y005972D03*X006453Y006127D03*D65*
X004621Y007973D03*D49*X004488Y005752D03*D32*X00621Y005578D03*D62*
X005557Y005118D03*D67*X003116Y006228D03*D47*X014006Y008626D03*D32*
X014093Y007271D03*D47*X013006Y008626D03*X012006D03*X011006D03*
X010006D03*D52*X00867Y007657D03*D64*X016614Y004843D03*D62*
X013106Y005269D03*D32*X012788Y005197D03*D64*X016614Y005354D03*
X017362Y004843D03*D49*X017913Y004646D03*D62*X017953Y005276D03*D64*
X017362Y005354D03*D32*X021772Y00685D03*X000984Y007686D03*D49*
X000591Y007835D03*D32*X000984Y007174D03*D49*X000591Y007047D03*D32*
X01633Y008378D03*D74*X023772Y008625D03*D32*X02307Y004588D03*D66*
X02277Y005841D03*D32*X0224Y008348D03*X01695Y008508D03*X0137Y004738D03*
X01552Y004618D03*X015501Y004878D03*X00999Y004607D03*D86*
X010288Y006739D03*D32*X013191Y007138D03*X01314Y007918D03*D86*
X010288Y007723D03*Y007133D03*D32*X00981Y006107D03*D86*
X010288Y005558D03*Y006345D03*D32*X009391Y005688D03*X008971Y005698D03*
X005951Y008605D03*X006071Y008185D03*X01664Y008518D03*X017919Y007861D03*
X018339Y007541D03*X017799Y006961D03*X01922Y007908D03*D63*
X025209Y00829D03*X023713D03*D74*X02515Y007955D03*D32*X02288Y008348D03*
X02298Y007528D03*X0147Y007648D03*X01563Y006448D03*X014671Y006378D03*
D62*X01599Y008468D03*D47*X015006Y008626D03*D32*X021479Y007381D03*
X018009Y007561D03*X016836Y007352D03*X00639Y005578D03*X010706Y004219D03*
X00594Y006597D03*X006235Y006903D03*X00723Y008398D03*X010469Y008688D03*
X007621Y007068D03*X00792Y007037D03*X007978Y008342D03*X00858Y008458D03*
X00855Y007187D03*D86*X010288Y006936D03*Y00733D03*Y007526D03*D32*
X009436Y005376D03*D86*X010288Y006542D03*D32*X012343Y005619D03*D86*
X010288Y005755D03*Y005952D03*D32*X010731Y008198D03*X012928Y004927D03*
X013937Y004921D03*D49*X01453Y004897D03*D32*X011452Y007765D03*
X01234Y006348D03*X012383Y005919D03*X01241Y008658D03*X01279Y005778D03*
X012279Y007954D03*X023358Y007534D03*X025127Y007665D03*X013566Y00638D03*
X013391Y007138D03*X01612Y007808D03*X017221Y007338D03*X02014Y007238D03*
X015383Y006139D03*X012131Y007348D03*X004712Y004603D03*D62*
X00508Y004432D03*D32*X014191Y008218D03*X015186Y008279D03*
X021533Y006572D03*X02209Y006518D03*X013883Y007271D03*X013951Y007608D03*
X01566Y007018D03*X0162D03*X01622Y006457D03*X0157Y005378D03*D64*
X016614Y005098D03*D62*X016549Y00583D03*D32*X017799Y006358D03*
X018451Y006391D03*X01741Y007328D03*X018429Y006961D03*X018798Y005981D03*
X02002Y006608D03*X01906D03*X02208Y007618D03*X0229Y006548D03*
X01914Y007448D03*X01591Y007808D03*X02035Y007268D03*X00833Y005207D03*
X01498Y005568D03*X014851Y005718D03*X01565Y005608D03*X00089Y005288D03*
X000415Y00529D03*X000393Y005724D03*X000892Y005751D03*X00089Y004888D03*
X000382Y004894D03*X00426Y008398D03*X00459Y008358D03*X00652Y006288D03*
X004444Y006382D03*X006541Y004413D03*X004328Y005342D03*D62*
X00558Y004432D03*D32*X005188Y005882D03*X005018Y005332D03*
X002479Y005105D03*X00202Y005103D03*D67*X001935Y006228D03*D32*
X00192Y006347D03*X002672Y006201D03*X000376Y004465D03*X01275Y008038D03*
X01996Y007568D03*D62*X00782Y009627D03*D59*X00754Y010027D03*D62*
X00732Y009627D03*D15*Y009727D02*Y009787D01*X007195Y009627D02*
X007135D01*X00732Y009527D02*Y009467D01*X007445Y009627D02*X007505D01*
D62*X006943Y010157D03*D15*Y010257D02*Y010317D01*X006818Y010157D02*
X006758D01*X006943Y010057D02*Y009997D01*X007068Y010157D02*X007128D01*
D32*X00689Y010487D03*X006966Y010655D03*X007751Y011067D03*
X006691Y010487D03*X006741Y009452D03*X006941D03*D62*X01549Y013507D03*
D32*X01443Y012927D03*D62*X017049Y010869D03*D64*X017362Y010138D03*D32*
X018807Y010354D03*D62*X006057Y010157D03*X006443D03*D71*
X018622Y009567D03*D32*X018268Y010039D03*D71*X019094Y009567D03*D32*
X019449Y009843D03*D57*X00043Y013584D03*D63*X001685Y013346D03*
X003335D03*D86*X010288Y011188D03*D32*X011968Y010856D03*
X01043Y013224D03*D75*X011489Y013245D03*Y010115D03*D19*
X021063Y013228D03*D10*X024902Y009528D03*X023524Y010945D03*
X022475Y009725D03*D66*X022278Y010881D03*D32*Y01029D03*D66*
X021786Y010881D03*D92*X019572Y010874D03*D62*X018453Y010315D03*D90*
X020782Y009739D03*X023774D03*D92*X02469Y010874D03*D32*
X025394Y009331D03*D48*X025412Y009346D03*D62*X005631Y011912D03*D32*
X009373Y009901D03*D62*X005131Y011912D03*D65*X004621Y012382D03*D62*
X013606Y010308D03*D32*X013626Y010588D03*X013192Y011689D03*D62*
X007278Y013111D03*D32*X006728Y012681D03*D62*X007778Y013111D03*D32*
X009531Y013567D03*D59*X00754Y010527D03*D32*X007336Y010855D03*
X007136Y010905D03*D67*X001345Y011268D03*D87*X003805Y010126D03*
Y010953D03*X000656D03*Y010126D03*D12*X002821Y010539D03*X00164D03*D60*
X00135Y013287D03*D61*X00202D03*D32*X009025Y013442D03*D60*
X00202Y011909D03*X003Y013287D03*D61*X003669D03*D32*X007548Y013361D03*
D60*X003669Y011909D03*D63*X003335Y01185D03*D32*X004648Y011417D03*D61*
X003Y011909D03*D63*X001685Y01185D03*D61*X00135Y011909D03*D57*
X00043Y010986D03*D32*X004069Y009512D03*X004039Y009907D03*
X00403Y010327D03*X00348D03*X00349Y010757D03*D73*X023772Y012995D03*
X02515Y013664D03*D49*X01811Y011693D03*D32*X017505Y010996D03*D49*
X004134Y013307D03*D32*X00426Y013257D03*X005548Y011011D03*
X006453Y011166D03*D65*X004621Y013012D03*D49*X004488Y010791D03*D32*
X00621Y010617D03*D62*X005557Y010157D03*D67*X003116Y011268D03*D47*
X014006Y013665D03*D32*X014093Y01231D03*D47*X013006Y013665D03*
X012006D03*X011006D03*X010006D03*D52*X00867Y012696D03*D64*
X016614Y009882D03*D62*X013106Y010308D03*D32*X012788Y010236D03*D64*
X016614Y010394D03*X017362Y009882D03*D49*X017913Y009685D03*D62*
X017953Y010315D03*D64*X017362Y010394D03*D32*X021772Y01189D03*
X000984Y012726D03*D49*X000591Y012874D03*D32*X000984Y012214D03*D49*
X000591Y012087D03*D32*X01633Y013417D03*D74*X023772Y013664D03*D32*
X02307Y009627D03*D66*X02277Y010881D03*D32*X0224Y013387D03*
X01695Y013547D03*X0137Y009777D03*X01552Y009657D03*X015501Y009917D03*
X00999Y009646D03*D86*X010288Y011778D03*D32*X013191Y012177D03*
X01314Y012957D03*D86*X010288Y012763D03*Y012172D03*D32*X00981Y011146D03*
D86*X010288Y010597D03*Y011385D03*D32*X009391Y010727D03*
X008971Y010737D03*X005951Y013644D03*X006071Y013224D03*X01664Y013557D03*
X017919Y0129D03*X018339Y01258D03*X017799Y012D03*X01922Y012947D03*D63*
X025209Y013329D03*X023713D03*D74*X02515Y012995D03*D32*X02288Y013387D03*
X02298Y012567D03*X0147Y012687D03*X01563Y011487D03*X014671Y011417D03*
D62*X01599Y013507D03*D47*X015006Y013665D03*D32*X021479Y01242D03*
X018009Y0126D03*X016836Y012392D03*X00639Y010617D03*X010706Y009258D03*
X00594Y011636D03*X006235Y011942D03*X00723Y013437D03*X010469Y013727D03*
X007621Y012107D03*X00792Y012076D03*X007978Y013381D03*X00858Y013497D03*
X00855Y012226D03*D86*X010288Y011975D03*Y012369D03*Y012566D03*D32*
X009436Y010415D03*D86*X010288Y011581D03*D32*X012343Y010658D03*D86*
X010288Y010794D03*Y010991D03*D32*X010731Y013237D03*X012928Y009966D03*
X013937Y009961D03*D49*X01453Y009936D03*D32*X011452Y012804D03*
X01234Y011387D03*X012383Y010958D03*X01241Y013697D03*X01279Y010817D03*
X012279Y012993D03*X023358Y012573D03*X025127Y012704D03*
X013566Y011419D03*X013391Y012177D03*X01612Y012847D03*X017221Y012377D03*
X02014Y012277D03*X015383Y011178D03*X012131Y012387D03*X004712Y009642D03*
D62*X00508Y009471D03*D32*X014191Y013257D03*X015186Y013318D03*
X021533Y011611D03*X02209Y011557D03*X013883Y01231D03*X013951Y012647D03*
X01566Y012057D03*X0162D03*X01622Y011496D03*X0157Y010417D03*D64*
X016614Y010138D03*D62*X016549Y010869D03*D32*X017799Y011397D03*
X018451Y01143D03*X01741Y012367D03*X018429Y012D03*X018798Y01102D03*
X02002Y011647D03*X01906D03*X02208Y012657D03*X0229Y011587D03*
X01914Y012487D03*X01591Y012847D03*X02035Y012307D03*X00833Y010246D03*
X01498Y010607D03*X014851Y010757D03*X01565Y010647D03*X00089Y010327D03*
X000415Y010329D03*X000393Y010764D03*X000892Y01079D03*X00089Y009927D03*
X000382Y009934D03*X00426Y013437D03*X00459Y013397D03*X00652Y011327D03*
X004444Y011421D03*X006541Y009452D03*X004328Y010381D03*D62*
X00558Y009471D03*D32*X005188Y010921D03*X005018Y010371D03*
X002479Y010144D03*X00202Y010142D03*D67*X001935Y011268D03*D32*
X00192Y011386D03*X002672Y011241D03*X000376Y009504D03*X01275Y013077D03*
X01996Y012607D03*D62*X00782Y014666D03*D59*X00754Y015066D03*D62*
X00732Y014666D03*D15*Y014766D02*Y014826D01*X007195Y014666D02*
X007135D01*X00732Y014566D02*Y014506D01*X007445Y014666D02*X007505D01*
D62*X006943Y015197D03*D15*Y015297D02*Y015357D01*X006818Y015197D02*
X006758D01*X006943Y015097D02*Y015037D01*X007068Y015197D02*X007128D01*
D32*X00689Y015526D03*X006966Y015695D03*X007751Y016106D03*
X006691Y015526D03*X006741Y014491D03*X006941D03*D62*X01549Y018546D03*
D32*X01443Y017966D03*X018807Y015394D03*D64*X017362Y015177D03*D62*
X017049Y015909D03*X006057Y015197D03*X006443D03*D71*X018622Y014606D03*
D32*X018268Y015079D03*D71*X019094Y014606D03*D32*X019449Y014882D03*D57*
X00043Y018624D03*D63*X001685Y018386D03*X003335D03*D86*
X010288Y016227D03*D32*X011968Y015895D03*X01043Y018263D03*D75*
X011489Y018284D03*Y015154D03*D19*X021063Y018268D03*D10*
X024902Y014567D03*X023524Y015984D03*X022475Y014765D03*D66*
X022278Y01592D03*D32*Y015329D03*D66*X021786Y01592D03*D92*
X019572Y015913D03*D62*X018453Y015354D03*D90*X020782Y014778D03*
X023774D03*D92*X02469Y015913D03*D32*X025394Y01437D03*D48*
X025412Y014385D03*D62*X005631Y016951D03*D32*X009373Y01494D03*D62*
X005131Y016951D03*D65*X004621Y017421D03*D62*X013606Y015347D03*D32*
X013626Y015627D03*X013192Y016728D03*D62*X007278Y01815D03*D32*
X006728Y01772D03*D62*X007778Y01815D03*D32*X009531Y018606D03*D59*
X00754Y015566D03*D32*X007336Y015895D03*X007136Y015945D03*D67*
X001345Y016307D03*D87*X003805Y015165D03*Y015992D03*X000656D03*
Y015165D03*D12*X002821Y015579D03*X00164D03*D60*X00135Y018327D03*D61*
X00202D03*D32*X009025Y018481D03*D60*X00202Y016949D03*X003Y018327D03*
D61*X003669D03*D32*X007548Y0184D03*D60*X003669Y016949D03*D63*
X003335Y01689D03*D32*X004648Y016456D03*D61*X003Y016949D03*D63*
X001685Y01689D03*D61*X00135Y016949D03*D57*X00043Y016025D03*D32*
X004069Y014551D03*X004039Y014946D03*X00403Y015366D03*X00348D03*
X00349Y015796D03*D73*X023772Y018034D03*X02515Y018703D03*D49*
X01811Y016732D03*D32*X017505Y016035D03*D49*X004134Y018346D03*D32*
X00426Y018296D03*X005548Y016051D03*X006453Y016205D03*D65*
X004621Y018051D03*D49*X004488Y015831D03*D32*X00621Y015656D03*D62*
X005557Y015197D03*D67*X003116Y016307D03*D47*X014006Y018705D03*D32*
X014093Y017349D03*D47*X013006Y018705D03*X012006D03*X011006D03*
X010006D03*D52*X00867Y017735D03*D64*X016614Y014921D03*D62*
X013106Y015347D03*D32*X012788Y015275D03*D64*X016614Y015433D03*
X017362Y014921D03*D49*X017913Y014724D03*D62*X017953Y015354D03*D64*
X017362Y015433D03*D32*X021772Y016929D03*X000984Y017765D03*D49*
X000591Y017913D03*D32*X000984Y017253D03*D49*X000591Y017126D03*D32*
X01633Y018456D03*D74*X023772Y018703D03*D32*X02307Y014666D03*D66*
X02277Y01592D03*D32*X0224Y018426D03*X01695Y018586D03*X0137Y014816D03*
X01552Y014696D03*X015501Y014956D03*X00999Y014685D03*D86*
X010288Y016818D03*D32*X013191Y017216D03*X01314Y017996D03*D86*
X010288Y017802D03*Y017211D03*D32*X00981Y016185D03*D86*
X010288Y015637D03*Y016424D03*D32*X009391Y015766D03*X008971Y015776D03*
X005951Y018683D03*X006071Y018263D03*X01664Y018596D03*X017919Y017939D03*
X018339Y017619D03*X017799Y017039D03*X01922Y017986D03*D63*
X025209Y018369D03*X023713D03*D74*X02515Y018034D03*D32*X02288Y018426D03*
X02298Y017606D03*X0147Y017726D03*X01563Y016526D03*X014671Y016456D03*
D62*X01599Y018546D03*D47*X015006Y018705D03*D32*X021479Y017459D03*
X018009Y017639D03*X016836Y017431D03*X00639Y015656D03*X010706Y014297D03*
X00594Y016675D03*X006235Y016981D03*X00723Y018476D03*X010469Y018766D03*
X007621Y017146D03*X00792Y017115D03*X007978Y01842D03*X00858Y018536D03*
X00855Y017265D03*D86*X010288Y017015D03*Y017408D03*Y017605D03*D32*
X009436Y015454D03*D86*X010288Y016621D03*D32*X012343Y015697D03*D86*
X010288Y015833D03*Y01603D03*D32*X010731Y018276D03*X012928Y015005D03*
X013937Y015D03*D49*X01453Y014976D03*D32*X011452Y017843D03*
X01234Y016426D03*X012383Y015997D03*X01241Y018736D03*X01279Y015856D03*
X012279Y018032D03*X023358Y017612D03*X025127Y017744D03*
X013566Y016458D03*X013391Y017216D03*X01612Y017886D03*X017221Y017416D03*
X02014Y017316D03*X015383Y016217D03*X012131Y017426D03*X004712Y014681D03*
D62*X00508Y01451D03*D32*X014191Y018296D03*X015186Y018357D03*
X021533Y01665D03*X02209Y016596D03*X013883Y017349D03*X013951Y017686D03*
X01566Y017096D03*X0162D03*X01622Y016535D03*X0157Y015456D03*D64*
X016614Y015177D03*D62*X016549Y015909D03*D32*X017799Y016436D03*
X018451Y016469D03*X01741Y017406D03*X018429Y017039D03*X018798Y01606D03*
X02002Y016686D03*X01906D03*X02208Y017696D03*X0229Y016626D03*
X01914Y017526D03*X01591Y017886D03*X02035Y017346D03*X00833Y015286D03*
X01498Y015646D03*X014851Y015796D03*X01565Y015686D03*X00089Y015366D03*
X000415Y015369D03*X000393Y015803D03*X000892Y01583D03*X00089Y014966D03*
X000382Y014973D03*X00426Y018476D03*X00459Y018436D03*X00652Y016366D03*
X004444Y01646D03*X006541Y014491D03*X004328Y015421D03*D62*
X00558Y01451D03*D32*X005188Y015961D03*X005018Y015411D03*
X002479Y015183D03*X00202Y015181D03*D67*X001935Y016307D03*D32*
X00192Y016425D03*X002672Y01628D03*X000376Y014543D03*X01275Y018116D03*
X01996Y017646D03*D16*X02174Y004872D02*X021656Y004956D01*Y00445D01*
X021571D01*X021656D02*X02174D01*X02185Y009871D02*X021766Y009955D01*
X021597D01*X021513Y009871D01*Y009786D01*X021597Y009702D01*
X02185Y009533D01*Y009449D01*X021513D01*D17*X02186Y014927D02*
X021776Y015012D01*X021607D01*X021523Y014927D01*Y014843D01*
X021607Y014759D01*X021523Y014674D01*Y01459D01*X021607Y014506D01*
X021776D01*X02186Y01459D01*X021607Y014759D02*X021691D01*D11*
X020588Y008483D02*X020559Y008512D01*Y008341D01*X02053D01*X020559D02*
X020588D01*X020445Y008512D02*X02033D01*X020416Y008341D01*
X020159Y008483D02*X020188Y008512D01*X020245D01*X020273Y008483D01*
Y008369D01*X020245Y008341D01*X020188D01*X020159Y008369D01*Y008483D01*
X020216Y008455D02*Y008398D01*X019988Y008483D02*X020016Y008512D01*
X020073D01*X020102Y008483D01*Y008369D01*X020073Y008341D01*X020016D01*
X019988Y008369D01*Y008483D01*X020045Y008455D02*Y008398D01*
X01993Y008426D02*X019816D01*X019759Y008341D02*Y008512D01*
X019702Y008426D01*X019645Y008512D01*Y008341D01*X019559D02*Y008512D01*
X019473Y008341D02*X019416Y008512D01*X01938Y008405D01*X019359Y008341D01*
X01938Y008405D02*X019452D01*X019273Y008483D02*X019245Y008512D01*
Y008341D01*X019216D01*X019245D02*X019273D01*X01913Y008426D02*
X019016D01*X018845Y008483D02*X018873Y008512D01*X01893D01*
X018959Y008483D01*Y008369D01*X01893Y008341D01*X018873D01*
X018845Y008369D01*Y008483D01*X018902Y008455D02*Y008398D01*
X018745Y008341D02*X01873D01*Y008355D01*X018745D01*Y008341D01*
X018502Y008483D02*X01853Y008512D01*X018588D01*X018616Y008483D01*
Y008369D01*X018588Y008341D01*X01853D01*X018502Y008369D01*Y008483D01*
X018559Y008455D02*Y008398D01*X018416Y008483D02*X018388Y008512D01*
Y008341D01*X018359D01*X018388D02*X018416D01*D13*X00782Y004588D02*
X00754Y004988D01*X00732Y004588D02*X0073Y004828D01*X007195Y004929D01*
X007171Y005114D01*X006943Y005118D01*Y005448D01*X00689D01*
X006966Y005616D01*D10*X006866Y005846D01*X007076Y006146D01*
X007751Y006028D01*D13*X00689Y005448D02*X006691D01*X006691Y004858D01*
X006741Y004413D01*X006941D01*X01549Y008468D02*Y008228D01*
X015076Y007899D01*X01443Y007888D01*D15*X017049Y00583D02*Y005568D01*
X01709Y005528D01*X01711Y005508D01*Y005178D01*X017189Y005098D01*D25*
X017362D01*X017539D01*D15*X017677Y005236D01*Y005433D01*
X017756Y005512D01*X01861D01*X018807Y005315D01*D13*X006057Y005118D02*
X006103Y005123D01*X006438D01*X006443Y005118D01*X018622Y004528D02*
Y004646D01*X018268Y005D01*X019094Y004528D02*X019173D01*D21*
X019449Y004803D01*D13*X00043Y008545D02*X00157Y008545D01*
X001686Y008494D01*X001685Y008307D01*X001685Y008023D01*X00183Y007878D01*
X00324D01*X003335Y007972D01*Y008307D01*X010288Y006148D02*
X011921Y006158D01*X012011Y006078D01*X012001Y006045D01*
X011968Y005817D01*X012011Y006078D02*X01096Y007207D01*X01083Y007387D01*
X01082Y007717D01*X0105Y008137D01*X01043Y008185D01*D20*
X022278Y005841D02*Y005251D01*X021786Y005841D02*X02161Y005468D01*
X02014D01*X019572Y005835D01*D13*Y005162D01*X019449Y005039D01*
X018543D01*X018453Y00513D01*Y005276D01*X02469Y005835D02*Y005153D01*
X024843Y005D01*X025118D01*X025394Y004724D01*Y004291D01*
X025412Y004307D01*X005631Y006873D02*Y006563D01*X005861Y006333D01*
X006381Y006463D01*X006421Y006503D01*X006632Y006504D01*
X008051Y006598D01*X009146Y004856D01*X009373Y004862D01*
X005131Y006873D02*X004851D01*X004621Y007103D01*Y007343D01*
X013606Y005269D02*X013622Y005551D01*X013626Y005549D01*D32*
X013266Y00629D01*X013192Y00665D01*D13*X007278Y008072D02*X007138D01*
X006728Y007642D01*X007778Y008072D02*X007928D01*X008588Y008232D01*
X009148Y008152D01*X009531Y008528D01*D21*X00754Y005488D02*
X007336Y005816D01*X007136Y005866D01*D13*X00202Y008248D02*
X002015Y008515D01*X00249Y008728D01*X00558D01*X00594Y007948D01*
X00621D01*X00669Y008728D01*X00864D01*X009025Y008403D01*
X003669Y008248D02*X003667Y008529D01*X00408Y008608D01*X005441D01*
X00582Y007828D01*X0063D01*X00702Y008608D01*X00741D01*X007548Y008322D01*
X003335Y006811D02*X00333Y006774D01*D22*X003412Y006626D01*
X003508Y00653D01*X00441Y006527D01*D13*X004648Y006378D01*D22*
X00333Y006774D02*X003276Y006829D01*X003Y00687D01*X002656Y006862D01*
X002372Y007248D01*X001833Y007227D01*X001685Y00706D01*X001685Y006811D01*
X001392Y006782D01*X00135Y00687D01*X00118Y006842D01*X00043Y005946D01*
D46*Y004464D01*X001965Y004465D01*D39*X0035Y004466D01*X004069Y004473D01*
D13*X004041Y004866D01*X004039Y004868D01*Y005315D01*X00403Y005288D01*
X00348D01*X003483Y005669D01*X00349Y005718D01*D21*X01811Y006654D02*
X01752Y006575D01*X017505Y005957D01*D13*X004134Y008268D02*
X00426Y008217D01*D25*X004263Y007973D01*X004271Y007063D01*
X005548Y005972D01*D29*X006453Y006127D01*D13*X004263Y007973D02*
X004621D01*X004488Y005752D02*X004798Y005692D01*D30*X004828Y005682D01*
X005548Y005472D01*X005738Y005562D01*X00606Y005567D01*X00621Y005578D01*
D13*X005557Y005512D01*Y005118D01*D30*X004798Y005692D02*
X004452Y00603D01*D24*X004128Y006306D01*X003484D01*X003116Y006228D01*
D28*X014006Y008626D02*X01384Y008318D01*X013887Y007978D01*X01404D01*
X01431Y007558D01*X014093Y007271D01*D25*X016614Y004843D02*X015906D01*
D13*X015512Y005236D01*X01451Y005247D01*X013937Y005236D01*
X01378Y005079D01*X013189D01*X013106Y005161D01*Y005269D01*
X01294Y005268D01*X012788Y005197D01*D25*X016614Y005354D02*X01689D01*D13*
X016979Y005276D01*Y004926D01*X017047Y004843D01*D25*X017362D01*
X017717D01*X017874Y004685D01*D13*X017913Y004646D01*X017874Y004685D02*
X017953Y004764D01*D25*Y005276D01*X017362Y005354D02*Y00563D01*D13*
X01748Y005748D01*X01815D01*X01873Y006338D01*Y006668D01*
X01894Y006818D01*X02152D01*X021772Y00685D01*X000984Y007686D02*
X000591Y007835D01*X000984Y007174D02*X000591Y007047D01*X01633Y008378D02*
X01641Y008738D01*X022924D01*X023378Y008625D01*X023772D01*D19*
X02307Y004588D02*X02277Y005841D01*D13*X0224Y008348D02*X02234Y008618D01*
X01707D01*X01695Y008508D01*D10*X0137Y004738D02*X013676Y004729D01*
X01461Y004287D01*X01552Y004618D01*X013676Y004729D02*X01464Y004407D01*
X015501Y004878D01*X014189Y004226D01*X01227Y004227D01*X01116D01*
X011076Y004252D01*X01075Y004598D01*X00999Y004607D01*Y005057D01*
X00981Y005237D01*Y005242D01*Y006107D01*Y006077D01*Y006107D01*
X00978Y006137D01*Y006347D01*X01083D01*Y006737D01*D15*X010288Y006739D01*
X00956Y006747D01*D10*X00914Y006217D01*X00913Y005327D01*
X00929Y005117D01*X01069Y005107D01*X01122Y004567D01*X01216Y004547D01*
X01256Y005407D01*X01284Y005437D01*X01304Y005737D01*X01289Y006867D01*
X013191Y007139D01*X013161Y007218D01*X01314Y007918D01*X010288Y006739D02*
X01068Y006737D01*X01083Y006743D01*Y007137D01*X0107Y007317D01*
X010659Y007726D01*D13*X010288Y007723D01*D15*X01083Y007137D02*
X010288Y007133D01*D10*X01083Y006743D02*Y00635D01*D15*X00978Y006347D01*
D10*X00981Y006317D01*Y006107D01*X00978Y006347D02*Y005562D01*D15*
X010288Y005558D01*D10*X01083Y00635D02*X010288Y006345D01*
X00981Y005242D02*X009656Y005156D01*X009266Y005096D01*X009146Y005456D01*
X009391Y005688D01*X009109Y005698D01*X008971D01*D22*X005951Y008605D02*
X006071Y008185D01*D13*X01664Y008518D02*Y007838D01*X01665Y007828D01*D10*
X017919Y007861D01*X017914Y007784D01*D13*X017916Y007784D01*
X017914Y007784D01*D10*X01792Y007778D01*X0181Y007808D01*D13*
X01834Y007628D01*D10*X018339Y007541D01*X017914Y007784D02*
X01588Y008168D01*D13*X01561Y008048D01*X01543Y007838D01*
X01552Y007538D01*X01618Y007298D01*X016419Y006841D01*X01663Y006688D01*
X016929Y006691D01*X017799Y006961D01*D10*X017916Y007784D02*
X017899Y008281D01*D13*X018109Y008041D01*X020419Y008101D01*
X020239Y008111D01*X01922Y007908D01*X020419Y008101D02*X02065Y007707D01*
X0212Y007618D01*X02161Y007867D01*X021614Y008228D01*D22*
X02232Y008028D01*X02289Y008032D01*X022892Y008108D01*D13*
X022912Y008089D01*D19*X023367D01*D13*X023372Y008285D01*D19*
X025209Y00829D01*D13*X023713D01*D19*X025209D02*X02515Y007955D01*D22*
X022892Y008108D02*X02288Y008348D01*D13*X02298Y007528D01*
X017899Y008281D02*X016627Y008293D01*D19*X016863Y008018D01*D10*
X01579Y008098D01*X015643Y008057D01*X015524Y0079D01*Y007742D01*
X015591Y007244D01*D19*X015472Y007087D01*X015512Y006693D01*X014685D01*
X014671Y007618D01*D13*X0147Y007648D01*D19*X014671Y007618D02*Y006379D01*
D13*X01474Y006448D01*X01563D01*D19*X014671Y006379D02*Y006378D01*D10*
X016627Y008293D02*X01646Y008168D01*X01624Y008178D01*X01574Y008238D01*
X01599D01*D13*Y008468D01*D10*X01574Y008238D02*Y008708D01*
X015261Y008768D01*X015006Y008626D01*D13*X021479Y007381D02*X020549D01*
X020439Y007491D01*X020349D01*X020059Y007781D01*X019859D01*
X019749Y007671D01*X018809D01*X018469Y007331D01*X018229D01*
X018009Y007561D01*X017529D01*X017499Y007591D01*X016929D01*
X016836Y007352D01*D30*X00639Y005578D02*X006519Y005691D01*
X006919Y006331D01*X007951Y006398D01*X009076Y004626D01*
X009361Y004378D01*X009451Y004288D01*X010706Y004219D01*D13*
X00594Y006597D02*X006235Y006903D01*X006501Y007778D01*X00723Y008398D01*
X010469Y008688D02*X010176Y008318D01*X009528Y008189D01*
X009173Y007992D01*X008615Y008088D01*X007711Y007752D01*
X007621Y007068D01*X007978Y008342D02*X00858Y008458D01*D21*
X00855Y007187D02*X008796Y00694D01*X010288Y006936D01*D13*
X00987Y00694D01*D21*Y007334D01*X010288Y00733D01*X009878Y007341D01*
Y007537D01*X010288Y007526D01*D13*X009436Y005376D02*X009608Y005552D01*
Y005952D01*X009588Y005982D01*X009598Y006432D01*X009718Y006542D01*
X010288D01*X012343Y005619D02*X01227Y005537D01*X012072D01*X01194D01*
X011717Y005759D01*X010288Y005755D01*X010744Y005766D01*Y005963D01*
X010288Y005952D01*X012072Y005537D02*X01227D01*X012072D01*X01217D01*
X012193Y005779D01*X012153Y005999D01*X012171Y006128D01*X01203Y006317D01*
X01122Y007127D01*X01096Y007437D01*X01095Y007747D01*X010731Y008198D01*
X012928Y004927D02*X01311Y004958D01*X01379D01*X013937Y004921D01*D15*
X01453Y004897D01*D13*X011452Y007765D02*X011571Y007068D01*
X01234Y006348D01*X012383Y005919D02*X01255Y006268D01*Y006338D01*
X01254Y006468D01*X012351Y006608D01*X011701Y007138D01*X01185Y007948D01*
X012121Y008323D01*X012271Y008413D01*X01241Y008658D01*X01279Y005778D02*
X01266Y006568D01*X012521Y006838D01*X012279Y007954D01*X023358Y007534D02*
X023553Y007665D01*X025127D01*X013566Y00638D02*X013671Y006608D01*
X013449Y006809D01*X013391Y007138D01*D32*X01612Y007808D02*
X016599Y007021D01*X016989D01*X017221Y007338D01*D21*X017639Y007191D01*
D19*X018629D01*D21*X01876Y007208D01*X02002D01*X02014Y007238D01*D13*
X015383Y006139D02*X014576Y006149D01*X01377Y006979D01*X0137Y007109D01*
X013598Y007273D01*X013525Y007535D01*X01337Y007888D01*X01333Y008088D01*
X01287Y008238D01*X01273Y008258D01*X012186Y008193D01*X012Y007928D01*
X012131Y007348D01*X004712Y004603D02*X004855Y004444D01*X00508Y004432D01*
X014191Y008218D02*X015138D01*X015186Y008279D01*D10*X021533Y006572D02*
X02209Y006518D01*D13*X01622Y006457D02*X015627Y005923D01*
X0157Y005378D01*X015969Y005098D01*D27*X016614D01*D13*X0166Y005098D01*
D15*X01627D01*Y005778D01*X016322Y00583D01*X016549D01*D10*
X01498Y005568D02*X014851Y005718D01*D13*X015736Y005669D01*
X015631Y006348D01*X01565Y005608D01*X006541Y004413D02*X006446Y004405D01*
X006351Y004397D01*X00633Y004638D01*D12*X005968Y004627D01*
X004943Y004634D01*X00483Y005068D01*D14*X004328Y005342D01*D13*
X006351Y004397D02*X00558Y004432D01*D29*X002479Y005105D02*
X00202Y005103D01*X001935Y006228D01*X00192Y006347D01*X002672Y006201D01*
X0021Y006268D02*X00219Y005188D01*X00228Y006238D02*X00237Y005158D01*
X00246Y005098D02*Y006178D01*X002672Y006201D02*X00247Y005558D01*
X00249Y005098D01*D32*X00438Y006426D02*X004611Y006263D01*D30*
X00652Y006298D02*X005871Y006133D01*X00545Y006168D01*X00621Y005578D02*
X00639D01*D19*X011161Y004868D02*X011791D01*X011151Y005278D02*
X011811D01*X011821Y005078D02*X011131D01*D21*X00872Y007028D02*X00985D01*
D24*X00855Y007178D02*X00916Y006988D01*D19*X011211Y008328D02*X011766D01*
X011221Y008128D02*X011751Y008133D01*D39*X02301Y007528D02*X0222D01*
X02286Y007438D02*Y006538D01*X02283Y006557D01*X02232Y006538D01*
X02262Y007468D02*Y006688D01*D32*X01391Y007268D02*X01415D01*D22*
X000295Y005866D02*Y006457D01*X000886D01*Y005866D01*X000394D01*
X000886Y005965D02*X000492D01*X000886Y006063D02*X000591D01*
X000886Y006161D02*X000394D01*X000886Y00626D02*X000394D01*
X000886Y006358D02*X000394D01*D32*X0159Y007808D02*X01619Y007688D01*D30*
X003924Y00737D02*X001308Y007374D01*Y006886D01*X00068Y006402D02*
X001276Y006982D01*X001392Y007241D02*X002488Y007249D01*
X002452Y007254D02*X00394Y007242D01*D39*X004058Y004462D02*X004328D01*
D20*X022278Y005271D02*X021828D01*X021161Y005217D01*X020945Y004803D01*
D27*X016614Y005098D02*X016796Y005099D01*D31*X02016Y007238D02*
X02034Y007268D01*X017221Y007338D02*X0174Y007358D01*Y007298D02*
X01725D01*D30*X005378Y005572D02*X006558Y005792D01*X006598Y005852D02*
X005178Y005582D01*D11*X020588Y013523D02*X020559Y013551D01*Y01338D01*
X02053D01*X020559D02*X020588D01*X020445Y013551D02*X02033D01*
X020416Y01338D01*X020159Y013523D02*X020188Y013551D01*X020245D01*
X020273Y013523D01*Y013409D01*X020245Y01338D01*X020188D01*
X020159Y013409D01*Y013523D01*X020216Y013494D02*Y013437D01*
X019988Y013523D02*X020016Y013551D01*X020073D01*X020102Y013523D01*
Y013409D01*X020073Y01338D01*X020016D01*X019988Y013409D01*Y013523D01*
X020045Y013494D02*Y013437D01*X01993Y013466D02*X019816D01*
X019759Y01338D02*Y013551D01*X019702Y013466D01*X019645Y013551D01*
Y01338D01*X019559D02*Y013551D01*X019473Y01338D02*X019416Y013551D01*
X01938Y013444D01*X019359Y01338D01*X01938Y013444D02*X019452D01*
X019273Y013523D02*X019245Y013551D01*Y01338D01*X019216D01*X019245D02*
X019273D01*X01913Y013466D02*X019016D01*X018845Y013523D02*
X018873Y013551D01*X01893D01*X018959Y013523D01*Y013409D01*
X01893Y01338D01*X018873D01*X018845Y013409D01*Y013523D01*
X018902Y013494D02*Y013437D01*X018745Y01338D02*X01873D01*Y013394D01*
X018745D01*Y01338D01*X018502Y013523D02*X01853Y013551D01*X018588D01*
X018616Y013523D01*Y013409D01*X018588Y01338D01*X01853D01*
X018502Y013409D01*Y013523D01*X018559Y013494D02*Y013437D01*
X018416Y013523D02*X018388Y013551D01*Y01338D01*X018359D01*X018388D02*
X018416D01*D13*X00782Y009627D02*X00754Y010027D01*X00732Y009627D02*
X0073Y009867D01*X007195Y009969D01*X007171Y010154D01*X006943Y010157D01*
Y010487D01*X00689D01*X006966Y010655D01*D10*X006866Y010885D01*
X007076Y011185D01*X007751Y011067D01*D13*X00689Y010487D02*X006691D01*
X006691Y009898D01*X006741Y009452D01*X006941D01*X01549Y013507D02*
Y013267D01*X015076Y012938D01*X01443Y012927D01*D15*X017049Y010869D02*
Y010608D01*X01709Y010567D01*X01711Y010547D01*Y010217D01*
X017189Y010138D01*D25*X017362D01*X017539D01*D15*X017677Y010276D01*
Y010472D01*X017756Y010551D01*X01861D01*X018807Y010354D01*D13*
X006057Y010157D02*X006103Y010162D01*X006438D01*X006443Y010157D01*
X018622Y009567D02*Y009685D01*X018268Y010039D01*X019094Y009567D02*
X019173D01*D21*X019449Y009843D01*D13*X00043Y013584D02*X00157Y013584D01*
X001686Y013533D01*X001685Y013346D01*X001685Y013062D01*X00183Y012917D01*
X00324D01*X003335Y013012D01*Y013346D01*X010288Y011188D02*
X011921Y011197D01*X012011Y011117D01*X012001Y011085D01*
X011968Y010856D01*X012011Y011117D02*X01096Y012246D01*X01083Y012426D01*
X01082Y012756D01*X0105Y013176D01*X01043Y013224D01*D20*
X022278Y010881D02*Y01029D01*X021786Y010881D02*X02161Y010507D01*
X02014D01*X019572Y010874D01*D13*Y010202D01*X019449Y010079D01*
X018543D01*X018453Y010169D01*Y010315D01*X02469Y010874D02*Y010192D01*
X024843Y010039D01*X025118D01*X025394Y009764D01*Y009331D01*
X025412Y009346D01*X005631Y011912D02*Y011602D01*X005861Y011372D01*
X006381Y011502D01*X006421Y011542D01*X006632Y011543D01*
X008051Y011637D01*X009146Y009895D01*X009373Y009901D01*
X005131Y011912D02*X004851D01*X004621Y012142D01*Y012382D01*
X013606Y010308D02*X013622Y010591D01*X013626Y010588D01*D32*
X013266Y011329D01*X013192Y011689D01*D13*X007278Y013111D02*X007138D01*
X006728Y012681D01*X007778Y013111D02*X007928D01*X008588Y013271D01*
X009148Y013191D01*X009531Y013567D01*D21*X00754Y010527D02*
X007336Y010855D01*X007136Y010905D01*D13*X00202Y013287D02*
X002015Y013554D01*X00249Y013767D01*X00558D01*X00594Y012987D01*
X00621D01*X00669Y013767D01*X00864D01*X009025Y013442D01*
X003669Y013287D02*X003667Y013568D01*X00408Y013647D01*X005441D01*
X00582Y012867D01*X0063D01*X00702Y013647D01*X00741D01*X007548Y013361D01*
X003335Y01185D02*X00333Y011814D01*D22*X003412Y011665D01*
X003508Y011569D01*X00441Y011566D01*D13*X004648Y011417D01*D22*
X00333Y011814D02*X003276Y011868D01*X003Y011909D01*X002656Y011901D01*
X002372Y012287D01*X001833Y012266D01*X001685Y012099D01*X001685Y01185D01*
X001392Y011821D01*X00135Y011909D01*X00118Y011881D01*X00043Y010986D01*
D46*Y009503D01*X001965Y009504D01*D39*X0035Y009505D01*X004069Y009512D01*
D13*X004041Y009906D01*X004039Y009907D01*Y010355D01*X00403Y010327D01*
X00348D01*X003483Y010708D01*X00349Y010757D01*D21*X01811Y011693D02*
X01752Y011614D01*X017505Y010996D01*D13*X004134Y013307D02*
X00426Y013256D01*D25*X004263Y013012D01*X004271Y012102D01*
X005548Y011011D01*D29*X006453Y011166D01*D13*X004263Y013012D02*
X004621D01*X004488Y010791D02*X004798Y010731D01*D30*X004828Y010721D01*
X005548Y010511D01*X005738Y010601D01*X00606Y010606D01*X00621Y010617D01*
D13*X005557Y010551D01*Y010157D01*D30*X004798Y010731D02*
X004452Y011069D01*D24*X004128Y011345D01*X003484D01*X003116Y011268D01*
D28*X014006Y013665D02*X01384Y013357D01*X013887Y013017D01*X01404D01*
X01431Y012597D01*X014093Y01231D01*D25*X016614Y009882D02*X015906D01*D13*
X015512Y010276D01*X01451Y010286D01*X013937Y010276D01*X01378Y010118D01*
X013189D01*X013106Y010201D01*Y010308D01*X01294Y010307D01*
X012788Y010236D01*D25*X016614Y010394D02*X01689D01*D13*
X016979Y010315D01*Y009965D01*X017047Y009882D01*D25*X017362D01*
X017717D01*X017874Y009724D01*D13*X017913Y009685D01*X017874Y009724D02*
X017953Y009803D01*D25*Y010315D01*X017362Y010394D02*Y010669D01*D13*
X01748Y010787D01*X01815D01*X01873Y011377D01*Y011707D01*
X01894Y011857D01*X02152D01*X021772Y01189D01*X000984Y012726D02*
X000591Y012874D01*X000984Y012214D02*X000591Y012087D01*X01633Y013417D02*
X01641Y013777D01*X022924D01*X023378Y013664D01*X023772D01*D19*
X02307Y009627D02*X02277Y010881D01*D13*X0224Y013387D02*X02234Y013657D01*
X01707D01*X01695Y013547D01*D10*X0137Y009777D02*X013676Y009768D01*
X01461Y009326D01*X01552Y009657D01*X013676Y009768D02*X01464Y009446D01*
X015501Y009917D01*X014189Y009265D01*X01227Y009266D01*X01116D01*
X011076Y009291D01*X01075Y009637D01*X00999Y009646D01*Y010096D01*
X00981Y010276D01*Y010282D01*Y011146D01*Y011116D01*Y011146D01*
X00978Y011176D01*Y011386D01*X01083D01*Y011776D01*D15*X010288Y011778D01*
X00956Y011786D01*D10*X00914Y011256D01*X00913Y010366D01*
X00929Y010156D01*X01069Y010146D01*X01122Y009606D01*X01216Y009586D01*
X01256Y010446D01*X01284Y010476D01*X01304Y010776D01*X01289Y011906D01*
X013191Y012178D01*X013161Y012257D01*X01314Y012957D01*X010288Y011778D02*
X01068Y011776D01*X01083Y011783D01*Y012176D01*X0107Y012356D01*
X010659Y012765D01*D13*X010288Y012763D01*D15*X01083Y012176D02*
X010288Y012172D01*D10*X01083Y011783D02*Y011389D01*D15*X00978Y011386D01*
D10*X00981Y011356D01*Y011146D01*X00978Y011386D02*Y010602D01*D15*
X010288Y010597D01*D10*X01083Y011389D02*X010288Y011385D01*
X00981Y010282D02*X009656Y010195D01*X009266Y010135D01*X009146Y010495D01*
X009391Y010727D01*X009109Y010737D01*X008971D01*D22*X005951Y013644D02*
X006071Y013224D01*D13*X01664Y013557D02*Y012877D01*X01665Y012867D01*D10*
X017919Y0129D01*X017914Y012823D01*D13*X017916Y012823D01*
X017914Y012823D01*D10*X01792Y012817D01*X0181Y012847D01*D13*
X01834Y012667D01*D10*X018339Y01258D01*X017914Y012823D02*
X01588Y013207D01*D13*X01561Y013087D01*X01543Y012877D01*
X01552Y012577D01*X01618Y012337D01*X016419Y01188D01*X01663Y011727D01*
X016929Y01173D01*X017799Y012D01*D10*X017916Y012823D02*X017899Y01332D01*
D13*X018109Y01308D01*X020419Y01314D01*X020239Y01315D01*
X01922Y012947D01*X020419Y01314D02*X02065Y012746D01*X0212Y012657D01*
X02161Y012906D01*X021614Y013268D01*D22*X02232Y013067D01*
X02289Y013071D01*X022892Y013148D01*D13*X022912Y013128D01*D19*
X023367D01*D13*X023372Y013324D01*D19*X025209Y013329D01*D13*X023713D01*
D19*X025209D02*X02515Y012995D01*D22*X022892Y013148D02*X02288Y013387D01*
D13*X02298Y012567D01*X017899Y01332D02*X016627Y013333D01*D19*
X016863Y013057D01*D10*X01579Y013137D01*X015643Y013096D01*
X015524Y012939D01*Y012781D01*X015591Y012283D01*D19*X015472Y012126D01*
X015512Y011732D01*X014685D01*X014671Y012657D01*D13*X0147Y012687D01*D19*
X014671Y012657D02*Y011418D01*D13*X01474Y011487D01*X01563D01*D19*
X014671Y011418D02*Y011417D01*D10*X016627Y013333D02*X01646Y013207D01*
X01624Y013217D01*X01574Y013277D01*X01599D01*D13*Y013507D01*D10*
X01574Y013277D02*Y013747D01*X015261Y013807D01*X015006Y013665D01*D13*
X021479Y01242D02*X020549D01*X020439Y01253D01*X020349D01*
X020059Y01282D01*X019859D01*X019749Y01271D01*X018809D01*
X018469Y01237D01*X018229D01*X018009Y0126D01*X017529D01*
X017499Y01263D01*X016929D01*X016836Y012392D01*D30*X00639Y010617D02*
X006519Y01073D01*X006919Y01137D01*X007951Y011437D01*X009076Y009665D01*
X009361Y009417D01*X009451Y009327D01*X010706Y009258D01*D13*
X00594Y011636D02*X006235Y011942D01*X006501Y012817D01*X00723Y013437D01*
X010469Y013727D02*X010176Y013357D01*X009528Y013228D01*
X009173Y013031D01*X008615Y013127D01*X007711Y012791D01*
X007621Y012107D01*X007978Y013381D02*X00858Y013497D01*D21*
X00855Y012226D02*X008796Y01198D01*X010288Y011975D01*D13*
X00987Y01198D01*D21*Y012373D01*X010288Y012369D01*X009878Y01238D01*
Y012577D01*X010288Y012566D01*D13*X009436Y010415D02*X009608Y010591D01*
Y010991D01*X009588Y011021D01*X009598Y011471D01*X009718Y011581D01*
X010288D01*X012343Y010658D02*X01227Y010576D01*X012072D01*X01194D01*
X011717Y010799D01*X010288Y010794D01*X010744Y010805D01*Y011002D01*
X010288Y010991D01*X012072Y010576D02*X01227D01*X012072D01*X01217D01*
X012193Y010818D01*X012153Y011038D01*X012171Y011167D01*X01203Y011356D01*
X01122Y012166D01*X01096Y012476D01*X01095Y012786D01*X010731Y013237D01*
X012928Y009966D02*X01311Y009997D01*X01379D01*X013937Y009961D01*D15*
X01453Y009936D01*D13*X011452Y012804D02*X011571Y012107D01*
X01234Y011387D01*X012383Y010958D02*X01255Y011307D01*Y011377D01*
X01254Y011507D01*X012351Y011647D01*X011701Y012177D01*X01185Y012987D01*
X012121Y013362D01*X012271Y013452D01*X01241Y013697D01*X01279Y010817D02*
X01266Y011607D01*X012521Y011877D01*X012279Y012993D01*X023358Y012573D02*
X023553Y012704D01*X025127D01*X013566Y011419D02*X013671Y011647D01*
X013449Y011848D01*X013391Y012177D01*D32*X01612Y012847D02*
X016599Y01206D01*X016989D01*X017221Y012377D01*D21*X017639Y01223D01*D19*
X018629D01*D21*X01876Y012247D01*X02002D01*X02014Y012277D01*D13*
X015383Y011178D02*X014576Y011188D01*X01377Y012018D01*X0137Y012148D01*
X013598Y012312D01*X013525Y012574D01*X01337Y012927D01*X01333Y013127D01*
X01287Y013277D01*X01273Y013297D01*X012186Y013232D01*X012Y012967D01*
X012131Y012387D01*X004712Y009642D02*X004855Y009483D01*X00508Y009471D01*
X014191Y013257D02*X015138D01*X015186Y013318D01*D10*X021533Y011611D02*
X02209Y011557D01*D13*X01622Y011496D02*X015627Y010962D01*
X0157Y010417D01*X015969Y010138D01*D27*X016614D01*D13*X0166Y010137D01*
D15*X01627D01*Y010817D01*X016322Y010869D01*X016549D01*D10*
X01498Y010607D02*X014851Y010757D01*D13*X015736Y010708D01*
X015631Y011387D01*X01565Y010647D01*X006541Y009452D02*X006446Y009444D01*
X006351Y009436D01*X00633Y009677D01*D12*X005968Y009666D01*
X004943Y009673D01*X00483Y010107D01*D14*X004328Y010381D01*D13*
X006351Y009436D02*X00558Y009471D01*D29*X002479Y010144D02*
X00202Y010142D01*X001935Y011268D01*X00192Y011386D01*X002672Y011241D01*
X0021Y011307D02*X00219Y010227D01*X00228Y011277D02*X00237Y010197D01*
X00246Y010137D02*Y011217D01*X002672Y011241D02*X00247Y010597D01*
X00249Y010137D01*D32*X00438Y011465D02*X004611Y011302D01*D30*
X00652Y011337D02*X005871Y011172D01*X00545Y011207D01*X00621Y010617D02*
X00639D01*D19*X011161Y009907D02*X011791D01*X011151Y010317D02*
X011811D01*X011821Y010117D02*X011131D01*D21*X00872Y012067D02*X00985D01*
D24*X00855Y012217D02*X00916Y012027D01*D19*X011211Y013367D02*X011766D01*
X011221Y013167D02*X011751Y013172D01*D39*X02301Y012567D02*X0222D01*
X02286Y012477D02*Y011577D01*X02283Y011596D01*X02232Y011577D01*
X02262Y012507D02*Y011727D01*D32*X01391Y012307D02*X01415D01*D22*
X000295Y010906D02*Y011496D01*X000886D01*Y010906D01*X000394D01*
X000886Y011004D02*X000492D01*X000886Y011102D02*X000591D01*
X000886Y011201D02*X000394D01*X000886Y011299D02*X000394D01*
X000886Y011398D02*X000394D01*D32*X0159Y012847D02*X01619Y012727D01*D30*
X003924Y012409D02*X001308Y012413D01*Y011925D01*X00068Y011441D02*
X001276Y012021D01*X001392Y01228D02*X002488Y012288D01*X002452Y012293D02*
X00394Y012281D01*D39*X004058Y009501D02*X004328D01*D20*
X022278Y010311D02*X021828D01*X021161Y010256D01*X020945Y009843D01*D27*
X016614Y010138D02*X016796Y010138D01*D31*X02016Y012277D02*
X02034Y012307D01*X017221Y012377D02*X0174Y012397D01*Y012337D02*
X01725D01*D30*X005378Y010611D02*X006558Y010831D01*X006598Y010891D02*
X005178Y010621D01*D11*X020588Y018562D02*X020559Y018591D01*Y018419D01*
X02053D01*X020559D02*X020588D01*X020445Y018591D02*X02033D01*
X020416Y018419D01*X020159Y018562D02*X020188Y018591D01*X020245D01*
X020273Y018562D01*Y018448D01*X020245Y018419D01*X020188D01*
X020159Y018448D01*Y018562D01*X020216Y018534D02*Y018477D01*
X019988Y018562D02*X020016Y018591D01*X020073D01*X020102Y018562D01*
Y018448D01*X020073Y018419D01*X020016D01*X019988Y018448D01*Y018562D01*
X020045Y018534D02*Y018477D01*X01993Y018505D02*X019816D01*
X019759Y018419D02*Y018591D01*X019702Y018505D01*X019645Y018591D01*
Y018419D01*X019559D02*Y018591D01*X019473Y018419D02*X019416Y018591D01*
X01938Y018484D01*X019359Y018419D01*X01938Y018484D02*X019452D01*
X019273Y018562D02*X019245Y018591D01*Y018419D01*X019216D01*X019245D02*
X019273D01*X01913Y018505D02*X019016D01*X018845Y018562D02*
X018873Y018591D01*X01893D01*X018959Y018562D01*Y018448D01*
X01893Y018419D01*X018873D01*X018845Y018448D01*Y018562D01*
X018902Y018534D02*Y018477D01*X018745Y018419D02*X01873D01*Y018434D01*
X018745D01*Y018419D01*X018502Y018562D02*X01853Y018591D01*X018588D01*
X018616Y018562D01*Y018448D01*X018588Y018419D01*X01853D01*
X018502Y018448D01*Y018562D01*X018559Y018534D02*Y018477D01*
X018416Y018562D02*X018388Y018591D01*Y018419D01*X018359D01*X018388D02*
X018416D01*D13*X00782Y014666D02*X00754Y015066D01*X00732Y014666D02*
X0073Y014906D01*X007195Y015008D01*X007171Y015193D01*X006943Y015197D01*
Y015526D01*X00689D01*X006966Y015695D01*D10*X006866Y015925D01*
X007076Y016225D01*X007751Y016106D01*D13*X00689Y015526D02*X006691D01*
X006691Y014937D01*X006741Y014491D01*X006941D01*X01549Y018546D02*
Y018306D01*X015076Y017977D01*X01443Y017966D01*D15*X01861Y015591D02*
X018807Y015394D01*X017756Y015591D02*X01861D01*X017677Y015512D02*
X017756Y015591D01*X017677Y015315D02*Y015512D01*X017539Y015177D02*
X017677Y015315D01*D25*X017362Y015177D02*X017539D01*X017189D02*
X017362D01*D15*X01711Y015256D02*X017189Y015177D01*X01711Y015586D02*
Y015256D01*X017049Y015647D02*X01711Y015586D01*X017049Y015909D02*
Y015647D01*D13*X006057Y015197D02*X006103Y015202D01*X006438D01*
X006443Y015197D01*X018622Y014606D02*Y014724D01*X018268Y015079D01*
X019094Y014606D02*X019173D01*D21*X019449Y014882D01*D13*
X00043Y018624D02*X00157Y018624D01*X001686Y018573D01*X001685Y018386D01*
X001685Y018102D01*X00183Y017956D01*X00324D01*X003335Y018051D01*
Y018386D01*X010288Y016227D02*X011921Y016236D01*X012011Y016156D01*
X012001Y016124D01*X011968Y015895D01*X012011Y016156D02*X01096Y017285D01*
X01083Y017465D01*X01082Y017795D01*X0105Y018215D01*X01043Y018263D01*D20*
X022278Y01592D02*Y015329D01*X021786Y01592D02*X02161Y015546D01*
X02014D01*X019572Y015913D01*D13*Y015241D01*X019449Y015118D01*
X018543D01*X018453Y015209D01*Y015354D01*X02469Y015913D02*Y015231D01*
X024843Y015079D01*X025118D01*X025394Y014803D01*Y01437D01*
X025412Y014385D01*X005631Y016951D02*Y016641D01*X005861Y016411D01*
X006381Y016541D01*X006421Y016581D01*X006632Y016583D01*
X008051Y016676D01*X009146Y014935D01*X009373Y01494D01*X005131Y016951D02*
X004851D01*X004621Y017181D01*Y017421D01*X013606Y015347D02*
X013622Y01563D01*X013626Y015627D01*D32*X013266Y016368D01*
X013192Y016728D01*D13*X007278Y01815D02*X007138D01*X006728Y01772D01*
X007778Y01815D02*X007928D01*X008588Y01831D01*X009148Y01823D01*
X009531Y018606D01*D21*X00754Y015566D02*X007336Y015895D01*
X007136Y015945D01*D13*X00202Y018327D02*X002015Y018594D01*
X00249Y018806D01*X00558D01*X00594Y018026D01*X00621D01*X00669Y018806D01*
X00864D01*X009025Y018481D01*X003669Y018327D02*X003667Y018608D01*
X00408Y018686D01*X005441D01*X00582Y017906D01*X0063D01*X00702Y018686D01*
X00741D01*X007548Y0184D01*X003335Y01689D02*X00333Y016853D01*D22*
X003412Y016704D01*X003508Y016608D01*X00441Y016605D01*D13*
X004648Y016456D01*D22*X00333Y016853D02*X003276Y016907D01*
X003Y016949D01*X002656Y01694D01*X002372Y017327D01*X001833Y017306D01*
X001685Y017139D01*X001685Y01689D01*X001392Y01686D01*X00135Y016949D01*
X00118Y01692D01*X00043Y016025D01*D46*Y014543D01*X001965Y014544D01*D39*
X0035Y014544D01*X004069Y014551D01*D13*X004041Y014945D01*
X004039Y014946D01*Y015394D01*X00403Y015366D01*X00348D01*
X003483Y015748D01*X00349Y015796D01*D21*X01811Y016732D02*
X01752Y016654D01*X017505Y016035D01*D13*X004134Y018346D02*
X00426Y018296D01*D25*X004263Y018051D01*X004271Y017141D01*
X005548Y016051D01*D29*X006453Y016205D01*D13*X004263Y018051D02*
X004621D01*X004488Y015831D02*X004798Y015771D01*D30*X004828Y015761D01*
X005548Y015551D01*X005738Y015641D01*X00606Y015645D01*X00621Y015656D01*
D13*X005557Y015591D01*Y015197D01*D30*X004798Y015771D02*
X004452Y016108D01*D24*X004128Y016384D01*X003484D01*X003116Y016307D01*
D28*X014006Y018705D02*X01384Y018396D01*X013887Y018056D01*X01404D01*
X01431Y017636D01*X014093Y017349D01*D25*X016614Y014921D02*X015906D01*
D13*X015512Y015315D01*X01451Y015326D01*X013937Y015315D01*
X01378Y015157D01*X013189D01*X013106Y01524D01*Y015347D01*
X01294Y015346D01*X012788Y015275D01*D25*X016614Y015433D02*X01689D01*D13*
X016979Y015354D01*Y015004D01*X017047Y014921D01*D25*X017362D01*
X017717D01*X017874Y014764D01*D13*X017913Y014724D01*X017874Y014764D02*
X017953Y014843D01*D25*Y015354D01*X017362Y015433D02*Y015709D01*D13*
X01748Y015827D01*X01815D01*X01873Y016416D01*Y016746D01*
X01894Y016896D01*X02152D01*X021772Y016929D01*X000984Y017765D02*
X000591Y017913D01*X000984Y017253D02*X000591Y017126D01*X01633Y018456D02*
X01641Y018816D01*X022924D01*X023378Y018703D01*X023772D01*D19*
X02307Y014666D02*X02277Y01592D01*D13*X0224Y018426D02*X02234Y018696D01*
X01707D01*X01695Y018586D01*D10*X0137Y014816D02*X013676Y014808D01*
X01461Y014366D01*X01552Y014696D01*X013676Y014808D02*X01464Y014486D01*
X015501Y014956D01*X014189Y014304D01*X01227Y014305D01*X01116D01*
X011076Y01433D01*X01075Y014676D01*X00999Y014685D01*Y015135D01*
X00981Y015315D01*Y015321D01*Y016185D01*Y016155D01*Y016185D01*
X00978Y016215D01*Y016425D01*X01083D01*Y016815D01*D15*X010288Y016818D01*
X00956Y016826D01*D10*X00914Y016296D01*X00913Y015406D01*
X00929Y015196D01*X01069Y015186D01*X01122Y014646D01*X01216Y014626D01*
X01256Y015486D01*X01284Y015516D01*X01304Y015816D01*X01289Y016946D01*
X013191Y017217D01*X013161Y017296D01*X01314Y017996D01*X010288Y016818D02*
X01068Y016815D01*X01083Y016822D01*Y017216D01*X0107Y017395D01*
X010659Y017804D01*D13*X010288Y017802D01*D15*X01083Y017216D02*
X010288Y017211D01*D10*X01083Y016822D02*Y016428D01*D15*X00978Y016425D01*
D10*X00981Y016395D01*Y016185D01*X00978Y016425D02*Y015641D01*D15*
X010288Y015637D01*D10*X01083Y016428D02*X010288Y016424D01*
X00981Y015321D02*X009656Y015235D01*X009266Y015175D01*X009146Y015535D01*
X009391Y015766D01*X009109Y015776D01*X008971D01*D22*X005951Y018683D02*
X006071Y018263D01*D13*X01664Y018596D02*Y017916D01*X01665Y017906D01*D10*
X017919Y017939D01*X017914Y017862D01*D13*X017916Y017863D01*
X017914Y017862D01*D10*X01792Y017856D01*X0181Y017886D01*D13*
X01834Y017706D01*D10*X018339Y017619D01*X017914Y017862D02*
X01588Y018246D01*D13*X01561Y018126D01*X01543Y017916D01*
X01552Y017616D01*X01618Y017376D01*X016419Y016919D01*X01663Y016766D01*
X016929Y016769D01*X017799Y017039D01*D10*X017916Y017863D02*
X017899Y018359D01*D13*X018109Y018119D01*X020419Y018179D01*
X020239Y018189D01*X01922Y017986D01*X020419Y018179D02*X02065Y017785D01*
X0212Y017696D01*X02161Y017945D01*X021614Y018307D01*D22*
X02232Y018106D01*X02289Y01811D01*X022892Y018187D01*D13*
X022912Y018167D01*D19*X023367D01*D13*X023372Y018363D01*D19*
X025209Y018369D01*D13*X023713D01*D19*X025209D02*X02515Y018034D01*D22*
X022892Y018187D02*X02288Y018426D01*D13*X02298Y017606D01*
X017899Y018359D02*X016627Y018372D01*D19*X016863Y018096D01*D10*
X01579Y018176D01*X015643Y018136D01*X015524Y017978D01*Y017821D01*
X015591Y017323D01*D19*X015472Y017165D01*X015512Y016772D01*X014685D01*
X014671Y017696D01*D13*X0147Y017726D01*D19*X014671Y017696D02*Y016458D01*
D13*X01474Y016526D01*X01563D01*D19*X014671Y016458D02*Y016456D01*D10*
X016627Y018372D02*X01646Y018246D01*X01624Y018256D01*X01574Y018316D01*
X01599D01*D13*Y018546D01*D10*X01574Y018316D02*Y018786D01*
X015261Y018846D01*X015006Y018705D01*D13*X021479Y017459D02*X020549D01*
X020439Y017569D01*X020349D01*X020059Y017859D01*X019859D01*
X019749Y017749D01*X018809D01*X018469Y017409D01*X018229D01*
X018009Y017639D01*X017529D01*X017499Y017669D01*X016929D01*
X016836Y017431D01*D30*X00639Y015656D02*X006519Y015769D01*
X006919Y016409D01*X007951Y016476D01*X009076Y014705D01*
X009361Y014456D01*X009451Y014366D01*X010706Y014297D01*D13*
X00594Y016675D02*X006235Y016981D01*X006501Y017856D01*X00723Y018476D01*
X010469Y018766D02*X010176Y018396D01*X009528Y018268D01*
X009173Y018071D01*X008615Y018166D01*X007711Y017831D01*
X007621Y017146D01*X007978Y01842D02*X00858Y018536D01*D21*
X00855Y017265D02*X008796Y017019D01*X010288Y017015D01*D13*
X00987Y017019D01*D21*Y017413D01*X010288Y017408D01*X009878Y017419D01*
Y017616D01*X010288Y017605D01*D13*X009436Y015454D02*X009608Y015631D01*
Y016031D01*X009588Y016061D01*X009598Y016511D01*X009718Y016621D01*
X010288D01*X012343Y015697D02*X01227Y015615D01*X012072D01*X01194D01*
X011717Y015838D01*X010288Y015833D01*X010744Y015845D01*Y016041D01*
X010288Y01603D01*X012072Y015615D02*X01227D01*X012072D01*X01217D01*
X012193Y015857D01*X012153Y016077D01*X012171Y016206D01*X01203Y016395D01*
X01122Y017205D01*X01096Y017515D01*X01095Y017825D01*X010731Y018276D01*
X012928Y015005D02*X01311Y015036D01*X01379D01*X013937Y015D01*D15*
X01453Y014976D01*D13*X011452Y017843D02*X011571Y017146D01*
X01234Y016426D01*X012383Y015997D02*X01255Y016346D01*Y016416D01*
X01254Y016546D01*X012351Y016686D01*X011701Y017216D01*X01185Y018026D01*
X012121Y018401D01*X012271Y018491D01*X01241Y018736D01*X01279Y015856D02*
X01266Y016646D01*X012521Y016916D01*X012279Y018032D01*X023358Y017612D02*
X023553Y017744D01*X025127D01*X013566Y016458D02*X013671Y016686D01*
X013449Y016887D01*X013391Y017216D01*D32*X01612Y017886D02*
X016599Y017099D01*X016989D01*X017221Y017416D01*D21*X017639Y017269D01*
D19*X018629D01*D21*X01876Y017286D01*X02002D01*X02014Y017316D01*D13*
X015383Y016217D02*X014576Y016227D01*X01377Y017058D01*X0137Y017188D01*
X013598Y017351D01*X013525Y017613D01*X01337Y017966D01*X01333Y018166D01*
X01287Y018316D01*X01273Y018336D01*X012186Y018271D01*X012Y018006D01*
X012131Y017426D01*X004712Y014681D02*X004855Y014522D01*X00508Y01451D01*
X014191Y018296D02*X015138D01*X015186Y018357D01*D10*X021533Y01665D02*
X02209Y016596D01*D13*X01622Y016535D02*X015627Y016002D01*
X0157Y015456D01*X015969Y015177D01*D27*X016614D01*D13*X0166Y015176D01*
D15*X01627D01*Y015856D01*X016322Y015909D01*X016549D01*D10*
X01498Y015646D02*X014851Y015796D01*D13*X015736Y015747D01*
X015631Y016426D01*X01565Y015686D01*X006541Y014491D02*X006446Y014483D01*
X006351Y014475D01*X00633Y014716D01*D12*X005968Y014705D01*
X004943Y014712D01*X00483Y015146D01*D14*X004328Y015421D01*D13*
X006351Y014475D02*X00558Y01451D01*D29*X002479Y015183D02*
X00202Y015181D01*X001935Y016307D01*X00192Y016425D01*X002672Y01628D01*
X0021Y016346D02*X00219Y015266D01*X00228Y016316D02*X00237Y015236D01*
X00246Y015176D02*Y016256D01*X002672Y01628D02*X00247Y015636D01*
X00249Y015176D01*D32*X00438Y016504D02*X004611Y016342D01*D30*
X00652Y016376D02*X005871Y016211D01*X00545Y016246D01*X00621Y015656D02*
X00639D01*D19*X011161Y014946D02*X011791D01*X011151Y015356D02*
X011811D01*X011821Y015156D02*X011131D01*D21*X00872Y017106D02*X00985D01*
D24*X00855Y017256D02*X00916Y017066D01*D19*X011211Y018406D02*X011766D01*
X011221Y018206D02*X011751Y018211D01*D39*X02301Y017606D02*X0222D01*
X02286Y017516D02*Y016616D01*X02283Y016635D01*X02232Y016616D01*
X02262Y017546D02*Y016766D01*D32*X01391Y017346D02*X01415D01*D22*
X000295Y015945D02*Y016535D01*X000886D01*Y015945D01*X000394D01*
X000886Y016043D02*X000492D01*X000886Y016142D02*X000591D01*
X000886Y01624D02*X000394D01*X000886Y016339D02*X000394D01*
X000886Y016437D02*X000394D01*D32*X0159Y017886D02*X01619Y017766D01*D30*
X003924Y017448D02*X001308Y017452D01*Y016964D01*X00068Y01648D02*
X001276Y01706D01*X001392Y01732D02*X002488Y017328D01*X002452Y017332D02*
X00394Y01732D01*D39*X004058Y01454D02*X004328D01*D20*X022278Y01535D02*
X021828D01*X021161Y015295D01*X020945Y014882D01*D27*X016614Y015177D02*
X016796Y015177D01*D31*X02016Y017316D02*X02034Y017346D01*
X017221Y017416D02*X0174Y017436D01*Y017376D02*X01725D01*D30*
X005378Y015651D02*X006558Y015871D01*X006598Y015931D02*
X005178Y015661D01*
M02*